<svg width="19" height="19" viewBox="0 0 19 19" fill="none" xmlns="http://www.w3.org/2000/svg">
<path d="M9.50195 4.3418C12.3462 4.3418 14.6602 6.65575 14.6602 9.5C14.6602 12.3443 12.3462 14.6582 9.50195 14.6582C6.6577 14.6582 4.34374 12.3443 4.34374 9.5C4.34374 6.65575 6.6577 4.3418 9.50195 4.3418ZM9.50195 13.5449C11.7323 13.5449 13.5469 11.7304 13.5469 9.5C13.5469 7.26962 11.7323 5.45508 9.50195 5.45508C7.27156 5.45508 5.45703 7.26962 5.45703 9.5C5.45703 11.7304 7.27156 13.5449 9.50195 13.5449Z" fill="#333333"/>
<path d="M9.50195 3.02972C9.19454 3.02972 8.94531 2.7805 8.94531 2.47308V0.556641C8.94531 0.249227 9.19454 0 9.50195 0C9.80937 0 10.0586 0.249227 10.0586 0.556641V2.47308C10.0586 2.7805 9.80937 3.02972 9.50195 3.02972Z" fill="#333333"/>
<path d="M0.558168 8.94336H2.47461C2.78202 8.94336 3.03125 9.19259 3.03125 9.5C3.03125 9.80741 2.78202 10.0566 2.47461 10.0566H0.558168C0.250754 10.0566 0.00152707 9.80741 0.00152707 9.5C0.00152707 9.19259 0.250754 8.94336 0.558168 8.94336Z" fill="#333333"/>
<path d="M9.50195 15.9702C9.80937 15.9702 10.0586 16.2194 10.0586 16.5269V18.4433C10.0586 18.7507 9.80937 18.9999 9.50195 18.9999C9.19454 18.9999 8.94531 18.7507 8.94531 18.4433V16.5269C8.94531 16.2194 9.19454 15.9702 9.50195 15.9702Z" fill="#333333"/>
<path d="M15.9703 9.5C15.9703 9.19259 16.2195 8.94336 16.5269 8.94336H18.4434C18.7508 8.94336 19 9.19259 19 9.5C19 9.80741 18.7508 10.0566 18.4434 10.0566H16.5269C16.2195 10.0566 15.9703 9.80741 15.9703 9.5Z" fill="#333333"/>
<path d="M4.52928 5.08805C4.38682 5.08805 4.24435 5.03373 4.1357 4.92499L2.78057 3.56987C2.56318 3.35248 2.56318 3.00006 2.78057 2.78267C2.99792 2.56528 3.35039 2.56528 3.56777 2.78267L4.9229 4.13779C5.14028 4.35518 5.14028 4.70761 4.9229 4.92499C4.81417 5.03373 4.6717 5.08805 4.52928 5.08805Z" fill="#333333"/>
<path d="M4.1357 14.0751C4.35304 13.8578 4.70551 13.8578 4.9229 14.0751C5.14028 14.2925 5.14028 14.6449 4.9229 14.8623L3.56774 16.2174C3.45904 16.3261 3.31658 16.3805 3.17415 16.3805C3.03173 16.3805 2.88923 16.3261 2.78057 16.2174C2.56318 16 2.56318 15.6476 2.78057 15.4302L4.1357 14.0751Z" fill="#333333"/>
<path d="M14.8646 14.0751L16.2198 15.4303C16.4372 15.6477 16.4372 16.0001 16.2198 16.2175C16.1111 16.3262 15.9686 16.3805 15.8262 16.3805C15.6838 16.3805 15.5413 16.3262 15.4326 16.2175L14.0775 14.8624C13.8601 14.645 13.8601 14.2925 14.0775 14.0751C14.2948 13.8578 14.6473 13.8578 14.8646 14.0751Z" fill="#333333"/>
<path d="M14.8646 4.92499C14.7559 5.03369 14.6135 5.08805 14.471 5.08805C14.3286 5.08805 14.1861 5.03373 14.0774 4.92499C13.8601 4.70761 13.8601 4.35518 14.0774 4.13779L15.4326 2.78267C15.6499 2.56528 16.0024 2.56528 16.2198 2.78267C16.4372 3.00006 16.4372 3.35248 16.2198 3.56987L14.8646 4.92499Z" fill="#333333"/>
<path d="M7.01623 3.52508C6.94635 3.55409 6.87403 3.56783 6.80281 3.56783C6.58465 3.56783 6.37754 3.43872 6.28859 3.22464L5.55316 1.45496C5.43518 1.17108 5.56967 0.845294 5.85356 0.727324C6.13741 0.60939 6.46319 0.7438 6.5812 1.02772L7.31663 2.7974C7.43457 3.08132 7.30008 3.4071 7.01623 3.52508Z" fill="#333333"/>
<path d="M1.02633 12.4183L2.796 11.6829C3.07993 11.5649 3.40567 11.6994 3.52364 11.9833C3.64161 12.2672 3.50713 12.593 3.22324 12.7109L1.45357 13.4464C1.38369 13.4754 1.31137 13.4891 1.24015 13.4891C1.02199 13.4891 0.814878 13.36 0.725927 13.1459C0.607956 12.8621 0.74244 12.5363 1.02633 12.4183Z" fill="#333333"/>
<path d="M11.9824 15.4749C12.2664 15.3569 12.5921 15.4914 12.7101 15.7753L13.4455 17.545C13.5635 17.8288 13.429 18.1546 13.1451 18.2726C13.0752 18.3016 13.0029 18.3153 12.9317 18.3153C12.7135 18.3153 12.5064 18.1862 12.4175 17.9722L11.682 16.2025C11.5641 15.9186 11.6986 15.5929 11.9824 15.4749Z" fill="#333333"/>
<path d="M17.9732 6.58201L16.2036 7.31744C16.1337 7.34646 16.0614 7.36019 15.9902 7.36019C15.772 7.36019 15.5649 7.23109 15.4759 7.017C15.358 6.73311 15.4924 6.40733 15.7763 6.28936L17.546 5.55396C17.8299 5.43607 18.1557 5.57048 18.2736 5.85436C18.3916 6.13825 18.2571 6.46403 17.9732 6.58201Z" fill="#333333"/>
<path d="M3.52024 7.03079C3.43158 7.24547 3.22414 7.37517 3.00549 7.37517C2.93473 7.37517 2.86277 7.36158 2.7933 7.3329L1.02192 6.60158C0.737776 6.48428 0.602476 6.15883 0.719778 5.87465C0.837118 5.59046 1.16264 5.45524 1.44671 5.57254L3.21809 6.30386C3.50228 6.4212 3.63754 6.74664 3.52024 7.03079Z" fill="#333333"/>
<path d="M6.30366 15.7828C6.42096 15.4987 6.74648 15.3635 7.03059 15.4807C7.31478 15.598 7.45004 15.9235 7.33274 16.2077L6.60142 17.9791C6.51277 18.1938 6.30533 18.3235 6.08668 18.3235C6.01591 18.3235 5.94396 18.3099 5.87449 18.2812C5.5903 18.1639 5.45504 17.8384 5.57234 17.5543L6.30366 15.7828Z" fill="#333333"/>
<path d="M15.4815 11.9689C15.5988 11.6848 15.9241 11.5494 16.2084 11.6668L17.9798 12.3981C18.264 12.5154 18.3993 12.8409 18.282 13.1251C18.1933 13.3397 17.9859 13.4694 17.7672 13.4694C17.6965 13.4694 17.6245 13.4558 17.555 13.4272L15.7836 12.6958C15.4994 12.5785 15.3642 12.2531 15.4815 11.9689Z" fill="#333333"/>
<path d="M12.6952 3.21738C12.6065 3.43206 12.3991 3.56175 12.1804 3.56175C12.1097 3.56175 12.0377 3.54817 11.9682 3.51949C11.6841 3.40218 11.5488 3.07673 11.6661 2.79255L12.3974 1.02113C12.5147 0.736948 12.8403 0.601722 13.1243 0.719024C13.4085 0.836327 13.5438 1.16181 13.4265 1.44596L12.6952 3.21738Z" fill="#333333"/>
<circle cx="9.17215" cy="9.17264" r="4.58621" fill="#333333"/>
</svg>
