<svg width="186" height="54" viewBox="0 0 186 54" fill="none" xmlns="http://www.w3.org/2000/svg">
<g filter="url(#filter0_d)">
<path d="M50.3177 21.9788L44.5177 18.5746L39.7412 23.0001L44.1765 27.4256L50.3177 23.681C50.6589 23.3405 51 23.0001 51 22.6597C51 22.3193 50.6589 21.9788 50.3177 21.9788Z" fill="white"/>
<path d="M43.494 17.8936L37.0117 14.1489L23.0234 7L39.0587 22.3191L43.494 17.8936Z" fill="white"/>
<path d="M23.0234 39L37.0117 31.5106L43.1528 28.1063L39.0587 24.0212L23.0234 39Z" fill="white"/>
<path d="M22 7.68079V38.6595L38.0353 22.9999L22 7.68079Z" fill="white"/>
<rect x="4.5" y="0.5" width="177" height="45" rx="3.5" stroke="white"/>
<path d="M67.056 18L71.13 8.2H72.432L76.45 18H75.274L74.042 14.92H69.422L68.176 18H67.056ZM69.8 13.996H73.664L71.746 9.208L69.8 13.996ZM78.3248 18L75.2868 10.986H76.4348L78.8288 16.656L81.2228 10.986H82.3288L79.3048 18H78.3248ZM85.4885 18.126C84.7232 18.126 84.0979 17.93 83.6125 17.538C83.1365 17.146 82.8985 16.6373 82.8985 16.012C82.8985 15.3587 83.1505 14.8407 83.6545 14.458C84.1585 14.066 84.8399 13.87 85.6985 13.87C86.0719 13.87 86.4312 13.912 86.7765 13.996C87.1312 14.08 87.4579 14.1967 87.7565 14.346V13.422C87.7565 12.862 87.5979 12.442 87.2805 12.162C86.9632 11.8727 86.5012 11.728 85.8945 11.728C85.5492 11.728 85.1992 11.7793 84.8445 11.882C84.4992 11.9753 84.1165 12.1293 83.6965 12.344L83.3045 11.546C83.8085 11.3033 84.2752 11.126 84.7045 11.014C85.1339 10.902 85.5632 10.846 85.9925 10.846C86.8792 10.846 87.5605 11.056 88.0365 11.476C88.5219 11.896 88.7645 12.498 88.7645 13.282V18H87.7565V17.314C87.4392 17.5847 87.0892 17.79 86.7065 17.93C86.3332 18.0607 85.9272 18.126 85.4885 18.126ZM83.8925 15.984C83.8925 16.376 84.0559 16.698 84.3825 16.95C84.7185 17.1927 85.1479 17.314 85.6705 17.314C86.0905 17.314 86.4732 17.2487 86.8185 17.118C87.1639 16.9873 87.4765 16.782 87.7565 16.502V15.186C87.4672 14.99 87.1545 14.85 86.8185 14.766C86.4919 14.6727 86.1279 14.626 85.7265 14.626C85.1665 14.626 84.7185 14.752 84.3825 15.004C84.0559 15.2467 83.8925 15.5733 83.8925 15.984ZM91.0133 9.642C90.8266 9.642 90.6633 9.572 90.5233 9.432C90.3833 9.292 90.3133 9.12867 90.3133 8.942C90.3133 8.746 90.3833 8.58267 90.5233 8.452C90.6633 8.312 90.8266 8.242 91.0133 8.242C91.2093 8.242 91.3726 8.312 91.5033 8.452C91.6433 8.58267 91.7133 8.746 91.7133 8.942C91.7133 9.12867 91.6433 9.292 91.5033 9.432C91.3726 9.572 91.2093 9.642 91.0133 9.642ZM91.5313 10.986V18H90.4953V10.986H91.5313ZM94.334 7.962V18H93.298V8.2L94.334 7.962ZM98.3128 18.126C97.5474 18.126 96.9221 17.93 96.4368 17.538C95.9608 17.146 95.7228 16.6373 95.7228 16.012C95.7228 15.3587 95.9748 14.8407 96.4788 14.458C96.9828 14.066 97.6641 13.87 98.5228 13.87C98.8961 13.87 99.2554 13.912 99.6008 13.996C99.9554 14.08 100.282 14.1967 100.581 14.346V13.422C100.581 12.862 100.422 12.442 100.105 12.162C99.7874 11.8727 99.3254 11.728 98.7188 11.728C98.3734 11.728 98.0234 11.7793 97.6688 11.882C97.3234 11.9753 96.9408 12.1293 96.5208 12.344L96.1288 11.546C96.6328 11.3033 97.0994 11.126 97.5288 11.014C97.9581 10.902 98.3874 10.846 98.8167 10.846C99.7034 10.846 100.385 11.056 100.861 11.476C101.346 11.896 101.589 12.498 101.589 13.282V18H100.581V17.314C100.263 17.5847 99.9134 17.79 99.5308 17.93C99.1574 18.0607 98.7514 18.126 98.3128 18.126ZM96.7168 15.984C96.7168 16.376 96.8801 16.698 97.2068 16.95C97.5428 17.1927 97.9721 17.314 98.4948 17.314C98.9148 17.314 99.2974 17.2487 99.6428 17.118C99.9881 16.9873 100.301 16.782 100.581 16.502V15.186C100.291 14.99 99.9788 14.85 99.6428 14.766C99.3161 14.6727 98.9521 14.626 98.5508 14.626C97.9908 14.626 97.5428 14.752 97.2068 15.004C96.8801 15.2467 96.7168 15.5733 96.7168 15.984ZM110.138 14.486C110.138 14.99 110.044 15.466 109.858 15.914C109.68 16.362 109.433 16.7493 109.116 17.076C108.798 17.3933 108.42 17.6453 107.982 17.832C107.552 18.0187 107.09 18.112 106.596 18.112C106.185 18.112 105.784 18.042 105.392 17.902C105.009 17.762 104.659 17.5613 104.342 17.3V18H103.32V8.2L104.356 7.962V11.728C104.645 11.448 104.981 11.238 105.364 11.098C105.756 10.9487 106.171 10.874 106.61 10.874C107.104 10.874 107.566 10.9673 107.996 11.154C108.425 11.3407 108.798 11.5973 109.116 11.924C109.433 12.2413 109.68 12.624 109.858 13.072C110.044 13.5107 110.138 13.982 110.138 14.486ZM106.512 11.784C106.073 11.784 105.662 11.8727 105.28 12.05C104.906 12.218 104.598 12.456 104.356 12.764V16.236C104.598 16.5347 104.911 16.7727 105.294 16.95C105.676 17.118 106.082 17.202 106.512 17.202C107.249 17.202 107.865 16.9453 108.36 16.432C108.864 15.9093 109.116 15.2653 109.116 14.5C109.116 14.1173 109.046 13.7627 108.906 13.436C108.775 13.1 108.593 12.8107 108.36 12.568C108.126 12.3253 107.851 12.134 107.534 11.994C107.216 11.854 106.876 11.784 106.512 11.784ZM112.613 7.962V18H111.577V8.2L112.613 7.962ZM120.288 17.258C119.896 17.5473 119.485 17.7667 119.056 17.916C118.636 18.056 118.174 18.126 117.67 18.126C117.166 18.126 116.69 18.0327 116.242 17.846C115.803 17.6593 115.421 17.4027 115.094 17.076C114.777 16.7493 114.525 16.3667 114.338 15.928C114.151 15.48 114.058 14.9993 114.058 14.486C114.058 13.982 114.147 13.5107 114.324 13.072C114.511 12.6333 114.758 12.2507 115.066 11.924C115.374 11.5973 115.738 11.3407 116.158 11.154C116.587 10.9673 117.04 10.874 117.516 10.874C117.983 10.874 118.417 10.9673 118.818 11.154C119.229 11.3407 119.579 11.5973 119.868 11.924C120.167 12.2507 120.4 12.6333 120.568 13.072C120.745 13.5107 120.834 13.982 120.834 14.486V14.808H115.08C115.155 15.4987 115.439 16.0727 115.934 16.53C116.429 16.9873 117.021 17.216 117.712 17.216C118.076 17.216 118.431 17.16 118.776 17.048C119.121 16.936 119.411 16.7773 119.644 16.572L120.288 17.258ZM117.488 11.784C116.881 11.784 116.354 11.9893 115.906 12.4C115.467 12.8107 115.201 13.338 115.108 13.982H119.798C119.705 13.366 119.439 12.848 119 12.428C118.571 11.9987 118.067 11.784 117.488 11.784ZM124.968 14.486C124.968 13.982 125.062 13.506 125.248 13.058C125.435 12.61 125.687 12.2227 126.004 11.896C126.331 11.5693 126.714 11.3127 127.152 11.126C127.591 10.9393 128.058 10.846 128.552 10.846C129.047 10.846 129.509 10.9393 129.938 11.126C130.377 11.3127 130.755 11.5693 131.072 11.896C131.399 12.2227 131.656 12.61 131.842 13.058C132.029 13.506 132.122 13.982 132.122 14.486C132.122 14.9993 132.029 15.48 131.842 15.928C131.656 16.376 131.399 16.7633 131.072 17.09C130.755 17.4167 130.377 17.6733 129.938 17.86C129.509 18.0467 129.047 18.14 128.552 18.14C128.058 18.14 127.591 18.0467 127.152 17.86C126.714 17.6733 126.331 17.4167 126.004 17.09C125.687 16.7633 125.435 16.376 125.248 15.928C125.062 15.48 124.968 14.9993 124.968 14.486ZM128.552 17.216C128.907 17.216 129.238 17.146 129.546 17.006C129.864 16.866 130.134 16.6747 130.358 16.432C130.592 16.18 130.774 15.8907 130.904 15.564C131.035 15.228 131.1 14.8687 131.1 14.486C131.1 14.1033 131.035 13.7487 130.904 13.422C130.774 13.086 130.592 12.7967 130.358 12.554C130.134 12.3113 129.864 12.12 129.546 11.98C129.238 11.84 128.907 11.77 128.552 11.77C128.198 11.77 127.862 11.84 127.544 11.98C127.236 12.12 126.966 12.3113 126.732 12.554C126.508 12.7967 126.326 13.086 126.186 13.422C126.056 13.7487 125.99 14.1033 125.99 14.486C125.99 14.8687 126.056 15.228 126.186 15.564C126.317 15.8907 126.494 16.18 126.718 16.432C126.952 16.6747 127.227 16.866 127.544 17.006C127.862 17.146 128.198 17.216 128.552 17.216ZM133.562 18V10.986H134.598V11.812C134.868 11.4947 135.19 11.2567 135.564 11.098C135.937 10.93 136.352 10.846 136.81 10.846C137.603 10.846 138.252 11.098 138.756 11.602C139.26 12.106 139.512 12.7593 139.512 13.562V18H138.49V13.772C138.49 13.156 138.312 12.666 137.958 12.302C137.603 11.938 137.127 11.756 136.53 11.756C136.11 11.756 135.732 11.8493 135.396 12.036C135.069 12.2227 134.803 12.4887 134.598 12.834V18H133.562ZM145.121 16.432V11.868H143.609V10.986H145.121V9.208L146.143 8.942V10.986H148.257V11.868H146.143V16.166C146.143 16.5393 146.227 16.81 146.395 16.978C146.563 17.1367 146.838 17.216 147.221 17.216C147.417 17.216 147.59 17.202 147.739 17.174C147.898 17.146 148.066 17.0993 148.243 17.034V17.944C148.066 18.0093 147.865 18.056 147.641 18.084C147.426 18.112 147.216 18.126 147.011 18.126C146.404 18.126 145.938 17.9813 145.611 17.692C145.284 17.4027 145.121 16.9827 145.121 16.432ZM149.366 18V8.2L150.402 7.962V11.812C150.673 11.4947 150.995 11.2567 151.368 11.098C151.742 10.93 152.157 10.846 152.614 10.846C153.408 10.846 154.056 11.098 154.56 11.602C155.064 12.106 155.316 12.7593 155.316 13.562V18H154.294V13.772C154.294 13.156 154.117 12.666 153.762 12.302C153.408 11.938 152.932 11.756 152.334 11.756C151.914 11.756 151.536 11.8493 151.2 12.036C150.874 12.2227 150.608 12.4887 150.402 12.834V18H149.366ZM162.958 17.258C162.566 17.5473 162.155 17.7667 161.726 17.916C161.306 18.056 160.844 18.126 160.34 18.126C159.836 18.126 159.36 18.0327 158.912 17.846C158.473 17.6593 158.091 17.4027 157.764 17.076C157.447 16.7493 157.195 16.3667 157.008 15.928C156.821 15.48 156.728 14.9993 156.728 14.486C156.728 13.982 156.817 13.5107 156.994 13.072C157.181 12.6333 157.428 12.2507 157.736 11.924C158.044 11.5973 158.408 11.3407 158.828 11.154C159.257 10.9673 159.71 10.874 160.186 10.874C160.653 10.874 161.087 10.9673 161.488 11.154C161.899 11.3407 162.249 11.5973 162.538 11.924C162.837 12.2507 163.07 12.6333 163.238 13.072C163.415 13.5107 163.504 13.982 163.504 14.486V14.808H157.75C157.825 15.4987 158.109 16.0727 158.604 16.53C159.099 16.9873 159.691 17.216 160.382 17.216C160.746 17.216 161.101 17.16 161.446 17.048C161.791 16.936 162.081 16.7773 162.314 16.572L162.958 17.258ZM160.158 11.784C159.551 11.784 159.024 11.9893 158.576 12.4C158.137 12.8107 157.871 13.338 157.778 13.982H162.468C162.375 13.366 162.109 12.848 161.67 12.428C161.241 11.9987 160.737 11.784 160.158 11.784Z" fill="white"/>
<path d="M86.612 32.114C86.612 32.8327 86.486 33.5047 86.234 34.13C85.9913 34.746 85.6507 35.278 85.212 35.726C84.7827 36.1647 84.2647 36.5147 83.658 36.776C83.0513 37.028 82.398 37.154 81.698 37.154C80.97 37.154 80.2887 37.0233 79.654 36.762C79.0193 36.5007 78.4687 36.146 78.002 35.698C77.5447 35.2407 77.1807 34.704 76.91 34.088C76.6393 33.472 76.504 32.8093 76.504 32.1C76.504 31.3907 76.6347 30.728 76.896 30.112C77.1667 29.496 77.5307 28.964 77.988 28.516C78.4547 28.0587 79.0053 27.6993 79.64 27.438C80.2747 27.1767 80.9513 27.046 81.67 27.046C82.482 27.046 83.2473 27.2093 83.966 27.536C84.6847 27.8627 85.2773 28.3107 85.744 28.88L84.33 30.182C83.9847 29.7713 83.5833 29.4587 83.126 29.244C82.678 29.02 82.1927 28.908 81.67 28.908C81.2313 28.908 80.8207 28.992 80.438 29.16C80.0647 29.3187 79.738 29.5427 79.458 29.832C79.1873 30.112 78.9727 30.448 78.814 30.84C78.6647 31.2227 78.59 31.6427 78.59 32.1C78.59 32.5573 78.6693 32.982 78.828 33.374C78.9867 33.766 79.206 34.1067 79.486 34.396C79.766 34.676 80.0973 34.9 80.48 35.068C80.872 35.2267 81.2873 35.306 81.726 35.306C82.4167 35.306 83.0093 35.1147 83.504 34.732C84.008 34.3493 84.3207 33.8593 84.442 33.262H81.544V31.498H86.612V32.114ZM87.5352 33.36C87.5352 32.828 87.6332 32.3333 87.8292 31.876C88.0346 31.4093 88.3099 31.008 88.6552 30.672C89.0099 30.3267 89.4252 30.056 89.9012 29.86C90.3772 29.664 90.8859 29.566 91.4272 29.566C91.9686 29.566 92.4772 29.664 92.9532 29.86C93.4292 30.056 93.8399 30.3267 94.1852 30.672C94.5399 31.008 94.8152 31.4093 95.0112 31.876C95.2166 32.3333 95.3192 32.828 95.3192 33.36C95.3192 33.892 95.2166 34.3913 95.0112 34.858C94.8152 35.3153 94.5399 35.712 94.1852 36.048C93.8399 36.384 93.4292 36.65 92.9532 36.846C92.4772 37.042 91.9686 37.14 91.4272 37.14C90.8859 37.14 90.3772 37.042 89.9012 36.846C89.4252 36.65 89.0099 36.384 88.6552 36.048C88.3099 35.712 88.0346 35.3153 87.8292 34.858C87.6332 34.3913 87.5352 33.892 87.5352 33.36ZM91.4272 35.474C91.9872 35.474 92.4632 35.2687 92.8552 34.858C93.2472 34.4473 93.4432 33.948 93.4432 33.36C93.4432 32.7627 93.2472 32.2587 92.8552 31.848C92.4632 31.4373 91.9872 31.232 91.4272 31.232C90.8672 31.232 90.3912 31.4373 89.9992 31.848C89.6072 32.2587 89.4112 32.7627 89.4112 33.36C89.4112 33.948 89.6072 34.4473 89.9992 34.858C90.3912 35.2687 90.8672 35.474 91.4272 35.474ZM96.2169 33.36C96.2169 32.828 96.3149 32.3333 96.5109 31.876C96.7162 31.4093 96.9915 31.008 97.3369 30.672C97.6915 30.3267 98.1069 30.056 98.5829 29.86C99.0589 29.664 99.5675 29.566 100.109 29.566C100.65 29.566 101.159 29.664 101.635 29.86C102.111 30.056 102.522 30.3267 102.867 30.672C103.222 31.008 103.497 31.4093 103.693 31.876C103.898 32.3333 104.001 32.828 104.001 33.36C104.001 33.892 103.898 34.3913 103.693 34.858C103.497 35.3153 103.222 35.712 102.867 36.048C102.522 36.384 102.111 36.65 101.635 36.846C101.159 37.042 100.65 37.14 100.109 37.14C99.5675 37.14 99.0589 37.042 98.5829 36.846C98.1069 36.65 97.6915 36.384 97.3369 36.048C96.9915 35.712 96.7162 35.3153 96.5109 34.858C96.3149 34.3913 96.2169 33.892 96.2169 33.36ZM100.109 35.474C100.669 35.474 101.145 35.2687 101.537 34.858C101.929 34.4473 102.125 33.948 102.125 33.36C102.125 32.7627 101.929 32.2587 101.537 31.848C101.145 31.4373 100.669 31.232 100.109 31.232C99.5489 31.232 99.0729 31.4373 98.6809 31.848C98.2889 32.2587 98.0929 32.7627 98.0929 33.36C98.0929 33.948 98.2889 34.4473 98.6809 34.858C99.0729 35.2687 99.5489 35.474 100.109 35.474ZM108.595 37.042C108.081 37.042 107.596 36.944 107.139 36.748C106.691 36.552 106.299 36.286 105.963 35.95C105.636 35.614 105.375 35.222 105.179 34.774C104.992 34.3167 104.899 33.8267 104.899 33.304C104.899 32.7907 104.997 32.31 105.193 31.862C105.389 31.4047 105.655 31.008 105.991 30.672C106.327 30.336 106.723 30.0747 107.181 29.888C107.638 29.692 108.128 29.594 108.651 29.594C109.015 29.594 109.36 29.6453 109.687 29.748C110.023 29.8507 110.335 29.9953 110.625 30.182V29.706H112.515V37C112.515 37.9613 112.202 38.7033 111.577 39.226C110.961 39.7487 110.069 40.01 108.903 40.01C108.343 40.01 107.801 39.954 107.279 39.842C106.765 39.73 106.294 39.5667 105.865 39.352L106.537 37.854C106.938 38.05 107.33 38.1947 107.713 38.288C108.095 38.3907 108.478 38.442 108.861 38.442C109.43 38.442 109.859 38.316 110.149 38.064C110.447 37.8213 110.597 37.462 110.597 36.986V36.384C110.307 36.5987 109.99 36.762 109.645 36.874C109.309 36.986 108.959 37.042 108.595 37.042ZM106.789 33.304C106.789 33.892 106.989 34.3913 107.391 34.802C107.801 35.2127 108.301 35.418 108.889 35.418C109.234 35.418 109.551 35.362 109.841 35.25C110.13 35.1287 110.382 34.9653 110.597 34.76V31.89C110.391 31.6847 110.139 31.526 109.841 31.414C109.542 31.2927 109.229 31.232 108.903 31.232C108.315 31.232 107.815 31.4327 107.405 31.834C106.994 32.2353 106.789 32.7253 106.789 33.304ZM115.944 26.78V37H114.026V27.2L115.944 26.78ZM123.982 36.09C123.534 36.454 123.072 36.72 122.596 36.888C122.129 37.056 121.606 37.14 121.028 37.14C120.477 37.14 119.959 37.042 119.474 36.846C118.998 36.65 118.582 36.384 118.228 36.048C117.882 35.712 117.607 35.3153 117.402 34.858C117.206 34.3913 117.108 33.892 117.108 33.36C117.108 32.8373 117.201 32.3473 117.388 31.89C117.584 31.4233 117.85 31.022 118.186 30.686C118.522 30.3407 118.918 30.07 119.376 29.874C119.842 29.678 120.337 29.58 120.86 29.58C121.373 29.58 121.849 29.6827 122.288 29.888C122.736 30.084 123.118 30.3547 123.436 30.7C123.762 31.0453 124.014 31.4607 124.192 31.946C124.378 32.422 124.472 32.94 124.472 33.5V34.004H119.04C119.17 34.4613 119.422 34.83 119.796 35.11C120.169 35.39 120.608 35.53 121.112 35.53C121.429 35.53 121.728 35.4787 122.008 35.376C122.288 35.2733 122.526 35.1287 122.722 34.942L123.982 36.09ZM120.818 31.162C120.379 31.162 120.001 31.2973 119.684 31.568C119.366 31.8293 119.147 32.184 119.026 32.632H122.596C122.474 32.2027 122.25 31.8527 121.924 31.582C121.606 31.302 121.238 31.162 120.818 31.162ZM128.589 37V27.2H133.503C133.979 27.2 134.418 27.2793 134.819 27.438C135.23 27.5873 135.58 27.7973 135.869 28.068C136.158 28.3387 136.382 28.6653 136.541 29.048C136.709 29.4213 136.793 29.832 136.793 30.28C136.793 30.7187 136.709 31.1247 136.541 31.498C136.382 31.862 136.154 32.1793 135.855 32.45C135.566 32.7207 135.22 32.9307 134.819 33.08C134.418 33.2293 133.979 33.304 133.503 33.304H130.619V37H128.589ZM133.279 28.95H130.619V31.624H133.279C133.718 31.624 134.068 31.5027 134.329 31.26C134.6 31.0173 134.735 30.6953 134.735 30.294C134.735 29.8927 134.6 29.5707 134.329 29.328C134.068 29.076 133.718 28.95 133.279 28.95ZM139.91 26.78V37H137.992V27.2L139.91 26.78ZM143.72 37.126C142.936 37.126 142.297 36.9207 141.802 36.51C141.308 36.09 141.06 35.5487 141.06 34.886C141.06 34.1953 141.326 33.654 141.858 33.262C142.39 32.87 143.123 32.674 144.056 32.674C144.355 32.674 144.654 32.6973 144.952 32.744C145.251 32.7907 145.545 32.8607 145.834 32.954V32.436C145.834 32.016 145.704 31.6987 145.442 31.484C145.181 31.2693 144.798 31.162 144.294 31.162C143.986 31.162 143.65 31.2133 143.286 31.316C142.932 31.4093 142.526 31.5587 142.068 31.764L141.368 30.35C141.938 30.0887 142.488 29.8927 143.02 29.762C143.562 29.6313 144.094 29.566 144.616 29.566C145.596 29.566 146.357 29.804 146.898 30.28C147.449 30.7467 147.724 31.4093 147.724 32.268V37H145.834V36.496C145.526 36.7107 145.2 36.8693 144.854 36.972C144.518 37.0747 144.14 37.126 143.72 37.126ZM142.894 34.844C142.894 35.124 143.016 35.348 143.258 35.516C143.501 35.6747 143.823 35.754 144.224 35.754C144.542 35.754 144.831 35.7167 145.092 35.642C145.363 35.558 145.61 35.4413 145.834 35.292V34.2C145.601 34.1067 145.354 34.0413 145.092 34.004C144.84 33.9573 144.574 33.934 144.294 33.934C143.856 33.934 143.51 34.018 143.258 34.186C143.016 34.3447 142.894 34.564 142.894 34.844ZM151.013 37.336L151.125 37.07L148.283 29.706H150.397L152.203 34.676L154.275 29.706H156.347L152.987 37.574C152.614 38.4513 152.18 39.0767 151.685 39.45C151.191 39.8233 150.547 40.01 149.753 40.01C149.585 40.01 149.422 40.0007 149.263 39.982C149.114 39.9727 148.993 39.954 148.899 39.926V38.274C148.993 38.2927 149.091 38.3067 149.193 38.316C149.296 38.3253 149.422 38.33 149.571 38.33C149.917 38.33 150.206 38.246 150.439 38.078C150.682 37.91 150.873 37.6627 151.013 37.336Z" fill="white"/>
</g>
<defs>
<filter id="filter0_d" x="0" y="0" width="186" height="54" filterUnits="userSpaceOnUse" color-interpolation-filters="sRGB">
<feFlood flood-opacity="0" result="BackgroundImageFix"/>
<feColorMatrix in="SourceAlpha" type="matrix" values="0 0 0 0 0 0 0 0 0 0 0 0 0 0 0 0 0 0 127 0"/>
<feOffset dy="4"/>
<feGaussianBlur stdDeviation="2"/>
<feColorMatrix type="matrix" values="0 0 0 0 0 0 0 0 0 0 0 0 0 0 0 0 0 0 0.25 0"/>
<feBlend mode="normal" in2="BackgroundImageFix" result="effect1_dropShadow"/>
<feBlend mode="normal" in="SourceGraphic" in2="effect1_dropShadow" result="shape"/>
</filter>
</defs>
</svg>
