<svg width="178" height="46" viewBox="0 0 178 46" fill="none" xmlns="http://www.w3.org/2000/svg">
<g clip-path="url(#clip0)">
<path d="M21.5212 18.279C18.8592 23.2674 20.3803 30.5581 23.4226 35.1628C24.9437 37.4651 26.4648 39.3837 28.7465 39.3837C29.8874 39.3837 30.6479 39 31.0282 38.6162C31.7888 38.2325 32.5493 37.8488 34.0705 37.8488C35.2113 37.8488 35.9719 38.2325 36.7324 38.6162C37.493 39 38.2536 39.3837 39.3944 39.3837C41.6761 39.3837 43.1972 37.0814 44.7184 35.1628C45.8592 32.8604 46.6198 30.9418 47.0001 30.1744V29.7907C46.6198 29.7907 42.817 27.8721 42.817 23.2674C42.817 19.4302 45.4789 17.5116 46.2395 17.1279C46.2395 17.1279 46.2395 17.1279 46.2395 16.7442C43.9578 14.4418 40.9155 14.0581 39.7747 14.0581H39.3944C37.8733 14.0581 36.7324 14.4418 35.5916 15.2093C34.831 15.2093 34.0705 15.2093 33.6902 15.2093C33.3099 15.2093 32.5493 14.8255 31.7888 14.8255C30.6479 14.4418 29.5071 14.0581 28.3663 14.0581C25.324 14.0581 22.662 15.593 21.5212 18.279Z" fill="white"/>
<path d="M39.7747 6C38.2535 6 35.9718 7.15116 34.831 8.68605C33.6901 9.83721 32.9296 11.7558 33.3099 13.6744C33.3099 13.6744 33.3099 14.0581 33.6901 14.0581H34.0704C35.5916 14.0581 37.493 13.2907 38.6338 11.7558C39.7747 10.2209 40.1549 7.9186 39.7747 6C40.1549 6 40.1549 6 39.7747 6Z" fill="white"/>
</g>
<rect x="0.5" y="0.5" width="177" height="45" rx="3.5" stroke="white"/>
<path d="M63.056 18L67.13 8.2H68.432L72.45 18H71.274L70.042 14.92H65.422L64.176 18H63.056ZM65.8 13.996H69.664L67.746 9.208L65.8 13.996ZM74.3248 18L71.2868 10.986H72.4348L74.8288 16.656L77.2228 10.986H78.3288L75.3048 18H74.3248ZM81.4885 18.126C80.7232 18.126 80.0979 17.93 79.6125 17.538C79.1365 17.146 78.8985 16.6373 78.8985 16.012C78.8985 15.3587 79.1505 14.8407 79.6545 14.458C80.1585 14.066 80.8399 13.87 81.6985 13.87C82.0719 13.87 82.4312 13.912 82.7765 13.996C83.1312 14.08 83.4579 14.1967 83.7565 14.346V13.422C83.7565 12.862 83.5979 12.442 83.2805 12.162C82.9632 11.8727 82.5012 11.728 81.8945 11.728C81.5492 11.728 81.1992 11.7793 80.8445 11.882C80.4992 11.9753 80.1165 12.1293 79.6965 12.344L79.3045 11.546C79.8085 11.3033 80.2752 11.126 80.7045 11.014C81.1339 10.902 81.5632 10.846 81.9925 10.846C82.8792 10.846 83.5605 11.056 84.0365 11.476C84.5219 11.896 84.7645 12.498 84.7645 13.282V18H83.7565V17.314C83.4392 17.5847 83.0892 17.79 82.7065 17.93C82.3332 18.0607 81.9272 18.126 81.4885 18.126ZM79.8925 15.984C79.8925 16.376 80.0559 16.698 80.3825 16.95C80.7185 17.1927 81.1479 17.314 81.6705 17.314C82.0905 17.314 82.4732 17.2487 82.8185 17.118C83.1639 16.9873 83.4765 16.782 83.7565 16.502V15.186C83.4672 14.99 83.1545 14.85 82.8185 14.766C82.4919 14.6727 82.1279 14.626 81.7265 14.626C81.1665 14.626 80.7185 14.752 80.3825 15.004C80.0559 15.2467 79.8925 15.5733 79.8925 15.984ZM87.0133 9.642C86.8266 9.642 86.6633 9.572 86.5233 9.432C86.3833 9.292 86.3133 9.12867 86.3133 8.942C86.3133 8.746 86.3833 8.58267 86.5233 8.452C86.6633 8.312 86.8266 8.242 87.0133 8.242C87.2093 8.242 87.3726 8.312 87.5033 8.452C87.6433 8.58267 87.7133 8.746 87.7133 8.942C87.7133 9.12867 87.6433 9.292 87.5033 9.432C87.3726 9.572 87.2093 9.642 87.0133 9.642ZM87.5313 10.986V18H86.4953V10.986H87.5313ZM90.334 7.962V18H89.298V8.2L90.334 7.962ZM94.3128 18.126C93.5474 18.126 92.9221 17.93 92.4368 17.538C91.9608 17.146 91.7228 16.6373 91.7228 16.012C91.7228 15.3587 91.9748 14.8407 92.4788 14.458C92.9828 14.066 93.6641 13.87 94.5228 13.87C94.8961 13.87 95.2554 13.912 95.6008 13.996C95.9554 14.08 96.2821 14.1967 96.5808 14.346V13.422C96.5808 12.862 96.4221 12.442 96.1048 12.162C95.7874 11.8727 95.3254 11.728 94.7188 11.728C94.3734 11.728 94.0234 11.7793 93.6688 11.882C93.3234 11.9753 92.9408 12.1293 92.5208 12.344L92.1288 11.546C92.6328 11.3033 93.0994 11.126 93.5288 11.014C93.9581 10.902 94.3874 10.846 94.8167 10.846C95.7034 10.846 96.3848 11.056 96.8608 11.476C97.3461 11.896 97.5888 12.498 97.5888 13.282V18H96.5808V17.314C96.2634 17.5847 95.9134 17.79 95.5308 17.93C95.1574 18.0607 94.7514 18.126 94.3128 18.126ZM92.7168 15.984C92.7168 16.376 92.8801 16.698 93.2068 16.95C93.5428 17.1927 93.9721 17.314 94.4948 17.314C94.9148 17.314 95.2974 17.2487 95.6428 17.118C95.9881 16.9873 96.3008 16.782 96.5808 16.502V15.186C96.2914 14.99 95.9788 14.85 95.6428 14.766C95.3161 14.6727 94.9521 14.626 94.5508 14.626C93.9908 14.626 93.5428 14.752 93.2068 15.004C92.8801 15.2467 92.7168 15.5733 92.7168 15.984ZM106.138 14.486C106.138 14.99 106.044 15.466 105.858 15.914C105.68 16.362 105.433 16.7493 105.116 17.076C104.798 17.3933 104.42 17.6453 103.982 17.832C103.552 18.0187 103.09 18.112 102.596 18.112C102.185 18.112 101.784 18.042 101.392 17.902C101.009 17.762 100.659 17.5613 100.342 17.3V18H99.3195V8.2L100.356 7.962V11.728C100.645 11.448 100.981 11.238 101.364 11.098C101.756 10.9487 102.171 10.874 102.61 10.874C103.104 10.874 103.566 10.9673 103.996 11.154C104.425 11.3407 104.798 11.5973 105.116 11.924C105.433 12.2413 105.68 12.624 105.858 13.072C106.044 13.5107 106.138 13.982 106.138 14.486ZM102.512 11.784C102.073 11.784 101.662 11.8727 101.28 12.05C100.906 12.218 100.598 12.456 100.356 12.764V16.236C100.598 16.5347 100.911 16.7727 101.294 16.95C101.676 17.118 102.082 17.202 102.512 17.202C103.249 17.202 103.865 16.9453 104.36 16.432C104.864 15.9093 105.116 15.2653 105.116 14.5C105.116 14.1173 105.046 13.7627 104.906 13.436C104.775 13.1 104.593 12.8107 104.36 12.568C104.126 12.3253 103.851 12.134 103.534 11.994C103.216 11.854 102.876 11.784 102.512 11.784ZM108.613 7.962V18H107.577V8.2L108.613 7.962ZM116.288 17.258C115.896 17.5473 115.485 17.7667 115.056 17.916C114.636 18.056 114.174 18.126 113.67 18.126C113.166 18.126 112.69 18.0327 112.242 17.846C111.803 17.6593 111.421 17.4027 111.094 17.076C110.777 16.7493 110.525 16.3667 110.338 15.928C110.151 15.48 110.058 14.9993 110.058 14.486C110.058 13.982 110.147 13.5107 110.324 13.072C110.511 12.6333 110.758 12.2507 111.066 11.924C111.374 11.5973 111.738 11.3407 112.158 11.154C112.587 10.9673 113.04 10.874 113.516 10.874C113.983 10.874 114.417 10.9673 114.818 11.154C115.229 11.3407 115.579 11.5973 115.868 11.924C116.167 12.2507 116.4 12.6333 116.568 13.072C116.745 13.5107 116.834 13.982 116.834 14.486V14.808H111.08C111.155 15.4987 111.439 16.0727 111.934 16.53C112.429 16.9873 113.021 17.216 113.712 17.216C114.076 17.216 114.431 17.16 114.776 17.048C115.121 16.936 115.411 16.7773 115.644 16.572L116.288 17.258ZM113.488 11.784C112.881 11.784 112.354 11.9893 111.906 12.4C111.467 12.8107 111.201 13.338 111.108 13.982H115.798C115.705 13.366 115.439 12.848 115 12.428C114.571 11.9987 114.067 11.784 113.488 11.784ZM120.968 14.486C120.968 13.982 121.062 13.506 121.248 13.058C121.435 12.61 121.687 12.2227 122.004 11.896C122.331 11.5693 122.714 11.3127 123.152 11.126C123.591 10.9393 124.058 10.846 124.552 10.846C125.047 10.846 125.509 10.9393 125.938 11.126C126.377 11.3127 126.755 11.5693 127.072 11.896C127.399 12.2227 127.656 12.61 127.842 13.058C128.029 13.506 128.122 13.982 128.122 14.486C128.122 14.9993 128.029 15.48 127.842 15.928C127.656 16.376 127.399 16.7633 127.072 17.09C126.755 17.4167 126.377 17.6733 125.938 17.86C125.509 18.0467 125.047 18.14 124.552 18.14C124.058 18.14 123.591 18.0467 123.152 17.86C122.714 17.6733 122.331 17.4167 122.004 17.09C121.687 16.7633 121.435 16.376 121.248 15.928C121.062 15.48 120.968 14.9993 120.968 14.486ZM124.552 17.216C124.907 17.216 125.238 17.146 125.546 17.006C125.864 16.866 126.134 16.6747 126.358 16.432C126.592 16.18 126.774 15.8907 126.904 15.564C127.035 15.228 127.1 14.8687 127.1 14.486C127.1 14.1033 127.035 13.7487 126.904 13.422C126.774 13.086 126.592 12.7967 126.358 12.554C126.134 12.3113 125.864 12.12 125.546 11.98C125.238 11.84 124.907 11.77 124.552 11.77C124.198 11.77 123.862 11.84 123.544 11.98C123.236 12.12 122.966 12.3113 122.732 12.554C122.508 12.7967 122.326 13.086 122.186 13.422C122.056 13.7487 121.99 14.1033 121.99 14.486C121.99 14.8687 122.056 15.228 122.186 15.564C122.317 15.8907 122.494 16.18 122.718 16.432C122.952 16.6747 123.227 16.866 123.544 17.006C123.862 17.146 124.198 17.216 124.552 17.216ZM129.562 18V10.986H130.598V11.812C130.868 11.4947 131.19 11.2567 131.564 11.098C131.937 10.93 132.352 10.846 132.81 10.846C133.603 10.846 134.252 11.098 134.756 11.602C135.26 12.106 135.512 12.7593 135.512 13.562V18H134.49V13.772C134.49 13.156 134.312 12.666 133.958 12.302C133.603 11.938 133.127 11.756 132.53 11.756C132.11 11.756 131.732 11.8493 131.396 12.036C131.069 12.2227 130.803 12.4887 130.598 12.834V18H129.562ZM141.121 16.432V11.868H139.609V10.986H141.121V9.208L142.143 8.942V10.986H144.257V11.868H142.143V16.166C142.143 16.5393 142.227 16.81 142.395 16.978C142.563 17.1367 142.838 17.216 143.221 17.216C143.417 17.216 143.59 17.202 143.739 17.174C143.898 17.146 144.066 17.0993 144.243 17.034V17.944C144.066 18.0093 143.865 18.056 143.641 18.084C143.426 18.112 143.216 18.126 143.011 18.126C142.404 18.126 141.938 17.9813 141.611 17.692C141.284 17.4027 141.121 16.9827 141.121 16.432ZM145.366 18V8.2L146.402 7.962V11.812C146.673 11.4947 146.995 11.2567 147.368 11.098C147.742 10.93 148.157 10.846 148.614 10.846C149.408 10.846 150.056 11.098 150.56 11.602C151.064 12.106 151.316 12.7593 151.316 13.562V18H150.294V13.772C150.294 13.156 150.117 12.666 149.762 12.302C149.408 11.938 148.932 11.756 148.334 11.756C147.914 11.756 147.536 11.8493 147.2 12.036C146.874 12.2227 146.608 12.4887 146.402 12.834V18H145.366ZM158.958 17.258C158.566 17.5473 158.155 17.7667 157.726 17.916C157.306 18.056 156.844 18.126 156.34 18.126C155.836 18.126 155.36 18.0327 154.912 17.846C154.473 17.6593 154.091 17.4027 153.764 17.076C153.447 16.7493 153.195 16.3667 153.008 15.928C152.821 15.48 152.728 14.9993 152.728 14.486C152.728 13.982 152.817 13.5107 152.994 13.072C153.181 12.6333 153.428 12.2507 153.736 11.924C154.044 11.5973 154.408 11.3407 154.828 11.154C155.257 10.9673 155.71 10.874 156.186 10.874C156.653 10.874 157.087 10.9673 157.488 11.154C157.899 11.3407 158.249 11.5973 158.538 11.924C158.837 12.2507 159.07 12.6333 159.238 13.072C159.415 13.5107 159.504 13.982 159.504 14.486V14.808H153.75C153.825 15.4987 154.109 16.0727 154.604 16.53C155.099 16.9873 155.691 17.216 156.382 17.216C156.746 17.216 157.101 17.16 157.446 17.048C157.791 16.936 158.081 16.7773 158.314 16.572L158.958 17.258ZM156.158 11.784C155.551 11.784 155.024 11.9893 154.576 12.4C154.137 12.8107 153.871 13.338 153.778 13.982H158.468C158.375 13.366 158.109 12.848 157.67 12.428C157.241 11.9987 156.737 11.784 156.158 11.784Z" fill="white"/>
<path d="M77.944 37L81.976 27.2H84.328L88.304 37H86.106L85.112 34.424H81.066L80.058 37H77.944ZM81.696 32.8H84.496L83.11 29.188L81.696 32.8ZM89.0099 39.926V29.706H90.8999V30.308C91.1892 30.0747 91.5112 29.902 91.8659 29.79C92.2206 29.6687 92.5892 29.608 92.9719 29.608C93.4852 29.608 93.9659 29.706 94.4139 29.902C94.8712 30.098 95.2679 30.364 95.6039 30.7C95.9399 31.036 96.2012 31.4327 96.3879 31.89C96.5839 32.3473 96.6819 32.8373 96.6819 33.36C96.6819 33.8827 96.5839 34.3727 96.3879 34.83C96.1919 35.2873 95.9259 35.684 95.5899 36.02C95.2539 36.356 94.8526 36.622 94.3859 36.818C93.9286 37.0047 93.4386 37.098 92.9159 37.098C92.5612 37.098 92.2112 37.0513 91.8659 36.958C91.5299 36.8553 91.2172 36.7107 90.9279 36.524V39.926H89.0099ZM92.6639 31.246C92.3186 31.246 91.9966 31.3067 91.6979 31.428C91.3992 31.54 91.1426 31.708 90.9279 31.932V34.802C91.1332 35.0073 91.3852 35.1707 91.6839 35.292C91.9919 35.4133 92.3186 35.474 92.6639 35.474C93.2612 35.474 93.7652 35.2733 94.1759 34.872C94.5866 34.4613 94.7919 33.9573 94.7919 33.36C94.7919 32.7627 94.5819 32.2633 94.1619 31.862C93.7512 31.4513 93.2519 31.246 92.6639 31.246ZM97.8556 39.926V29.706H99.7456V30.308C100.035 30.0747 100.357 29.902 100.712 29.79C101.066 29.6687 101.435 29.608 101.818 29.608C102.331 29.608 102.812 29.706 103.26 29.902C103.717 30.098 104.114 30.364 104.45 30.7C104.786 31.036 105.047 31.4327 105.234 31.89C105.43 32.3473 105.528 32.8373 105.528 33.36C105.528 33.8827 105.43 34.3727 105.234 34.83C105.038 35.2873 104.772 35.684 104.436 36.02C104.1 36.356 103.698 36.622 103.232 36.818C102.774 37.0047 102.284 37.098 101.762 37.098C101.407 37.098 101.057 37.0513 100.712 36.958C100.376 36.8553 100.063 36.7107 99.7736 36.524V39.926H97.8556ZM101.51 31.246C101.164 31.246 100.842 31.3067 100.544 31.428C100.245 31.54 99.9883 31.708 99.7736 31.932V34.802C99.9789 35.0073 100.231 35.1707 100.53 35.292C100.838 35.4133 101.164 35.474 101.51 35.474C102.107 35.474 102.611 35.2733 103.022 34.872C103.432 34.4613 103.638 33.9573 103.638 33.36C103.638 32.7627 103.428 32.2633 103.008 31.862C102.597 31.4513 102.098 31.246 101.51 31.246ZM108.804 35.446L109.966 33.99C110.535 34.4847 111.081 34.8487 111.604 35.082C112.136 35.306 112.696 35.418 113.284 35.418C113.89 35.418 114.376 35.306 114.74 35.082C115.104 34.858 115.286 34.5593 115.286 34.186C115.286 33.85 115.16 33.5887 114.908 33.402C114.665 33.2153 114.254 33.0753 113.676 32.982L111.73 32.646C110.89 32.506 110.25 32.212 109.812 31.764C109.382 31.316 109.168 30.7373 109.168 30.028C109.168 29.1133 109.513 28.39 110.204 27.858C110.904 27.326 111.846 27.06 113.032 27.06C113.741 27.06 114.455 27.1813 115.174 27.424C115.902 27.6667 116.536 28.0027 117.078 28.432L115.986 29.944C115.463 29.5427 114.95 29.2487 114.446 29.062C113.942 28.866 113.424 28.768 112.892 28.768C112.35 28.768 111.916 28.8707 111.59 29.076C111.263 29.272 111.1 29.538 111.1 29.874C111.1 30.1727 111.207 30.406 111.422 30.574C111.636 30.742 111.996 30.8633 112.5 30.938L114.348 31.246C115.318 31.4047 116.046 31.7173 116.532 32.184C117.026 32.6413 117.274 33.248 117.274 34.004C117.274 34.956 116.896 35.7167 116.14 36.286C115.393 36.8553 114.394 37.14 113.144 37.14C112.36 37.14 111.585 36.9907 110.82 36.692C110.064 36.3933 109.392 35.978 108.804 35.446ZM119.084 34.942V31.316H117.586V29.706H119.084V27.844L121.002 27.41V29.706H123.074V31.316H121.002V34.55C121.002 34.8953 121.077 35.138 121.226 35.278C121.375 35.418 121.637 35.488 122.01 35.488C122.187 35.488 122.355 35.4787 122.514 35.46C122.673 35.432 122.845 35.3853 123.032 35.32V36.888C122.827 36.9533 122.579 37.0047 122.29 37.042C122.001 37.0887 121.753 37.112 121.548 37.112C120.736 37.112 120.12 36.93 119.7 36.566C119.289 36.1927 119.084 35.6513 119.084 34.942ZM123.619 33.36C123.619 32.828 123.717 32.3333 123.913 31.876C124.119 31.4093 124.394 31.008 124.739 30.672C125.094 30.3267 125.509 30.056 125.985 29.86C126.461 29.664 126.97 29.566 127.511 29.566C128.053 29.566 128.561 29.664 129.037 29.86C129.513 30.056 129.924 30.3267 130.269 30.672C130.624 31.008 130.899 31.4093 131.095 31.876C131.301 32.3333 131.403 32.828 131.403 33.36C131.403 33.892 131.301 34.3913 131.095 34.858C130.899 35.3153 130.624 35.712 130.269 36.048C129.924 36.384 129.513 36.65 129.037 36.846C128.561 37.042 128.053 37.14 127.511 37.14C126.97 37.14 126.461 37.042 125.985 36.846C125.509 36.65 125.094 36.384 124.739 36.048C124.394 35.712 124.119 35.3153 123.913 34.858C123.717 34.3913 123.619 33.892 123.619 33.36ZM127.511 35.474C128.071 35.474 128.547 35.2687 128.939 34.858C129.331 34.4473 129.527 33.948 129.527 33.36C129.527 32.7627 129.331 32.2587 128.939 31.848C128.547 31.4373 128.071 31.232 127.511 31.232C126.951 31.232 126.475 31.4373 126.083 31.848C125.691 32.2587 125.495 32.7627 125.495 33.36C125.495 33.948 125.691 34.4473 126.083 34.858C126.475 35.2687 126.951 35.474 127.511 35.474ZM132.582 37V29.706H134.5V30.504C134.734 30.1867 135.014 29.9487 135.34 29.79C135.676 29.622 136.045 29.538 136.446 29.538C136.633 29.5473 136.787 29.566 136.908 29.594C137.039 29.6127 137.151 29.65 137.244 29.706V31.386C137.104 31.3207 136.95 31.274 136.782 31.246C136.614 31.2087 136.442 31.19 136.264 31.19C135.891 31.19 135.546 31.2833 135.228 31.47C134.92 31.6567 134.678 31.9273 134.5 32.282V37H132.582ZM144.466 36.09C144.018 36.454 143.556 36.72 143.08 36.888C142.613 37.056 142.091 37.14 141.512 37.14C140.961 37.14 140.443 37.042 139.958 36.846C139.482 36.65 139.067 36.384 138.712 36.048C138.367 35.712 138.091 35.3153 137.886 34.858C137.69 34.3913 137.592 33.892 137.592 33.36C137.592 32.8373 137.685 32.3473 137.872 31.89C138.068 31.4233 138.334 31.022 138.67 30.686C139.006 30.3407 139.403 30.07 139.86 29.874C140.327 29.678 140.821 29.58 141.344 29.58C141.857 29.58 142.333 29.6827 142.772 29.888C143.22 30.084 143.603 30.3547 143.92 30.7C144.247 31.0453 144.499 31.4607 144.676 31.946C144.863 32.422 144.956 32.94 144.956 33.5V34.004H139.524C139.655 34.4613 139.907 34.83 140.28 35.11C140.653 35.39 141.092 35.53 141.596 35.53C141.913 35.53 142.212 35.4787 142.492 35.376C142.772 35.2733 143.01 35.1287 143.206 34.942L144.466 36.09ZM141.302 31.162C140.863 31.162 140.485 31.2973 140.168 31.568C139.851 31.8293 139.631 32.184 139.51 32.632H143.08C142.959 32.2027 142.735 31.8527 142.408 31.582C142.091 31.302 141.722 31.162 141.302 31.162Z" fill="white"/>
<defs>
<clipPath id="clip0">
<rect width="27" height="33" fill="white" transform="translate(20 6)"/>
</clipPath>
</defs>
</svg>
