<svg width="30" height="30" viewBox="0 0 30 30" fill="none" xmlns="http://www.w3.org/2000/svg">
<g clip-path="url(#clip0)">
<path d="M23.7891 16.4034C22.8686 16.4034 21.9943 16.605 21.2077 16.9659L18.5979 12.4456C20.1784 11.3185 21.2109 9.4704 21.2109 7.38563C21.2109 5.04434 19.916 2.92565 17.8313 1.85626C17.5434 1.70848 17.1902 1.82221 17.0425 2.11014C16.8948 2.39807 17.0085 2.75122 17.2964 2.89893C18.9881 3.76676 20.0391 5.48596 20.0391 7.38563C20.0391 8.53366 19.6523 9.59268 19.0034 10.4409C18.6425 9.59801 17.9066 8.95255 17.0067 8.71524C17.2645 8.3311 17.4152 7.86926 17.4152 7.3728V7.05768C17.4152 5.7259 16.3318 4.64251 15 4.64251C13.6682 4.64251 12.5848 5.72596 12.5848 7.05768V7.3728C12.5848 7.86926 12.7355 8.33104 12.9933 8.71524C12.0934 8.95255 11.3575 9.59801 10.9966 10.4409C10.3477 9.59268 9.96094 8.53366 9.96094 7.38563C9.96094 5.48602 11.0118 3.76682 12.7035 2.89899C12.9914 2.75128 13.1051 2.39813 12.9574 2.1102C12.8096 1.82227 12.4565 1.70854 12.1686 1.85631C10.084 2.92571 8.78906 5.0444 8.78906 7.38563C8.78906 9.4704 9.8216 11.3185 11.4021 12.4456L8.79228 16.9659C8.00572 16.6051 7.1315 16.4035 6.21094 16.4035C2.78619 16.4035 0 19.1897 0 22.6144C0 26.0392 2.78619 28.8254 6.21094 28.8254C9.43998 28.8254 12.101 26.3483 12.3946 23.1947H17.6055C17.8991 26.3483 20.56 28.8254 23.7891 28.8254C27.2139 28.8254 30.0001 26.0392 30.0001 22.6144C30.0001 19.1897 27.2138 16.4034 23.7891 16.4034ZM13.7566 7.05762C13.7566 6.37208 14.3144 5.81432 15 5.81432C15.6856 5.81432 16.2434 6.37208 16.2434 7.05762V7.37274C16.2434 8.05829 15.6856 8.61604 15 8.61604C14.3144 8.61604 13.7566 8.05829 13.7566 7.37274V7.05762ZM13.7585 9.78797H16.2416C17.1727 9.78797 17.9432 10.4868 18.0575 11.3874C17.2089 12.0373 16.1491 12.4247 15.0001 12.4247C13.851 12.4247 12.7913 12.0373 11.9426 11.3874C12.0568 10.4868 12.8273 9.78797 13.7585 9.78797ZM12.4161 13.033C13.2033 13.3946 14.0785 13.5966 15 13.5966C15.9215 13.5966 16.7967 13.3945 17.5839 13.033L20.1934 17.5528C18.7629 18.5719 17.7813 20.1816 17.6065 22.0228H12.3936C12.2188 20.1816 11.2371 18.5719 9.80666 17.5528L12.4161 13.033ZM3.15352 26.6162C3.26777 25.7156 4.03822 25.0167 4.96939 25.0167H7.45254C8.38365 25.0167 9.15416 25.7155 9.26842 26.6162C8.4198 27.2661 7.36002 27.6534 6.211 27.6534C5.06197 27.6534 4.00213 27.2661 3.15352 26.6162ZM7.4543 22.6015C7.4543 23.2871 6.89654 23.8448 6.21094 23.8448C5.52533 23.8448 4.96758 23.2871 4.96758 22.6015V22.2864C4.96758 21.6008 5.52533 21.0431 6.21094 21.0431C6.89654 21.0431 7.4543 21.6008 7.4543 22.2864V22.6015ZM10.2144 25.6697C9.85342 24.8267 9.11754 24.1813 8.21754 23.944C8.47541 23.5598 8.62611 23.098 8.62611 22.6015V22.2864C8.62611 20.9547 7.54266 19.8713 6.21088 19.8713C4.8791 19.8713 3.79564 20.9547 3.79564 22.2864V22.6015C3.79564 23.098 3.94635 23.5598 4.20422 23.944C3.30422 24.1813 2.56834 24.8268 2.2074 25.6697C1.55859 24.8214 1.17188 23.7625 1.17188 22.6144C1.17188 19.8359 3.43242 17.5753 6.21094 17.5753C8.98945 17.5753 11.25 19.8359 11.25 22.6144C11.25 23.7625 10.8633 24.8214 10.2144 25.6697ZM20.7316 26.6162C20.8459 25.7156 21.6163 25.0167 22.5475 25.0167H25.0307C25.9618 25.0167 26.7323 25.7155 26.8465 26.6162C25.9979 27.2661 24.9381 27.6534 23.7891 27.6534C22.6401 27.6534 21.5803 27.2661 20.7316 26.6162ZM25.0324 22.6015C25.0324 23.2871 24.4747 23.8448 23.7891 23.8448C23.1035 23.8448 22.5457 23.2871 22.5457 22.6015V22.2864C22.5457 21.6008 23.1035 21.0431 23.7891 21.0431C24.4747 21.0431 25.0324 21.6008 25.0324 22.2864V22.6015ZM27.7925 25.6697C27.4315 24.8267 26.6957 24.1813 25.7957 23.944C26.0535 23.5598 26.2042 23.098 26.2042 22.6015V22.2864C26.2042 20.9547 25.1208 19.8713 23.789 19.8713C22.4572 19.8713 21.3738 20.9547 21.3738 22.2864V22.6015C21.3738 23.098 21.5245 23.5598 21.7823 23.944C20.8823 24.1813 20.1465 24.8268 19.7855 25.6697C19.1367 24.8214 18.75 23.7625 18.75 22.6144C18.75 19.8359 21.0105 17.5753 23.7891 17.5753C26.5676 17.5753 28.8281 19.8359 28.8281 22.6144C28.8281 23.7625 28.4414 24.8214 27.7925 25.6697Z" fill="black"/>
<path d="M15 2.34668C15.1541 2.34668 15.3053 2.28398 15.4143 2.175C15.5232 2.06602 15.5859 1.91484 15.5859 1.76074C15.5859 1.60605 15.5232 1.45547 15.4143 1.34648C15.3053 1.2375 15.1541 1.1748 15 1.1748C14.8459 1.1748 14.6947 1.2375 14.5857 1.34648C14.4768 1.45547 14.4141 1.60664 14.4141 1.76074C14.4141 1.91484 14.4768 2.06602 14.5857 2.175C14.6947 2.28398 14.8459 2.34668 15 2.34668Z" fill="black"/>
</g>
<defs>
<clipPath id="clip0">
<rect width="30" height="30" fill="white"/>
</clipPath>
</defs>
</svg>
