<svg width="33" height="33" viewBox="0 0 33 33" fill="none" xmlns="http://www.w3.org/2000/svg">
<g clip-path="url(#clip0)">
<path d="M18.5625 5.7475C18.183 5.7475 17.875 5.4395 17.875 5.06V2.75C17.875 1.99238 17.2576 1.375 16.5 1.375C15.7424 1.375 15.125 1.99238 15.125 2.75V5.06C15.125 5.4395 14.817 5.7475 14.4375 5.7475C14.058 5.7475 13.75 5.44088 13.75 5.06V2.75C13.75 1.23337 14.9834 0 16.5 0C18.0166 0 19.25 1.23337 19.25 2.75V5.06C19.25 5.44088 18.942 5.7475 18.5625 5.7475Z" fill="black"/>
<path d="M16.5 33C13.8463 33 11.6875 30.8412 11.6875 28.1875C11.6875 27.808 11.9955 27.5 12.375 27.5C12.7545 27.5 13.0625 27.808 13.0625 28.1875C13.0625 30.0822 14.6053 31.625 16.5 31.625C18.3948 31.625 19.9375 30.0822 19.9375 28.1875C19.9375 27.808 20.2455 27.5 20.625 27.5C21.0045 27.5 21.3125 27.808 21.3125 28.1875C21.3125 30.8412 19.1538 33 16.5 33Z" fill="black"/>
<path d="M28.1875 28.875H4.8125C3.67538 28.875 2.75 27.9496 2.75 26.8125C2.75 26.2089 3.01263 25.6383 3.47188 25.245C5.63888 23.4135 6.875 20.7488 6.875 17.9272V13.75C6.875 8.4425 11.1925 4.125 16.5 4.125C21.8075 4.125 26.125 8.4425 26.125 13.75V17.9272C26.125 20.7501 27.3611 23.4135 29.5171 25.2354C29.9874 25.6383 30.25 26.2089 30.25 26.8125C30.25 27.9496 29.326 28.875 28.1875 28.875ZM16.5 5.5C11.9501 5.5 8.25 9.20012 8.25 13.75V17.9272C8.25 21.1558 6.8365 24.2014 4.37113 26.2859C4.213 26.4206 4.125 26.6117 4.125 26.8125C4.125 27.192 4.433 27.5 4.8125 27.5H28.1875C28.567 27.5 28.875 27.192 28.875 26.8125C28.875 26.6117 28.787 26.4206 28.6344 26.29C26.1649 24.2014 24.75 21.1544 24.75 17.9272V13.75C24.75 9.20012 21.0499 5.5 16.5 5.5Z" fill="black"/>
</g>
<defs>
<clipPath id="clip0">
<rect width="33" height="33" fill="white"/>
</clipPath>
</defs>
</svg>
