<svg width="143" height="369" viewBox="0 0 143 369" fill="none" xmlns="http://www.w3.org/2000/svg">
<path d="M154.035 204.993L181.277 236.258L28.9779 368.957L28.9776 310.451L154.035 204.993Z" fill="#B59E5C"/>
<line x1="49.5" y1="-2.18557e-08" x2="49.5" y2="279" stroke="#2C2C2C"/>
<path d="M40.0352 277.922L30.2352 277.922L30.2352 276.844L39.0692 276.844L39.0692 271.006L40.0352 271.006L40.0352 277.922ZM36.5212 264.087C36.0172 264.087 35.5412 263.994 35.0932 263.807C34.6452 263.621 34.2578 263.369 33.9312 263.051C33.6045 262.725 33.3478 262.342 33.1612 261.903C32.9745 261.465 32.8812 260.998 32.8812 260.503C32.8812 260.009 32.9745 259.547 33.1612 259.117C33.3478 258.679 33.6045 258.301 33.9312 257.983C34.2578 257.657 34.6452 257.4 35.0932 257.213C35.5412 257.027 36.0172 256.933 36.5212 256.933C37.0345 256.933 37.5152 257.027 37.9632 257.213C38.4112 257.4 38.7985 257.657 39.1252 257.983C39.4518 258.301 39.7085 258.679 39.8952 259.117C40.0818 259.547 40.1752 260.009 40.1752 260.503C40.1752 260.998 40.0818 261.465 39.8952 261.903C39.7085 262.342 39.4518 262.725 39.1252 263.051C38.7985 263.369 38.4112 263.621 37.9632 263.807C37.5152 263.994 37.0345 264.087 36.5212 264.087ZM39.2512 260.503C39.2512 260.149 39.1812 259.817 39.0412 259.509C38.9012 259.192 38.7098 258.921 38.4672 258.697C38.2152 258.464 37.9258 258.282 37.5992 258.151C37.2632 258.021 36.9038 257.955 36.5212 257.955C36.1385 257.955 35.7838 258.021 35.4572 258.151C35.1212 258.282 34.8318 258.464 34.5892 258.697C34.3465 258.921 34.1552 259.192 34.0152 259.509C33.8752 259.817 33.8052 260.149 33.8052 260.503C33.8052 260.858 33.8752 261.194 34.0152 261.511C34.1552 261.819 34.3465 262.09 34.5892 262.323C34.8318 262.547 35.1212 262.729 35.4572 262.869C35.7838 263 36.1385 263.065 36.5212 263.065C36.9038 263.065 37.2632 263 37.5992 262.869C37.9258 262.739 38.2152 262.561 38.4672 262.337C38.7098 262.104 38.9012 261.829 39.0412 261.511C39.1812 261.194 39.2512 260.858 39.2512 260.503ZM40.0352 247.241L33.0212 250.279L33.0212 249.131L38.6912 246.737L33.0212 244.343L33.0212 243.237L40.0352 246.261L40.0352 247.241ZM39.2932 230.355C39.5825 230.747 39.8018 231.158 39.9512 231.587C40.0912 232.007 40.1612 232.469 40.1612 232.973C40.1612 233.477 40.0678 233.953 39.8812 234.401C39.6945 234.84 39.4378 235.222 39.1112 235.549C38.7845 235.866 38.4018 236.118 37.9632 236.305C37.5152 236.492 37.0345 236.585 36.5212 236.585C36.0172 236.585 35.5458 236.496 35.1072 236.319C34.6685 236.132 34.2858 235.885 33.9592 235.577C33.6325 235.269 33.3758 234.905 33.1892 234.485C33.0025 234.056 32.9092 233.603 32.9092 233.127C32.9092 232.66 33.0025 232.226 33.1892 231.825C33.3758 231.414 33.6325 231.064 33.9592 230.775C34.2858 230.476 34.6685 230.243 35.1072 230.075C35.5458 229.898 36.0172 229.809 36.5212 229.809L36.8432 229.809L36.8432 235.563C37.5338 235.488 38.1078 235.204 38.5652 234.709C39.0225 234.214 39.2512 233.622 39.2512 232.931C39.2512 232.567 39.1952 232.212 39.0832 231.867C38.9712 231.522 38.8125 231.232 38.6072 230.999L39.2932 230.355ZM33.8192 233.155C33.8192 233.762 34.0245 234.289 34.4352 234.737C34.8458 235.176 35.3732 235.442 36.0172 235.535L36.0172 230.845C35.4012 230.938 34.8832 231.204 34.4632 231.643C34.0338 232.072 33.8192 232.576 33.8192 233.155ZM36.5212 213.075C36.0172 213.075 35.5412 212.981 35.0932 212.795C34.6452 212.608 34.2578 212.356 33.9312 212.039C33.6045 211.712 33.3478 211.329 33.1612 210.891C32.9745 210.452 32.8812 209.985 32.8812 209.491C32.8812 208.996 32.9745 208.534 33.1612 208.105C33.3478 207.666 33.6045 207.288 33.9312 206.971C34.2578 206.644 34.6452 206.387 35.0932 206.201C35.5412 206.014 36.0172 205.921 36.5212 205.921C37.0345 205.921 37.5152 206.014 37.9632 206.201C38.4112 206.387 38.7985 206.644 39.1252 206.971C39.4518 207.288 39.7085 207.666 39.8952 208.105C40.0818 208.534 40.1752 208.996 40.1752 209.491C40.1752 209.985 40.0818 210.452 39.8952 210.891C39.7085 211.329 39.4518 211.712 39.1252 212.039C38.7985 212.356 38.4112 212.608 37.9632 212.795C37.5152 212.981 37.0345 213.075 36.5212 213.075ZM39.2512 209.491C39.2512 209.136 39.1812 208.805 39.0412 208.497C38.9012 208.179 38.7098 207.909 38.4672 207.685C38.2152 207.451 37.9258 207.269 37.5992 207.139C37.2632 207.008 36.9038 206.943 36.5212 206.943C36.1385 206.943 35.7838 207.008 35.4572 207.139C35.1212 207.269 34.8318 207.451 34.5892 207.685C34.3465 207.909 34.1552 208.179 34.0152 208.497C33.8752 208.805 33.8052 209.136 33.8052 209.491C33.8052 209.845 33.8752 210.181 34.0152 210.499C34.1552 210.807 34.3465 211.077 34.5892 211.311C34.8318 211.535 35.1212 211.717 35.4572 211.857C35.7838 211.987 36.1385 212.053 36.5212 212.053C36.9038 212.053 37.2632 211.987 37.5992 211.857C37.9258 211.726 38.2152 211.549 38.4672 211.325C38.7098 211.091 38.9012 210.816 39.0412 210.499C39.1812 210.181 39.2512 209.845 39.2512 209.491ZM33.0212 199.331L33.0212 197.679L31.6912 197.679C31.0098 197.679 30.4872 197.492 30.1232 197.119C29.7498 196.746 29.5632 196.209 29.5632 195.509C29.5632 195.322 29.5725 195.154 29.5912 195.005C29.6098 194.856 29.6425 194.711 29.6892 194.571L30.6132 194.571C30.5665 194.73 30.5338 194.874 30.5152 195.005C30.4872 195.136 30.4732 195.28 30.4732 195.439C30.4732 195.85 30.5758 196.158 30.7812 196.363C30.9772 196.559 31.2898 196.657 31.7192 196.657L33.0212 196.657L33.0212 194.571L33.9032 194.571L33.9032 196.657L40.0352 196.657L40.0352 197.679L33.9032 197.679L33.9032 199.331L33.0212 199.331ZM30.2352 177.647L30.2352 173.671C30.2352 172.728 30.4638 171.977 30.9212 171.417C31.3785 170.857 31.9898 170.577 32.7552 170.577C33.2592 170.577 33.6978 170.712 34.0712 170.983C34.4445 171.244 34.7292 171.608 34.9252 172.075C35.1025 171.487 35.4012 171.025 35.8212 170.689C36.2318 170.344 36.7172 170.171 37.2772 170.171C38.1172 170.171 38.7892 170.479 39.2932 171.095C39.7878 171.702 40.0352 172.504 40.0352 173.503L40.0352 177.647L30.2352 177.647ZM31.1732 173.727L31.1732 176.569L34.5052 176.569L34.5052 173.727C34.5052 173.092 34.3558 172.588 34.0572 172.215C33.7492 171.832 33.3432 171.641 32.8392 171.641C32.3352 171.641 31.9338 171.832 31.6352 172.215C31.3272 172.588 31.1732 173.092 31.1732 173.727ZM39.0972 173.587C39.0972 172.887 38.9292 172.327 38.5932 171.907C38.2572 171.478 37.8092 171.263 37.2492 171.263C36.6892 171.263 36.2412 171.478 35.9052 171.907C35.5692 172.327 35.4012 172.887 35.4012 173.587L35.4012 176.569L39.0972 176.569L39.0972 173.587ZM39.2932 156.434C39.5825 156.826 39.8018 157.236 39.9512 157.666C40.0912 158.086 40.1612 158.548 40.1612 159.052C40.1612 159.556 40.0678 160.032 39.8812 160.48C39.6945 160.918 39.4378 161.301 39.1112 161.628C38.7845 161.945 38.4018 162.197 37.9632 162.384C37.5152 162.57 37.0345 162.664 36.5212 162.664C36.0172 162.664 35.5458 162.575 35.1072 162.398C34.6685 162.211 34.2858 161.964 33.9592 161.656C33.6325 161.348 33.3758 160.984 33.1892 160.564C33.0025 160.134 32.9092 159.682 32.9092 159.206C32.9092 158.739 33.0025 158.305 33.1892 157.904C33.3758 157.493 33.6325 157.143 33.9592 156.854C34.2858 156.555 34.6685 156.322 35.1072 156.154C35.5458 155.976 36.0172 155.888 36.5212 155.888L36.8432 155.888L36.8432 161.642C37.5338 161.567 38.1078 161.282 38.5652 160.788C39.0225 160.293 39.2512 159.7 39.2512 159.01C39.2512 158.646 39.1952 158.291 39.0832 157.946C38.9712 157.6 38.8125 157.311 38.6072 157.078L39.2932 156.434ZM33.8192 159.234C33.8192 159.84 34.0245 160.368 34.4352 160.816C34.8458 161.254 35.3732 161.52 36.0172 161.614L36.0172 156.924C35.4012 157.017 34.8832 157.283 34.4632 157.722C34.0338 158.151 33.8192 158.655 33.8192 159.234ZM40.1612 146.037C40.1612 146.802 39.9652 147.428 39.5732 147.913C39.1812 148.389 38.6725 148.627 38.0472 148.627C37.3938 148.627 36.8758 148.375 36.4932 147.871C36.1012 147.367 35.9052 146.686 35.9052 145.827C35.9052 145.454 35.9472 145.094 36.0312 144.749C36.1152 144.394 36.2318 144.068 36.3812 143.769L35.4572 143.769C34.8972 143.769 34.4771 143.928 34.1972 144.245C33.9078 144.562 33.7632 145.024 33.7632 145.631C33.7632 145.976 33.8145 146.326 33.9172 146.681C34.0105 147.026 34.1645 147.409 34.3792 147.829L33.5812 148.221C33.3385 147.717 33.1612 147.25 33.0492 146.821C32.9372 146.392 32.8811 145.962 32.8811 145.533C32.8811 144.646 33.0911 143.965 33.5112 143.489C33.9311 143.004 34.5331 142.761 35.3172 142.761L40.0352 142.761L40.0352 143.769L39.3492 143.769C39.6198 144.086 39.8252 144.436 39.9652 144.819C40.0958 145.192 40.1612 145.598 40.1612 146.037ZM38.0192 147.633C38.4112 147.633 38.7332 147.47 38.9852 147.143C39.2278 146.807 39.3492 146.378 39.3492 145.855C39.3492 145.435 39.2838 145.052 39.1532 144.707C39.0225 144.362 38.8172 144.049 38.5372 143.769L37.2212 143.769C37.0252 144.058 36.8852 144.371 36.8012 144.707C36.7078 145.034 36.6612 145.398 36.6612 145.799C36.6612 146.359 36.7872 146.807 37.0392 147.143C37.2818 147.47 37.6085 147.633 38.0192 147.633ZM33.0211 133.804L37.2491 133.804C37.8651 133.804 38.3551 133.627 38.7191 133.272C39.0831 132.918 39.2651 132.442 39.2651 131.844C39.2651 131.424 39.1718 131.051 38.9851 130.724C38.7891 130.388 38.5185 130.118 38.1731 129.912L33.0211 129.912L33.0211 128.876L40.0351 128.876L40.0351 129.912L39.2231 129.912C39.5405 130.183 39.7785 130.505 39.9371 130.878C40.0958 131.242 40.1751 131.653 40.1751 132.11C40.1751 132.913 39.9231 133.566 39.4191 134.07C38.9151 134.574 38.2618 134.826 37.4591 134.826L33.0211 134.826L33.0211 133.804ZM38.4671 119.947L33.9031 119.947L33.9031 121.459L33.0211 121.459L33.0211 119.947L31.2431 119.947L30.9771 118.925L33.0211 118.925L33.0211 116.811L33.9031 116.811L33.9031 118.925L38.2011 118.925C38.5745 118.925 38.8451 118.841 39.0131 118.673C39.1718 118.505 39.2511 118.23 39.2511 117.847C39.2511 117.651 39.2371 117.478 39.2091 117.329C39.1811 117.17 39.1345 117.002 39.0691 116.825L39.9791 116.825C40.0445 117.002 40.0911 117.203 40.1191 117.427C40.1471 117.642 40.1611 117.852 40.1611 118.057C40.1611 118.664 40.0165 119.13 39.7271 119.457C39.4378 119.784 39.0178 119.947 38.4671 119.947ZM40.9451 107.627L40.0211 107.221L33.0211 110.077L33.0211 108.929L38.7751 106.661L33.0211 104.211L33.0211 103.091L41.0851 106.577C41.7571 106.876 42.2425 107.207 42.5411 107.571C42.8398 107.935 42.9891 108.397 42.9891 108.957C42.9891 109.088 42.9798 109.214 42.9611 109.335C42.9518 109.447 42.9378 109.54 42.9191 109.615L41.9811 109.615C41.9998 109.522 42.0138 109.433 42.0231 109.349C42.0325 109.256 42.0371 109.148 42.0371 109.027C42.0371 108.71 41.9485 108.439 41.7711 108.215C41.5938 107.991 41.3185 107.795 40.9451 107.627ZM31.6771 86.0023C31.6771 86.189 31.6071 86.3523 31.4671 86.4923C31.3271 86.6323 31.1638 86.7023 30.9771 86.7023C30.7811 86.7023 30.6178 86.6323 30.4871 86.4923C30.3471 86.3523 30.2771 86.189 30.2771 86.0023C30.2771 85.8063 30.3471 85.643 30.4871 85.5123C30.6178 85.3723 30.7811 85.3023 30.9771 85.3023C31.1638 85.3023 31.3271 85.3723 31.4671 85.5123C31.6071 85.643 31.6771 85.8063 31.6771 86.0023ZM33.0211 85.4843L40.0351 85.4843L40.0351 86.5203L33.0211 86.5203L33.0211 85.4843ZM39.0691 78.1316L38.3971 77.5016C38.6958 77.1843 38.9291 76.8296 39.0971 76.4376C39.2558 76.0363 39.3351 75.6303 39.3351 75.2196C39.3351 74.6596 39.2185 74.2023 38.9851 73.8476C38.7518 73.4929 38.4485 73.3156 38.0751 73.3156C37.7765 73.3156 37.5431 73.4229 37.3751 73.6376C37.1978 73.8429 37.0765 74.1696 37.0111 74.6176L36.8431 75.8356C36.7405 76.5356 36.5351 77.0583 36.2271 77.4036C35.9098 77.7396 35.4851 77.9076 34.9531 77.9076C34.3651 77.9076 33.8798 77.6603 33.4971 77.1656C33.1051 76.6709 32.9091 76.0409 32.9091 75.2756C32.9091 74.7716 32.9838 74.2956 33.1331 73.8476C33.2825 73.3903 33.5158 72.9469 33.8331 72.5176L34.5331 73.0636C34.2718 73.4556 34.0758 73.8383 33.9451 74.2116C33.8145 74.5756 33.7491 74.9489 33.7491 75.3316C33.7491 75.8076 33.8565 76.1996 34.0711 76.5076C34.2858 76.8063 34.5658 76.9556 34.9111 76.9556C35.2098 76.9556 35.4431 76.8529 35.6111 76.6476C35.7698 76.4423 35.8818 76.1109 35.9471 75.6536L36.1151 74.4356C36.2085 73.7356 36.4185 73.2129 36.7451 72.8676C37.0625 72.5129 37.4871 72.3356 38.0191 72.3356C38.3178 72.3356 38.6025 72.4103 38.8731 72.5596C39.1345 72.6996 39.3631 72.9003 39.5591 73.1616C39.7458 73.4136 39.8951 73.7123 40.0071 74.0576C40.1098 74.4029 40.1611 74.7763 40.1611 75.1776C40.1611 75.7563 40.0678 76.3023 39.8811 76.8156C39.6851 77.3196 39.4145 77.7583 39.0691 78.1316ZM38.4671 54.6937L33.9031 54.6937L33.9031 56.2057L33.0211 56.2057L33.0211 54.6937L31.2431 54.6937L30.9771 53.6717L33.0211 53.6717L33.0211 51.5577L33.9031 51.5577L33.9031 53.6717L38.2011 53.6717C38.5745 53.6717 38.8451 53.5877 39.0131 53.4197C39.1718 53.2517 39.2511 52.9764 39.2511 52.5937C39.2511 52.3977 39.2371 52.2251 39.2091 52.0757C39.1811 51.9171 39.1345 51.7491 39.0691 51.5717L39.9791 51.5717C40.0445 51.7491 40.0911 51.9497 40.1191 52.1737C40.1471 52.3884 40.1611 52.5984 40.1611 52.8037C40.1611 53.4104 40.0165 53.8771 39.7271 54.2037C39.4378 54.5304 39.0178 54.6937 38.4671 54.6937ZM40.1611 41.9365C40.1611 42.7018 39.9651 43.3271 39.5731 43.8125C39.1811 44.2885 38.6725 44.5265 38.0471 44.5265C37.3938 44.5265 36.8758 44.2745 36.4931 43.7705C36.1011 43.2665 35.9051 42.5851 35.9051 41.7265C35.9051 41.3531 35.9471 40.9938 36.0311 40.6485C36.1151 40.2938 36.2318 39.9671 36.3811 39.6685L35.4571 39.6685C34.8971 39.6685 34.4771 39.8271 34.1971 40.1445C33.9078 40.4618 33.7631 40.9238 33.7631 41.5305C33.7631 41.8758 33.8145 42.2258 33.9171 42.5805C34.0105 42.9258 34.1645 43.3085 34.3791 43.7285L33.5811 44.1205C33.3385 43.6165 33.1611 43.1498 33.0491 42.7205C32.9371 42.2911 32.8811 41.8618 32.8811 41.4325C32.8811 40.5458 33.0911 39.8645 33.5111 39.3885C33.9311 38.9031 34.5331 38.6605 35.3171 38.6605L40.0351 38.6605L40.0351 39.6685L39.3491 39.6685C39.6198 39.9858 39.8251 40.3358 39.9651 40.7185C40.0958 41.0918 40.1611 41.4978 40.1611 41.9365ZM38.0191 43.5325C38.4111 43.5325 38.7331 43.3691 38.9851 43.0425C39.2278 42.7065 39.3491 42.2771 39.3491 41.7545C39.3491 41.3345 39.2838 40.9518 39.1531 40.6065C39.0225 40.2611 38.8171 39.9485 38.5371 39.6685L37.2211 39.6685C37.0251 39.9578 36.8851 40.2705 36.8011 40.6065C36.7078 40.9331 36.6611 41.2971 36.6611 41.6985C36.6611 42.2585 36.7871 42.7065 37.0391 43.0425C37.2818 43.3691 37.6085 43.5325 38.0191 43.5325ZM39.0691 31.3437L38.3971 30.7137C38.6958 30.3964 38.9291 30.0417 39.0971 29.6497C39.2558 29.2484 39.3351 28.8424 39.3351 28.4317C39.3351 27.8717 39.2185 27.4144 38.9851 27.0597C38.7518 26.7051 38.4485 26.5277 38.0751 26.5277C37.7765 26.5277 37.5431 26.6351 37.3751 26.8497C37.1978 27.0551 37.0765 27.3817 37.0111 27.8297L36.8431 29.0477C36.7405 29.7477 36.5351 30.2704 36.2271 30.6157C35.9098 30.9517 35.4851 31.1197 34.9531 31.1197C34.3651 31.1197 33.8798 30.8724 33.4971 30.3777C33.1051 29.8831 32.9091 29.2531 32.9091 28.4877C32.9091 27.9837 32.9838 27.5077 33.1331 27.0597C33.2825 26.6024 33.5158 26.1591 33.8331 25.7297L34.5331 26.2757C34.2718 26.6677 34.0758 27.0504 33.9451 27.4237C33.8145 27.7877 33.7491 28.1611 33.7491 28.5437C33.7491 29.0197 33.8565 29.4117 34.0711 29.7197C34.2858 30.0184 34.5658 30.1677 34.9111 30.1677C35.2098 30.1677 35.4431 30.0651 35.6111 29.8597C35.7698 29.6544 35.8818 29.3231 35.9471 28.8657L36.1151 27.6477C36.2085 26.9477 36.4185 26.4251 36.7451 26.0797C37.0625 25.7251 37.4871 25.5477 38.0191 25.5477C38.3178 25.5477 38.6025 25.6224 38.8731 25.7717C39.1345 25.9117 39.3631 26.1124 39.5591 26.3737C39.7458 26.6257 39.8951 26.9244 40.0071 27.2697C40.1098 27.6151 40.1611 27.9884 40.1611 28.3897C40.1611 28.9684 40.0678 29.5144 39.8811 30.0277C39.6851 30.5317 39.4145 30.9704 39.0691 31.3437ZM38.4671 17.3504L33.9031 17.3504L33.9031 18.8624L33.0211 18.8624L33.0211 17.3504L31.2431 17.3504L30.9771 16.3284L33.0211 16.3284L33.0211 14.2144L33.9031 14.2144L33.9031 16.3284L38.2011 16.3284C38.5745 16.3284 38.8451 16.2444 39.0131 16.0764C39.1718 15.9084 39.2511 15.633 39.2511 15.2504C39.2511 15.0544 39.2371 14.8817 39.2091 14.7324C39.1811 14.5737 39.1345 14.4057 39.0691 14.2284L39.9791 14.2284C40.0445 14.4057 40.0911 14.6064 40.1191 14.8304C40.1471 15.045 40.1611 15.255 40.1611 15.4604C40.1611 16.067 40.0165 16.5337 39.7271 16.8604C39.4378 17.187 39.0178 17.3504 38.4671 17.3504ZM39.2931 1.11585C39.5825 1.50785 39.8018 1.91852 39.9511 2.34785C40.0911 2.76785 40.1611 3.22985 40.1611 3.73385C40.1611 4.23785 40.0678 4.71385 39.8811 5.16185C39.6945 5.60052 39.4378 5.98319 39.1111 6.30985C38.7845 6.62719 38.4018 6.87919 37.9631 7.06585C37.5151 7.25252 37.0345 7.34585 36.5211 7.34585C36.0171 7.34585 35.5458 7.25719 35.1071 7.07985C34.6685 6.89319 34.2858 6.64585 33.9591 6.33785C33.6325 6.02985 33.3758 5.66585 33.1891 5.24585C33.0025 4.81652 32.9091 4.36385 32.9091 3.88785C32.9091 3.42119 33.0025 2.98719 33.1891 2.58585C33.3758 2.17519 33.6325 1.82519 33.9591 1.53585C34.2858 1.23719 34.6685 1.00385 35.1071 0.835853C35.5458 0.658519 36.0171 0.569852 36.5211 0.569852L36.8431 0.569852L36.8431 6.32385C37.5338 6.24919 38.1078 5.96452 38.5651 5.46985C39.0225 4.97519 39.2511 4.38252 39.2511 3.69185C39.2511 3.32785 39.1951 2.97319 39.0831 2.62785C38.9711 2.28252 38.8125 1.99319 38.6071 1.75985L39.2931 1.11585ZM33.8191 3.91585C33.8191 4.52252 34.0245 5.04985 34.4351 5.49785C34.8458 5.93652 35.3731 6.20252 36.0171 6.29585L36.0171 1.60585C35.4011 1.69919 34.8831 1.96519 34.4631 2.40385C34.0338 2.83319 33.8191 3.33719 33.8191 3.91585Z" fill="#2C2C2C"/>
</svg>
