<svg width="47" height="47" viewBox="0 0 47 47" fill="none" xmlns="http://www.w3.org/2000/svg">
<circle cx="23.5" cy="23.5" r="23.5" fill="#282828"/>
<path d="M25.9206 25.06C26.6573 24.7258 28.7678 23.6387 30.2491 21.5804C32.0319 19.1032 32.1916 16.2085 32.1975 16.0864L32.3473 13.0001L23.4979 25.296L17.7271 17.2777L16.4535 15.5081L14.6484 13L14.7984 16.0864C14.8043 16.2085 14.964 19.1032 16.7468 21.5803C18.228 23.6386 20.3386 24.7258 21.0752 25.06L22.3715 26.8612L20.3669 29.6466C20.1889 29.3866 19.9652 29.1569 19.7019 28.9674C19.2306 28.6283 18.6746 28.449 18.0942 28.449C17.2015 28.449 16.3564 28.8828 15.8334 29.6094C14.9377 30.8538 15.2158 32.5909 16.4532 33.4815C16.9245 33.8207 17.4804 34 18.0609 34C18.9535 34 19.7987 33.5662 20.3216 32.8396L23.4978 28.4263L26.6741 32.8396C27.197 33.5661 28.042 33.9999 28.9347 34H28.9349C29.5153 34 30.0712 33.8207 30.5425 33.4815C31.1431 33.0492 31.5379 32.4075 31.6542 31.6745C31.77 30.9445 31.5952 30.211 31.1622 29.6094C30.6393 28.8828 29.7941 28.449 28.9015 28.449C28.321 28.449 27.7651 28.6283 27.2937 28.9675C27.0305 29.1569 26.8068 29.3866 26.6288 29.6466L24.6242 26.8612L25.9206 25.06ZM18.061 32.1716C17.8662 32.1716 17.6795 32.1114 17.5213 31.9975C17.1022 31.6959 17.0107 31.1037 17.3175 30.6775C17.4978 30.4269 17.7882 30.2774 18.0942 30.2774C18.289 30.2774 18.4757 30.3376 18.634 30.4515C18.8358 30.5967 18.9685 30.8131 19.0078 31.0608C19.0476 31.3114 18.9871 31.5638 18.8376 31.7715C18.6573 32.0221 18.367 32.1716 18.061 32.1716ZM27.988 31.0608C28.0273 30.8132 28.16 30.5968 28.3618 30.4516C28.5201 30.3376 28.7068 30.2774 28.9016 30.2774C29.2076 30.2774 29.498 30.427 29.6783 30.6776C29.8278 30.8852 29.8883 31.1376 29.8485 31.3882C29.8092 31.6359 29.6764 31.8523 29.4746 31.9975C29.3163 32.1115 29.1297 32.1717 28.935 32.1717H28.9349C28.6288 32.1717 28.3385 32.0221 28.1582 31.7716C28.0087 31.5638 27.9483 31.3114 27.988 31.0608Z" fill="#B59E5C"/>
</svg>
