<svg width="109" height="109" viewBox="0 0 109 109" fill="none" xmlns="http://www.w3.org/2000/svg">
<path d="M62.3712 101.398C88.108 97.2635 105.62 73.0481 101.486 47.3113C97.3515 21.5746 73.1362 4.06234 47.3994 8.1967C21.6626 12.3311 4.15039 36.5464 8.28475 62.2832C12.4191 88.02 36.6344 105.532 62.3712 101.398Z" fill="white"/>
<path d="M54.8996 102.6C28.5996 102.6 7.09961 81.2 7.09961 54.8C7.09961 28.5 28.4996 7 54.8996 7C81.2996 7 102.7 28.4 102.7 54.8C102.7 81.2 81.1996 102.6 54.8996 102.6ZM54.8996 8.2C29.1996 8.2 8.1996 29.1 8.1996 54.9C8.1996 80.6 29.0996 101.6 54.8996 101.6C80.6996 101.6 101.6 80.7 101.6 54.9C101.5 29.1 80.5996 8.2 54.8996 8.2Z" fill="black"/>
<path d="M54.8996 100.7C29.5996 100.7 9.09961 80.1001 9.09961 54.9001C9.09961 29.6001 29.6996 9.1001 54.8996 9.1001C80.1996 9.1001 100.7 29.7001 100.7 54.9001C100.7 80.1001 80.1996 100.7 54.8996 100.7ZM54.8996 9.5001C29.8996 9.5001 9.59961 29.8001 9.59961 54.8001C9.59961 79.8001 29.8996 100.1 54.8996 100.1C79.8996 100.1 100.2 79.8001 100.2 54.8001C100.2 29.8001 79.8996 9.5001 54.8996 9.5001Z" fill="black"/>
<path d="M64.0992 85.6H45.9992C45.8992 85.6 45.7992 85.5 45.7992 85.4C45.7992 85.3 45.8992 85.2 45.9992 85.2H64.0992C64.1992 85.2 64.2992 85.3 64.2992 85.4C64.2992 85.5 64.1992 85.6 64.0992 85.6ZM68.8992 83.6H41.0992C40.9992 83.6 40.8992 83.5 40.8992 83.4C40.8992 83.3 40.9992 83.2 41.0992 83.2H68.8992C68.9992 83.2 69.0992 83.3 69.0992 83.4C69.0992 83.5 68.9992 83.6 68.8992 83.6ZM72.1992 81.7H37.7992C37.6992 81.7 37.5992 81.6 37.5992 81.5C37.5992 81.4 37.6992 81.3 37.7992 81.3H72.1992C72.2992 81.3 72.3992 81.4 72.3992 81.5C72.4992 81.6 72.3992 81.7 72.1992 81.7ZM74.8992 79.8H35.2992C35.1992 79.8 35.0992 79.7 35.0992 79.6C35.0992 79.5 35.1992 79.4 35.2992 79.4H74.8992C74.9992 79.4 75.0992 79.5 75.0992 79.6C75.0992 79.7 74.9992 79.8 74.8992 79.8ZM76.9992 77.9H33.0992C32.9992 77.9 32.8992 77.8 32.8992 77.7C32.8992 77.6 32.9992 77.5 33.0992 77.5H76.9992C77.0992 77.5 77.1992 77.6 77.1992 77.7C77.1992 77.8 77.0992 77.9 76.9992 77.9ZM78.6992 76H31.2992C31.1992 76 31.0992 75.9 31.0992 75.8C31.0992 75.7 31.1992 75.6 31.2992 75.6H78.6992C78.7992 75.6 78.8992 75.7 78.8992 75.8C78.9992 75.9 78.8992 76 78.6992 76ZM80.2992 74H29.7992C29.6992 74 29.5992 73.9 29.5992 73.8C29.5992 73.7 29.6992 73.6 29.7992 73.6H80.2992C80.3992 73.6 80.4992 73.7 80.4992 73.8C80.4992 73.9 80.3992 74 80.2992 74ZM81.5992 72.1H28.5992C28.4992 72.1 28.3992 72 28.3992 71.9C28.3992 71.8 28.4992 71.7 28.5992 71.7H81.5992C81.6992 71.7 81.7992 71.8 81.7992 71.9C81.7992 72 81.6992 72.1 81.5992 72.1ZM82.5992 70.2H27.3992C27.2992 70.2 27.1992 70.1 27.1992 70C27.1992 69.9 27.2992 69.8 27.3992 69.8H82.5992C82.6992 69.8 82.7992 69.9 82.7992 70C82.8992 70.1 82.7992 70.2 82.5992 70.2ZM83.5992 68.3H26.4992C26.3992 68.3 26.2992 68.2 26.2992 68.1C26.2992 68 26.3992 67.9 26.4992 67.9H83.5992C83.6992 67.9 83.7992 68 83.7992 68.1C83.7992 68.2 83.6992 68.3 83.5992 68.3ZM84.2992 66.3H25.6992C25.5992 66.3 25.4992 66.2 25.4992 66.1C25.4992 66 25.5992 65.9 25.6992 65.9H84.2992C84.3992 65.9 84.4992 66 84.4992 66.1C84.5992 66.2 84.4992 66.3 84.2992 66.3ZM84.9992 64.4H25.0992C24.9992 64.4 24.8992 64.3 24.8992 64.2C24.8992 64.1 24.9992 64 25.0992 64H84.9992C85.0992 64 85.1992 64.1 85.1992 64.2C85.1992 64.3 85.0992 64.4 84.9992 64.4ZM85.4992 62.5H24.6992C24.5992 62.5 24.4992 62.4 24.4992 62.3C24.4992 62.2 24.5992 62.1 24.6992 62.1H85.4992C85.5992 62.1 85.6992 62.2 85.6992 62.3C85.6992 62.4 85.5992 62.5 85.4992 62.5ZM85.7992 60.6H24.1992C24.0992 60.6 23.9992 60.5 23.9992 60.4C23.9992 60.3 24.0992 60.2 24.1992 60.2H85.7992C85.8992 60.2 85.9992 60.3 85.9992 60.4C85.9992 60.5 85.8992 60.6 85.7992 60.6ZM86.0992 58.6H24.0992C23.9992 58.6 23.8992 58.5 23.8992 58.4C23.8992 58.3 23.9992 58.2 24.0992 58.2H86.0992C86.1992 58.2 86.2992 58.3 86.2992 58.4C86.2992 58.5 86.1992 58.6 86.0992 58.6ZM86.1992 56.7H23.8992C23.7992 56.7 23.6992 56.6 23.6992 56.5C23.6992 56.4 23.7992 56.3 23.8992 56.3H86.1992C86.2992 56.3 86.3992 56.4 86.3992 56.5C86.3992 56.6 86.2992 56.7 86.1992 56.7ZM86.1992 54.8H23.8992C23.7992 54.8 23.6992 54.7 23.6992 54.6C23.6992 54.5 23.7992 54.4 23.8992 54.4H86.1992C86.2992 54.4 86.3992 54.5 86.3992 54.6C86.3992 54.7 86.2992 54.8 86.1992 54.8ZM86.0992 52.9H24.0992C23.9992 52.9 23.8992 52.8 23.8992 52.7C23.8992 52.6 23.9992 52.5 24.0992 52.5H86.0992C86.1992 52.5 86.2992 52.6 86.2992 52.7C86.2992 52.8 86.1992 52.9 86.0992 52.9ZM85.7992 51H24.1992C24.0992 51 23.9992 50.9 23.9992 50.8C23.9992 50.7 24.0992 50.6 24.1992 50.6H85.7992C85.8992 50.6 85.9992 50.7 85.9992 50.8C85.9992 50.9 85.8992 51 85.7992 51ZM85.4992 49H24.6992C24.5992 49 24.4992 48.9 24.4992 48.8C24.4992 48.7 24.5992 48.6 24.6992 48.6H85.4992C85.5992 48.6 85.6992 48.7 85.6992 48.8C85.6992 48.9 85.5992 49 85.4992 49ZM84.9992 47.1H25.0992C24.9992 47.1 24.8992 47 24.8992 46.9C24.8992 46.8 24.9992 46.7 25.0992 46.7H84.9992C85.0992 46.7 85.1992 46.8 85.1992 46.9C85.1992 47 85.0992 47.1 84.9992 47.1ZM84.2992 45.2H25.6992C25.5992 45.2 25.4992 45.1 25.4992 45C25.4992 44.9 25.5992 44.8 25.6992 44.8H84.2992C84.3992 44.8 84.4992 44.9 84.4992 45C84.4992 45.1 84.4992 45.2 84.2992 45.2ZM83.5992 43.3H26.4992C26.3992 43.3 26.2992 43.2 26.2992 43.1C26.2992 43 26.3992 42.9 26.4992 42.9H83.5992C83.6992 42.9 83.7992 43 83.7992 43.1C83.7992 43.2 83.6992 43.3 83.5992 43.3ZM82.5992 41.3H27.3992C27.2992 41.3 27.1992 41.2 27.1992 41.1C27.1992 41 27.2992 40.9 27.3992 40.9H82.5992C82.6992 40.9 82.7992 41 82.7992 41.1C82.8992 41.2 82.7992 41.3 82.5992 41.3ZM81.5992 39.4H28.5992C28.4992 39.4 28.3992 39.3 28.3992 39.2C28.3992 39.1 28.4992 39 28.5992 39H81.5992C81.6992 39 81.7992 39.1 81.7992 39.2C81.7992 39.3 81.6992 39.4 81.5992 39.4ZM80.2992 37.5H29.7992C29.6992 37.5 29.5992 37.4 29.5992 37.3C29.5992 37.2 29.6992 37.1 29.7992 37.1H80.2992C80.3992 37.1 80.4992 37.2 80.4992 37.3C80.4992 37.4 80.3992 37.5 80.2992 37.5ZM78.6992 35.6H31.2992C31.1992 35.6 31.0992 35.5 31.0992 35.4C31.0992 35.3 31.1992 35.2 31.2992 35.2H78.6992C78.7992 35.2 78.8992 35.3 78.8992 35.4C78.8992 35.5 78.8992 35.6 78.6992 35.6ZM76.9992 33.6H33.0992C32.9992 33.6 32.8992 33.5 32.8992 33.4C32.8992 33.3 32.9992 33.2 33.0992 33.2H76.9992C77.0992 33.2 77.1992 33.3 77.1992 33.4C77.1992 33.5 77.0992 33.6 76.9992 33.6ZM74.8992 31.7H35.2992C35.1992 31.7 35.0992 31.6 35.0992 31.5C35.0992 31.4 35.1992 31.3 35.2992 31.3H74.8992C74.9992 31.3 75.0992 31.4 75.0992 31.5C75.0992 31.6 74.9992 31.7 74.8992 31.7ZM72.1992 29.8H37.7992C37.6992 29.8 37.5992 29.7 37.5992 29.6C37.5992 29.5 37.6992 29.4 37.7992 29.4H72.1992C72.2992 29.4 72.3992 29.5 72.3992 29.6C72.4992 29.7 72.3992 29.8 72.1992 29.8ZM68.8992 27.9H41.0992C40.9992 27.9 40.8992 27.8 40.8992 27.7C40.8992 27.6 40.9992 27.5 41.0992 27.5H68.8992C68.9992 27.5 69.0992 27.6 69.0992 27.7C69.0992 27.8 68.9992 27.9 68.8992 27.9ZM64.0992 25.9H45.9992C45.8992 25.9 45.7992 25.8 45.7992 25.7C45.7992 25.6 45.8992 25.5 45.9992 25.5H64.0992C64.1992 25.5 64.2992 25.6 64.2992 25.7C64.2992 25.8 64.1992 25.9 64.0992 25.9Z" fill="black"/>
<path d="M65.8996 31.6C66.1996 31.6 66.4996 31.5 66.6996 31.3C66.9996 31.1 67.0996 30.7 67.0996 30.4V27.3C67.0996 27 66.9996 26.8 66.7996 26.5C66.5996 26.3 66.1996 26.1 65.6996 25.9C65.0996 23.2 63.2996 20.8 60.5996 19.4H60.4996C59.9996 19.2 59.6996 18.7 59.5996 18.2C59.4996 17.7 59.6996 17.2 60.0996 16.9C62.4996 15.2 63.8996 12.5 63.8996 9.5C63.8996 4.5 59.8996 0.5 54.8996 0.5C49.8996 0.5 45.8996 4.5 45.8996 9.5C45.8996 12.4 47.2996 15.1 49.6996 16.8C50.0996 17.1 50.2996 17.6 50.1996 18.1C50.0996 18.6 49.7996 19.1 49.1996 19.3C49.1996 19.3 49.1996 19.3 49.0996 19.3C46.3996 20.7 44.4996 23.1 43.9996 25.8C43.2996 26 42.5996 26.4 42.5996 27.1V30.2C42.5996 30.5 42.6996 30.9 42.9996 31.1C43.1996 31.3 43.4996 31.4 43.7996 31.4H43.8996V80.9H43.7996C43.4996 80.9 43.1996 81 42.9996 81.2C42.6996 81.4 42.5996 81.8 42.5996 82.1V85.2C42.5996 86 43.4996 86.4 44.2996 86.6C45.3996 89.7 48.0996 92 51.5996 93C51.1996 93.6 50.9996 94.3 50.9996 95C50.9996 97.1 52.6996 98.8 54.7996 98.8C56.8996 98.8 58.5996 97.1 58.5996 95C58.5996 94.3 58.3996 93.6 57.9996 93C61.4996 92.1 64.2996 89.7 65.2996 86.6C65.8996 86.4 66.3996 86.2 66.5996 85.9C66.7996 85.7 66.8996 85.4 66.8996 85.1V82C66.8996 81.7 66.7996 81.3 66.4996 81.1C66.2996 80.9 65.9996 80.8 65.6996 80.8H65.5996L65.8996 31.6C65.7996 31.6 65.8996 31.6 65.8996 31.6Z" fill="white"/>
<path d="M45.2988 71.9002C45.8988 67.3002 50.9988 64.0002 55.8988 60.8002C59.3988 58.5002 62.6988 56.3002 64.4988 53.7002V58.2002C64.4988 62.1002 59.9988 65.1002 55.1988 68.2002C51.2988 70.7002 47.3988 73.4002 45.2988 76.7002V71.9002Z" fill="black"/>
<path d="M54.8992 81.5999C56.1992 81.5999 57.3992 81.5999 58.6992 81.4999C61.5992 79.3999 64.4992 76.8999 64.4992 73.8999V69.3999C62.6992 71.9999 59.3992 74.1999 55.8992 76.4999C53.4992 77.9999 51.0992 79.5999 49.1992 81.3999C51.0992 81.5999 52.9992 81.5999 54.8992 81.5999Z" fill="black"/>
<path d="M45.2988 44.9002C47.2988 41.5002 51.2988 38.9002 55.1988 36.4002C57.7988 34.7002 60.1988 33.1002 61.8988 31.4002C59.4988 31.3002 57.1988 31.2002 54.7988 31.2002C54.0988 31.2002 53.2988 31.2002 52.5988 31.2002C49.2988 33.6002 45.7988 36.4002 45.2988 40.1002V44.9002Z" fill="black"/>
<path d="M45.2988 60.7002C47.2988 57.3002 51.2988 54.7002 55.1988 52.2002C59.9988 49.0002 64.4988 46.1002 64.4988 42.2002V37.7002C62.6988 40.3002 59.3988 42.5002 55.8988 44.8002C50.9988 48.0002 45.9988 51.3002 45.2988 55.9002V60.7002Z" fill="black"/>
<path d="M65.8996 31.6C66.1996 31.6 66.4996 31.5 66.6996 31.3C66.9996 31.1 67.0996 30.7 67.0996 30.4V27.3C67.0996 27 66.9996 26.8 66.7996 26.5C66.5996 26.3 66.1996 26.1 65.6996 25.9C65.0996 23.2 63.2996 20.8 60.5996 19.4H60.4996C59.9996 19.2 59.6996 18.7 59.5996 18.2C59.4996 17.7 59.6996 17.2 60.0996 16.9C62.4996 15.2 63.8996 12.5 63.8996 9.5C63.8996 4.5 59.8996 0.5 54.8996 0.5C49.8996 0.5 45.8996 4.5 45.8996 9.5C45.8996 12.4 47.2996 15.1 49.6996 16.8C50.0996 17.1 50.2996 17.6 50.1996 18.1C50.0996 18.6 49.7996 19.1 49.1996 19.3C49.1996 19.3 49.1996 19.3 49.0996 19.3C46.3996 20.7 44.4996 23.1 43.9996 25.8C43.2996 26 42.5996 26.4 42.5996 27.1V30.2C42.5996 30.5 42.6996 30.9 42.9996 31.1C43.1996 31.3 43.4996 31.4 43.7996 31.4H43.8996V80.9H43.7996C43.4996 80.9 43.1996 81 42.9996 81.2C42.6996 81.4 42.5996 81.8 42.5996 82.1V85.2C42.5996 86 43.4996 86.4 44.2996 86.6C45.3996 89.7 48.0996 92 51.5996 93C51.1996 93.6 50.9996 94.3 50.9996 95C50.9996 97.1 52.6996 98.8 54.7996 98.8C56.8996 98.8 58.5996 97.1 58.5996 95C58.5996 94.3 58.3996 93.6 57.9996 93C61.4996 92.1 64.2996 89.7 65.2996 86.6C65.8996 86.4 66.3996 86.2 66.5996 85.9C66.7996 85.7 66.8996 85.4 66.8996 85.1V82C66.8996 81.7 66.7996 81.3 66.4996 81.1C66.2996 80.9 65.9996 80.8 65.6996 80.8H65.5996L65.8996 31.6C65.7996 31.6 65.8996 31.6 65.8996 31.6ZM66.0996 82.1C66.1996 82.2 66.1996 82.3 66.1996 82.4V85.5C66.1996 85.5 66.1996 85.6 66.0996 85.7C65.6996 86.1 64.4996 86.4 62.8996 86.6C62.0996 86.7 61.2996 86.8 60.3996 86.8C58.6996 86.9 56.7996 87 54.9996 87H54.8996C53.5996 87 50.2996 87 47.3996 86.7C46.7996 86.6 46.2996 86.6 45.7996 86.5C43.5996 86.1 43.4996 85.7 43.4996 85.6V82.5C43.4996 82.4 43.4996 82.3 43.5996 82.2C43.6996 82.1 43.6996 82.1 43.7996 82.1C45.6996 82.3 48.0996 82.5 54.7996 82.5C61.3996 82.5 63.7996 82.3 65.7996 82.1C65.9996 82 66.0996 82.1 66.0996 82.1ZM54.0996 93.2C54.3996 93.2 54.5996 93.2 54.8996 93.2C55.5996 93.2 56.1996 93.1 56.7996 93C57.3996 93.5 57.7996 94.3 57.7996 95.2C57.7996 96.8 56.4996 98.1 54.8996 98.1C53.2996 98.1 51.9996 96.8 51.9996 95.2C51.9996 94.4 52.3996 93.6 52.9996 93C53.0996 93 53.2996 93 53.3996 93.1C53.6996 93.2 53.8996 93.2 54.0996 93.2ZM64.5996 86.7C63.2996 90.3 59.3996 92.9 54.8996 92.9C50.3996 92.9 46.4996 90.4 45.1996 86.7C46.0996 86.9 46.8996 87 47.7996 87.1C50.5996 87.4 53.5996 87.4 54.8996 87.4C54.8996 87.4 54.8996 87.4 54.9996 87.4C55.5996 87.4 57.8996 87.4 60.1996 87.2C61.3996 87.1 62.9996 86.9 64.5996 86.7ZM64.8996 81.7C63.0996 81.9 60.4996 82 54.8996 82C49.2996 82 46.6996 81.8 44.8996 81.7V31.1C46.6996 30.9 49.2996 30.8 54.8996 30.8C60.4996 30.8 63.0996 31 64.8996 31.1V81.7ZM54.8996 30.3C48.2996 30.3 45.8996 30.5 43.8996 30.7C43.7996 30.7 43.6996 30.7 43.5996 30.6C43.4996 30.5 43.4996 30.4 43.4996 30.3V27.2C43.4996 27.1 43.5996 26.5 47.3996 26.1C50.2996 25.8 53.5996 25.8 54.8996 25.8H54.9996C59.7996 25.8 65.2996 26.2 66.0996 27.1C66.1996 27.2 66.1996 27.2 66.1996 27.3V30.4C66.1996 30.5 66.1996 30.6 66.0996 30.7C65.9996 30.8 65.8996 30.8 65.7996 30.8C63.8996 30.5 61.4996 30.3 54.8996 30.3ZM44.8996 26.2C45.3996 23.7 47.0996 21.6 49.5996 20.3C50.3996 19.9 50.9996 19.2 51.0996 18.4C51.1996 18 51.0996 17.6 50.8996 17.2C52.0996 17.8 53.3996 18.2 54.7996 18.2C56.1996 18.2 57.5996 17.9 58.6996 17.2C58.4996 17.6 58.4996 18 58.4996 18.4C58.5996 19.2 59.1996 20 59.9996 20.3C62.4996 21.6 64.1996 23.8 64.6996 26.2C64.4996 26 60.8996 25.6 58.4996 25.5C56.6996 25.4 55.1996 25.4 54.7996 25.4C54.7996 25.4 54.7996 25.4 54.6996 25.4C53.4996 25.4 50.3996 25.4 47.5996 25.7C46.7996 25.9 45.3996 26.1 44.8996 26.2ZM46.7996 9.6C46.7996 5.1 50.3996 1.5 54.8996 1.5C59.3996 1.5 62.9996 5.1 62.9996 9.6C62.9996 14.1 59.3996 17.7 54.8996 17.7C50.3996 17.7 46.7996 14 46.7996 9.6ZM45.2996 31.8C51.7996 31.1 57.7996 31 64.2996 31.5C57.6996 31.7 51.7996 31.8 45.2996 31.8ZM64.4996 81.2C57.8996 81.9 51.7996 82 45.1996 81.3C51.8996 81.2 57.9996 81.1 64.4996 81.2ZM64.4996 32.9C64.8996 48.7 64.6996 63 64.3996 78.6C63.9996 62.9 64.1996 48.6 64.4996 32.9ZM63.8996 78.6C63.5996 62.9 63.7996 48.6 63.9996 32.9C64.2996 48.7 63.9996 63 63.8996 78.6ZM45.7996 78.6C45.4996 62.9 45.6996 48.6 45.8996 32.9C46.1996 48.7 45.9996 63 45.7996 78.6ZM63.1996 78.6C62.8996 62.9 63.0996 48.6 63.2996 32.9C63.5996 48.7 63.3996 63 63.1996 78.6ZM45.2996 78.6C44.7996 62.9 45.0996 48.6 45.3996 32.9C45.7996 48.7 45.5996 63 45.2996 78.6ZM65.7996 29.8C65.7996 29.9 65.6996 30.1 65.5996 30.2C65.4996 30.3 65.2996 30.3 65.1996 30.3C62.4996 30.1 59.8996 30 57.1996 29.8C57.0996 29.8 57.0996 29.8 56.9996 29.8C56.6996 29.7 56.3996 29.7 55.9996 29.7C55.9996 29.7 55.4996 29.6 55.3996 29.6C55.3996 29.5 55.9996 29.4 55.9996 29.4C56.2996 29.4 56.5996 29.3 56.8996 29.3C56.5996 29.2 56.2996 29.2 55.9996 29.2C55.9996 29.2 55.4996 29.1 55.4996 29C55.4996 28.9 56.0996 28.8 56.0996 28.8C56.3996 28.8 56.5996 28.7 56.8996 28.7L56.0996 28.6C56.0996 28.6 55.5996 28.5 55.5996 28.4C55.5996 28.3 56.1996 28.3 56.1996 28.3L56.9996 28.2L56.1996 28C56.1996 28 55.6996 27.9 55.6996 27.8C55.6996 27.7 56.2996 27.7 56.2996 27.7L57.0996 27.6L56.1996 27.4C56.1996 27.4 55.6996 27.3 55.6996 27.2C55.6996 27.1 56.2996 27.1 56.2996 27.1L57.1996 27L56.1996 26.8C56.1996 26.8 55.6996 26.7 55.6996 26.6C55.6996 26.5 56.2996 26.5 56.2996 26.5H57.3996C57.7996 26.4 59.7996 26.6 59.9996 26.6C61.5996 26.7 63.1996 26.9 64.7996 27.2C65.2996 27.3 65.9996 27.3 66.1996 27.9C66.1996 28.3 65.8996 29.2 65.7996 29.8ZM48.8996 29.8C48.8996 29.9 48.2996 29.9 48.2996 29.9C47.9996 29.9 47.6996 30 47.3996 30H47.2996H47.1996L44.5996 30.2C44.3996 30.2 44.2996 30.2 44.0996 30.1C43.8996 30 43.8996 29.7 43.8996 29.5C43.8996 29 43.8996 28.5 43.8996 28C43.8996 27.7 43.7996 27.3 43.9996 27.1C44.2996 26.9 44.9996 26.8 45.3996 26.8C45.8996 26.7 46.3996 26.6 46.8996 26.5C46.9996 26.5 47.0996 26.5 47.0996 26.5H48.2996C48.2996 26.5 48.8996 26.5 48.8996 26.6C48.8996 26.7 48.2996 26.8 48.2996 26.8L47.5996 27C47.5996 27 47.5996 27 47.5996 27.1H48.2996C48.2996 27.1 48.8996 27.1 48.8996 27.2C48.8996 27.3 48.2996 27.4 48.2996 27.4L47.5996 27.5C47.5996 27.5 47.5996 27.5 47.5996 27.6L48.2996 27.7C48.2996 27.7 48.7996 27.8 48.8996 27.8C48.8996 27.9 48.2996 28 48.2996 28L47.5996 28.1C47.5996 28.1 47.5996 28.1 47.5996 28.2L48.2996 28.3L48.7996 28.4L48.1996 28.6L47.4996 28.7C47.6996 28.7 47.9996 28.8 48.1996 28.8C48.1996 28.8 48.6996 28.9 48.6996 29C48.6996 29.1 48.0996 29.2 48.0996 29.2C47.8996 29.2 47.5996 29.3 47.3996 29.3C47.6996 29.3 47.8996 29.4 48.1996 29.4C48.3996 29.6 48.8996 29.7 48.8996 29.8ZM48.3996 83.2C48.0996 83.2 47.8996 83.3 47.5996 83.3C47.7996 83.3 48.0996 83.4 48.2996 83.4C48.2996 83.4 48.8996 83.5 48.8996 83.6C48.8996 83.7 48.3996 83.8 48.3996 83.8C48.1996 83.8 47.8996 83.9 47.6996 83.9L48.3996 84C48.3996 84 48.9996 84.1 48.9996 84.2C48.9996 84.3 48.4996 84.3 48.4996 84.3L47.7996 84.4C47.7996 84.4 47.7996 84.4 47.7996 84.5L48.4996 84.6C48.4996 84.6 49.0996 84.7 49.0996 84.8C49.0996 84.9 48.4996 84.9 48.4996 84.9L47.7996 85C47.7996 85 47.7996 85 47.7996 85.1L48.4996 85.2C48.4996 85.2 49.0996 85.3 49.0996 85.4C49.0996 85.5 48.4996 85.5 48.4996 85.5H47.7996C47.7996 85.5 47.7996 85.5 47.7996 85.6L48.4996 85.8C48.4996 85.8 49.0996 85.9 49.0996 86C49.0996 86.1 48.4996 86.1 48.4996 86.1H47.2996C47.1996 86.1 47.0996 86.1 47.0996 86.1C46.5996 86 46.0996 85.9 45.5996 85.8C45.2996 85.7 44.4996 85.7 44.1996 85.5C43.9996 85.3 44.0996 84.9 44.0996 84.6C44.0996 84.1 44.0996 83.6 44.0996 83.1C44.0996 82.9 44.0996 82.7 44.2996 82.5C44.3996 82.4 44.5996 82.4 44.7996 82.4L47.3996 82.6H47.4996H47.5996C47.8996 82.7 48.1996 82.7 48.4996 82.7L49.0996 82.8C48.8996 83.1 48.3996 83.2 48.3996 83.2ZM55.4996 83.2C55.4996 83.1 56.0996 83.1 56.0996 83.1C56.3996 83.1 56.7996 83 57.0996 83C57.1996 83 57.1996 83 57.2996 83C59.9996 82.8 62.5996 82.7 65.2996 82.5C65.4996 82.5 65.5996 82.5 65.6996 82.6C65.7996 82.7 65.7996 82.9 65.8996 83C65.9996 83.6 66.1996 84.5 65.9996 85.1C65.7996 85.7 65.0996 85.7 64.5996 85.8C62.9996 86.1 61.3996 86.4 59.7996 86.4C59.5996 86.4 57.4996 86.6 57.1996 86.5H56.0996C56.0996 86.5 55.4996 86.5 55.4996 86.4C55.4996 86.3 55.9996 86.2 55.9996 86.2L56.9996 86L56.0996 85.9C56.0996 85.9 55.4996 85.9 55.4996 85.8C55.4996 85.7 55.9996 85.6 55.9996 85.6L56.8996 85.4L56.0996 85.3L55.4996 85.2C55.4996 85.1 55.9996 85 55.9996 85L56.7996 84.8L55.9996 84.7L55.3996 84.6C55.3996 84.5 55.8996 84.4 55.8996 84.4L56.6996 84.3C56.3996 84.3 56.1996 84.2 55.8996 84.2C55.8996 84.2 55.2996 84.1 55.2996 84C55.2996 83.9 55.7996 83.8 55.7996 83.8C56.0996 83.8 56.3996 83.7 56.6996 83.7C56.3996 83.7 56.0996 83.6 55.7996 83.6C56.0996 83.4 55.4996 83.3 55.4996 83.2Z" fill="black"/>
<path d="M54.9 1.7998C54.6 1.7998 54.4 1.7998 54.1 1.7998C57.1 2.0998 59.4 4.69981 59.4 7.69981C59.4 10.9998 56.7 13.6998 53.4 13.6998C50.1 13.6998 47.4 10.9998 47.4 7.69981C47.4 7.49981 47.4 7.29981 47.4 7.19981C47.2 7.89981 47 8.6998 47 9.4998C47 13.7998 50.5 17.1998 54.7 17.1998C58.9 17.1998 62.4 13.6998 62.4 9.4998C62.7 5.2998 59.2 1.7998 54.9 1.7998Z" fill="black"/>
<path d="M60 20.6999C59 20.2999 58.4 19.3999 58.2 18.3999C58.2 18.1999 58.2 18.0999 58.2 17.8999C57.9 17.9999 57.6 18.0999 57.2 18.1999C57.8 19.4999 57.7 21.1999 57 22.8999C56.6 23.6999 56.1 24.3999 55.5 24.9999C56.2 24.9999 57.4 24.9999 58.7 25.0999C59.6 25.0999 62.7 25.3999 64.3 25.5999C63.7 23.5999 62.2 21.7999 60 20.6999Z" fill="black"/>
<path d="M49.1 21.1001C47.3 22.2001 46.1 23.8001 45.5 25.6001C46 25.5001 46.6 25.4001 47.2 25.4001L47.7 25.3001C48.5 25.2001 49.2 25.2001 50 25.1001C49.2 24.2001 48.8 22.6001 49.1 21.1001Z" fill="black"/>
<path d="M49 87.6003C48.6 87.6003 48.2 87.5003 47.9 87.5003C47.3 87.4003 46.7 87.4003 46 87.3003C46.7 88.8003 47.9 90.0003 49.3 90.9003C48.9 89.7003 48.8 88.6003 49 87.6003Z" fill="black"/>
<path d="M60.2004 87.6002C58.5004 87.7002 56.9004 87.7002 55.9004 87.8002C56.0004 88.0002 56.1004 88.2002 56.2004 88.4002C56.7004 89.7002 56.9004 91.1002 56.6004 92.2002C59.9004 91.7002 62.7004 89.8002 63.9004 87.2002C62.6004 87.4002 61.3004 87.6002 60.2004 87.6002Z" fill="black"/>
<path d="M56.7 93.6001C56.3 93.7001 55.9 93.7001 55.5 93.7001C55.9 94.0001 56.1 94.5001 56.1 95.0001C56.1 96.0001 55.3 96.8001 54.3 96.8001C53.3 96.8001 52.6 96.0001 52.5 95.1001V95.2001C52.5 96.5001 53.6 97.6001 54.9 97.6001C56.2 97.6001 57.3 96.5001 57.3 95.2001C57.4 94.6001 57.1 94.0001 56.7 93.6001Z" fill="black"/>
<path d="M76.3008 86.0999L74.6008 87.1999C75.2008 86.2999 75.2008 85.0999 74.6008 84.1999L73.4008 82.3999C72.9008 82.7999 72.5008 83.3999 72.4008 83.9999C72.3008 84.5999 72.4008 85.2999 72.8008 85.9999L73.4008 87.0999C73.6008 87.3999 73.5008 87.8999 73.1008 88.0999C72.8008 88.2999 72.5008 88.3999 72.5008 88.3999C72.4008 88.4999 72.3008 88.5999 72.4008 88.7999C72.5008 88.8999 72.6008 88.9999 72.7008 88.8999C72.7008 88.8999 73.0008 88.6999 73.3008 88.4999C73.6008 88.2999 74.1008 88.3999 74.3008 88.6999L74.9008 89.7999C75.3008 90.3999 75.9008 90.8999 76.6008 90.9999C77.3008 91.0999 78.1008 90.8999 78.8008 90.4999L77.6008 88.6999C76.9008 87.7999 75.8008 87.3999 74.7008 87.5999L76.5008 86.3999L76.3008 86.0999Z" fill="black"/>
<path d="M76.6013 86.5001L77.7013 88.1001C78.1013 88.7001 78.8013 89.1001 79.5013 89.1001C80.2013 89.2001 81.0013 88.9001 81.7013 88.4001L80.3013 86.7001C79.6013 85.8001 78.4013 85.5001 77.3013 85.8001L79.0013 84.5001L78.7013 84.1001L77.1013 85.3001C77.6013 84.4001 77.6013 83.2001 76.9013 82.3001L75.5013 80.6001C75.0013 81.0001 74.7013 81.6001 74.7013 82.3001C74.6013 83.0001 74.8013 83.6001 75.2013 84.3001L76.3013 85.9001L76.6013 86.5001Z" fill="black"/>
<path d="M79 84.7001L80.3 86.2001C81.2 87.4001 83 87.4001 84.3 86.2001L82.8 84.6001C82 83.8001 80.8 83.6001 79.8 84.0001L80.6 83.3001C80.9 83.1001 81.1 82.8001 81.4 82.6001L81 82.2001C80.8 82.4001 80.5 82.7001 80.3 82.9001L79.5 83.6001C80 82.6001 79.8 81.5001 79 80.7001L77.5 79.1001C76.5 80.0001 76.5 81.6001 77.5 82.7001L78.7 84.2001L79 84.7001Z" fill="black"/>
<path d="M81.3012 82.6002L82.7012 84.0002C83.2012 84.5002 83.9012 84.8002 84.6012 84.7002C85.0012 84.7002 85.3012 84.6002 85.7012 84.4002C85.9012 84.3002 86.0012 84.2002 86.2012 84.1002C86.4012 84.0002 86.5012 83.8002 86.6012 83.7002L85.0012 82.3002C84.6012 81.9002 84.0012 81.7002 83.5012 81.7002C83.0012 81.6002 82.4012 81.7002 81.9012 82.0002L82.6012 81.2002C82.8012 80.9002 83.1012 80.7002 83.3012 80.4002L83.0012 80.0002C82.8012 80.3002 82.6012 80.5002 82.3012 80.8002L81.6012 81.5002C81.8012 81.0002 81.9012 80.5002 81.7012 80.0002C81.6012 79.5002 81.3012 79.0002 80.9012 78.6002L79.3012 77.2002C79.2012 77.3002 79.1012 77.5002 79.0012 77.6002C78.9012 77.7002 78.9012 77.9002 78.8012 78.0002C78.7012 78.3002 78.7012 78.6002 78.7012 78.9002C78.7012 79.6002 79.0012 80.2002 79.5012 80.8002L80.9012 82.2002L81.3012 82.6002Z" fill="black"/>
<path d="M83.4016 80.4001L84.9016 81.7001C85.5016 82.2001 86.2016 82.4001 86.9016 82.3001C87.3016 82.2001 87.6016 82.1001 88.0016 81.9001C88.3016 81.7001 88.6016 81.4001 88.9016 81.1001L87.2016 79.8001C86.7016 79.5001 86.2016 79.3001 85.7016 79.3001C85.4016 79.3001 85.2016 79.3001 84.9016 79.4001C84.6016 79.5001 84.4016 79.6001 84.1016 79.7001C84.6016 79.2001 85.0016 78.6001 85.4016 78.0001L85.0016 77.7001C84.6016 78.2001 84.2016 78.8001 83.7016 79.3001C83.8016 79.0001 83.8016 78.8001 83.8016 78.5001C83.8016 78.2001 83.7016 78.0001 83.7016 77.7001C83.5016 77.2001 83.2016 76.8001 82.8016 76.4001L81.1016 75.1001C80.9016 75.4001 80.8016 75.7001 80.7016 76.0001C80.6016 76.3001 80.6016 76.6001 80.6016 76.9001C80.7016 77.5001 81.0016 78.2001 81.6016 78.7001L83.0016 80.0001L83.4016 80.4001Z" fill="black"/>
<path d="M85.4001 77.9999L87.0001 79.1999C87.6001 79.5999 88.3001 79.7999 89.0001 79.5999C89.7001 79.4999 90.4001 78.9999 90.8001 78.2999L89.0001 77.0999C88.0001 76.4999 86.8001 76.5999 85.9001 77.1999C86.3001 76.5999 86.7001 75.9999 87.1001 75.3999L86.6001 75.0999C86.2001 75.6999 85.9001 76.1999 85.5001 76.7999C85.7001 75.6999 85.3001 74.5999 84.3001 74.0999L82.5001 72.8999C82.1001 73.3999 82.1001 74.0999 82.2001 74.6999C82.3001 75.2999 82.7001 75.9999 83.3001 76.3999L84.9001 77.5999L85.4001 77.9999Z" fill="black"/>
<path d="M87.0999 75.4999L88.7999 76.4999C89.3999 76.8999 90.1999 76.9999 90.8999 76.7999C91.5999 76.5999 92.1999 76.0999 92.5999 75.2999L90.6999 74.2999C89.6999 73.7999 88.4999 73.9999 87.5999 74.6999L88.5999 72.8999L88.0999 72.6999L87.0999 74.4999C87.1999 73.3999 86.6999 72.3999 85.6999 71.8999L83.7999 70.8999C83.4999 71.4999 83.4999 72.0999 83.6999 72.7999C83.8999 73.3999 84.2999 73.9999 84.8999 74.3999L86.5999 75.3999L87.0999 75.4999Z" fill="black"/>
<path d="M88.6008 72.8002L90.3008 73.7002C91.0008 74.0002 91.7008 74.1002 92.4008 73.8002C93.1008 73.5002 93.7008 73.0002 94.0008 72.2002L92.0008 71.3002C90.9008 70.9002 89.7008 71.1002 88.9008 71.9002C89.2008 71.3002 89.5008 70.6002 89.8008 70.0002L89.3008 69.8002C89.1008 70.4002 88.7008 71.0002 88.5008 71.6002C88.6008 70.5002 88.0008 69.5002 86.9008 69.1002L84.9008 68.2002C84.6008 68.8002 84.6008 69.4002 84.9008 70.1002C85.2008 70.7002 85.6008 71.3002 86.3008 71.6002L88.0008 72.5002L88.6008 72.8002Z" fill="black"/>
<path d="M89.9004 70.0003L91.7004 70.8003C92.4004 71.1003 93.1004 71.0003 93.8004 70.7003C94.1004 70.5003 94.4004 70.3003 94.7004 70.0003C95.0004 69.7003 95.2004 69.4003 95.3004 69.0003L93.3004 68.3003C92.8004 68.1003 92.2004 68.1003 91.7004 68.3003C91.2004 68.5003 90.7004 68.7003 90.3004 69.2003C90.6004 68.5003 90.8004 67.9003 91.0004 67.2003L90.5004 67.0003C90.3004 67.7003 90.1004 68.3003 89.8004 68.9003C89.8004 68.4003 89.6004 67.9003 89.3004 67.4003C89.0004 67.0003 88.5004 66.7003 88.0004 66.5003L86.0004 65.8003C85.9004 66.1003 85.9004 66.4003 85.9004 66.7003C85.9004 67.0003 86.0004 67.3003 86.2004 67.6003C86.5004 68.2003 87.0004 68.7003 87.7004 69.0003L89.5004 69.8003L89.9004 70.0003Z" fill="black"/>
<path d="M91.0016 67.1003L92.9016 67.7003C93.6016 67.9003 94.3016 67.8003 95.0016 67.5003C95.3016 67.3003 95.6016 67.1003 95.8016 66.7003C96.0016 66.4003 96.2016 66.0003 96.3016 65.6003L94.2016 65.1003C93.6016 65.0003 93.1016 65.0003 92.6016 65.2003C92.1016 65.4003 91.7016 65.7003 91.3016 66.2003C91.5016 65.5003 91.7016 64.8003 91.9016 64.2003L91.4016 64.1003C91.2016 64.8003 91.1016 65.4003 90.9016 66.1003C90.9016 65.8003 90.8016 65.6003 90.7016 65.3003C90.6016 65.1003 90.4016 64.8003 90.3016 64.6003C90.0016 64.2003 89.5016 63.9003 88.9016 63.8003L86.8016 63.3003C86.7016 63.6003 86.7016 63.9003 86.8016 64.2003C86.8016 64.5003 87.0016 64.8003 87.1016 65.1003C87.4016 65.7003 88.0016 66.1003 88.7016 66.4003L90.6016 67.0003L91.0016 67.1003Z" fill="black"/>
<path d="M91.8012 64.2L93.7012 64.7C95.1012 65.1 96.7012 64 96.9012 62.3L94.8012 61.9C93.7012 61.7 92.6012 62.3 92.0012 63.2C92.2012 62.5 92.3012 61.8 92.4012 61.1L91.9012 61C91.8012 61.7 91.7012 62.3 91.5012 63C91.3012 61.9 90.5012 61.1 89.4012 60.9L87.3012 60.5C87.1012 61.8 88.0012 63.1 89.4012 63.4L91.3012 63.9L91.8012 64.2Z" fill="black"/>
<path d="M92.4014 61.2L94.3014 61.5C95.0014 61.6 95.7014 61.4 96.3014 60.9C96.8014 60.4 97.2014 59.7 97.3014 58.9L95.2014 58.7C94.1014 58.6 93.0014 59.3 92.5014 60.2L92.7014 58.1H92.2014L92.0014 60.1C91.7014 59.1 90.8014 58.3 89.7014 58.2L87.6014 58C87.5014 58.6 87.8014 59.3 88.2014 59.8C88.6014 60.3 89.2014 60.7 90.0014 60.8L91.9014 61.1L92.4014 61.2Z" fill="black"/>
<path d="M92.8004 58.1001L94.8004 58.3001C95.5004 58.4001 96.3004 58.1001 96.7004 57.6001C97.2004 57.1001 97.5004 56.3001 97.6004 55.5001H95.5004C94.4004 55.5001 93.4004 56.2001 92.9004 57.2001L93.0004 55.1001H92.5004L92.4004 57.1001C92.0004 56.1001 91.1004 55.4001 90.0004 55.4001H87.9004C87.9004 56.0001 88.2004 56.6001 88.6004 57.1001C89.1004 57.6001 89.7004 57.9001 90.4004 58.0001L92.3004 58.2001L92.8004 58.1001Z" fill="black"/>
<path d="M92.9004 54.9999H94.9004C96.4004 54.9999 97.5004 53.5999 97.5004 51.8999L95.4004 52.0999C94.3004 52.1999 93.3004 52.9999 93.0004 53.9999C93.0004 53.2999 93.0004 52.5999 92.9004 51.8999H92.4004C92.5004 52.5999 92.5004 53.2999 92.5004 53.8999C92.1004 52.8999 91.1004 52.2999 90.0004 52.3999L87.9004 52.5999C87.9004 53.8999 89.2004 54.8999 90.7004 54.8999H92.7004L92.9004 54.9999Z" fill="black"/>
<path d="M92.8004 52.0001L94.8004 51.8001C96.3004 51.7001 97.3004 50.2001 97.1004 48.6001L95.0004 48.9001C93.9004 49.1001 93.0004 50.0001 92.7004 51.0001L92.6004 50.0001C92.6004 49.6001 92.5004 49.3001 92.4004 49.0001L91.9004 49.1001C91.9004 49.3001 92.0004 49.4001 92.0004 49.6001L92.1004 50.1001L92.2004 51.1001C91.7004 50.2001 90.7004 49.6001 89.5004 49.8001L87.4004 50.1001C87.6004 51.4001 88.9004 52.3001 90.3004 52.2001L92.2004 52.0001H92.8004Z" fill="black"/>
<path d="M92.4012 48.9001L94.3012 48.6001C95.0012 48.5001 95.6012 48.1001 96.0012 47.4001C96.4012 46.8001 96.6012 46.0001 96.3012 45.1001L94.2012 45.6001C93.6012 45.7001 93.2012 46.0001 92.8012 46.4001C92.4012 46.8001 92.2012 47.3001 92.1012 47.9001C92.0012 47.2001 91.9012 46.5001 91.7012 45.8001L91.2012 45.9001C91.4012 46.6001 91.5012 47.2001 91.6012 47.9001C91.3012 47.5001 90.9012 47.1001 90.4012 46.9001C89.9012 46.7001 89.4012 46.7001 88.8012 46.8001L86.7012 47.3001C86.9012 47.9001 87.2012 48.4001 87.8012 48.8001C88.4012 49.1001 89.1012 49.3001 89.8012 49.2001L91.7012 48.9001H92.4012Z" fill="black"/>
<path d="M91.8008 45.9003L93.7008 45.4003C94.4008 45.2003 95.0008 44.7003 95.3008 44.1003C95.6008 43.5003 95.8008 42.6003 95.5008 41.8003L93.5008 42.5003C93.0008 42.7003 92.5008 43.0003 92.2008 43.5003C91.9008 43.9003 91.7008 44.5003 91.6008 45.0003L91.3008 44.0003C91.2008 43.7003 91.1008 43.3003 91.0008 43.0003L90.5008 43.2003L90.8008 44.2003L91.1008 45.2003C90.8008 44.8003 90.4008 44.5003 89.9008 44.3003C89.4008 44.2003 88.8008 44.2003 88.3008 44.3003L86.3008 45.0003C86.5008 45.6003 86.9008 46.1003 87.5008 46.4003C88.1008 46.7003 88.8008 46.8003 89.5008 46.6003L91.4008 46.1003L91.8008 45.9003Z" fill="black"/>
<path d="M91.0016 43.0002L92.9016 42.4002C93.6016 42.2002 94.1016 41.6002 94.4016 41.0002C94.5016 40.7002 94.6016 40.3002 94.6016 39.9002C94.6016 39.5002 94.5016 39.1002 94.3016 38.7002L92.3016 39.5002C91.2016 40.0002 90.7016 41.0002 90.6016 42.1002C90.5016 41.8002 90.4016 41.4002 90.2016 41.1002L89.8016 40.1002L89.3016 40.3002C89.6016 40.9002 89.8016 41.5002 90.0016 42.2002C89.3016 41.4002 88.1016 41.1002 87.1016 41.6002L85.1016 42.4002C85.2016 42.7002 85.4016 43.0002 85.7016 43.2002C85.9016 43.4002 86.2016 43.6002 86.5016 43.7002C87.1016 43.9002 87.8016 44.0002 88.5016 43.8002L90.4016 43.2002L91.0016 43.0002Z" fill="black"/>
<path d="M89.9016 40.1001L91.7016 39.3001C92.4016 39.0001 92.9016 38.4001 93.1016 37.8001C93.2016 37.5001 93.3016 37.1001 93.2016 36.7001C93.2016 36.3001 93.0016 35.9001 92.8016 35.6001L90.9016 36.6001C90.4016 36.9001 90.0016 37.3001 89.8016 37.8001C89.6016 38.3001 89.5016 38.8001 89.5016 39.4001L89.3016 38.9001C89.2016 38.7001 89.1016 38.6001 89.1016 38.4001L88.6016 37.5001L88.1016 37.7001L88.6016 38.6001L88.8016 39.1001L89.0016 39.6001C88.6016 39.2001 88.1016 39.0001 87.6016 38.9001C87.1016 38.8001 86.5016 38.9001 86.0016 39.2001L84.1016 40.2001C84.2016 40.5001 84.5016 40.7001 84.7016 40.9001C84.9016 41.1001 85.2016 41.3001 85.5016 41.4001C86.1016 41.6001 86.8016 41.6001 87.5016 41.3001L89.3016 40.5001L89.9016 40.1001Z" fill="black"/>
<path d="M88.6008 37.3L90.3008 36.4C91.0008 36.1 91.4008 35.5 91.6008 34.7C91.8008 34 91.6008 33.2 91.2008 32.5L89.4008 33.6C88.4008 34.2 88.0008 35.3 88.2008 36.4C87.9008 35.8 87.5008 35.2 87.1008 34.6L86.6008 34.9C86.9008 35.5 87.3008 36 87.6008 36.6C86.8008 35.9 85.6008 35.9 84.6008 36.5L82.8008 37.6C83.1008 38.2 83.7008 38.5 84.3008 38.7C84.9008 38.9 85.6008 38.8 86.3008 38.4L88.0008 37.5L88.6008 37.3Z" fill="black"/>
<path d="M87.0004 34.7002L88.7004 33.7002C89.3004 33.3002 89.7004 32.7002 89.8004 31.9002C89.9004 31.2002 89.7004 30.4002 89.2004 29.7002L87.5004 31.0002C86.6004 31.7002 86.2004 32.9002 86.5004 33.9002L85.3004 32.2002L84.9004 32.5002L86.1004 34.2002C85.2004 33.6002 84.0004 33.6002 83.1004 34.3002L81.4004 35.6002C81.8004 36.1002 82.4004 36.4002 83.0004 36.5002C83.6004 36.6002 84.3004 36.5002 85.0004 36.1002L86.7004 35.1002L87.0004 34.7002Z" fill="black"/>
<path d="M85.3012 32.1L86.9012 30.9C87.5012 30.5 87.9012 29.8 87.9012 29.1C87.9012 28.4 87.7012 27.6 87.1012 27L85.5012 28.4C84.6012 29.2 84.4012 30.4 84.7012 31.4L83.4012 29.8L83.0012 30.2L84.3012 31.8C83.4012 31.3 82.2012 31.4 81.3012 32.1L79.7012 33.5C80.1012 34 80.7012 34.3 81.4012 34.3C82.1012 34.3 82.7012 34.2 83.3012 33.7L84.9012 32.5L85.3012 32.1Z" fill="black"/>
<path d="M83.4004 29.6999L84.9004 28.3999C85.5004 27.8999 85.8004 27.1999 85.7004 26.4999C85.7004 25.7999 85.4004 24.9999 84.8004 24.3999L83.3004 25.8999C82.5004 26.6999 82.3004 27.9999 82.8004 28.8999L81.3004 27.3999L80.9004 27.7999L82.3004 29.2999C81.3004 28.8999 80.2004 28.9999 79.4004 29.8999L77.9004 31.3999C78.3004 31.8999 79.0004 32.0999 79.6004 32.0999C80.3004 32.0999 80.9004 31.8999 81.5004 31.3999L83.0004 30.0999L83.4004 29.6999Z" fill="black"/>
<path d="M81.2008 27.5001L82.6008 26.1001C83.7008 25.0001 83.5008 23.3001 82.2008 22.1001L80.8008 23.7001C80.1008 24.6001 80.0008 25.8001 80.5008 26.8001C80.0008 26.3001 79.5008 25.8001 78.9008 25.4001L78.6008 25.8001C79.1008 26.2001 79.6008 26.7001 80.1008 27.1001C79.1008 26.7001 78.0008 27.0001 77.2008 27.9001L75.8008 29.5001C76.7008 30.4001 78.4008 30.2001 79.4008 29.2001L80.8008 27.8001L81.2008 27.5001Z" fill="black"/>
<path d="M79.0008 25.4001L80.3008 23.9001C81.3008 22.8001 81.0008 21.0001 79.6008 20.0001L78.4008 21.7001C77.7008 22.6001 77.8008 23.9001 78.3008 24.8001C77.8008 24.4001 77.3008 24.0001 76.7008 23.6001C76.9008 23.1001 76.8008 22.4001 76.4008 21.6001C76.2008 21.2001 75.9008 20.9001 75.5008 20.5001C75.1008 20.2001 74.7008 19.9001 74.2008 19.6001C73.7008 19.3001 73.1008 19.1001 72.5008 19.1001C71.9008 19.1001 71.4008 19.1001 70.9008 19.2001C70.0008 19.4001 69.3008 19.8001 69.3008 19.8001C69.3008 19.8001 69.5008 20.5001 69.9008 21.4001C70.1008 21.8001 70.4008 22.3001 70.7008 22.7001C71.0008 23.1001 71.4008 23.5001 71.9008 23.7001C72.3008 23.9001 72.8008 24.1001 73.2008 24.2001C73.6008 24.3001 74.0008 24.4001 74.4008 24.5001C75.2008 24.6001 75.9008 24.4001 76.3008 24.0001C76.8008 24.3001 77.3008 24.8001 77.8008 25.1001C76.8008 24.8001 75.7008 25.2001 75.0008 26.1001L73.8008 27.8001C74.8008 28.6001 76.4008 28.3001 77.4008 27.2001L78.6008 25.7001L79.0008 25.4001Z" fill="black"/>
<path d="M32.8 86.6001L34.5 87.8001C33.5 87.6001 32.3 88.0001 31.7 88.9001L30.5 90.7001C31.2 91.2001 32 91.4001 32.7 91.2001C33.4 91.1001 34 90.6001 34.4 90.0001L35 88.9001C35.2 88.6001 35.6 88.5001 36 88.7001C36.3 88.9001 36.6 89.1001 36.6 89.1001C36.7 89.2001 36.9 89.1001 36.9 89.0001C37 88.9001 36.9 88.7001 36.8 88.6001C36.8 88.6001 36.5 88.4001 36.2 88.3001C35.9 88.1001 35.7 87.7001 35.9 87.3001L36.5 86.2001C36.9 85.6001 37 84.8001 36.9 84.2001C36.8 83.6001 36.5 83.0001 35.9 82.6001L34.7 84.4001C34 85.3001 34.1 86.5001 34.7 87.4001L33 86.2001L32.8 86.6001Z" fill="black"/>
<path d="M33.0992 86.0998L34.1992 84.4998C34.5992 83.8998 34.7992 83.1998 34.6992 82.4998C34.5992 81.7998 34.3992 81.1998 33.8992 80.7998L32.4992 82.4998C31.7992 83.3998 31.6992 84.5998 32.2992 85.4998L30.6992 84.1998L30.3992 84.5998L31.9992 85.9998C30.9992 85.6998 29.7992 85.9998 29.0992 86.8998L27.6992 88.5998C28.3992 89.0998 29.1992 89.3998 29.8992 89.2998C30.5992 89.1998 31.2992 88.8998 31.6992 88.2998L32.7992 86.6998L33.0992 86.0998Z" fill="black"/>
<path d="M30.6992 84.3002L31.9992 82.8002C32.8992 81.7002 32.8992 80.0002 31.9992 79.2002L30.4992 80.8002C29.6992 81.6002 29.5992 82.8002 30.0992 83.8002L29.2992 83.1002C28.9992 82.9002 28.7992 82.6002 28.4992 82.4002L28.0992 82.8002C28.2992 83.1002 28.5992 83.3002 28.8992 83.5002L29.6992 84.2002C28.6992 83.8002 27.4992 84.0002 26.6992 84.9002L25.1992 86.5002C26.4992 87.6002 28.2992 87.6002 29.1992 86.5002L30.3992 85.0002L30.6992 84.3002Z" fill="black"/>
<path d="M28.5008 82.2002L29.9008 80.8002C30.4008 80.3002 30.7008 79.6002 30.7008 78.9002C30.7008 78.6002 30.7008 78.3002 30.6008 78.0002C30.5008 77.9002 30.5008 77.7002 30.4008 77.6002C30.3008 77.5002 30.2008 77.3002 30.1008 77.2002L28.5008 78.6002C28.1008 79.0002 27.8008 79.5002 27.7008 80.0002C27.6008 80.5002 27.6008 81.0002 27.9008 81.5002L27.2008 80.8002C27.0008 80.6002 26.7008 80.3002 26.5008 80.0002L26.1008 80.4002C26.3008 80.7002 26.5008 80.9002 26.8008 81.2002L27.5008 81.9002C27.0008 81.7002 26.5008 81.6002 25.9008 81.7002C25.4008 81.8002 24.9008 82.0002 24.4008 82.3002L22.8008 83.7002C22.9008 83.9002 23.1008 84.0002 23.2008 84.1002C23.4008 84.2002 23.5008 84.3002 23.7008 84.4002C24.1008 84.6002 24.4008 84.7002 24.8008 84.7002C25.5008 84.7002 26.2008 84.5002 26.7008 84.0002L28.1008 82.6002L28.5008 82.2002Z" fill="black"/>
<path d="M26.3996 80.0001L27.8996 78.7001C28.4996 78.2001 28.7996 77.6001 28.8996 76.9001C28.8996 76.6001 28.8996 76.3001 28.7996 76.0001C28.6996 75.7001 28.5996 75.4001 28.3996 75.1001L26.6996 76.4001C26.1996 76.7001 25.8996 77.2001 25.7996 77.7001C25.6996 78.0001 25.6996 78.2001 25.6996 78.5001C25.6996 78.8001 25.7996 79.0001 25.7996 79.3001C25.2996 78.8001 24.8996 78.2001 24.4996 77.7001L24.0996 78.0001C24.4996 78.5001 24.8996 79.1001 25.3996 79.6001C25.1996 79.5001 24.8996 79.4001 24.5996 79.3001C24.2996 79.2001 24.0996 79.2001 23.7996 79.2001C23.2996 79.2001 22.6996 79.4001 22.2996 79.7001L20.5996 81.0001C20.8996 81.3001 21.1996 81.6001 21.4996 81.8001C21.7996 82.0001 22.1996 82.1001 22.5996 82.2001C23.2996 82.3001 23.9996 82.1001 24.5996 81.6001L26.0996 80.3001L26.3996 80.0001Z" fill="black"/>
<path d="M24.4996 77.7L26.0996 76.5C26.6996 76.1 27.0996 75.4 27.1996 74.8C27.2996 74.2 27.2996 73.5 26.8996 73L25.0996 74.2C24.0996 74.8 23.6996 75.9 23.8996 77C23.4996 76.4 23.0996 75.8 22.7996 75.3L22.2996 75.6C22.6996 76.2 22.9996 76.8 23.3996 77.3C22.4996 76.7 21.2996 76.6 20.3996 77.2L18.5996 78.4C19.0996 79.1 19.6996 79.6 20.3996 79.7C21.0996 79.9 21.8996 79.7 22.3996 79.3L23.9996 78.1L24.4996 77.7Z" fill="black"/>
<path d="M22.8004 75.2002L24.5004 74.2002C25.1004 73.8002 25.5004 73.2002 25.7004 72.6002C25.9004 72.0002 25.9004 71.3002 25.6004 70.7002L23.7004 71.7002C22.7004 72.2002 22.2004 73.3002 22.3004 74.4002L21.3004 72.6002L20.8004 72.8002L21.8004 74.6002C21.0004 73.9002 19.8004 73.7002 18.8004 74.3002L16.9004 75.3002C17.3004 76.0002 17.9004 76.6002 18.6004 76.8002C19.3004 77.0002 20.1004 76.9002 20.7004 76.5002L22.4004 75.5002L22.8004 75.2002Z" fill="black"/>
<path d="M21.3008 72.5998L23.0008 71.6998C23.7008 71.3998 24.1008 70.7998 24.4008 70.1998C24.6008 69.5998 24.7008 68.8998 24.4008 68.2998L22.4008 69.1998C21.3008 69.5998 20.7008 70.6998 20.8008 71.7998C20.5008 71.1998 20.2008 70.5998 19.9008 69.8998L19.4008 70.0998C19.7008 70.6998 20.0008 71.3998 20.3008 71.9998C19.5008 71.2998 18.3008 70.9998 17.3008 71.3998L15.3008 72.2998C15.7008 73.0998 16.3008 73.5998 16.9008 73.8998C17.6008 74.1998 18.3008 74.1998 19.0008 73.7998L20.7008 72.8998L21.3008 72.5998Z" fill="black"/>
<path d="M19.9992 69.7998L21.7992 68.9998C22.4992 68.6998 22.9992 68.1998 23.2992 67.5998C23.3992 67.2998 23.4992 66.9998 23.5992 66.6998C23.5992 66.3998 23.5992 66.0998 23.4992 65.7998L21.4992 66.4998C20.9992 66.6998 20.4992 66.9998 20.1992 67.3998C19.8992 67.7998 19.6992 68.2998 19.6992 68.8998C19.3992 68.2998 19.1992 67.5998 18.9992 66.8998L18.4992 67.0998C18.6992 67.7998 18.8992 68.3998 19.1992 68.9998C18.7992 68.5998 18.3992 68.2998 17.7992 68.1998C17.2992 67.9998 16.6992 67.9998 16.1992 68.1998L14.1992 68.8998C14.2992 69.2998 14.4992 69.6998 14.7992 69.8998C15.0992 70.1998 15.3992 70.3998 15.6992 70.5998C16.2992 70.8998 17.0992 70.9998 17.7992 70.6998L19.5992 69.8998L19.9992 69.7998Z" fill="black"/>
<path d="M18.8996 66.9998L20.7996 66.3998C21.4996 66.1998 22.0996 65.6998 22.3996 65.0998C22.5996 64.7998 22.6996 64.4998 22.6996 64.1998C22.7996 63.8998 22.7996 63.5998 22.6996 63.2998L20.5996 63.7998C19.9996 63.8998 19.5996 64.1998 19.1996 64.5998C18.7996 64.9998 18.5996 65.4998 18.5996 65.9998C18.3996 65.2998 18.1996 64.6998 18.0996 63.9998L17.5996 64.0998C17.7996 64.7998 17.8996 65.3998 18.0996 66.0998C17.8996 65.8998 17.6996 65.6998 17.4996 65.4998C17.2996 65.2998 17.0996 65.1998 16.7996 65.0998C16.2996 64.8998 15.7996 64.8998 15.1996 64.9998L13.0996 65.4998C13.1996 65.8998 13.3996 66.2998 13.5996 66.5998C13.7996 66.8998 14.0996 67.1998 14.3996 67.3998C14.9996 67.7998 15.7996 67.8998 16.4996 67.5998L18.3996 66.9998H18.8996Z" fill="black"/>
<path d="M18.1004 64.1002L20.0004 63.6002C21.4004 63.2002 22.3004 61.9002 22.1004 60.7002L20.0004 61.0002C18.9004 61.2002 18.0004 62.0002 17.8004 63.1002C17.6004 62.4002 17.6004 61.7002 17.4004 61.1002L16.9004 61.2002C17.0004 61.9002 17.1004 62.6002 17.3004 63.2002C16.7004 62.3002 15.7004 61.7002 14.5004 61.9002L12.4004 62.3002C12.7004 64.0002 14.2004 65.0002 15.6004 64.7002L17.5004 64.2002L18.1004 64.1002Z" fill="black"/>
<path d="M17.4996 61.1L19.3996 60.8C20.0996 60.7 20.6996 60.3 21.1996 59.8C21.5996 59.3 21.8996 58.7 21.7996 58L19.6996 58.2C18.5996 58.3 17.6996 59.1 17.3996 60.1L17.1996 58H16.6996L16.8996 60.1C16.3996 59.2 15.3996 58.5 14.1996 58.6L12.0996 58.8C12.1996 59.6 12.5996 60.4 13.0996 60.8C13.6996 61.3 14.3996 61.5 15.0996 61.4L16.9996 61.1H17.4996Z" fill="black"/>
<path d="M17.1 58.1L19.1 57.9C19.8 57.8 20.5 57.5 20.9 57C21.4 56.5 21.7 55.9 21.6 55.3H19.5C18.4 55.3 17.4 56 17.1 57.1L17 55H16.5L16.6 57.1C16.2 56.1 15.2 55.4 14.1 55.4H12C12 56.2 12.4 57 12.9 57.5C13.4 58 14.1 58.3 14.8 58.2L16.7 58L17.1 58.1Z" fill="black"/>
<path d="M16.9996 55H18.9996C20.4996 55 21.6996 53.9 21.7996 52.7L19.6996 52.5C18.5996 52.4 17.5996 53 17.0996 54.1C17.0996 53.4 17.0996 52.7 17.1996 52H16.6996C16.5996 52.7 16.5996 53.4 16.5996 54.1C16.1996 53.1 15.2996 52.3 14.1996 52.2L12.0996 52C11.9996 53.7 13.1996 55.1 14.6996 55.1H16.6996L16.9996 55Z" fill="black"/>
<path d="M17.1008 52.0001L19.1008 52.2001C20.6008 52.3001 21.9008 51.4001 22.0008 50.1001L19.9008 49.8001C18.7008 49.6001 17.7008 50.2001 17.2008 51.1001L17.3008 50.1001C17.3008 49.8001 17.4008 49.4001 17.5008 49.1001L17.0008 49.0001C17.0008 49.2001 16.9008 49.3001 16.9008 49.5001L16.8008 50.0001L16.7008 51.0001C16.4008 50.0001 15.5008 49.1001 14.4008 48.9001L12.3008 48.6001C12.1008 50.3001 13.1008 51.7001 14.6008 51.8001L16.5008 52.0001H17.1008Z" fill="black"/>
<path d="M17.5008 49.0002L19.4008 49.3002C20.1008 49.4002 20.8008 49.3002 21.4008 48.9002C22.0008 48.6002 22.3008 48.0002 22.5008 47.4002L20.4008 46.9002C19.8008 46.8002 19.3008 46.8002 18.8008 47.0002C18.3008 47.2002 17.9008 47.6002 17.6008 48.0002C17.7008 47.3002 17.8008 46.6002 18.0008 46.0002L17.5008 45.9002C17.3008 46.6002 17.2008 47.2002 17.1008 47.9002C17.0008 47.4002 16.7008 46.9002 16.4008 46.5002C16.0008 46.1002 15.6008 45.8002 15.0008 45.7002L12.9008 45.2002C12.7008 46.0002 12.9008 46.8002 13.2008 47.5002C13.6008 48.1002 14.2008 48.5002 14.9008 48.7002L16.8008 49.0002H17.5008Z" fill="black"/>
<path d="M18.0991 45.9998L19.999 46.4998C20.699 46.6998 21.399 46.5998 21.999 46.2998C22.599 45.9998 22.999 45.4998 23.199 44.8998L21.199 44.1998C20.699 43.9998 20.0991 43.9998 19.5991 44.1998C19.0991 44.3998 18.699 44.6998 18.299 45.0998L18.5991 44.0998C18.6991 43.7998 18.799 43.3998 18.899 43.0998L18.399 42.8998L18.0991 43.8998L17.799 44.8998C17.699 44.3998 17.499 43.7998 17.199 43.3998C16.899 42.9998 16.499 42.5998 15.899 42.4998L13.899 41.7998C13.599 42.5998 13.6991 43.3998 14.0991 44.0998C14.3991 44.7998 14.999 45.1998 15.699 45.3998L17.5991 45.8998L18.0991 45.9998Z" fill="black"/>
<path d="M19.0004 43.1001L20.9004 43.7001C21.6004 43.9001 22.3004 43.9001 22.9004 43.6001C23.2004 43.5001 23.5004 43.3001 23.7004 43.1001C23.9004 42.9001 24.1004 42.6001 24.3004 42.3001L22.3004 41.5001C21.3004 41.1001 20.0004 41.3001 19.4004 42.2001C19.5004 41.9001 19.6004 41.5001 19.8004 41.2001L20.2004 40.2001L19.7004 40.0001C19.4004 40.6001 19.1004 41.3001 18.9004 41.9001C18.8004 40.8001 18.3004 39.8001 17.2004 39.4001L15.2004 38.6001C15.0004 39.0001 14.9004 39.4001 14.9004 39.8001C14.9004 40.2001 15.0004 40.6001 15.1004 40.9001C15.4004 41.6001 15.9004 42.1001 16.6004 42.3001L18.5004 42.9001L19.0004 43.1001Z" fill="black"/>
<path d="M19.9996 40.3001L21.7996 41.1001C22.4996 41.4001 23.1996 41.4001 23.7996 41.2001C24.0996 41.1001 24.3996 40.9001 24.5996 40.7001C24.8996 40.5001 25.0996 40.3001 25.1996 40.0001L23.2996 39.0001C22.7996 38.7001 22.1996 38.6001 21.6996 38.7001C21.1996 38.8001 20.6996 39.0001 20.2996 39.4001L20.4996 38.9001C20.5996 38.7001 20.6996 38.6001 20.6996 38.4001L21.1996 37.5001L20.6996 37.3001L20.1996 38.2001L19.9996 38.7001L19.7996 39.2001C19.7996 38.7001 19.6996 38.1001 19.4996 37.7001C19.2996 37.2001 18.8996 36.8001 18.3996 36.6001L16.4996 35.6001C16.2996 36.0001 16.1996 36.4001 16.0996 36.7001C16.0996 37.1001 16.0996 37.5001 16.1996 37.8001C16.3996 38.5001 16.8996 39.1001 17.5996 39.3001L19.3996 40.1001L19.9996 40.3001Z" fill="black"/>
<path d="M21.2992 37.6001L22.9992 38.5001C23.6992 38.8001 24.3992 38.9001 24.9992 38.8001C25.5992 38.6001 26.1992 38.3001 26.4992 37.7001L24.6992 36.6001C23.6992 36.0001 22.4992 36.1001 21.6992 36.8001C21.9992 36.2001 22.3992 35.6001 22.7992 35.0001L22.2992 34.7001C21.8992 35.3001 21.5992 35.9001 21.1992 36.5001C21.2992 35.4001 20.8992 34.3001 19.9992 33.7001L18.1992 32.6001C17.7992 33.3001 17.5992 34.1001 17.7992 34.8001C17.9992 35.5001 18.3992 36.1001 19.0992 36.5001L20.7992 37.4001L21.2992 37.6001Z" fill="black"/>
<path d="M22.8008 34.9L24.5008 35.9C25.1008 36.3 25.8008 36.4 26.5008 36.3C27.1008 36.2 27.7008 35.9 28.1008 35.4L26.4008 34.1C25.5008 33.4 24.3008 33.4 23.4008 34L24.6008 32.3L24.2008 32L23.0008 33.7C23.3008 32.7 22.9008 31.5 22.0008 30.8L20.3008 29.5C19.8008 30.2 19.6008 31 19.7008 31.7C19.8008 32.4 20.2008 33.1 20.8008 33.5L22.5008 34.5L22.8008 34.9Z" fill="black"/>
<path d="M24.5996 32.4L26.1996 33.6C26.7996 34 27.4996 34.2 28.0996 34.2C28.7996 34.2 29.3996 33.9 29.7996 33.4L28.1996 32C27.2996 31.2 26.0996 31.1 25.1996 31.7L26.4996 30.1L26.0996 29.7L24.7996 31.3C25.0996 30.3 24.8996 29.1 23.9996 28.4L22.3996 27C21.8996 27.6 21.5996 28.4 21.5996 29.1C21.5996 29.8 21.9996 30.5 22.5996 30.9L24.1996 32.1L24.5996 32.4Z" fill="black"/>
<path d="M26.4992 30.1L27.9992 31.4C28.5992 31.9 29.1992 32.1 29.8992 32.1C30.5992 32.1 31.1992 31.9 31.5992 31.4L30.0992 29.9C29.2992 29.1 28.0992 28.9 27.0992 29.4L28.4992 27.9L28.0992 27.5L26.6992 29C27.0992 28 26.8992 26.8 26.0992 26L24.5992 24.5C23.9992 25.1 23.6992 25.9 23.6992 26.6C23.6992 27.3 23.9992 28 24.4992 28.5L25.9992 29.8L26.4992 30.1Z" fill="black"/>
<path d="M28.4993 27.9002L29.8993 29.3002C30.8993 30.3002 32.5993 30.5002 33.4993 29.6002L32.0993 28.0002C31.3993 27.1002 30.1993 26.8002 29.1993 27.2002C29.6993 26.7002 30.1993 26.3002 30.7993 25.8002L30.4993 25.4002C29.9993 25.8002 29.4993 26.3002 28.9993 26.8002C29.4993 25.8002 29.3993 24.6002 28.6993 23.8002L27.2993 22.2002C25.9993 23.3002 25.8993 25.1002 26.8993 26.2002L28.2993 27.6002L28.4993 27.9002Z" fill="black"/>
<path d="M30.7998 25.8L32.0998 27.3C33.0998 28.4 34.6998 28.7 35.6998 27.9L34.4998 26.2C33.7998 25.2 32.6998 24.9 31.6998 25.2C32.1998 24.8 32.6998 24.4 33.1998 24C33.5998 24.4 34.2998 24.6 35.0998 24.5C35.4998 24.5 35.8998 24.4 36.2998 24.2C36.6998 24.1 37.1998 23.9 37.5998 23.7C38.0998 23.4 38.3998 23 38.7998 22.7C39.0998 22.3 39.3998 21.9 39.5998 21.4C39.9998 20.6 40.1998 19.8 40.1998 19.8C40.1998 19.8 39.5998 19.5 38.5998 19.2C38.0998 19.1 37.5998 19 36.9998 19.1C36.3998 19.1 35.8998 19.3 35.2998 19.6C34.7998 19.9 34.3998 20.2 33.9998 20.5C33.5998 20.8 33.3998 21.2 33.0998 21.6C32.6998 22.3 32.4998 23 32.7998 23.6C32.2998 24 31.7998 24.4 31.2998 24.8C31.7998 23.9 31.8998 22.6 31.1998 21.7L29.9998 20C28.5998 21 28.2998 22.8 29.2998 23.9L30.4998 25.4L30.7998 25.8Z" fill="black"/>
<path d="M98.5004 90.0002C100.9 88.4002 103.4 86.9002 105.9 85.4002C106 85.3002 106.1 85.2002 106.1 85.0002C106.1 84.9002 106 84.7002 105.9 84.7002L101.7 82.8002C101 82.5002 100.3 82.2002 99.6004 81.9002L97.5004 81.1002C97.8004 80.3002 98.2004 79.6002 98.6004 78.8002C99.0004 78.1002 99.5004 77.4002 100 76.8002C100.4 76.4002 100.6 75.9002 100.6 75.4002C100.9 73.4002 99.6004 71.3002 97.5004 70.5002C96.7004 70.2002 95.8004 69.9002 95.0004 69.6002L92.5004 68.8002L90.0004 68.0002L87.4004 67.3002L84.8004 66.6002C83.9004 66.4002 83.1004 66.1002 82.2004 65.9002L77.0004 64.8002C70.0004 63.5002 62.8004 62.7002 55.6004 62.7002C48.4004 62.7002 41.2004 63.3002 34.1004 64.6002C27.0004 65.9002 20.1004 67.9002 13.4004 70.4002C11.3004 71.3002 10.0004 73.4002 10.3004 75.4002C10.4004 75.9002 10.6004 76.3002 11.0004 76.8002C11.5004 77.5002 12.0004 78.1002 12.4004 78.8002C12.8004 79.5002 13.2004 80.3002 13.5004 81.0002L11.4004 81.9002C10.7004 82.2002 10.0004 82.5002 9.3004 82.9002L5.1004 84.8002C5.0004 84.9002 4.90039 85.0002 4.90039 85.1002C4.90039 85.2002 5.0004 85.4002 5.1004 85.5002C7.7004 86.9002 10.2004 88.4002 12.6004 89.9002C12.2004 92.8002 11.8004 95.6002 11.5004 98.4002C11.5004 98.5002 11.5004 98.7002 11.7004 98.8002C11.9004 98.9002 12.0004 98.9002 12.1004 98.9002L14.9004 97.6002L16.3004 96.9002C16.8004 96.7002 17.2004 96.4002 17.7004 96.3002L20.5004 95.2002L21.9004 94.6002L22.6004 94.3002L23.3004 94.1002C24.6004 93.7002 25.6004 92.8002 25.9004 91.8002C26.1004 91.1002 26.0004 90.5002 25.7004 89.8002C24.4004 87.2002 23.7004 85.2002 23.6004 83.5002C24.2004 83.3002 24.9004 83.0002 25.5004 82.9002L27.5004 82.4002C28.8004 82.0002 30.1004 81.7002 31.4004 81.3002L35.4004 80.5002C36.1004 80.4002 36.7004 80.2002 37.4004 80.1002L39.4004 79.8002C40.7004 79.6002 42.1004 79.4002 43.4004 79.2002L47.4004 78.8002C48.1004 78.7002 48.7004 78.7002 49.4004 78.6002L51.4004 78.5002C52.7004 78.5002 54.1004 78.4002 55.4004 78.4002L59.4004 78.5002C60.1004 78.5002 60.7004 78.5002 61.4004 78.6002L63.4004 78.8002C64.7004 78.9002 66.1004 79.0002 67.4004 79.2002L71.4004 79.8002C72.1004 79.9002 72.7004 80.0002 73.4004 80.1002L75.4004 80.5002C76.7004 80.8002 78.0004 81.0002 79.4004 81.4002L83.3004 82.5002L85.3004 83.0002L87.2004 83.6002C87.1004 85.3002 86.4004 87.3002 85.1004 89.9002C84.7004 90.5002 84.7004 91.2002 84.9004 91.9002C85.2004 92.9002 86.2004 93.7002 87.5004 94.2002C88.0004 94.3002 88.5004 94.5002 89.0004 94.7002L90.5004 95.3002L93.4004 96.4002C95.3004 97.2002 97.2004 98.1002 99.1004 98.9002C99.2004 99.0002 99.4004 98.9002 99.5004 98.8002C99.6004 98.7002 99.7004 98.6002 99.7004 98.4002C99.4004 95.7002 99.0004 92.9002 98.5004 90.0002Z" fill="white"/>
<path d="M42.4004 65.2002C44.4004 65.2002 46.4004 65.1002 48.3004 64.9002C50.2004 64.8002 52.1004 64.6002 54.2004 64.4002C52.2004 64.3002 50.3004 64.3002 48.3004 64.4002C46.3004 64.6002 44.4004 64.9002 42.4004 65.2002ZM50.3004 76.4002C49.2004 76.6002 48.1004 76.8002 47.0004 77.0002C45.9004 77.1002 44.8004 77.1002 43.7004 77.1002C44.8004 76.8002 45.9004 76.6002 47.0004 76.5002C48.1004 76.4002 49.2004 76.3002 50.3004 76.4002ZM19.8004 93.5002C18.8004 94.1002 17.8004 94.6002 16.8004 95.1002C15.8004 95.6002 14.7004 96.0002 13.6004 96.3002C14.6004 95.6002 15.6004 95.1002 16.6004 94.6002C17.6004 94.2002 18.7004 93.8002 19.8004 93.5002ZM13.7004 94.1002C14.1004 93.5002 14.6004 93.3002 15.3004 93.3002C14.9004 93.9002 14.4004 94.2002 13.7004 94.1002ZM13.6004 95.3002C14.4004 94.5002 15.3004 94.1002 16.4004 93.9002C15.6004 94.7002 14.8004 95.1002 13.6004 95.3002ZM13.6004 92.9002C14.0004 92.4002 14.3004 92.3002 14.9004 92.3002C14.7004 92.8002 14.2004 93.1002 13.6004 92.9002ZM41.5004 77.4002C40.2004 77.7002 38.9004 77.9002 37.7004 78.2002C37.4004 78.3002 37.1004 78.3002 36.8004 78.4002L35.9004 78.6002C35.3004 78.7002 34.7004 78.9002 34.1004 79.0002C33.5004 79.1002 32.9004 79.2002 32.3004 79.4002C31.7004 79.5002 31.1004 79.6002 30.4004 79.8002C29.2004 80.1002 27.9004 80.4002 26.6004 80.6002C27.9004 80.2002 29.1004 79.8002 30.3004 79.4002C30.9004 79.2002 31.5004 79.1002 32.1004 78.9002C32.7004 78.8002 33.3004 78.6002 34.0004 78.5002L35.9004 78.1002L36.8004 77.9002C37.1004 77.8002 37.4004 77.8002 37.7004 77.8002C38.9004 77.7002 40.2004 77.5002 41.5004 77.4002ZM19.3004 70.2002C21.1004 69.4002 22.8004 68.8002 24.6004 68.3002C25.5004 68.1002 26.4004 67.8002 27.3004 67.6002L28.0004 67.4002C28.2004 67.4002 28.5004 67.3002 28.7004 67.3002C29.2004 67.2002 29.6004 67.2002 30.1004 67.1002C29.6004 67.2002 29.2004 67.4002 28.7004 67.5002C28.5004 67.6002 28.2004 67.6002 28.0004 67.7002C27.8004 67.8002 27.6004 67.8002 27.3004 67.9002C26.4004 68.2002 25.5004 68.5002 24.7004 68.7002C22.9004 69.3002 21.1004 69.7002 19.3004 70.2002ZM40.8004 65.1002C39.3004 65.5002 37.9004 65.9002 36.4004 66.1002C36.0004 66.2002 35.7004 66.2002 35.3004 66.3002L34.8004 66.4002L34.3004 66.5002C33.6004 66.6002 32.8004 66.7002 32.1004 66.8002C32.8004 66.6002 33.6004 66.3002 34.3004 66.1002L34.8004 66.0002L35.3004 65.9002C35.7004 65.8002 36.0004 65.8002 36.4004 65.7002C37.8004 65.4002 39.2004 65.2002 40.8004 65.1002ZM97.6004 94.3002C96.9004 94.4002 96.4004 94.1002 95.9004 93.5002C96.7004 93.4002 97.2004 93.7002 97.6004 94.3002ZM96.3004 92.4002C96.9004 92.4002 97.2004 92.6002 97.6004 93.0002C97.1004 93.2002 96.6004 93.0002 96.3004 92.4002ZM97.7004 95.4002C96.6004 95.3002 95.7004 94.8002 94.8004 94.0002C95.9004 94.2002 96.8004 94.7002 97.7004 95.4002ZM98.5004 90.0002C100.9 88.4002 103.4 86.9002 105.9 85.4002C106 85.3002 106.1 85.2002 106.1 85.0002C106.1 84.9002 106 84.7002 105.9 84.7002L101.7 82.8002C101 82.5002 100.3 82.2002 99.6004 81.9002L97.5004 81.1002C97.8004 80.3002 98.2004 79.6002 98.6004 78.8002C99.0004 78.1002 99.5004 77.4002 100 76.8002C100.4 76.4002 100.6 75.9002 100.6 75.4002C100.9 73.4002 99.6004 71.3002 97.5004 70.5002C96.7004 70.2002 95.8004 69.9002 95.0004 69.6002L92.5004 68.8002L90.0004 68.0002L87.4004 67.3002L84.8004 66.6002C83.9004 66.4002 83.1004 66.1002 82.2004 65.9002L77.0004 64.8002C70.0004 63.5002 62.8004 62.7002 55.6004 62.7002C48.4004 62.7002 41.2004 63.3002 34.1004 64.6002C27.0004 65.9002 20.1004 67.9002 13.4004 70.4002C11.3004 71.3002 10.0004 73.4002 10.3004 75.4002C10.4004 75.9002 10.6004 76.3002 11.0004 76.8002C11.5004 77.5002 12.0004 78.1002 12.4004 78.8002C12.8004 79.5002 13.2004 80.3002 13.5004 81.0002L11.4004 81.9002C10.7004 82.2002 10.0004 82.5002 9.3004 82.9002L5.1004 84.8002C5.0004 84.9002 4.90039 85.0002 4.90039 85.1002C4.90039 85.2002 5.0004 85.4002 5.1004 85.5002C7.7004 86.9002 10.2004 88.4002 12.6004 89.9002C12.2004 92.8002 11.8004 95.6002 11.5004 98.4002C11.5004 98.5002 11.5004 98.7002 11.7004 98.8002C11.9004 98.9002 12.0004 98.9002 12.1004 98.9002L14.9004 97.6002L16.3004 96.9002C16.8004 96.7002 17.2004 96.4002 17.7004 96.3002L20.5004 95.2002L21.9004 94.6002L22.6004 94.3002L23.3004 94.1002C24.6004 93.7002 25.6004 92.8002 25.9004 91.8002C26.1004 91.1002 26.0004 90.5002 25.7004 89.8002C24.4004 87.2002 23.7004 85.2002 23.6004 83.5002C24.2004 83.3002 24.9004 83.0002 25.5004 82.9002L27.5004 82.4002C28.8004 82.0002 30.1004 81.7002 31.4004 81.3002L35.4004 80.5002C36.1004 80.4002 36.7004 80.2002 37.4004 80.1002L39.4004 79.8002C40.7004 79.6002 42.1004 79.4002 43.4004 79.2002L47.4004 78.8002C48.1004 78.7002 48.7004 78.7002 49.4004 78.6002L51.4004 78.5002C52.7004 78.5002 54.1004 78.4002 55.4004 78.4002L59.4004 78.5002C60.1004 78.5002 60.7004 78.5002 61.4004 78.6002L63.4004 78.8002C64.7004 78.9002 66.1004 79.0002 67.4004 79.2002L71.4004 79.8002C72.1004 79.9002 72.7004 80.0002 73.4004 80.1002L75.4004 80.5002C76.7004 80.8002 78.0004 81.0002 79.4004 81.4002L83.3004 82.5002L85.3004 83.0002L87.2004 83.6002C87.1004 85.3002 86.4004 87.3002 85.1004 89.9002C84.7004 90.5002 84.7004 91.2002 84.9004 91.9002C85.2004 92.9002 86.2004 93.7002 87.5004 94.2002C88.0004 94.3002 88.5004 94.5002 89.0004 94.7002L90.5004 95.3002L93.4004 96.4002C95.3004 97.2002 97.2004 98.1002 99.1004 98.9002C99.2004 99.0002 99.4004 98.9002 99.5004 98.8002C99.6004 98.7002 99.7004 98.6002 99.7004 98.4002C99.4004 95.7002 99.0004 92.9002 98.5004 90.0002ZM99.3004 76.3002C99.1004 75.9002 99.0004 75.5002 98.8004 75.1002C98.9004 75.0002 99.0004 74.8002 99.1004 74.7002C99.2004 75.2002 99.3004 75.8002 99.3004 76.3002ZM96.8004 79.1002L97.0004 78.6002C97.1004 78.9002 97.2004 79.3002 97.1004 79.6002C97.1004 79.4002 97.0004 79.2002 96.8004 79.1002ZM96.7004 80.5002C96.6004 80.4002 96.5004 80.3002 96.4004 80.2002L96.6004 79.7002C96.7004 79.9002 96.7004 80.2002 96.7004 80.5002ZM96.2004 81.6002C96.1004 81.5002 96.0004 81.4002 96.0004 81.4002L96.2004 80.8002C96.3004 81.1002 96.3004 81.4002 96.2004 81.6002ZM96.0004 82.7002L95.9004 82.9002C95.8004 82.8002 95.7004 82.7002 95.6004 82.6002L95.7004 82.2002C95.9004 82.3002 96.0004 82.5002 96.0004 82.7002ZM95.7004 83.8002C95.7004 83.9002 95.7004 84.1002 95.6004 84.2002C95.5004 84.1002 95.4004 84.0002 95.4004 83.9002C95.4004 83.7002 95.5004 83.5002 95.5004 83.4002C95.5004 83.5002 95.6004 83.6002 95.7004 83.8002ZM97.3004 77.9002C97.4004 77.6002 97.5004 77.4002 97.6004 77.1002C97.7004 77.6002 97.8004 78.1002 97.7004 78.5002V78.6002C97.6004 78.4002 97.5004 78.1002 97.3004 77.9002ZM98.0004 76.4002C98.1004 76.2002 98.2004 76.0002 98.3004 75.8002C98.5004 76.3002 98.5004 76.8002 98.5004 77.3002L98.4004 77.4002C98.4004 77.1002 98.2004 76.7002 98.0004 76.4002ZM11.7004 76.2002C11.6004 75.7002 11.7004 75.1002 11.9004 74.6002C12.0004 74.7002 12.1004 74.9002 12.2004 75.0002C12.0004 75.4002 11.9004 75.8002 11.7004 76.2002ZM15.1004 82.7002L15.0004 82.5002C15.1004 82.3002 15.1004 82.1002 15.2004 81.9002L15.3004 82.3002C15.3004 82.5002 15.2004 82.6002 15.1004 82.7002ZM15.6004 83.2002C15.6004 83.4002 15.7004 83.6002 15.7004 83.7002C15.6004 83.8002 15.5004 83.9002 15.5004 84.0002C15.5004 83.9002 15.4004 83.7002 15.4004 83.6002C15.5004 83.5002 15.6004 83.3002 15.6004 83.2002ZM14.8004 81.5002C14.7004 81.2002 14.8004 80.9002 14.8004 80.6002L15.0004 81.2002C15.0004 81.3002 14.9004 81.4002 14.8004 81.5002ZM14.4004 80.3002C14.4004 80.0002 14.4004 79.8002 14.5004 79.5002L14.7004 80.0002C14.5004 80.1002 14.5004 80.2002 14.4004 80.3002ZM13.9004 79.4002C13.9004 79.1002 13.9004 78.7002 14.0004 78.4002L14.2004 78.9002C14.1004 79.1002 14.0004 79.2002 13.9004 79.4002ZM13.3004 78.5002C13.2004 78.0002 13.2004 77.5002 13.3004 77.0002C13.4004 77.2002 13.5004 77.5002 13.7004 77.7002C13.5004 78.0002 13.4004 78.2002 13.3004 78.5002ZM12.6004 77.3002L12.5004 77.2002C12.5004 76.7002 12.5004 76.2002 12.7004 75.7002C12.8004 75.9002 12.9004 76.1002 13.0004 76.3002C12.8004 76.6002 12.6004 77.0002 12.6004 77.3002ZM25.3004 91.4002C25.1004 92.2002 24.3004 92.8002 23.2004 93.2002L22.5004 93.4002L21.8004 93.7002L20.4004 94.2002L17.7004 95.3002C16.8004 95.6002 15.9004 96.1002 15.0004 96.5002L12.3004 97.7002C12.6004 95.1002 12.9004 92.4002 13.4004 89.7002C13.4004 89.5002 13.4004 89.4002 13.2004 89.3002C10.9004 87.9002 8.6004 86.5002 6.1004 85.1002C8.6004 83.9002 11.1004 82.7002 13.7004 81.7002V81.8002L12.0004 82.6002C11.7004 82.7002 11.4004 82.9002 11.2004 83.0002L10.4004 83.5002C10.4004 83.5002 8.80039 84.4002 8.90039 84.5002C8.90039 84.6002 10.7004 83.8002 10.7004 83.8002L11.5004 83.4002L12.3004 83.1002L14.0004 82.5002L12.4004 83.4002C12.4004 83.4002 11.6004 83.9002 11.7004 84.0002C11.7004 84.1002 12.7004 83.8002 12.7004 83.8002L14.3004 83.3002V83.4002L13.3004 84.0002C13.3004 84.0002 12.8004 84.3002 12.8004 84.4002C12.8004 84.5002 13.5004 84.3002 13.5004 84.3002L14.5004 84.1002V84.3002L14.1004 84.6002C14.1004 84.6002 13.8004 84.8002 13.8004 84.9002C13.8004 85.0002 14.2004 84.9002 14.2004 84.9002L14.6004 84.8002L14.7004 85.0002L14.4004 85.2002C14.4004 85.2002 14.2004 85.4002 14.3004 85.5002C14.3004 85.6002 14.6004 85.6002 14.6004 85.6002H14.9004C15.1004 86.4002 15.3004 87.2002 15.5004 88.0002C15.8004 89.4002 16.5004 90.3002 17.5004 90.7002C18.3004 91.0002 19.0004 91.0002 19.7004 90.8002C20.4004 90.6002 21.1004 90.2002 21.8004 89.9002C22.4004 89.6002 22.9004 89.4002 23.3004 89.3002C23.2004 89.4002 23.0004 89.5002 22.9004 89.6002C22.9004 89.6002 22.8004 89.7002 22.7004 89.8002C22.6004 89.9002 22.5004 90.0002 22.5004 90.0002C22.5004 90.0002 22.7004 90.1002 22.8004 90.1002C23.0004 90.1002 23.1004 90.1002 23.1004 90.1002C23.2004 90.1002 23.3004 90.0002 23.4004 90.0002C23.1004 90.3002 22.7004 90.5002 22.3004 90.7002C22.3004 90.7002 22.0004 90.8002 21.8004 91.0002C21.5004 91.1002 21.3004 91.3002 21.3004 91.3002C21.3004 91.3002 21.6004 91.3002 21.9004 91.2002C22.2004 91.1002 22.5004 91.0002 22.5004 91.0002C22.9004 90.8002 23.3004 90.7002 23.7004 90.4002C23.9004 90.3002 24.1004 90.2002 24.3004 90.0002C24.2004 90.2002 24.0004 90.4002 23.7004 90.5002C23.2004 90.9002 22.7004 91.2002 22.1004 91.4002C22.1004 91.4002 21.7004 91.6002 21.3004 91.7002C20.9004 91.9002 20.5004 92.0002 20.5004 92.1002C20.5004 92.1002 21.0004 92.1002 21.4004 92.0002C21.8004 91.9002 22.3004 91.7002 22.3004 91.7002C22.9004 91.5002 23.4004 91.2002 24.0004 90.9002C24.1004 90.8002 24.3004 90.8002 24.4004 90.7002C24.3004 90.9002 24.1004 91.1002 23.9004 91.2002C23.3004 91.6002 22.8004 92.0002 22.1004 92.3002C22.1004 92.3002 22.0004 92.4002 21.8004 92.4002C21.6004 92.5002 21.4004 92.6002 21.2004 92.7002C20.8004 92.9002 20.3004 93.1002 20.3004 93.1002C20.3004 93.1002 20.8004 93.1002 21.3004 92.9002C21.8004 92.7002 22.3004 92.6002 22.3004 92.6002C23.0004 92.4002 23.6004 92.0002 24.2004 91.7002C24.5004 91.5002 24.8004 91.3002 25.0004 90.9002C25.4004 91.2002 25.4004 91.3002 25.3004 91.4002ZM87.9004 83.0002C77.4004 79.5002 66.5004 77.8002 55.5004 77.6002C54.1004 77.6002 52.8004 77.7002 51.4004 77.7002L49.3004 77.8002C48.6004 77.8002 47.9004 77.9002 47.3004 78.0002L43.2004 78.4002L39.1004 79.0002L37.1004 79.3002L35.1004 79.7002L31.1004 80.6002L27.1004 81.7002L25.1004 82.2002L23.1004 82.9002L19.8004 84.0002C19.1004 84.2002 18.4004 84.6002 18.0004 85.1002C17.5004 85.5002 17.2004 86.0002 17.0004 86.5002C16.9004 86.7002 16.9004 86.9002 16.9004 87.1002C16.9004 88.1002 17.4004 89.0002 18.2004 89.4002C19.1004 89.9002 21.4004 89.1002 21.5004 88.7002C21.5004 88.6002 21.1004 88.7002 20.5004 88.8002C19.9004 88.9002 19.2004 89.0002 18.6004 88.6002C18.2004 88.4002 18.0004 88.0002 17.8004 87.6002C17.9004 87.7002 18.0004 87.7002 18.0004 87.8002C18.5004 88.1002 19.1004 88.3002 19.6004 88.3002C19.6004 88.3002 20.0004 88.3002 20.3004 88.2002C20.7004 88.1002 21.0004 88.0002 21.0004 87.9002C21.0004 87.9002 20.6004 87.9002 20.3004 87.9002C20.0004 87.9002 19.6004 87.9002 19.6004 87.9002C19.1004 87.9002 18.7004 87.7002 18.3004 87.4002C18.0004 87.1002 17.8004 86.8002 17.7004 86.5002C17.8004 86.6002 17.9004 86.7002 18.0004 86.8002C18.3004 87.1002 18.7004 87.1002 19.1004 87.1002C19.1004 87.1002 19.4004 87.1002 19.6004 87.0002C19.8004 86.9002 20.1004 86.8002 20.0004 86.8002C20.0004 86.7002 19.8004 86.8002 19.5004 86.7002C19.3004 86.7002 19.1004 86.7002 19.1004 86.7002C18.8004 86.6002 18.5004 86.5002 18.4004 86.3002C18.2004 86.1002 18.1004 85.8002 18.2004 85.7002V85.6002L18.3004 85.7002C18.5004 85.9002 18.7004 86.0002 19.0004 86.0002C19.0004 86.0002 19.2004 86.0002 19.3004 86.0002C19.5004 86.0002 19.6004 85.9002 19.6004 85.8002C19.6004 85.8002 19.4004 85.7002 19.3004 85.7002C19.2004 85.7002 19.1004 85.6002 19.1004 85.6002C18.9004 85.5002 18.8004 85.4002 18.8004 85.3002C18.8004 85.2002 18.8004 85.2002 18.8004 85.1002C19.1004 84.8002 19.5004 84.6002 20.0004 84.5002L22.8004 83.5002V83.6002C22.6004 83.6002 22.4004 83.7002 22.2004 83.8002C22.2004 83.8002 22.1004 83.9002 22.0004 83.9002C21.9004 84.0002 21.8004 84.1002 21.9004 84.1002C21.9004 84.1002 22.0004 84.1002 22.2004 84.1002C22.3004 84.1002 22.4004 84.1002 22.4004 84.1002C22.6004 84.1002 22.8004 84.1002 23.0004 84.2002C23.0004 84.3002 23.0004 84.4002 23.0004 84.4002C22.8004 84.4002 22.6004 84.5002 22.3004 84.6002C22.3004 84.6002 21.9004 84.8002 21.9004 84.9002C21.9004 85.0002 22.4004 85.0002 22.3004 85.0002C22.6004 85.0002 22.8004 85.1002 23.0004 85.2002C23.0004 85.3002 23.0004 85.3002 23.1004 85.4002C22.9004 85.4002 22.6004 85.5002 22.4004 85.6002C22.4004 85.6002 22.3004 85.7002 22.2004 85.8002C22.1004 85.9002 22.0004 86.0002 22.0004 86.0002C22.0004 86.0002 22.2004 86.0002 22.3004 86.0002C22.4004 86.0002 22.5004 86.0002 22.5004 86.0002C22.8004 86.0002 23.1004 86.1002 23.3004 86.2002C23.3004 86.3002 23.4004 86.5002 23.4004 86.6002C23.2004 86.6002 22.9004 86.7002 22.7004 86.8002C22.7004 86.8002 22.6004 86.9002 22.5004 86.9002C22.4004 87.0002 22.3004 87.1002 22.3004 87.1002C22.3004 87.1002 22.5004 87.1002 22.6004 87.1002C22.7004 87.1002 22.8004 87.1002 22.8004 87.1002C23.1004 87.1002 23.4004 87.2002 23.7004 87.3002V87.4002C23.4004 87.4002 23.2004 87.5002 23.0004 87.6002C23.0004 87.6002 22.9004 87.7002 22.7004 87.7002C22.6004 87.8002 22.5004 87.9002 22.5004 87.9002C22.5004 87.9002 22.7004 87.9002 22.8004 87.9002C22.9004 87.9002 23.1004 87.9002 23.1004 87.9002C23.4004 87.9002 23.7004 87.9002 24.0004 88.1002C24.0004 88.2002 24.1004 88.3002 24.1004 88.3002C23.2004 88.1002 22.2004 88.6002 21.3004 89.0002C20.7004 89.3002 20.1004 89.6002 19.4004 89.8002C18.8004 90.0002 18.2004 90.0002 17.6004 89.8002C16.9004 89.5002 16.4004 88.8002 16.1004 87.6002C16.0004 87.3002 16.0004 87.0002 15.9004 86.8002C15.9004 85.9002 16.3004 84.9002 17.0004 84.2002C17.3004 83.8002 17.7004 83.5002 18.2004 83.2002C18.6004 82.9002 19.1004 82.7002 19.6004 82.5002C19.6004 82.5002 19.8004 82.4002 20.1004 82.3002C20.4004 82.2002 20.7004 82.1002 21.1004 82.0002C21.8004 81.8002 22.6004 81.6002 22.6004 81.5002C22.6004 81.5002 21.8004 81.6002 21.1004 81.7002C20.4004 81.8002 19.6004 82.1002 19.6004 82.1002C19.1004 82.3002 18.5004 82.5002 18.0004 82.7002C17.5004 83.0002 17.0004 83.3002 16.6004 83.8002C16.2004 84.2002 15.8004 84.8002 15.5004 85.3002C15.5004 85.1002 15.4004 85.0002 15.4004 84.8002C15.5004 84.7002 15.5004 84.6002 15.6004 84.4002C15.6004 84.6002 15.7004 84.7002 15.7004 84.9002C15.7004 84.7002 15.7004 84.4002 15.7004 84.2002C16.1004 83.5002 16.6004 82.9002 17.2004 82.5002C17.2004 82.5002 17.5004 82.3002 17.8004 82.0002C18.1004 81.8002 18.5004 81.6002 18.5004 81.6002C18.5004 81.6002 18.1004 81.6002 17.7004 81.8002C17.3004 81.9002 17.0004 82.1002 17.0004 82.1002C16.5004 82.4002 16.0004 82.8002 15.6004 83.2002C15.6004 83.0002 15.5004 82.7002 15.5004 82.5002C15.7004 82.2002 15.9004 81.9002 16.2004 81.7002C16.2004 81.7002 16.4004 81.5002 16.6004 81.4002C16.8004 81.2002 17.0004 81.1002 17.0004 81.0002C17.0004 81.0002 16.7004 81.0002 16.5004 81.1002C16.3004 81.2002 16.0004 81.3002 16.0004 81.3002C15.8004 81.4002 15.6004 81.6002 15.4004 81.7002C15.4004 81.5002 15.3004 81.3002 15.3004 81.0002C15.4004 80.9002 15.5004 80.8002 15.6004 80.7002C15.6004 80.7002 15.7004 80.5002 15.9004 80.4002C16.1004 80.3002 16.2004 80.1002 16.2004 80.1002C16.2004 80.1002 16.0004 80.1002 15.8004 80.2002C15.6004 80.3002 15.4004 80.4002 15.4004 80.4002C15.3004 80.4002 15.3004 80.5002 15.2004 80.5002C15.1004 80.2002 15.0004 79.9002 14.9004 79.6002V79.5002C14.9004 79.5002 15.0004 79.3002 15.2004 79.2002C15.4004 79.0002 15.6004 78.9002 15.6004 78.9002C15.6004 78.9002 15.3004 78.9002 15.1004 79.0002C14.9004 79.1002 14.8004 79.2002 14.7004 79.2002C14.6004 79.0002 14.5004 78.7002 14.4004 78.5002C14.4004 78.4002 14.6004 78.3002 14.7004 78.1002C14.9004 77.9002 15.1004 77.7002 15.1004 77.7002C15.1004 77.7002 14.8004 77.7002 14.6004 77.9002C14.5004 78.0002 14.4004 78.1002 14.3004 78.1002C14.2004 77.9002 14.1004 77.6002 14.0004 77.4002C14.1004 77.3002 14.2004 77.1002 14.3004 77.0002C14.3004 77.0002 14.5004 76.8002 14.7004 76.6002C14.9004 76.4002 15.2004 76.2002 15.2004 76.2002C15.2004 76.2002 14.9004 76.2002 14.6004 76.4002C14.3004 76.5002 14.1004 76.8002 14.1004 76.8002C14.0004 76.9002 13.9004 77.0002 13.9004 77.0002C13.7004 76.7002 13.6004 76.4002 13.4004 76.1002C13.6004 75.7002 13.8004 75.3002 14.2004 74.9002C14.2004 74.9002 14.5004 74.5002 14.9004 74.3002C15.3004 74.0002 15.7004 73.8002 15.7004 73.8002C15.7004 73.8002 15.2004 73.8002 14.8004 74.1002C14.4004 74.3002 14.0004 74.7002 14.0004 74.7002C13.6004 75.0002 13.4004 75.3002 13.1004 75.7002C13.0004 75.5002 12.8004 75.3002 12.7004 75.2002C13.0004 74.4002 13.5004 73.7002 14.2004 73.1002C14.2004 73.1002 14.3004 73.0002 14.5004 72.9002C14.7004 72.8002 14.9004 72.6002 15.2004 72.5002C15.7004 72.2002 16.4004 72.1002 16.4004 72.1002C16.4004 72.1002 15.8004 72.1002 15.2004 72.3002C14.9004 72.4002 14.6004 72.5002 14.4004 72.6002C14.2004 72.7002 14.1004 72.8002 14.1004 72.8002C13.3004 73.3002 12.7004 73.9002 12.3004 74.7002L12.0004 74.3002C12.1004 74.0002 12.3004 73.8002 12.4004 73.5002C12.9004 72.8002 13.7004 72.1002 14.6004 71.7002C14.6004 71.7002 15.3004 71.4002 16.0004 71.2002C16.7004 71.0002 17.4004 70.7002 17.4004 70.7002C17.4004 70.7002 16.7004 70.8002 16.0004 70.9002C15.3004 71.1002 14.6004 71.3002 14.6004 71.3002C13.6004 71.7002 12.7004 72.3002 11.9004 73.1002C11.6004 73.5002 11.3004 73.9002 11.1004 74.4002C11.1004 72.9002 12.1004 71.5002 13.6004 70.9002C20.2004 68.5002 27.1004 66.5002 34.1004 65.2002C41.1004 64.0002 48.3004 63.3002 55.5004 63.3002C62.7004 63.4002 69.8004 64.1002 76.8004 65.4002L82.0004 66.5002C82.9004 66.7002 83.7004 66.9002 84.6004 67.1002L87.2004 67.8002L89.8004 68.5002L92.3004 69.3002L94.8004 70.1002C95.6004 70.4002 96.5004 70.6002 97.3004 71.0002C98.8004 71.6002 99.8004 73.0002 99.8004 74.4002C99.6004 73.9002 99.3004 73.5002 99.0004 73.1002C98.3004 72.3002 97.3004 71.7002 96.4004 71.3002C96.4004 71.3002 95.7004 71.1002 95.0004 70.9002C94.3004 70.7002 93.6004 70.6002 93.6004 70.7002C93.6004 70.7002 94.3004 71.0002 95.0004 71.2002C95.3004 71.3002 95.7004 71.4002 95.9004 71.5002C96.2004 71.6002 96.3004 71.7002 96.3004 71.7002C97.2004 72.1002 98.0004 72.7002 98.5004 73.5002C98.7004 73.7002 98.8004 74.0002 98.9004 74.3002L98.6004 74.7002C98.2004 73.9002 97.5004 73.3002 96.8004 72.8002C96.8004 72.8002 96.7004 72.7002 96.5004 72.6002C96.3004 72.5002 96.0004 72.4002 95.7004 72.3002C95.1004 72.1002 94.5004 72.1002 94.5004 72.2002C94.5004 72.2002 95.1004 72.4002 95.6004 72.6002C96.1004 72.8002 96.6004 73.2002 96.6004 73.2002C97.3004 73.7002 97.8004 74.5002 98.1004 75.2002C98.0004 75.4002 97.8004 75.6002 97.7004 75.7002C97.5004 75.3002 97.2004 75.0002 96.8004 74.7002C96.8004 74.7002 96.4004 74.4002 96.0004 74.2002C95.6004 74.0002 95.1004 73.9002 95.1004 73.9002C95.1004 73.9002 95.5004 74.1002 95.9004 74.4002C96.3004 74.7002 96.6004 75.0002 96.6004 75.0002C96.9004 75.4002 97.2004 75.8002 97.4004 76.2002C97.2004 76.5002 97.1004 76.8002 96.9004 77.1002C96.8004 77.0002 96.7004 76.9002 96.7004 76.9002C96.7004 76.9002 96.5004 76.7002 96.2004 76.5002C95.9004 76.3002 95.6004 76.3002 95.6004 76.3002C95.6004 76.3002 95.8004 76.5002 96.1004 76.7002C96.3004 76.9002 96.5004 77.1002 96.5004 77.1002C96.6004 77.2002 96.7004 77.4002 96.8004 77.5002C96.7004 77.7002 96.6004 78.0002 96.5004 78.2002C96.4004 78.1002 96.3004 78.1002 96.2004 78.0002C96.0004 77.9002 95.7004 77.8002 95.7004 77.8002C95.7004 77.8002 95.9004 78.0002 96.1004 78.2002C96.3004 78.4002 96.4004 78.5002 96.4004 78.6002C96.3004 78.8002 96.2004 79.1002 96.1004 79.3002C96.0004 79.3002 95.9004 79.2002 95.7004 79.1002C95.5004 79.0002 95.2004 79.0002 95.2004 79.0002C95.2004 79.0002 95.4004 79.2002 95.6004 79.3002C95.8004 79.4002 95.9004 79.6002 95.9004 79.6002V79.7002C95.8004 80.0002 95.7004 80.3002 95.6004 80.6002C95.5004 80.6002 95.5004 80.5002 95.4004 80.5002C95.4004 80.5002 95.2004 80.4002 95.0004 80.3002C94.8004 80.2002 94.6004 80.2002 94.6004 80.2002C94.6004 80.2002 94.8004 80.4002 94.9004 80.5002C95.1004 80.6002 95.2004 80.8002 95.2004 80.8002C95.3004 80.9002 95.4004 81.0002 95.5004 81.1002C95.5004 81.3002 95.4004 81.5002 95.4004 81.8002C95.2004 81.6002 95.0004 81.5002 94.8004 81.4002C94.8004 81.4002 94.6004 81.3002 94.3004 81.2002C94.1004 81.1002 93.8004 81.0002 93.8004 81.1002C93.8004 81.1002 94.0004 81.3002 94.2004 81.5002C94.4004 81.7002 94.6004 81.8002 94.6004 81.8002C94.9004 82.0002 95.1004 82.3002 95.3004 82.6002C95.3004 82.8002 95.2004 83.1002 95.2004 83.3002C94.8004 82.9002 94.3004 82.5002 93.8004 82.2002C93.8004 82.2002 93.5004 82.0002 93.1004 81.9002C92.7004 81.8002 92.4004 81.7002 92.3004 81.7002C92.3004 81.7002 92.6004 81.9002 93.0004 82.1002C93.3004 82.3002 93.6004 82.5002 93.6004 82.5002C94.2004 83.0002 94.7004 83.6002 95.1004 84.2002C95.1004 84.4002 95.1004 84.7002 95.1004 84.9002C95.1004 84.7002 95.2004 84.6002 95.2004 84.4002C95.3004 84.5002 95.3004 84.6002 95.4004 84.8002C95.4004 85.0002 95.3004 85.1002 95.3004 85.3002C95.0004 84.7002 94.6004 84.2002 94.2004 83.8002C93.4004 83.0002 92.3004 82.4002 91.2004 82.1002C91.2004 82.1002 90.5004 81.9002 89.7004 81.8002C89.0004 81.7002 88.2004 81.6002 88.2004 81.6002C88.2004 81.6002 89.0004 81.8002 89.7004 82.1002C90.1004 82.2002 90.4004 82.3002 90.7004 82.4002C91.0004 82.5002 91.2004 82.6002 91.2004 82.6002C92.2004 83.0002 93.1004 83.5002 93.8004 84.3002C94.5004 85.0002 94.9004 86.0002 94.9004 86.9002C94.8004 87.2002 94.8004 87.4002 94.7004 87.7002C94.5004 88.8002 94.0004 89.5002 93.2004 89.9002C92.0004 90.4002 90.7004 89.8002 89.5004 89.2002C88.6004 88.8002 87.5004 88.3002 86.7004 88.5002C86.7004 88.4002 86.8004 88.3002 86.8004 88.3002C87.1004 88.2002 87.4004 88.1002 87.7004 88.1002C87.7004 88.1002 87.8004 88.1002 88.0004 88.1002C88.2004 88.1002 88.3004 88.1002 88.3004 88.1002C88.3004 88.1002 88.2004 87.9002 88.1004 87.9002C88.0004 87.8002 87.8004 87.8002 87.8004 87.8002C87.6004 87.7002 87.3004 87.7002 87.1004 87.6002V87.5002C87.3004 87.3002 87.6004 87.3002 88.0004 87.3002C88.0004 87.3002 88.1004 87.3002 88.2004 87.3002C88.3004 87.3002 88.5004 87.3002 88.5004 87.3002C88.5004 87.3002 88.4004 87.2002 88.3004 87.1002C88.2004 87.0002 88.1004 87.0002 88.1004 87.0002C87.9004 86.9002 87.7004 86.9002 87.4004 86.8002C87.4004 86.7002 87.5004 86.5002 87.5004 86.4002C87.7004 86.3002 88.0004 86.2002 88.3004 86.2002C88.3004 86.2002 88.4004 86.2002 88.5004 86.2002C88.6004 86.2002 88.8004 86.2002 88.8004 86.2002C88.8004 86.2002 88.7004 86.0002 88.6004 86.0002C88.5004 85.9002 88.4004 85.9002 88.4004 85.9002C88.2004 85.8002 88.0004 85.7002 87.7004 85.7002C87.7004 85.6002 87.7004 85.6002 87.8004 85.5002C88.0004 85.4002 88.3004 85.3002 88.5004 85.3002C88.5004 85.3002 88.9004 85.3002 88.9004 85.2002C88.9004 85.1002 88.6004 84.9002 88.5004 84.9002C88.3004 84.8002 88.1004 84.8002 87.8004 84.7002C87.8004 84.6002 87.8004 84.5002 87.8004 84.5002C88.0004 84.4002 88.2004 84.4002 88.4004 84.4002C88.4004 84.4002 88.5004 84.4002 88.6004 84.4002C88.7004 84.4002 88.8004 84.4002 88.9004 84.4002C88.9004 84.4002 88.9004 84.3002 88.8004 84.2002C88.7004 84.1002 88.6004 84.1002 88.6004 84.1002C88.4004 84.0002 88.2004 83.9002 88.0004 83.9002V83.8002L90.8004 84.7002C91.3004 84.8002 91.7004 85.1002 92.0004 85.3002C92.0004 85.4002 92.0004 85.4002 92.0004 85.5002C91.9004 85.6002 91.8004 85.7002 91.7004 85.8002C91.7004 85.8002 91.6004 85.9002 91.5004 85.9002C91.4004 85.9002 91.2004 85.9002 91.2004 86.0002C91.2004 86.0002 91.3004 86.1002 91.5004 86.2002C91.7004 86.2002 91.8004 86.2002 91.8004 86.2002C92.0004 86.2002 92.3004 86.1002 92.5004 85.9002L92.6004 85.8002V85.9002C92.7004 86.1002 92.6004 86.3002 92.4004 86.5002C92.2004 86.7002 92.0004 86.8002 91.7004 86.9002C91.7004 86.9002 91.5004 86.9002 91.3004 87.0002C91.1004 87.0002 90.9004 87.0002 90.8004 87.1002C90.8004 87.1002 91.0004 87.3002 91.2004 87.3002C91.4004 87.4002 91.7004 87.4002 91.7004 87.4002C92.0004 87.4002 92.4004 87.3002 92.8004 87.1002C92.9004 87.0002 93.0004 86.9002 93.1004 86.8002C93.1004 87.1002 92.8004 87.5002 92.5004 87.7002C92.2004 88.0002 91.7004 88.2002 91.2004 88.2002C91.2004 88.2002 90.9004 88.2002 90.5004 88.2002C90.2004 88.2002 89.8004 88.1002 89.8004 88.2002C89.8004 88.2002 90.1004 88.4002 90.5004 88.5002C90.9004 88.6002 91.3004 88.6002 91.3004 88.6002C91.8004 88.6002 92.4004 88.5002 92.9004 88.1002C93.0004 88.0002 93.1004 88.0002 93.1004 87.9002C93.0004 88.3002 92.7004 88.7002 92.3004 88.9002C91.1004 89.6002 89.4004 88.7002 89.4004 88.9002C89.4004 89.0002 89.6004 89.1002 89.8004 89.3002C90.0004 89.4002 90.4004 89.6002 90.7004 89.6002C91.4004 89.8002 92.2004 89.8002 92.7004 89.6002C93.5004 89.1002 94.0004 88.2002 94.0004 87.2002C94.0004 87.0002 93.9004 86.8002 93.9004 86.6002C93.7004 86.1002 93.4004 85.6002 92.9004 85.2002C92.4004 84.8002 91.8004 84.4002 91.1004 84.2002L87.9004 83.0002ZM88.0004 93.4002C86.9004 93.0002 86.1004 92.4002 85.8004 91.6002C85.8004 91.5002 85.8004 91.4002 85.7004 91.3002C85.9004 91.6002 86.2004 91.9002 86.5004 92.1002C87.1004 92.5002 87.8004 92.8002 88.4004 93.0002C88.4004 93.0002 88.5004 93.0002 88.7004 93.1002C88.9004 93.2002 89.1004 93.3002 89.4004 93.3002C89.9004 93.4002 90.4004 93.5002 90.4004 93.5002C90.4004 93.5002 90.0004 93.3002 89.5004 93.1002C89.3004 93.0002 89.1004 92.9002 88.9004 92.8002C88.7004 92.7002 88.6004 92.7002 88.6004 92.7002C88.0004 92.4002 87.4004 92.0002 86.8004 91.6002C86.6004 91.4002 86.4004 91.3002 86.3004 91.1002C86.4004 91.2002 86.6004 91.3002 86.7004 91.3002C87.2004 91.6002 87.8004 91.9002 88.4004 92.1002C88.4004 92.1002 88.5004 92.1002 88.7004 92.2002C88.9004 92.2002 89.1004 92.3002 89.3004 92.4002C89.7004 92.5002 90.2004 92.6002 90.2004 92.5002C90.2004 92.5002 89.8004 92.3002 89.4004 92.1002C89.0004 91.9002 88.6004 91.7002 88.6004 91.7002C88.0004 91.4002 87.5004 91.1002 87.0004 90.8002C86.8004 90.6002 86.5004 90.5002 86.4004 90.3002C86.6004 90.5002 86.8004 90.6002 87.0004 90.7002C87.4004 90.9002 87.8004 91.1002 88.2004 91.3002C88.2004 91.3002 88.5004 91.4002 88.8004 91.5002C89.1004 91.6002 89.4004 91.7002 89.5004 91.6002C89.5004 91.6002 89.2004 91.4002 89.0004 91.3002C88.7004 91.2002 88.5004 91.0002 88.5004 91.0002C88.1004 90.8002 87.8004 90.6002 87.4004 90.3002C87.5004 90.3002 87.6004 90.4002 87.7004 90.4002C87.7004 90.4002 87.9004 90.4002 88.0004 90.4002C88.2004 90.4002 88.3004 90.4002 88.3004 90.3002C88.3004 90.3002 88.2004 90.2002 88.1004 90.1002C88.0004 90.0002 87.9004 89.9002 87.9004 89.9002C87.8004 89.8002 87.6004 89.7002 87.5004 89.6002C87.9004 89.7002 88.5004 89.9002 89.1004 90.2002C89.8004 90.5002 90.5004 90.9002 91.2004 91.1002C91.9004 91.3002 92.7004 91.3002 93.4004 91.0002C94.4004 90.6002 95.0004 89.6002 95.3004 88.2002C95.5004 87.4002 95.7004 86.6002 95.9004 85.8002H96.2004C96.2004 85.8002 96.5004 85.8002 96.5004 85.7002C96.5004 85.6002 96.3004 85.4002 96.3004 85.4002L96.0004 85.2002V85.0002L96.4004 85.1002H96.8004C96.8004 85.0002 96.5004 84.8002 96.5004 84.8002L96.0004 84.5002V84.3002L97.0004 84.5002C97.0004 84.5002 97.6004 84.6002 97.7004 84.6002C97.7004 84.5002 97.2004 84.2002 97.2004 84.2002L96.2004 83.6002V83.5002L97.8004 84.0002C97.8004 84.0002 98.7004 84.3002 98.8004 84.2002C98.8004 84.1002 98.1004 83.6002 98.1004 83.6002L96.5004 82.7002C97.6004 83.1002 98.8004 83.5002 99.9004 84.0002C99.9004 84.0002 101.7 84.7002 101.7 84.6002C101.7 84.5002 100.2 83.6002 100.2 83.6002C99.1004 83.0002 98.0004 82.5002 96.8004 81.9002V81.8002L98.7004 82.6002C99.4004 82.8002 100 83.2002 100.6 83.4002L104.4 85.1002C102 86.5002 99.7004 88.0002 97.4004 89.4002C97.3004 89.5002 97.2004 89.7002 97.2004 89.8002C97.7004 92.5002 98.1004 95.2002 98.5004 97.8002L95.8004 96.6002L94.4004 96.0002L93.7004 95.7002L93.0004 95.4002L90.2004 94.3002L88.8004 93.8002C88.9004 93.7002 88.4004 93.6002 88.0004 93.4002ZM67.4004 77.2002C66.2004 77.2002 65.1004 77.2002 64.1004 77.1002C63.6004 77.0002 63.0004 77.0002 62.5004 76.8002C62.0004 76.7002 61.4004 76.5002 60.8004 76.4002C61.4004 76.3002 61.9004 76.4002 62.5004 76.4002C63.1004 76.4002 63.6004 76.5002 64.1004 76.5002C65.2004 76.7002 66.3004 76.9002 67.4004 77.2002ZM70.4004 65.3002C71.9004 65.4002 73.4004 65.5002 74.8004 65.8002C75.2004 65.9002 75.5004 65.9002 75.9004 66.0002C76.3004 66.1002 76.6004 66.2002 77.0004 66.3002C77.7004 66.5002 78.4004 66.7002 79.2004 67.0002C78.4004 66.9002 77.7004 66.8002 77.0004 66.7002C76.6004 66.6002 76.3004 66.6002 75.9004 66.5002C75.5004 66.4002 75.2004 66.4002 74.8004 66.3002C73.3004 66.1002 71.9004 65.8002 70.4004 65.3002ZM57.1004 64.4002C58.1004 64.4002 59.1004 64.4002 60.1004 64.4002C61.1004 64.4002 62.0004 64.4002 63.0004 64.5002C64.9004 64.7002 66.8004 65.0002 68.8004 65.4002C66.8004 65.4002 64.9004 65.2002 62.9004 65.0002C61.9004 64.9002 61.0004 64.8002 60.0004 64.7002C59.1004 64.7002 58.1004 64.5002 57.1004 64.4002ZM84.5004 80.8002C83.2004 80.5002 81.9004 80.3002 80.7004 80.0002C80.4004 79.9002 80.1004 79.9002 79.8004 79.8002L78.9004 79.6002C78.3004 79.5002 77.7004 79.4002 77.1004 79.2002C75.9004 78.9002 74.7004 78.6002 73.4004 78.4002C72.2004 78.2002 70.9004 77.9002 69.6004 77.6002C70.9004 77.7002 72.2004 77.8002 73.4004 78.0002C74.7004 78.2002 75.9004 78.5002 77.1004 78.7002C77.7004 78.8002 78.3004 79.0002 79.0004 79.1002L79.9004 79.3002C80.2004 79.4002 80.5004 79.5002 80.8004 79.6002C82.0004 80.0002 83.3004 80.4002 84.5004 80.8002ZM91.8004 70.4002C90.9004 70.2002 90.0004 69.9002 89.1004 69.7002C88.2004 69.5002 87.3004 69.3002 86.4004 69.0002C85.5004 68.8002 84.7004 68.5002 83.8004 68.2002C83.4004 68.1002 82.9004 67.9002 82.5004 67.8002C82.1004 67.7002 81.6004 67.5002 81.1004 67.4002C81.6004 67.5002 82.0004 67.5002 82.5004 67.6002C83.0004 67.7002 83.4004 67.8002 83.9004 67.9002C84.8004 68.1002 85.7004 68.3002 86.6004 68.6002C87.5004 68.8002 88.4004 69.1002 89.2004 69.4002C90.0004 69.6002 90.9004 70.0002 91.8004 70.4002ZM97.8004 96.5002C96.6004 96.2002 95.6004 95.8002 94.5004 95.3002C93.5004 94.9002 92.4004 94.4002 91.4004 93.8002C92.6004 94.1002 93.6004 94.4002 94.7004 94.9002C95.8004 95.3002 96.8004 95.8002 97.8004 96.5002ZM58.9004 76.5002C57.6004 76.7002 56.4004 76.7002 55.1004 76.6002C53.9004 76.6002 52.6004 76.5002 51.3004 76.4002C52.6004 76.2002 53.8004 76.1002 55.1004 76.1002C56.4004 76.2002 57.7004 76.3002 58.9004 76.5002Z" fill="black"/>
<path d="M19.6 72.4996C20.6 72.1996 21.7 71.7996 22.7 71.4996C23.7 71.1996 24.4 71.0996 25 71.1996C25.5 71.2996 25.9 71.6996 26 72.1996C26.2 73.0996 25.8 73.7996 24.7 74.1996C26.1 73.9996 26.9 74.3996 27.2 75.2996C27.4 75.9996 27.2 76.5996 26.8 76.9996C26.3 77.3996 25.6 77.7996 24.6 78.0996C23.6 78.3996 22.7 78.6996 21.7 78.9996C21.7 78.8996 21.7 78.8996 21.6 78.7996C21.8 78.6996 22 78.6996 22.2 78.5996C21.5 76.4996 20.9 74.3996 20.2 72.2996C20 72.3996 19.8 72.3996 19.5 72.4996C19.7 72.5996 19.7 72.4996 19.6 72.4996ZM22.4 71.7996C22.7 72.7996 23 73.7996 23.3 74.6996C23.4 74.6996 23.5 74.5996 23.6 74.5996C23.9 74.4996 24.2 74.2996 24.2 74.0996C24.3 73.8996 24.3 73.4996 24.1 73.0996C24.1 72.8996 24 72.7996 24 72.5996C23.9 72.0996 23.7 71.7996 23.5 71.6996C23.3 71.4996 23.1 71.4996 22.7 71.5996C22.6 71.7996 22.5 71.7996 22.4 71.7996ZM23.3 74.8996C23.6 75.9996 23.9 76.9996 24.3 78.0996C24.5 78.0996 24.6 77.9996 24.8 77.9996C25.2 77.8996 25.4 77.6996 25.5 77.3996C25.6 77.0996 25.5 76.6996 25.4 76.2996C25.4 76.0996 25.3 75.9996 25.3 75.7996C25.2 75.3996 25 75.0996 24.8 74.8996C24.6 74.6996 24.2 74.6996 23.7 74.8996C23.5 74.8996 23.4 74.8996 23.3 74.8996Z" fill="black"/>
<path d="M32.2004 76.0996C31.8004 75.4996 31.4004 74.7996 31.0004 74.1996C30.3004 74.2996 29.7004 74.4996 29.0004 74.6996C28.9004 75.4996 28.8004 76.1996 28.7004 76.9996C28.9004 76.8996 29.2004 76.8996 29.4004 76.7996C29.4004 76.8996 29.4004 76.8996 29.4004 76.9996C28.9004 77.0996 28.4004 77.1996 27.9004 77.3996C27.9004 77.2996 27.9004 77.2996 27.9004 77.1996C28.1004 77.1996 28.2004 77.0996 28.4004 77.0996C28.7004 74.6996 29.0004 72.2996 29.4004 69.7996C29.7004 69.6996 30.0004 69.6996 30.3004 69.5996C31.7004 71.5996 33.0004 73.6996 34.3004 75.7996C34.5004 75.7996 34.6004 75.6996 34.8004 75.6996C34.8004 75.7996 34.8004 75.7996 34.8004 75.8996C33.7004 76.0996 32.6004 76.2996 31.6004 76.5996C31.6004 76.4996 31.6004 76.4996 31.6004 76.3996C31.8004 76.1996 32.0004 76.0996 32.2004 76.0996ZM29.5004 71.5996C29.4004 72.4996 29.3004 73.3996 29.1004 74.3996C29.7004 74.2996 30.3004 74.0996 30.9004 73.9996C30.4004 73.1996 29.9004 72.3996 29.5004 71.5996Z" fill="black"/>
<path d="M37.6008 71.6996C37.4008 71.6996 37.2008 71.7996 37.1008 71.7996C37.3008 72.8996 37.5008 73.9996 37.6008 75.0996C37.8008 75.0996 38.0008 74.9996 38.3008 74.9996C38.3008 75.0996 38.3008 75.0996 38.3008 75.1996C37.2008 75.3996 36.1008 75.5996 35.1008 75.7996C35.1008 75.6996 35.1008 75.6996 35.1008 75.5996C35.3008 75.5996 35.5008 75.4996 35.7008 75.4996C35.3008 73.2996 34.9008 71.1996 34.5008 68.9996C34.3008 68.9996 34.0008 69.0996 33.8008 69.0996C33.8008 68.9996 33.8008 68.9996 33.8008 68.8996C34.9008 68.6996 35.9008 68.4996 37.0008 68.2996C37.9008 68.1996 38.6008 68.0996 39.0008 68.0996C39.4008 68.0996 39.7008 68.1996 39.9008 68.2996C40.3008 68.4996 40.5008 68.8996 40.6008 69.4996C40.7008 70.0996 40.6008 70.4996 40.3008 70.7996C40.0008 71.0996 39.6008 71.2996 39.0008 71.3996C39.6008 71.3996 40.0008 71.4996 40.2008 71.6996C40.5008 71.8996 40.6008 72.2996 40.7008 72.8996C40.7008 73.0996 40.7008 73.1996 40.8008 73.3996C40.8008 73.6996 40.9008 73.9996 40.9008 74.0996C41.0008 74.1996 41.0008 74.2996 41.2008 74.1996C41.3008 74.1996 41.4008 74.0996 41.5008 73.9996C41.6008 73.8996 41.6008 73.5996 41.6008 73.2996C41.7008 73.2996 41.7008 73.2996 41.8008 73.2996C41.8008 73.8996 41.7008 74.2996 41.6008 74.4996C41.4008 74.6996 41.1008 74.8996 40.5008 74.8996C40.0008 74.9996 39.5008 74.8996 39.3008 74.6996C39.0008 74.4996 38.8008 73.9996 38.7008 73.2996C38.7008 73.0996 38.6008 72.7996 38.6008 72.5996C38.5008 72.1996 38.5008 71.9996 38.3008 71.7996C38.1008 71.6996 37.9008 71.5996 37.6008 71.6996ZM36.5008 68.5996C36.7008 69.5996 36.8008 70.5996 37.0008 71.5996C37.1008 71.5996 37.2008 71.5996 37.3008 71.4996C37.7008 71.3996 38.0008 71.2996 38.1008 70.9996C38.3008 70.6996 38.3008 70.3996 38.2008 69.7996C38.2008 69.6996 38.2008 69.5996 38.2008 69.4996C38.1008 68.9996 38.0008 68.6996 37.8008 68.4996C37.6008 68.3996 37.3008 68.2996 36.9008 68.3996C36.8008 68.4996 36.6008 68.4996 36.5008 68.5996Z" fill="black"/>
<path d="M41.4004 67.6996C42.5004 67.5996 43.5004 67.4996 44.6004 67.3996C45.6004 67.2996 46.3004 67.3996 46.9004 67.5996C47.4004 67.7996 47.7004 68.1996 47.7004 68.7996C47.8004 69.6996 47.2004 70.2996 46.1004 70.5996C47.5004 70.6996 48.2004 71.1996 48.3004 72.1996C48.3004 72.8996 48.1004 73.3996 47.6004 73.7996C47.1004 74.0996 46.3004 74.2996 45.3004 74.3996C44.3004 74.4996 43.3004 74.5996 42.3004 74.6996C42.3004 74.5996 42.3004 74.5996 42.3004 74.4996C42.5004 74.4996 42.7004 74.3996 43.0004 74.3996C42.7004 72.1996 42.5004 69.9996 42.2004 67.8996C42.0004 67.8996 41.7004 67.9996 41.5004 67.9996C41.4004 67.7996 41.4004 67.6996 41.4004 67.6996ZM44.2004 67.4996C44.3004 68.4996 44.4004 69.4996 44.5004 70.5996C44.6004 70.5996 44.7004 70.5996 44.8004 70.5996C45.2004 70.5996 45.4004 70.3996 45.5004 70.1996C45.6004 69.9996 45.7004 69.6996 45.6004 69.1996C45.6004 68.9996 45.6004 68.8996 45.6004 68.6996C45.6004 68.1996 45.5004 67.8996 45.3004 67.6996C45.2004 67.4996 44.9004 67.3996 44.5004 67.4996C44.4004 67.4996 44.3004 67.4996 44.2004 67.4996ZM44.5004 70.7996C44.6004 71.8996 44.7004 72.9996 44.8004 74.0996C45.0004 74.0996 45.1004 74.0996 45.3004 74.0996C45.7004 74.0996 45.9004 73.8996 46.0004 73.6996C46.1004 73.3996 46.2004 73.0996 46.1004 72.5996C46.1004 72.3996 46.1004 72.1996 46.1004 72.0996C46.1004 71.6996 45.9004 71.2996 45.7004 71.0996C45.5004 70.8996 45.2004 70.7996 44.7004 70.8996C44.7004 70.7996 44.6004 70.7996 44.5004 70.7996Z" fill="black"/>
<path d="M48.5 66.9998C50.4 66.8998 52.2 66.7998 54.1 66.7998C54.1 67.4998 54.2 68.0998 54.2 68.7998C54.1 68.7998 54.1 68.7998 54 68.7998C53.7 68.0998 53.4 67.6998 53 67.3998C52.7 67.1998 52.2 66.9998 51.5 67.0998C51.4 67.0998 51.2 67.0998 51.1 67.0998C51.1 68.0998 51.2 69.0998 51.2 70.1998C51.3 70.1998 51.4 70.1998 51.6 70.1998C51.9 70.1998 52.2 70.0998 52.4 69.7998C52.6 69.5998 52.8 69.1998 52.9 68.7998C53 68.7998 53 68.7998 53.1 68.7998C53.1 69.7998 53.1 70.7998 53.2 71.6998C53.1 71.6998 53.1 71.6998 53 71.6998C52.9 71.1998 52.7 70.8998 52.5 70.5998C52.3 70.3998 52 70.2998 51.6 70.2998C51.5 70.2998 51.4 70.2998 51.4 70.2998C51.4 71.3998 51.5 72.3998 51.5 73.4998C51.6 73.4998 51.8 73.4998 51.9 73.4998C52.5 73.4998 53 73.2998 53.5 72.8998C53.9 72.4998 54.2 72.0998 54.4 71.4998C54.5 71.4998 54.5 71.4998 54.6 71.4998C54.6 72.1998 54.6 72.8998 54.5 73.6998C52.7 73.6998 50.8 73.7998 49 73.8998C49 73.7998 49 73.7998 49 73.6998C49.2 73.6998 49.4 73.6998 49.6 73.6998C49.5 71.4998 49.4 69.3998 49.2 67.1998C49 67.1998 48.8 67.1998 48.6 67.1998C48.5 67.1998 48.5 67.0998 48.5 66.9998Z" fill="black"/>
<path d="M58.3996 70.2998C58.1996 70.2998 57.9996 70.2998 57.7996 70.2998C57.7996 71.3998 57.7996 72.4998 57.6996 73.5998C57.8996 73.5998 58.0996 73.5998 58.3996 73.5998C58.3996 73.6998 58.3996 73.6998 58.3996 73.7998C57.2996 73.7998 56.1996 73.7998 55.0996 73.7998C55.0996 73.6998 55.0996 73.6998 55.0996 73.5998C55.2996 73.5998 55.4996 73.5998 55.7996 73.5998C55.7996 71.3998 55.7996 69.1998 55.7996 66.9998C55.5996 66.9998 55.2996 66.9998 55.0996 66.9998C55.0996 66.8998 55.0996 66.8998 55.0996 66.7998C56.1996 66.7998 57.2996 66.7998 58.2996 66.7998C59.1996 66.7998 59.8996 66.8998 60.2996 66.9998C60.6996 67.0998 60.9996 67.1998 61.0996 67.3998C61.3996 67.6998 61.5996 68.0998 61.4996 68.6998C61.4996 69.2998 61.2996 69.6998 60.9996 69.8998C60.6996 70.0998 60.1996 70.1998 59.5996 70.2998C60.1996 70.3998 60.4996 70.5998 60.7996 70.7998C60.9996 71.0998 61.0996 71.4998 61.0996 71.9998C61.0996 72.1998 61.0996 72.3998 61.0996 72.4998C61.0996 72.7998 61.0996 73.0998 61.0996 73.1998C61.0996 73.2998 61.1996 73.3998 61.2996 73.3998C61.3996 73.3998 61.4996 73.3998 61.5996 73.2998C61.6996 73.1998 61.7996 72.9998 61.7996 72.5998C61.8996 72.5998 61.8996 72.5998 61.9996 72.5998C61.8996 73.1998 61.6996 73.4998 61.4996 73.6998C61.2996 73.8998 60.8996 73.9998 60.3996 73.8998C59.7996 73.8998 59.4996 73.6998 59.1996 73.4998C58.9996 73.1998 58.8996 72.7998 58.8996 72.0998C58.8996 71.8998 58.8996 71.5998 58.8996 71.3998C58.8996 70.9998 58.8996 70.7998 58.7996 70.5998C58.7996 70.3998 58.5996 70.2998 58.3996 70.2998ZM57.8996 66.9998C57.8996 67.9998 57.8996 68.9998 57.7996 70.0998C57.8996 70.0998 57.9996 70.0998 58.0996 70.0998C58.4996 70.0998 58.7996 69.9998 58.9996 69.7998C59.1996 69.5998 59.2996 69.1998 59.2996 68.6998C59.2996 68.5998 59.2996 68.4998 59.2996 68.3998C59.2996 67.8998 59.1996 67.4998 59.0996 67.3998C58.8996 67.1998 58.5996 67.0998 58.1996 67.0998C58.0996 66.9998 57.9996 66.9998 57.8996 66.9998Z" fill="black"/>
<path d="M65.4996 74.0996C65.7996 74.0996 66.0996 74.0996 66.3996 73.8996C66.6996 73.6996 66.7996 73.4996 66.8996 73.0996C66.8996 72.6996 66.7996 72.3996 66.5996 72.1996C66.2996 71.9996 65.8996 71.7996 65.3996 71.5996C64.8996 71.3996 64.4996 71.2996 64.2996 71.0996C64.0996 70.9996 63.8996 70.7996 63.6996 70.5996C63.2996 70.1996 63.0996 69.6996 63.1996 68.9996C63.1996 68.3996 63.4996 67.8996 63.9996 67.4996C64.4996 67.0996 65.0996 66.8996 65.8996 66.9996C66.2996 66.9996 66.6996 67.0996 67.0996 67.2996C67.4996 67.3996 67.6996 67.4996 67.7996 67.4996C67.8996 67.4996 67.9996 67.4996 68.0996 67.2996H68.1996C68.1996 67.9996 68.0996 68.5996 68.0996 69.2996C67.9996 69.2996 67.9996 69.2996 67.8996 69.2996C67.5996 68.6996 67.2996 68.1996 66.9996 67.7996C66.6996 67.3996 66.2996 67.1996 65.7996 67.1996C65.3996 67.1996 64.9996 67.1996 64.7996 67.3996C64.4996 67.5996 64.3996 67.7996 64.3996 68.0996C64.3996 68.3996 64.4996 68.6996 64.7996 68.8996C65.0996 69.0996 65.3996 69.2996 65.7996 69.3996C66.1996 69.4996 66.4996 69.5996 66.5996 69.6996C66.6996 69.7996 66.8996 69.7996 67.0996 69.8996C67.2996 69.9996 67.3996 70.0996 67.4996 70.1996C67.5996 70.2996 67.6996 70.3996 67.8996 70.4996C67.9996 70.5996 68.0996 70.7996 68.1996 70.8996C68.3996 71.1996 68.3996 71.5996 68.3996 72.0996C68.2996 72.7996 67.9996 73.3996 67.4996 73.6996C66.9996 74.0996 66.3996 74.1996 65.5996 74.1996C65.1996 74.1996 64.7996 74.0996 64.2996 73.8996C63.7996 73.7996 63.4996 73.6996 63.4996 73.6996C63.3996 73.6996 63.2996 73.7996 63.1996 73.9996H63.0996C63.0996 73.1996 63.0996 72.3996 63.1996 71.5996C63.2996 71.5996 63.2996 71.5996 63.3996 71.5996C63.6996 72.1996 63.9996 72.6996 64.3996 73.1996C64.4996 73.7996 64.8996 74.0996 65.4996 74.0996Z" fill="black"/>
<path d="M69.2996 67.5996C70.3996 67.6996 71.4996 67.8996 72.5996 67.9996C72.5996 68.0996 72.5996 68.0996 72.5996 68.1996C72.3996 68.1996 72.1996 68.0996 71.9996 68.0996C71.8996 69.0996 71.6996 70.0996 71.5996 71.1996C72.2996 71.2996 72.9996 71.3996 73.6996 71.4996C73.8996 70.4996 73.9996 69.4996 74.1996 68.4996C73.9996 68.4996 73.7996 68.3996 73.5996 68.3996C73.5996 68.2996 73.5996 68.2996 73.5996 68.1996C74.6996 68.3996 75.7996 68.5996 76.8996 68.7996C76.8996 68.8996 76.8996 68.8996 76.8996 68.9996C76.6996 68.9996 76.4996 68.8996 76.2996 68.8996C75.8996 71.0996 75.4996 73.1996 75.0996 75.3996C75.2996 75.3996 75.4996 75.4996 75.6996 75.4996C75.6996 75.5996 75.6996 75.5996 75.6996 75.6996C74.6996 75.4996 73.5996 75.2996 72.5996 75.1996C72.5996 75.0996 72.5996 75.0996 72.5996 74.9996C72.7996 74.9996 72.9996 75.0996 73.1996 75.0996C73.3996 73.9996 73.4996 72.9996 73.6996 71.8996C72.9996 71.7996 72.2996 71.6996 71.5996 71.5996C71.3996 72.6996 71.2996 73.6996 71.0996 74.7996C71.2996 74.7996 71.4996 74.8996 71.6996 74.8996C71.6996 74.9996 71.6996 74.9996 71.6996 75.0996C70.6996 74.8996 69.5996 74.7996 68.5996 74.6996C68.5996 74.5996 68.5996 74.5996 68.5996 74.4996C68.7996 74.4996 68.9996 74.4996 69.1996 74.5996C69.4996 72.3996 69.6996 70.1996 69.9996 68.0996C69.7996 68.0996 69.5996 67.9996 69.3996 67.9996C69.1996 67.7996 69.1996 67.6996 69.2996 67.5996Z" fill="black"/>
<path d="M79.3992 76.4998C78.2992 76.2998 77.4992 75.7998 77.0992 75.0998C76.6992 74.3998 76.5992 73.4998 76.7992 72.3998C76.9992 71.2998 77.4992 70.4998 78.1992 69.8998C78.8992 69.3998 79.8992 69.1998 80.9992 69.4998C82.0992 69.7998 82.8992 70.2998 83.2992 70.9998C83.6992 71.6998 83.7992 72.6998 83.4992 73.7998C83.1992 74.8998 82.6992 75.6998 81.9992 76.1998C81.3992 76.6998 80.4992 76.7998 79.3992 76.4998ZM81.3992 73.7998C81.4992 73.5998 81.4992 73.2998 81.5992 73.0998C81.8992 71.8998 81.9992 71.1998 81.8992 70.7998C81.7992 70.3998 81.6992 70.0998 81.4992 69.9998C81.3992 69.8998 81.1992 69.7998 80.9992 69.7998C80.7992 69.7998 80.5992 69.6998 80.3992 69.7998C80.1992 69.7998 80.0992 69.8998 79.9992 69.9998C79.8992 70.0998 79.7992 70.1998 79.6992 70.3998C79.5992 70.4998 79.4992 70.6998 79.3992 70.9998C79.2992 71.3998 79.0992 71.8998 78.9992 72.6998C78.9992 72.8998 78.8992 73.1998 78.8992 73.3998C78.6992 74.1998 78.5992 74.7998 78.5992 75.0998C78.5992 75.3998 78.5992 75.6998 78.6992 75.8998C78.7992 76.2998 79.0992 76.4998 79.4992 76.5998C79.9992 76.6998 80.3992 76.5998 80.6992 76.1998C80.8992 75.4998 81.0992 74.7998 81.3992 73.7998Z" fill="black"/>
<path d="M84.9992 70.6997C85.9992 70.9997 86.9992 71.2997 88.0992 71.5997C89.0992 71.8997 89.8992 72.2997 90.2992 72.6997C90.6992 73.0997 90.7992 73.6997 90.5992 74.3997C90.2992 75.1997 89.8992 75.5997 89.1992 75.6997C88.5992 75.7997 87.6992 75.6997 86.6992 75.3997H86.5992C86.3992 76.2997 86.0992 77.0997 85.8992 77.9997C86.2992 78.0997 86.6992 78.1997 87.0992 78.3997C87.0992 78.4997 87.0992 78.4997 86.9992 78.5997C85.6992 78.1997 84.4992 77.8997 83.1992 77.4997C83.1992 77.3997 83.1992 77.3997 83.1992 77.2997C83.3992 77.3997 83.5992 77.3997 83.7992 77.4997C84.3992 75.3997 84.8992 73.2997 85.4992 71.0997C85.2992 70.9997 84.9992 70.9997 84.7992 70.8997C84.9992 70.7997 84.9992 70.6997 84.9992 70.6997ZM87.6992 71.5997C87.3992 72.7997 86.9992 73.9997 86.6992 75.1997C86.7992 75.1997 86.7992 75.1997 86.8992 75.2997C87.2992 75.3997 87.5992 75.3997 87.8992 75.1997C88.0992 74.9997 88.2992 74.5997 88.4992 73.9997C88.4992 73.7997 88.5992 73.6997 88.5992 73.4997C88.7992 72.9997 88.7992 72.5997 88.6992 72.2997C88.5992 71.9997 88.3992 71.7997 87.9992 71.6997C87.8992 71.6997 87.7992 71.5997 87.6992 71.5997Z" fill="black"/>
</svg>
