<svg width="109" height="113" viewBox="0 0 109 113" fill="none" xmlns="http://www.w3.org/2000/svg">
<path d="M87.8997 40.4C88.0997 40.3 88.0996 40 87.9996 39.8C87.8996 39.6 87.5997 39.6 87.3997 39.7L69.5996 54C69.9996 54 70.3996 54.1 70.7996 54.1L87.8997 40.4Z" fill="black"/>
<path d="M22.4001 92.2998C22.2001 92.3998 22.2 92.6998 22.3 92.8998C22.4 92.9998 22.5 93.0998 22.6 93.0998C22.7 93.0998 22.8001 93.0998 22.9001 92.9998L26.2001 90.2998C25.5001 90.4998 24.9001 90.5998 24.2001 90.7998L22.4001 92.2998Z" fill="black"/>
<path d="M90.3992 43.8998C90.5992 43.7998 90.6992 43.4998 90.4992 43.2998C90.3992 43.0998 90.0992 42.9998 89.8992 43.1998L72.6992 54.2998C73.0992 54.3998 73.5992 54.3998 73.9992 54.4998L90.3992 43.8998Z" fill="black"/>
<path d="M92.4996 47.7001C92.6996 47.6001 92.7996 47.3001 92.6996 47.1001C92.5996 46.9001 92.2996 46.8001 92.0996 46.9001L76.5996 54.8001C77.0996 54.9001 77.5996 54.9001 78.0996 55.0001L92.4996 47.7001Z" fill="black"/>
<path d="M94.2996 51.7997C94.4996 51.6997 94.5996 51.4997 94.4996 51.1997C94.3996 50.9997 94.1997 50.8997 93.8997 50.9997L81.5996 55.6997C82.0996 55.7997 82.6996 55.8997 83.1996 55.9997L94.2996 51.7997Z" fill="black"/>
<path d="M95.5992 55.8998C95.7992 55.7998 95.9992 55.5998 95.8992 55.3998C95.7992 55.1998 95.5992 54.9998 95.3992 55.0998L88.1992 56.9998C88.7992 57.0998 89.3992 57.2998 89.9992 57.3998L95.5992 55.8998Z" fill="black"/>
<path d="M14.8996 55.0998C14.6996 54.9998 14.3996 55.1998 14.3996 55.3998C14.2996 55.5998 14.4996 55.8998 14.6996 55.8998L19.7996 57.2998C20.3996 57.1998 20.9996 56.9998 21.5996 56.8998L14.8996 55.0998Z" fill="black"/>
<path d="M16.2994 50.9997C16.0994 50.8997 15.7994 50.9997 15.6994 51.1997C15.5994 51.3997 15.6994 51.6997 15.8994 51.7997L26.4994 55.8997C26.9994 55.7997 27.5993 55.6997 28.0993 55.5997L16.2994 50.9997Z" fill="black"/>
<path d="M18.1001 46.9997C17.9001 46.8997 17.6002 46.9997 17.5002 47.1997C17.4002 47.3997 17.5002 47.6997 17.7002 47.7997L31.9002 54.9997C32.4002 54.8997 32.9002 54.8997 33.4002 54.7997L18.1001 46.9997Z" fill="black"/>
<path d="M20.3004 43.2C20.1004 43.1 19.8005 43.1 19.7005 43.3C19.6005 43.5 19.6004 43.8 19.8004 43.9L35.9005 54.4C36.3005 54.3 36.8005 54.3 37.2005 54.2L20.3004 43.2Z" fill="black"/>
<path d="M22.9001 39.6998C22.7001 39.4998 22.4 39.5998 22.3 39.7998C22.2 39.9998 22.2001 40.2998 22.4001 40.3998L39.2001 53.9998C39.6001 53.9998 40.0001 53.8998 40.4001 53.8998L22.9001 39.6998Z" fill="black"/>
<path d="M87.3004 92.9997C87.4004 93.0997 87.5003 93.0997 87.6003 93.0997C87.7003 93.0997 87.9004 92.9997 87.9004 92.8997C88.0004 92.6997 88.0004 92.3997 87.8004 92.2997L86.5004 91.2997C85.8004 91.0997 85.1004 90.8997 84.4004 90.6997L87.3004 92.9997Z" fill="black"/>
<path d="M25.9004 36.5001C25.7004 36.3001 25.5004 36.3001 25.3004 36.5001C25.1004 36.7001 25.1004 36.9001 25.3004 37.1001L40.8004 52.6001V51.4001L25.9004 36.5001Z" fill="black"/>
<path d="M84.4008 96.2001C84.5008 96.3001 84.6008 96.3001 84.7008 96.3001C84.8008 96.3001 84.9008 96.3001 85.0008 96.2001C85.2008 96.0001 85.2008 95.8001 85.0008 95.6001L78.8008 89.4001C78.3008 89.3001 77.8008 89.2001 77.3008 89.1001L84.4008 96.2001Z" fill="black"/>
<path d="M81.1008 99.0997C81.2008 99.1997 81.3008 99.2997 81.4008 99.2997C81.5008 99.2997 81.6008 99.2997 81.7008 99.1997C81.9008 99.0997 81.9008 98.7997 81.8008 98.5997L73.6008 88.3997C73.2008 88.2997 72.8008 88.2997 72.3008 88.1997L81.1008 99.0997Z" fill="black"/>
<path d="M29.1993 33.5998C28.9993 33.3998 28.7993 33.3998 28.5993 33.4998C28.3993 33.5998 28.3993 33.8998 28.4993 34.0998L40.7993 49.1998V47.7998L29.1993 33.5998Z" fill="black"/>
<path d="M77.5004 101.6C77.6004 101.7 77.7004 101.8 77.9004 101.8C78.0004 101.8 78.1003 101.8 78.1003 101.7C78.3003 101.6 78.4004 101.3 78.2004 101.1L69.5004 87.7001C69.1004 87.7001 68.8004 87.6001 68.4004 87.6001L77.5004 101.6Z" fill="black"/>
<path d="M32.6997 31.1001C32.5997 30.9001 32.2996 30.8001 32.0996 31.0001C31.8996 31.1001 31.7996 31.4001 31.9996 31.6001L40.6997 45.1001V43.5001L32.6997 31.1001Z" fill="black"/>
<path d="M68.4008 91.4998L68.3008 91.2998V91.4998C68.3008 91.3998 68.4008 91.3998 68.4008 91.4998Z" fill="black"/>
<path d="M40.5993 36.9C40.3993 36.8 40.2993 36.7 40.0993 36.6C39.4993 36.1 39.1994 35.4 39.1994 34.6V34.3L36.4994 29C36.3994 28.8 36.0994 28.7 35.8994 28.8C35.6994 28.9 35.5994 29.2 35.6994 29.4L40.6994 39.2V37.3L40.5993 36.9Z" fill="black"/>
<path d="M73.7008 103.7C73.8008 103.8 73.9008 103.9 74.1008 103.9C74.2008 103.9 74.2008 103.9 74.3008 103.9C74.5008 103.8 74.6008 103.5 74.5008 103.3L69.8008 94.1001V96.0001L73.7008 103.7Z" fill="black"/>
<path d="M40.6009 27.1997C40.5009 26.9997 40.301 26.8997 40.001 26.9997C39.801 27.0997 39.7009 27.2997 39.8009 27.5997L40.401 29.0997C40.601 28.8997 40.9009 28.7997 41.1009 28.5997L40.6009 27.1997Z" fill="black"/>
<path d="M69.6996 105.5C69.7996 105.7 69.8996 105.8 70.0996 105.8C70.1996 105.8 70.1996 105.8 70.2996 105.8C70.4996 105.7 70.5996 105.5 70.4996 105.2L68.3997 99.7998C68.1997 99.8998 67.8996 100.1 67.5996 100.2L69.6996 105.5Z" fill="black"/>
<path d="M64.8008 104.2L65.5008 106.8C65.6008 107 65.7008 107.1 65.9008 107.1H66.0008C66.2008 107 66.4008 106.8 66.3008 106.6L65.5008 103.5C65.3008 103.8 65.1008 104 64.8008 104.2Z" fill="black"/>
<path d="M61.1996 107.7C61.1996 107.9 61.3996 108.1 61.5996 108.1C61.5996 108.1 61.5996 108.1 61.6996 108.1C61.8996 108.1 62.0996 107.8 62.0996 107.6L61.8997 106.5C61.5997 106.6 61.3996 106.8 61.0996 106.9L61.1996 107.7Z" fill="black"/>
<path d="M49.0992 107.3C48.7992 107.2 48.4992 107.1 48.2992 107L48.1992 107.6C48.1992 107.8 48.2992 108.1 48.5992 108.1C48.5992 108.1 48.5992 108.1 48.6992 108.1C48.8992 108.1 49.0992 108 49.0992 107.8C48.9992 107.6 48.9992 107.4 49.0992 107.3Z" fill="black"/>
<path d="M43.8996 106.6C43.7996 106.8 43.9996 107.1 44.1996 107.1H44.2996C44.4996 107.1 44.6996 107 44.6996 106.8L45.1996 105.1C44.9996 104.9 44.6996 104.7 44.4996 104.5L43.8996 106.6Z" fill="black"/>
<path d="M69.5 30.0001L70.5 27.5001C70.6 27.3001 70.5 27.0001 70.3 26.9001C70.1 26.8001 69.8 26.9001 69.7 27.1001L69 29.0001C69.2 29.4001 69.4 29.7001 69.5 30.0001Z" fill="black"/>
<path d="M39.6994 105.2C39.5994 105.4 39.6994 105.7 39.8994 105.8C39.9994 105.8 39.9993 105.8 40.0993 105.8C40.2993 105.8 40.3994 105.7 40.4994 105.5L41.9994 101.5C41.7994 101.2 41.5994 100.8 41.4994 100.4L39.6994 105.2Z" fill="black"/>
<path d="M74.5008 29.2999C74.6008 29.0999 74.5008 28.7999 74.3008 28.6999C74.1008 28.5999 73.8008 28.6999 73.7008 28.8999L68.3008 39.4999V41.3999L74.5008 29.2999Z" fill="black"/>
<path d="M39.3009 96.5L35.8009 103.3C35.7009 103.5 35.801 103.8 36.001 103.9C36.101 103.9 36.101 103.9 36.201 103.9C36.401 103.9 36.5009 103.8 36.6009 103.7L39.401 98.2C39.301 98 39.3009 97.8 39.3009 97.5V96.5Z" fill="black"/>
<path d="M78.2008 31.4997C78.3008 31.2997 78.3008 30.9997 78.1008 30.8997C77.9008 30.7997 77.6008 30.7997 77.5008 30.9997L68.3008 45.1997V46.7997L78.2008 31.4997Z" fill="black"/>
<path d="M31.9993 101.1C31.8993 101.3 31.8993 101.6 32.0993 101.7C32.1993 101.7 32.2993 101.8 32.2993 101.8C32.3993 101.8 32.5993 101.7 32.6993 101.6L40.6993 89.2001V87.6001L31.9993 101.1Z" fill="black"/>
<path d="M81.6992 34.1001C81.7992 33.9001 81.7992 33.6001 81.5992 33.5001C81.3992 33.3001 81.0992 33.4001 80.9992 33.6001L68.1992 49.4001V50.8001L81.6992 34.1001Z" fill="black"/>
<path d="M28.4993 98.4999C28.3993 98.6999 28.3993 98.9999 28.5993 99.0999C28.6993 99.1999 28.7993 99.1999 28.8993 99.1999C28.9993 99.1999 29.1993 99.0999 29.1993 98.9999L38.1993 87.8999C37.7993 87.9999 37.3993 87.9999 36.8993 88.0999L28.4993 98.4999Z" fill="black"/>
<path d="M85.0008 37.1001C85.2008 36.9001 85.2008 36.7001 85.0008 36.5001C84.8008 36.3001 84.6008 36.3001 84.4008 36.5001L68.3008 52.6001V53.8001L85.0008 37.1001Z" fill="black"/>
<path d="M25.3004 95.5998C25.1004 95.7998 25.1004 95.9998 25.3004 96.1998C25.4004 96.2998 25.5004 96.2998 25.6004 96.2998C25.7004 96.2998 25.8004 96.2998 25.9004 96.1998L33.3004 88.7998C32.8004 88.8998 32.3004 88.9998 31.8004 89.0998L25.3004 95.5998Z" fill="black"/>
<path d="M47.4008 6.29971C48.0008 5.29971 48.9008 4.49971 49.8008 3.79971C50.8008 3.09971 51.9008 2.59971 53.1008 2.19971C50.6008 2.39971 48.2008 3.79971 46.9008 5.89971C45.5008 7.99971 45.2008 10.7997 46.0008 13.1997C45.8008 11.8997 45.8008 10.6997 46.1008 9.49971C46.3008 8.39971 46.8008 7.29971 47.4008 6.29971Z" fill="black"/>
<path d="M52.1996 18.2997C51.3996 17.6997 50.6996 17.1997 49.9996 16.6997C49.2996 16.1997 48.4996 15.6997 47.6996 15.1997C47.8996 15.4997 48.0997 15.7997 48.3997 16.0997C47.6997 15.4997 47.0996 14.8997 46.5996 14.1997C47.7996 17.0997 50.5996 18.9997 53.6996 18.9997C52.8996 18.7997 52.1996 18.4997 51.5996 18.1997C51.7996 18.1997 51.9996 18.1997 52.1996 18.2997Z" fill="black"/>
<path d="M61.6008 7.1001C61.7008 7.5001 61.9008 7.8001 62.0008 8.2001C61.5008 6.6001 60.6008 5.2001 59.3008 4.2001C60.4008 5.3001 61.1008 6.6001 61.5008 8.0001C61.9008 9.4001 61.9008 10.8001 61.6008 12.2001C61.3008 13.6001 60.7008 14.8001 59.7008 15.9001C58.8008 17.0001 57.6008 17.9001 56.2008 18.4001C58.0008 18.0001 59.6008 16.9001 60.7008 15.5001C60.5008 15.8001 60.3008 16.0001 60.1008 16.2001C59.0008 17.4001 57.5008 18.4001 55.8008 18.8001C57.5008 18.5001 59.2008 17.7001 60.4008 16.5001C61.7008 15.3001 62.5008 13.7001 62.8008 12.0001C63.1008 10.3001 62.9008 8.5001 62.1008 6.9001C61.3008 5.3001 60.1008 4.0001 58.5008 3.1001C59.9008 4.1001 61.0008 5.5001 61.6008 7.1001Z" fill="black"/>
<path d="M56.9004 17.3997C58.9004 16.5997 60.5004 14.9997 61.2004 12.8997C61.9004 10.8997 61.7003 8.49971 60.6003 6.69971C62.0003 10.7997 60.5004 14.9997 56.9004 17.3997Z" fill="black"/>
<path d="M60.1996 10.5997C59.8996 11.1997 59.5996 11.7997 59.2996 12.2997C58.9996 12.7997 58.7996 13.3997 58.4996 14.0997C58.8996 13.7997 59.2996 13.4997 59.5996 12.9997C59.0996 13.9997 58.4996 14.9997 57.5996 15.8997C58.7996 15.2997 59.6996 14.2997 60.2996 13.0997C60.7996 11.8997 60.9996 10.4997 60.6996 9.19971C60.5996 10.1997 60.3996 10.9997 60.0996 11.7997C60.1996 11.4997 60.2996 11.0997 60.1996 10.5997Z" fill="black"/>
<path d="M55.8004 33.3C55.8004 33.3 55.2004 33.4 55.2004 33.5C55.2004 33.6 55.8004 33.7 55.8004 33.7C56.2004 33.7 56.5004 33.8 56.9004 33.9C57.0004 33.9 57.0004 33.9 57.1004 33.9C60.1004 34.1 63.2004 34.3 66.2004 34.4C66.4004 34.4 66.6004 34.4 66.7004 34.3C66.8004 34.2 66.9004 34 66.9004 33.8C67.0004 33.1 67.3004 32.1 67.0004 31.4C66.8004 30.8 66.0004 30.7 65.5004 30.6C63.7004 30.2 61.9004 30 60.0004 29.9C59.7004 29.9 57.4004 29.7 57.0004 29.8H55.7004C55.7004 29.8 55.0004 29.8 55.0004 29.9C55.0004 30 55.6004 30.1 55.6004 30.1L56.7004 30.4L55.7004 30.5C55.7004 30.5 55.0004 30.5 55.0004 30.6C55.0004 30.7 55.6004 30.8 55.6004 30.8L56.6004 31L55.7004 31.1C55.7004 31.1 55.0004 31.2 55.0004 31.3C55.0004 31.4 55.6004 31.5 55.6004 31.5L56.5004 31.7L55.6004 31.8C55.6004 31.8 54.9004 31.9 54.9004 32C54.9004 32.1 55.5004 32.2 55.5004 32.2L56.4004 32.4C56.1004 32.4 55.8004 32.5 55.5004 32.5C55.5004 32.5 54.8004 32.6 54.9004 32.7C54.9004 32.8 55.5004 32.9 55.5004 32.9C55.8004 32.9 56.2004 33 56.5004 33.1C56.5004 33.2 56.1004 33.2 55.8004 33.3Z" fill="black"/>
<path d="M55.6996 109.6C56.0996 109.2 56.2996 108.6 56.1996 108.1C55.8996 108.6 55.5996 108.9 55.1996 109.2C54.8996 109.5 54.4996 109.8 54.0996 110.1C54.6996 110.2 55.2996 110 55.6996 109.6Z" fill="black"/>
<path d="M42.7009 34.2997L45.7009 34.0997H45.8009H45.9009C46.2009 33.9997 46.6009 33.9997 47.0009 33.9997C47.0009 33.9997 47.7009 33.8997 47.7009 33.7997C47.7009 33.6997 47.1008 33.5997 47.1008 33.5997C46.8008 33.4997 46.5009 33.4997 46.2009 33.4997C46.5009 33.4997 46.8009 33.3997 47.0009 33.3997C47.0009 33.3997 47.7009 33.2997 47.7009 33.1997C47.7009 33.0997 47.1008 32.9997 47.1008 32.9997C46.8008 32.9997 46.6009 32.8997 46.3009 32.8997L47.1008 32.7997C47.1008 32.7997 47.7009 32.6997 47.7009 32.5997C47.7009 32.4997 47.1008 32.3997 47.1008 32.3997L46.3009 32.2997C46.3009 32.2997 46.3009 32.2997 46.3009 32.1997L47.1008 32.0997C47.1008 32.0997 47.7009 31.9997 47.7009 31.8997C47.7009 31.7997 47.1008 31.6997 47.1008 31.6997L46.3009 31.5997V31.4997L47.1008 31.2997C47.1008 31.2997 47.7009 31.1997 47.7009 31.0997C47.7009 30.9997 47.1008 30.9997 47.1008 30.9997H46.3009C46.3009 30.9997 46.3009 30.9997 46.3009 30.8997L47.1008 30.6997C47.1008 30.6997 47.7009 30.4997 47.7009 30.3997C47.7009 30.2997 47.1008 30.2997 47.1008 30.2997L45.7009 30.1997C45.6009 30.1997 45.5009 30.1997 45.4009 30.1997C44.8009 30.2997 44.2009 30.3997 43.7009 30.4997C43.3009 30.5997 42.4008 30.5997 42.1008 30.8997C41.8008 31.0997 42.0009 31.5997 42.0009 31.8997C42.0009 32.4997 42.0009 33.0997 42.0009 33.5997C42.0009 33.7997 42.0009 34.0997 42.2009 34.1997C42.3009 34.2997 42.5009 34.2997 42.7009 34.2997Z" fill="black"/>
<path d="M57.2008 94.3998C57.1008 94.3998 57.1008 94.3998 57.0008 94.3998C56.6008 94.4998 56.3008 94.4998 55.9008 94.5998C55.9008 94.5998 55.3008 94.6998 55.3008 94.7998C55.3008 94.8998 55.9008 94.9998 55.9008 94.9998C56.2008 95.0998 56.5008 95.0998 56.9008 95.0998C56.6008 95.1998 56.2008 95.1998 55.9008 95.2998C55.9008 95.2998 55.3008 95.3998 55.3008 95.4998C55.3008 95.5998 55.9008 95.6998 55.9008 95.6998C56.2008 95.6998 56.5008 95.7998 56.8008 95.7998L55.9008 95.9998C55.9008 95.9998 55.3008 96.0998 55.3008 96.1998C55.3008 96.2998 56.0008 96.3998 56.0008 96.3998L56.9008 96.4998L56.0008 96.6998C56.0008 96.6998 55.4008 96.7998 55.4008 96.8998C55.4008 96.9998 56.1008 97.0998 56.1008 97.0998L57.0008 97.1998L56.0008 97.3998C56.0008 97.3998 55.4008 97.4998 55.4008 97.5998C55.4008 97.6998 56.1008 97.6998 56.1008 97.6998L57.1008 97.7998L56.0008 98.0998L55.4008 98.2998C55.4008 98.3998 56.1008 98.3998 56.1008 98.3998H57.4008C57.8008 98.4998 60.1008 98.2998 60.4008 98.2998C62.2008 98.1998 64.1008 97.9998 65.9008 97.5998C66.5008 97.4998 67.2008 97.3998 67.4008 96.7998C67.6008 96.0998 67.4008 95.0998 67.3008 94.3998C67.3008 94.1998 67.2008 93.9998 67.1008 93.8998C67.0008 93.7998 66.8008 93.7998 66.6008 93.7998C63.3008 94.0998 60.2008 94.2998 57.2008 94.3998Z" fill="black"/>
<path d="M57.0004 106.7C57.2004 107.4 57.1004 108.2 56.9004 108.8C56.9004 108.8 56.9004 108.9 56.8004 108.9C56.9004 108.4 56.9004 108 56.7004 107.5C56.7004 108 56.5004 108.4 56.3004 108.7C56.1004 109.1 55.8004 109.3 55.5004 109.6C55.2004 109.8 54.8004 110 54.5004 110.1C54.1004 110.2 53.7004 110.2 53.2004 110.2C53.5004 110.4 53.8004 110.6 54.2004 110.6C54.0004 110.6 53.8003 110.6 53.6003 110.6C53.3003 110.6 52.9003 110.4 52.6003 110.2C52.3003 110 52.0004 109.7 51.9004 109.4C51.9004 109.8 52.1004 110.2 52.4004 110.4C52.7004 110.7 53.0004 110.9 53.4004 111C54.2004 111.2 55.0004 111.1 55.8004 110.7C56.2004 110.5 56.5004 110.2 56.7004 109.9C57.0004 109.6 57.1004 109.2 57.2004 108.8C57.5004 108.3 57.4004 107.4 57.0004 106.7Z" fill="black"/>
<path d="M47.0996 96.0001C47.0996 96.0001 47.6996 95.9001 47.6996 95.8001C47.6996 95.7001 47.0996 95.6001 47.0996 95.6001L46.2996 95.5001C46.5996 95.5001 46.7996 95.4001 47.0996 95.4001C47.0996 95.4001 47.6996 95.3001 47.6996 95.2001C47.6996 95.1001 46.9996 95.0001 46.9996 95.0001C46.6996 95.0001 46.3996 94.9001 46.1996 94.9001C46.4996 94.9001 46.7996 94.8001 47.0996 94.8001C47.0996 94.8001 47.6996 94.7001 47.6996 94.6001C47.6996 94.5001 46.9996 94.4001 46.9996 94.4001C46.5996 94.4001 46.2996 94.3001 45.8996 94.3001H45.7996H45.6996L42.6996 94.1001C42.4996 94.1001 42.2996 94.1001 42.1996 94.2001C41.9996 94.3001 41.9996 94.6001 41.9996 94.8001C41.9996 95.4001 41.9996 96.0001 41.9996 96.5001C41.9996 96.8001 41.8996 97.2001 42.0996 97.5001C42.3996 97.8001 43.2996 97.8001 43.6996 97.9001C44.2996 98.0001 44.8996 98.1001 45.3996 98.2001C45.4996 98.2001 45.5996 98.2001 45.6996 98.2001L47.0996 98.1001C47.0996 98.1001 47.6996 98.1001 47.6996 98.0001C47.6996 97.9001 47.0996 97.7001 47.0996 97.7001L46.2996 97.5001C46.2996 97.5001 46.2996 97.5001 46.2996 97.4001H47.0996C47.0996 97.4001 47.6996 97.4001 47.6996 97.3001C47.6996 97.2001 47.0996 97.1001 47.0996 97.1001L46.2996 96.9001V96.8001L47.0996 96.7001C47.0996 96.7001 47.6996 96.6001 47.6996 96.5001C47.6996 96.4001 47.0996 96.3001 47.0996 96.3001L46.2996 96.2001C46.2996 96.2001 46.2996 96.2001 46.2996 96.1001L47.0996 96.0001Z" fill="black"/>
<path d="M6.89966 84.3C6.89966 84.4 6.99961 84.5 7.09961 84.4C10.4996 83.7 13.7996 85 15.2996 87.8C15.3996 87.9 15.4996 87.9 15.5996 87.9C40.6996 79.5 68.2997 79.5 93.3997 87.9C93.3997 87.9 93.3996 87.9 93.4996 87.9C93.5996 87.9 93.5996 87.9 93.6996 87.8C95.2996 85.1 98.5997 83.7 101.9 84.4C102 84.4 102.1 84.4 102.1 84.3L105.9 74.7C105.9 74.6 105.9 74.5 105.8 74.4C102.5 72.5 100.6 69.3 100.8 66.2C100.8 66.1 100.7 66 100.7 66C85.7996 61 70.2996 58.5 54.4996 58.5C38.7996 58.5 23.1996 61 8.29962 66C8.19962 66 8.09965 66.1 8.19965 66.2C8.39965 69.3 6.49965 72.5 3.19965 74.4C3.09965 74.5 3.09961 74.6 3.09961 74.7L6.89966 84.3ZM8.59961 66.4C38.1996 56.5 70.7996 56.5 100.3 66.4C100.1 69.5 102.1 72.8 105.3 74.7L101.7 83.9C98.2996 83.2 94.8996 84.6 93.2996 87.4C80.7996 83.2 67.5996 81.1 54.4996 81.1C41.3996 81.1 28.1996 83.2 15.6996 87.4C13.9996 84.7 10.6996 83.3 7.29962 83.9L3.69965 74.7C6.89965 72.7 8.79961 69.5 8.59961 66.4Z" fill="black"/>
<path d="M93.4002 90.6999C84.8002 87.7999 75.9002 85.7999 67.0002 84.8999V83.8999C76.2002 84.7999 85.4002 86.8999 94.2002 89.8999C94.3002 89.8999 94.4002 89.8999 94.5002 89.8999C94.6002 89.7999 94.7002 89.7999 94.7002 89.6999C95.2002 88.2999 96.2001 87.1999 97.6001 86.4999C99.2001 85.7999 101 85.7999 102.7 86.4999C102.8 86.4999 102.9 86.4999 103 86.4999C103.1 86.4999 103.2 86.3999 103.2 86.2999L108.1 74.3999C108.2 74.1999 108.1 73.8999 107.9 73.7999C104.1 72.2999 102 68.6999 103 65.6999C103.1 65.4999 103 65.1999 102.7 65.1999C91.1002 61.1999 79.0002 58.5999 66.9002 57.5999V56.4999C79.0002 57.4999 91.0001 59.9999 102.6 63.9999C102.7 63.9999 102.7 63.9999 102.8 63.9999C103.1 63.9999 103.3 63.7999 103.4 63.5999C103.5 63.2999 103.3 62.8999 103 62.7999C91.3002 58.7999 79.2002 56.2999 66.9002 55.2999V35.8999H67.0002C67.3002 35.8999 67.7002 35.7999 67.9002 35.5999C68.2002 35.2999 68.4002 34.9999 68.4002 34.5999V30.9999C68.4002 30.6999 68.3002 30.3999 68.0002 30.0999C67.8002 29.8999 67.4002 29.5999 66.8002 29.3999C66.2002 26.2999 64.0002 23.5999 60.9002 21.9999H60.8002C60.8002 21.9999 60.8002 21.9999 60.7002 21.9999C60.1002 21.6999 59.7001 21.1999 59.6001 20.5999C59.5001 19.9999 59.7002 19.4999 60.2002 19.0999C62.9002 17.1999 64.6001 13.9999 64.6001 10.6999C64.6001 4.9999 60.0002 0.399902 54.3002 0.399902C48.6002 0.399902 44.0002 4.9999 44.0002 10.6999C44.0002 13.9999 45.6002 17.0999 48.3002 19.0999C48.8002 19.4999 49.0002 19.9999 48.9002 20.5999C48.8002 21.1999 48.4002 21.6999 47.8002 21.9999C47.8002 21.9999 47.8002 21.9999 47.7002 21.9999C44.6002 23.5999 42.5002 26.2999 41.8002 29.3999C41.0002 29.6999 40.2002 30.0999 40.2002 30.8999V34.3999C40.2002 34.7999 40.4002 35.1999 40.7002 35.3999C41.0002 35.5999 41.3001 35.7999 41.6001 35.7999H41.7002V54.9999C29.5002 55.9999 17.3001 58.4999 5.60014 62.4999C5.30014 62.5999 5.10018 62.9999 5.20018 63.2999C5.30018 63.5999 5.70017 63.7999 6.00017 63.6999C17.6002 59.6999 29.5002 57.2999 41.7002 56.1999V57.2999C29.5002 58.2999 17.5002 60.7999 5.90019 64.8999C5.70019 64.9999 5.60014 65.1999 5.60014 65.3999C6.60014 68.3999 4.50018 71.9999 0.700178 73.4999C0.500178 73.5999 0.400166 73.7999 0.500166 74.0999L5.40019 85.9999C5.40019 86.0999 5.50014 86.1999 5.60014 86.1999C5.70014 86.1999 5.80019 86.1999 5.90019 86.1999C7.60019 85.4999 9.50017 85.4999 11.0002 86.1999C12.4002 86.7999 13.4002 87.9999 13.9002 89.3999C13.9002 89.4999 14.0001 89.5999 14.1001 89.5999C14.2001 89.5999 14.2002 89.5999 14.3002 89.5999H14.4002C23.2002 86.4999 32.4001 84.4999 41.6001 83.5999V84.5999C32.6001 85.4999 23.7002 87.4999 15.2002 90.3999C14.9002 90.4999 14.7002 90.8999 14.8002 91.1999C14.9002 91.4999 15.3001 91.6999 15.6001 91.5999C24.1001 88.6999 32.8001 86.7999 41.6001 85.8999V92.0999H41.5002C41.2002 92.0999 40.8001 92.1999 40.6001 92.4999C40.3001 92.7999 40.1001 93.0999 40.1001 93.4999V96.9999C40.1001 97.8999 41.1002 98.3999 42.0002 98.5999C43.2002 102.1 46.4002 104.8 50.4002 105.9C50.0002 106.6 49.8002 107.4 49.8002 108.2C49.8002 110.6 51.7001 112.5 54.1001 112.5C56.5001 112.5 58.4002 110.6 58.4002 108.2C58.4002 107.4 58.2002 106.6 57.8002 105.9C61.8002 104.8 65.0002 102.1 66.2002 98.5999C66.9002 98.3999 67.4002 98.0999 67.7002 97.7999C68.0002 97.4999 68.1001 97.1999 68.1001 96.8999V93.3999C68.1001 92.9999 67.9001 92.5999 67.6001 92.3999C67.3001 92.1999 67.0002 91.9999 66.7002 91.9999H66.6001V85.7999C75.4001 86.6999 84.2001 88.5999 92.6001 91.4999C92.7001 91.4999 92.7002 91.4999 92.8002 91.4999C93.1002 91.4999 93.3002 91.2999 93.4002 91.0999C93.9002 91.1999 93.8002 90.7999 93.4002 90.6999ZM43.9002 50.4999C44.0002 50.3999 44.1001 50.2999 44.1001 50.0999C44.1001 51.6999 44.1002 53.2999 44.0002 54.8999C43.9002 54.8999 43.9002 54.8999 43.8002 54.8999C43.9002 53.4999 43.9002 51.9999 43.9002 50.4999ZM43.9002 56.1999H44.0002C44.0002 56.5999 44.0002 56.8999 44.0002 57.2999H43.9002C43.9002 56.8999 43.9002 56.5999 43.9002 56.1999ZM48.7002 55.9999C48.3002 56.3999 47.9002 56.6999 47.5002 57.0999C46.5002 57.0999 45.5002 57.1999 44.5002 57.2999C44.5002 56.8999 44.5002 56.5999 44.5002 56.1999C45.8002 56.0999 47.3002 55.9999 48.7002 55.9999ZM64.6001 54.8999C64.5001 54.8999 64.4002 54.8999 64.2002 54.8999C64.2002 53.7999 64.2002 52.6999 64.2002 51.5999C64.3002 51.3999 64.5001 51.1999 64.6001 50.8999C64.7001 52.1999 64.6001 53.5999 64.6001 54.8999ZM65.2002 57.2999C65.1002 57.2999 65.1002 57.2999 65.0002 57.2999C65.0002 56.8999 65.0002 56.5999 65.0002 56.1999C65.1002 56.1999 65.1002 56.1999 65.2002 56.1999C65.2002 56.5999 65.2002 56.8999 65.2002 57.2999ZM63.9002 52.0999C63.9002 52.9999 63.9002 53.9999 63.9002 54.8999C63.1002 54.7999 62.2002 54.7999 61.4002 54.7999C62.4002 53.7999 63.3002 52.9999 63.9002 52.0999ZM64.6001 57.1999C64.5001 57.1999 64.4002 57.1999 64.3002 57.1999C64.3002 56.7999 64.3002 56.4999 64.3002 56.0999C64.4002 56.0999 64.5001 56.0999 64.6001 56.0999C64.6001 56.4999 64.6001 56.8999 64.6001 57.1999ZM63.9002 56.0999C63.9002 56.4999 63.9002 56.7999 63.9002 57.1999C62.1002 57.0999 60.3002 56.9999 58.4002 56.9999C58.9002 56.6999 59.3002 56.2999 59.8002 55.9999C61.2002 55.9999 62.5002 56.0999 63.9002 56.0999ZM65.8002 57.2999C65.8002 56.8999 65.8002 56.5999 65.8002 56.1999C65.9002 56.1999 65.9002 56.1999 66.0002 56.1999V57.2999C65.9002 57.2999 65.8002 57.2999 65.8002 57.2999ZM65.0002 54.8999C65.0002 53.2999 65.0002 51.7999 65.0002 50.1999C65.1002 49.8999 65.2002 49.6999 65.3002 49.3999C65.3002 51.1999 65.2002 53.0999 65.2002 54.8999C65.1002 54.8999 65.1002 54.8999 65.0002 54.8999ZM43.3002 56.2999C43.3002 56.6999 43.3002 56.9999 43.3002 57.3999C43.2002 57.3999 43.1001 57.3999 43.1001 57.3999V56.2999C43.2001 56.2999 43.2002 56.2999 43.3002 56.2999ZM6.90019 65.6999C37.6002 55.0999 71.4001 55.0999 102.1 65.6999C101.3 68.8999 103.5 72.5999 107.2 74.2999L102.6 85.4999C100.8 84.8999 98.8002 84.8999 97.2002 85.6999C95.7002 86.3999 94.6002 87.4999 94.0002 88.9999C68.5002 80.1999 40.4002 80.1999 14.9002 88.9999C14.3002 87.5999 13.2002 86.3999 11.7002 85.6999C10.8002 85.2999 9.80015 85.0999 8.80015 85.0999C8.00015 85.0999 7.10015 85.1999 6.30015 85.4999L1.70018 74.2999C5.50018 72.5999 7.70019 68.8999 6.90019 65.6999ZM66.0002 84.7999C65.8002 84.7999 65.7002 84.7999 65.5002 84.7999C65.5002 84.4999 65.5002 84.0999 65.5002 83.7999C65.7002 83.7999 65.8002 83.7999 66.0002 83.7999V84.7999ZM45.6001 84.5999C45.9001 84.1999 46.3002 83.8999 46.7002 83.4999C51.5002 83.1999 56.3001 83.1999 61.1001 83.3999C60.7001 83.6999 60.3002 83.9999 59.8002 84.2999C55.1002 84.0999 50.3001 84.1999 45.6001 84.5999ZM43.4002 83.6999C43.4002 83.9999 43.4002 84.3999 43.4002 84.6999C43.3002 84.6999 43.2001 84.6999 43.1001 84.6999V83.6999C43.2001 83.7999 43.3002 83.7999 43.4002 83.6999ZM45.3002 10.6999C45.3002 5.5999 49.5001 1.3999 54.6001 1.3999C59.7001 1.3999 63.9002 5.5999 63.9002 10.6999C63.9002 15.7999 59.7001 19.9999 54.6001 19.9999C49.4001 19.8999 45.3002 15.7999 45.3002 10.6999ZM50.2002 20.6999C50.3002 20.1999 50.2002 19.7999 50.0002 19.2999C51.3002 19.9999 52.9002 20.3999 54.5002 20.3999C56.1002 20.3999 57.6002 19.9999 59.0002 19.2999C58.8002 19.6999 58.8002 20.1999 58.8002 20.6999C58.9002 21.6999 59.6002 22.4999 60.5002 22.8999C63.3002 24.3999 65.3002 26.8999 65.8002 29.6999C65.5002 29.5999 65.1002 29.4999 64.7002 29.4999C64.7002 27.9999 64.0002 26.6999 63.2002 25.5999C62.3002 24.4999 61.2002 23.6999 60.0002 22.9999C60.0002 22.9999 59.8002 22.8999 59.5002 22.6999C59.2002 22.5999 58.9001 22.2999 58.6001 21.9999C58.4001 21.5999 58.2002 21.1999 58.2002 20.8999C58.1002 20.5999 58.1001 20.2999 58.1001 20.2999C58.1001 20.2999 58.0001 20.4999 58.1001 20.8999C58.1001 21.2999 58.2002 21.7999 58.5002 22.1999C58.6002 22.3999 58.8002 22.5999 59.0002 22.7999C59.2002 22.9999 59.4002 23.0999 59.5002 23.0999C59.7002 23.1999 59.8002 23.2999 59.9002 23.2999C60.0002 23.3999 60.0002 23.3999 60.0002 23.3999C60.5002 23.6999 61.1002 24.0999 61.5002 24.5999C61.5002 24.5999 61.5001 24.5999 61.6001 24.6999C61.1001 24.2999 60.7001 23.9999 60.1001 23.6999C60.1001 23.6999 59.9002 23.5999 59.7002 23.4999C59.4002 23.3999 59.1002 23.1999 58.8002 22.9999C58.5002 22.7999 58.2002 22.4999 58.0002 22.2999C57.8002 22.0999 57.8002 21.8999 57.7002 21.8999C57.7002 21.8999 57.7002 22.0999 57.9002 22.3999C58.0002 22.6999 58.3002 22.9999 58.7002 23.2999C59.0002 23.5999 59.4002 23.7999 59.7002 23.8999C60.0002 24.0999 60.1001 24.1999 60.1001 24.1999C61.0001 24.7999 61.9002 25.5999 62.4002 26.4999C62.8002 27.0999 63.1002 27.6999 63.2002 28.3999C63.0002 27.7999 62.7002 27.2999 62.4002 26.7999C61.8002 25.9999 61.0002 25.2999 60.2002 24.6999C60.2002 24.6999 59.6001 24.2999 59.1001 23.9999C58.5001 23.6999 57.9002 23.3999 57.9002 23.3999C57.9002 23.3999 58.5002 23.7999 59.0002 24.2999C59.3002 24.4999 59.6002 24.6999 59.8002 24.8999C60.0002 25.0999 60.1001 25.1999 60.1001 25.1999C60.8001 25.7999 61.5002 26.4999 62.0002 27.2999C62.4002 27.9999 62.7002 28.7999 62.8002 29.5999C62.7002 29.5999 62.6001 29.5999 62.6001 29.5999C62.3001 28.0999 61.5002 26.7999 60.4002 25.7999C60.4002 25.7999 60.3002 25.6999 60.2002 25.5999C60.1002 25.4999 59.9001 25.2999 59.6001 25.1999C59.2001 24.8999 58.7002 24.6999 58.7002 24.6999C58.7002 24.6999 59.1002 24.9999 59.5002 25.3999C59.6002 25.4999 59.7002 25.5999 59.8002 25.6999C59.9002 25.7999 60.0002 25.8999 60.0002 25.8999C60.1002 25.9999 60.1002 25.9999 60.2002 26.0999L60.3002 26.1999C61.2002 27.1999 61.7002 28.3999 61.9002 29.5999C61.8002 29.5999 61.6002 29.5999 61.5002 29.5999C61.3002 28.5999 60.9002 27.5999 60.3002 26.7999C60.3002 26.7999 60.1002 26.4999 59.8002 26.2999C59.5002 25.9999 59.3002 25.7999 59.2002 25.8999C59.2002 25.8999 59.4001 26.1999 59.6001 26.4999C59.8001 26.7999 60.0002 27.0999 60.0002 27.0999C60.4002 27.8999 60.7002 28.6999 60.8002 29.4999C60.7002 29.4999 60.7001 29.4999 60.6001 29.4999C60.5001 28.7999 60.3002 28.1999 60.0002 27.5999C60.0002 27.5999 59.9002 27.3999 59.7002 27.1999C59.6002 26.9999 59.4002 26.7999 59.4002 26.8999C59.4002 26.8999 59.5002 27.0999 59.5002 27.3999C59.6002 27.5999 59.6001 27.7999 59.6001 27.7999C59.8001 28.3999 59.8002 28.8999 59.8002 29.4999C59.7002 29.4999 59.7001 29.4999 59.6001 29.4999C59.6001 29.0999 59.5002 28.6999 59.5002 28.2999C59.5002 28.2999 59.5002 28.0999 59.4002 27.9999C59.3002 27.7999 59.3002 27.6999 59.2002 27.6999C59.2002 27.6999 59.1001 27.8999 59.1001 27.9999C59.1001 28.1999 59.1001 28.2999 59.1001 28.2999C59.1001 28.6999 59.0002 29.0999 58.9002 29.3999C56.9002 29.2999 55.2001 29.2999 54.6001 29.2999H54.5002C53.1002 29.2999 49.5002 29.2999 46.4002 29.6999L46.6001 28.9999C46.6001 28.9999 46.7001 28.4999 46.6001 28.4999C46.5001 28.4999 46.3002 28.8999 46.3002 28.8999L45.9002 29.5999C46.1002 29.0999 46.3002 28.5999 46.5002 28.0999C46.5002 28.0999 46.6002 27.7999 46.7002 27.5999C46.8002 27.2999 47.0002 27.0999 46.9002 27.0999C46.9002 27.0999 46.7002 27.2999 46.5002 27.4999C46.3002 27.6999 46.2002 27.8999 46.2002 27.8999C45.8002 28.3999 45.5002 28.8999 45.3002 29.4999C45.7002 28.3999 46.3001 27.2999 47.1001 26.3999C47.1001 26.3999 47.1002 26.3999 47.2002 26.2999C47.2002 26.2999 47.3002 26.1999 47.4002 26.0999C47.5002 25.8999 47.7002 25.6999 47.9002 25.4999C48.3002 25.0999 48.8002 24.7999 48.7002 24.6999C48.7002 24.6999 48.2002 24.8999 47.7002 25.2999C47.5002 25.4999 47.3001 25.5999 47.1001 25.7999C46.9001 25.8999 46.8002 25.9999 46.8002 25.9999C45.8002 26.9999 44.9002 28.2999 44.4002 29.5999C44.7002 28.5999 45.3002 27.6999 45.9002 26.7999C46.8002 25.6999 47.9002 24.7999 49.0002 23.9999C49.0002 23.9999 49.2002 23.8999 49.5002 23.5999C49.8002 23.3999 50.3001 23.0999 50.6001 22.5999C50.9001 22.1999 51.1002 21.5999 51.0002 21.1999C51.0002 20.7999 50.8002 20.5999 50.7002 20.5999C50.7002 20.5999 50.8002 20.7999 50.8002 21.1999C50.8002 21.5999 50.7002 21.9999 50.4002 22.3999C50.1002 22.7999 49.7002 22.9999 49.4002 23.1999C49.1002 23.3999 48.9002 23.4999 48.9002 23.4999C47.7002 24.2999 46.5002 25.0999 45.5002 26.1999C44.5002 27.1999 43.7002 28.4999 43.4002 29.9999C43.3002 29.9999 43.2001 29.9999 43.1001 30.0999C43.7001 27.2999 45.6002 24.7999 48.4002 23.2999C49.4002 22.4999 50.1002 21.6999 50.2002 20.6999ZM42.0002 34.8999C41.9002 34.8999 41.8002 34.8999 41.7002 34.7999C41.6002 34.6999 41.6001 34.5999 41.6001 34.4999V30.9999C41.6001 30.8999 41.7002 30.1999 46.0002 29.7999C49.3002 29.3999 53.0002 29.3999 54.5002 29.3999H54.6001C60.0001 29.3999 66.3002 29.8999 67.3002 30.8999C67.4002 30.9999 67.4002 30.9999 67.4002 31.0999V34.5999C67.4002 34.6999 67.4002 34.7999 67.3002 34.8999C67.2002 34.9999 67.1002 34.9999 67.0002 34.9999C64.8002 34.6999 62.0002 34.4999 54.5002 34.4999C47.0002 34.3999 44.2002 34.5999 42.0002 34.8999ZM43.1001 35.2999C45.2001 35.0999 48.1002 34.8999 54.5002 34.8999C60.9002 34.8999 63.9002 35.0999 65.9002 35.2999V54.9999C65.8002 54.9999 65.8002 54.9999 65.7002 54.9999C65.7002 49.1999 65.6002 43.3999 65.4002 37.3999C65.4002 39.2999 65.3002 41.1999 65.3002 42.9999C65.2002 43.1999 65.0002 43.3999 64.9002 43.5999C64.9002 41.4999 64.8002 39.4999 64.8002 37.3999C64.8002 39.5999 64.8002 41.6999 64.7002 43.7999C64.5002 43.9999 64.3002 44.1999 64.2002 44.3999C64.2002 42.0999 64.1001 39.6999 64.1001 37.2999C64.1001 39.7999 64.0002 42.1999 64.0002 44.5999C61.9002 46.8999 58.8001 48.8999 55.6001 50.8999C53.8001 52.0999 52.0002 53.2999 50.3002 54.4999C48.3002 54.5999 46.4002 54.5999 44.4002 54.7999C44.4002 53.0999 44.4002 51.3999 44.4002 49.5999C46.9002 46.3999 50.9002 43.6999 54.8002 41.0999C57.6002 39.1999 60.3002 37.4999 62.3002 35.5999C63.2002 35.5999 64.2002 35.4999 65.2002 35.4999C60.9002 35.1999 56.7002 35.0999 52.5002 35.2999C52.3002 35.2999 52.1002 35.2999 51.9002 35.2999C49.2002 35.3999 46.4002 35.5999 43.5002 35.8999C46.1002 35.8999 48.6002 35.8999 51.0002 35.8999C48.3002 37.8999 45.6002 40.1999 44.3002 42.9999C44.3002 41.0999 44.2002 39.1999 44.2002 37.2999C44.2002 39.2999 44.2001 41.3999 44.1001 43.3999C43.9001 43.7999 43.8002 44.1999 43.7002 44.4999C43.7002 42.0999 43.6002 39.6999 43.5002 37.2999C43.4002 43.2999 43.3002 49.1999 43.2002 54.8999C43.1002 54.8999 43.0002 54.8999 42.9002 54.8999V35.2999H43.1001ZM54.5002 111.8C52.7002 111.8 51.2002 110.3 51.2002 108.5C51.2002 107.6 51.6002 106.7 52.3002 106C52.5002 106 52.6002 106 52.8002 106.1C52.6002 106.2 52.4002 106.4 52.2002 106.6C51.8002 107.2 51.7001 108 52.1001 108.6C52.2001 107.9 52.4002 107.4 52.7002 107C52.9002 106.7 53.2001 106.4 53.6001 106.2C53.9001 106.2 54.2002 106.2 54.5002 106.2C55.2002 106.2 56.0002 106.1 56.7002 106C57.4002 106.6 57.8002 107.5 57.8002 108.5C57.8002 110.3 56.3002 111.8 54.5002 111.8ZM54.5002 105.7C49.4002 105.7 44.9002 102.8 43.4002 98.6999H43.5002C44.5002 100.8 46.0002 102.6 48.0002 103.8C48.0002 103.8 48.0001 103.8 48.1001 103.9C48.2001 103.9 48.3002 104 48.4002 104.1C48.5002 104.2 48.7002 104.3 48.9002 104.4C49.1002 104.5 49.3002 104.6 49.5002 104.7C50.3002 105 51.1001 105.2 51.1001 105.2C51.1001 105.2 50.4002 104.9 49.7002 104.5C49.5002 104.4 49.4002 104.3 49.2002 104.2C49.0002 104.1 48.9002 104 48.8002 103.9C48.6002 103.7 48.4002 103.6 48.4002 103.6C46.7002 102.4 45.3002 100.7 44.5002 98.7999C44.6002 98.7999 44.7002 98.7999 44.8002 98.7999C45.3002 99.8999 46.0002 100.9 46.8002 101.7C46.8002 101.7 47.1002 102 47.4002 102.3C47.7002 102.6 48.1001 102.8 48.1001 102.8C48.1001 102.8 47.8001 102.5 47.6001 102.2C47.3001 101.9 47.1001 101.6 47.1001 101.6C46.5001 100.8 46.0001 99.8999 45.6001 98.9999C45.7001 98.9999 45.7002 98.9999 45.8002 98.9999C45.9002 99.2999 46.1002 99.4999 46.3002 99.6999C46.3002 99.6999 46.4002 99.7999 46.5002 99.7999C46.6002 99.8999 46.7002 99.8999 46.7002 99.8999C46.7002 99.8999 46.7001 99.7999 46.6001 99.6999C46.6001 99.5999 46.5002 99.4999 46.5002 99.4999C46.4002 99.3999 46.4002 99.1999 46.4002 99.0999C49.6002 99.3999 53.1002 99.3999 54.5002 99.3999C54.5002 99.3999 54.5001 99.3999 54.6001 99.3999C55.3001 99.3999 57.9001 99.3999 60.6001 99.1999C60.4001 99.4999 60.2002 99.7999 60.0002 100.1C60.0002 100.1 59.9002 100.3 59.8002 100.4C59.7002 100.6 59.6001 100.7 59.6001 100.8C59.6001 100.8 59.8002 100.7 60.0002 100.6C60.2002 100.5 60.3002 100.4 60.3002 100.4C60.7002 99.9999 61.1002 99.5999 61.5002 99.1999H61.6001C61.1001 99.9999 60.5002 100.8 59.8002 101.6C59.8002 101.6 59.5002 101.9 59.2002 102.2C58.9002 102.5 58.6001 102.8 58.6001 102.8C58.6001 102.8 59.0002 102.6 59.3002 102.4C59.6002 102.2 60.0002 101.9 60.0002 101.9C61.0002 101.1 61.8002 100.2 62.5002 99.1999H62.4002H62.5002C61.8002 100.4 61.0002 101.5 59.9002 102.4C59.9002 102.4 59.8001 102.5 59.6001 102.6C59.4001 102.7 59.2002 102.9 59.0002 103.1C58.5002 103.4 58.0001 103.8 58.1001 103.8C58.1001 103.8 58.6001 103.6 59.1001 103.3C59.6001 103 60.0002 102.7 60.0002 102.7C61.3002 101.7 62.5002 100.5 63.3002 98.9999C63.3002 98.9999 63.3002 98.9999 63.4002 98.9999C62.5002 100.6 61.3002 101.9 59.8002 103C59.8002 103 59.2002 103.4 58.5002 103.8C57.9002 104.2 57.2002 104.5 57.2002 104.6C57.2002 104.6 57.9002 104.4 58.5002 104.1C58.8002 104 59.2002 103.8 59.4002 103.7C59.6002 103.6 59.8002 103.5 59.8002 103.5C61.6002 102.5 63.2002 100.9 64.2002 98.9999C63.2002 100.9 61.7002 102.6 59.8002 103.7C59.8002 103.7 59.8002 103.7 59.7002 103.8C59.6002 103.8 59.5002 103.9 59.4002 104C59.3002 104.1 59.1002 104.2 58.9002 104.3C58.7002 104.4 58.5002 104.5 58.3002 104.6C57.5002 105 56.7002 105.2 56.7002 105.3C56.7002 105.3 57.5002 105.2 58.3002 104.9C58.5002 104.8 58.7002 104.8 58.9002 104.7C59.1002 104.6 59.3002 104.6 59.4002 104.5C59.7002 104.4 59.9002 104.3 59.9002 104.3C62.1002 103.1 64.0002 101.3 65.2002 98.9999C65.3002 98.9999 65.4002 98.9999 65.5002 98.8999C64.1002 102.8 59.6002 105.7 54.5002 105.7ZM66.1001 98.4999C66.2001 98.4999 66.2001 98.4999 66.1001 98.4999C66.2001 98.4999 66.2001 98.4999 66.1001 98.4999ZM67.0002 93.3999C67.1002 93.3999 67.2002 93.3999 67.3002 93.4999C67.4002 93.5999 67.4002 93.6999 67.4002 93.7999V97.2999C67.4002 97.3999 67.4002 97.3999 67.3002 97.4999C66.9002 97.8999 65.5002 98.1999 63.7002 98.4999C62.8002 98.5999 61.8002 98.6999 60.8002 98.7999C58.8002 98.8999 56.7001 98.9999 54.6001 98.9999H54.5002C53.0002 98.9999 49.3002 98.9999 46.0002 98.5999C45.3002 98.4999 44.7002 98.3999 44.2002 98.3999C41.6002 97.9999 41.6001 97.4999 41.6001 97.3999V93.8999C41.6001 93.7999 41.6002 93.6999 41.7002 93.5999C41.8002 93.4999 41.9002 93.4999 42.0002 93.4999C44.2002 93.7999 47.0002 93.9999 54.5002 93.9999C62.1002 93.8999 64.8002 93.5999 67.0002 93.3999ZM66.0002 92.9999C63.9002 93.1999 61.0001 93.3999 54.6001 93.3999C48.2001 93.3999 45.2002 93.1999 43.2002 92.9999V86.0999C43.3002 86.0999 43.4001 86.0999 43.6001 86.0999C43.6001 87.1999 43.7002 88.3999 43.7002 89.4999C43.7002 88.6999 43.7002 87.8999 43.7002 87.1999C43.9002 86.8999 44.0002 86.6999 44.2002 86.3999C44.2002 87.3999 44.2002 88.4999 44.3002 89.4999C44.3002 88.3999 44.3002 87.2999 44.3002 86.1999C44.4002 86.0999 44.4002 85.9999 44.5002 85.8999C49.0002 85.4999 53.6001 85.3999 58.1001 85.4999C57.3001 85.9999 56.5002 86.5999 55.7002 87.0999C53.1002 88.7999 50.5002 90.4999 48.3002 92.3999C46.7002 92.3999 45.2002 92.3999 43.5002 92.4999C51.0002 93.1999 58.0002 93.1999 65.5002 92.2999C63.4002 92.2999 61.4002 92.2999 59.5002 92.2999C61.2002 90.9999 62.9002 89.5999 64.0002 88.0999C64.0002 88.4999 64.0002 88.9999 64.0002 89.3999C64.0002 88.8999 64.0002 88.4999 64.0002 87.9999C64.2002 87.6999 64.5002 87.2999 64.7002 86.8999C64.7002 87.6999 64.7002 88.4999 64.7002 89.2999C64.7002 88.3999 64.7002 87.5999 64.7002 86.6999C64.8002 86.3999 65.0001 86.0999 65.1001 85.7999H65.2002C65.2002 86.9999 65.3002 88.0999 65.3002 89.2999C65.3002 88.0999 65.3002 86.9999 65.4002 85.7999C65.6002 85.7999 65.7002 85.7999 65.9002 85.7999V92.9999H66.0002Z" fill="black"/>
<path d="M15.5008 71.1999C15.9008 71.0999 16.2008 70.9999 16.6008 70.8999C16.4008 70.5999 16.0008 70.5999 15.7008 70.6999C15.4008 70.7999 15.1008 70.8999 14.8008 70.9999C15.1008 71.9999 15.4008 72.8999 15.7008 73.8999C15.9008 73.7999 16.1008 73.7999 16.3008 73.6999C16.0008 72.7999 15.7008 71.9999 15.5008 71.1999Z" fill="black"/>
<path d="M16.9992 75.8C16.6992 75.9 16.4992 76 16.1992 76C16.4992 77.1 16.8992 78.3 17.1992 79.4C17.3992 79.3 17.5992 79.3 17.7992 79.2C17.4992 78.2 17.1992 77.2 16.8992 76.2C17.1992 76.1 17.5992 76 17.8992 75.9C17.9992 75.9 17.9992 75.9 18.0992 75.9C17.8992 75.6 17.4992 75.6 16.9992 75.8Z" fill="black"/>
<path d="M19.7992 81.5C21.9992 80.9 22.7992 79.6 22.2992 77.6C22.1992 77.3 22.0992 76.9 21.9992 76.6C21.6992 75.6 21.1992 74.8 20.3992 74.5C20.7992 74.9 20.9992 75.4 21.1992 76.1C21.2992 76.4 21.3992 76.8 21.4992 77.1C21.9992 79.2 21.0992 80.6 18.7992 81.2C17.8992 81.5 17.0992 81.7 16.1992 82C16.1992 82.1 16.2992 82.3 16.2992 82.4C17.5992 82.1 18.6992 81.8 19.7992 81.5Z" fill="black"/>
<path d="M20.4008 71C20.1008 69.9 19.6008 69.2 18.8008 69C19.2008 69.4 19.5008 69.9 19.6008 70.6C19.6008 70.7 19.7008 70.9 19.7008 71C20.0008 72.2 19.8008 73.1 19.1008 73.8C19.4008 73.9 19.7008 74 19.9008 74.1C20.6008 73.4 20.7008 72.6 20.5008 71.4C20.5008 71.3 20.5008 71.2 20.4008 71Z" fill="black"/>
<path d="M30.9008 78.5001C30.3008 78.6001 29.7008 78.7001 29.2008 78.8001C29.3008 78.9001 29.3008 79.1001 29.4008 79.2001C30.1008 79.1001 30.9008 78.9001 31.6008 78.8001C30.1008 74.7001 28.5008 70.6001 26.8008 66.6001C26.6008 66.6001 26.4008 66.7001 26.3008 66.7001C27.8008 70.6001 29.4008 74.5001 30.9008 78.5001Z" fill="black"/>
<path d="M25.1008 79.6997C24.7008 79.7997 24.2008 79.8997 23.8008 79.9997C23.8008 80.0997 23.8008 80.2997 23.8008 80.3997C24.5008 80.1997 25.1008 80.0997 25.8008 79.8997C25.7008 79.0997 25.7008 78.2997 25.7008 77.4997C26.3008 77.3997 26.9008 77.1997 27.5008 77.0997C27.4008 76.9997 27.4008 76.7997 27.3008 76.6997C26.5008 76.8997 25.7008 76.9997 25.0008 77.1997C25.0008 78.0997 25.1008 78.8997 25.1008 79.6997Z" fill="black"/>
<path d="M25.3997 72.2001C25.0997 71.5001 24.7996 70.8001 24.5996 70.1001C24.6996 71.7001 24.7996 73.4001 24.7996 75.0001C24.9996 74.9001 25.2996 74.9001 25.4996 74.8001C25.4996 74.0001 25.4997 73.1001 25.3997 72.2001Z" fill="black"/>
<path d="M33.2008 66.8C32.9008 66.8 32.6008 66.9 32.3008 66.9C32.5008 68.1 32.7008 69.2 32.9008 70.4C33.1008 70.4 33.3008 70.3 33.5008 70.3C33.3008 69.3 33.2008 68.3 33.0008 67.2C33.4008 67.1 33.7008 67.1 34.1008 67C33.9008 66.8 33.6008 66.7 33.2008 66.8Z" fill="black"/>
<path d="M33.9004 73C34.2004 73 34.4004 72.9 34.7004 72.9C34.8004 72.9 34.8004 72.9 34.9004 72.9C34.6004 72.6 34.3004 72.5 33.8004 72.6C33.6004 72.6 33.4004 72.7 33.2004 72.7C33.5004 74.4 33.8004 76.2 34.0004 77.9C33.5004 78 32.9004 78.1 32.4004 78.2C32.4004 78.3 32.4004 78.5 32.5004 78.6C33.2004 78.5 34.0004 78.3 34.7004 78.2C34.5004 76.5 34.2004 74.8 33.9004 73Z" fill="black"/>
<path d="M39.4 77.5998C39.1 77.0998 39 76.6998 39 76.0998C38.9 75.3998 38.8 74.7998 38.8 74.0998C38.7 72.9998 38.3 72.1998 37.5 71.7998C37.9 72.2998 38 72.9998 38.1 73.5998C38.2 74.2998 38.3 74.8998 38.3 75.5998C38.4 76.1998 38.4 76.5998 38.7 76.9998C38.8 77.0998 38.8 77.1998 38.9 77.2998C38.3 77.3998 37.6 77.4998 37 77.5998C37.1 77.7998 37.1 77.8998 37.2 77.9998C37.9 77.7998 38.7 77.6998 39.4 77.5998Z" fill="black"/>
<path d="M36.6003 65.5C36.9003 65.9 37.1004 66.5 37.2004 67.2C37.2004 67.5 37.3004 67.9 37.3004 68.2C37.5004 69.4 37.1004 70.3 36.4004 71C36.7004 71.1 36.9003 71.3 37.1003 71.4C37.9003 70.8 38.2003 70 38.1003 68.8C38.1003 68.5 38.0004 68.1 38.0004 67.8C37.8004 66.6 37.4003 65.9 36.6003 65.5Z" fill="black"/>
<path d="M42.5996 74.4999C42.4996 73.4999 42.3996 72.3999 42.2996 71.3999C42.5996 71.3999 42.9996 71.2999 43.2996 71.2999C43.3996 71.2999 43.3996 71.2999 43.4996 71.2999C43.2996 70.9999 42.8997 70.8999 42.3997 70.9999C42.0997 70.9999 41.8996 70.9999 41.5996 71.0999C41.6996 72.2999 41.7997 73.3999 41.8997 74.5999C42.1997 74.5999 42.3996 74.4999 42.5996 74.4999Z" fill="black"/>
<path d="M41.3997 68.7997C41.5997 68.7997 41.7996 68.7997 41.9996 68.6997C41.8996 67.8997 41.7996 66.9997 41.7996 66.1997C42.1996 66.1997 42.4997 66.0997 42.8997 66.0997C42.6997 65.7997 42.3996 65.6997 41.9996 65.6997C41.6996 65.6997 41.3996 65.7997 41.0996 65.7997C41.1996 66.7997 41.2997 67.7997 41.3997 68.7997Z" fill="black"/>
<path d="M45.7004 69.9001C46.5004 69.4001 46.8004 68.6001 46.7004 67.4001C46.7004 67.2001 46.7004 67.1001 46.7004 66.9001C46.6004 65.8001 46.3004 65.0001 45.5004 64.6001C45.8004 65.0001 46.0004 65.6001 46.0004 66.3001C46.0004 66.5001 46.0004 66.6001 46.0004 66.8001C46.1004 68.0001 45.7004 68.9001 44.9004 69.5001C45.2004 69.6001 45.5004 69.7001 45.7004 69.9001Z" fill="black"/>
<path d="M47.3 73.7999C47.3 73.3999 47.3 73.0999 47.2 72.6999C47.1 71.5999 46.8 70.7999 46 70.3999C46.3 70.8999 46.4 71.3999 46.5 72.0999C46.5 72.4999 46.5 72.7999 46.6 73.1999C46.7 75.2999 45.5 76.4999 43.2 76.6999C42.3 76.7999 41.4 76.8999 40.5 76.9999C40.5 77.0999 40.5 77.2999 40.5 77.3999C41.7 77.2999 42.8 77.1999 44 77.0999C46.3 76.8999 47.4 75.7999 47.3 73.7999Z" fill="black"/>
<path d="M50.2 68.3998C50.4 68.3998 50.6 68.3998 50.8 68.3998C50.8 67.4998 50.7 66.5998 50.7 65.6998C52.1 65.6998 53.5 65.5998 54.9 65.5998C54.9 64.9998 54.9 64.3998 54.9 63.7998C54.7 63.7998 54.5 63.7998 54.2 63.7998C54.2 64.2998 54.2 64.6998 54.2 65.1998C52.8 65.1998 51.4 65.1998 50 65.2998C50.1 66.2998 50.1 67.2998 50.2 68.3998Z" fill="black"/>
<path d="M51.0008 73.9998C51.0008 72.9998 50.9008 71.9998 50.9008 71.0998C52.0008 71.0998 53.0008 71.0998 54.1008 71.0998C54.1008 70.4998 54.1008 69.8998 54.1008 69.2998C53.9008 69.2998 53.7008 69.2998 53.5008 69.2998C53.5008 69.7998 53.5008 70.1998 53.5008 70.6998C52.4008 70.6998 51.4008 70.6998 50.3008 70.7998C50.3008 71.8998 50.4008 72.9998 50.4008 74.1998C50.5008 73.9998 50.8008 73.9998 51.0008 73.9998Z" fill="black"/>
<path d="M54.9008 76.6999C54.9008 76.0999 54.9008 75.4999 54.9008 74.8999C54.7008 74.8999 54.5008 74.8999 54.3008 74.8999C54.3008 75.3999 54.3008 75.7999 54.3008 76.2999C52.5008 76.2999 50.6008 76.3999 48.8008 76.3999C48.8008 76.4999 48.8008 76.6999 48.8008 76.7999C50.8008 76.6999 52.9008 76.6999 54.9008 76.6999Z" fill="black"/>
<path d="M58.5008 76.6999C58.6008 74.8999 58.6008 73.1999 58.7008 71.3999C59.0008 71.3999 59.2008 71.3999 59.5008 71.3999C59.6008 71.3999 59.6008 71.3999 59.7008 71.3999C59.5008 70.9999 59.1008 70.8999 58.6008 70.8999C58.4008 70.8999 58.2008 70.8999 58.0008 70.8999C58.0008 72.6999 57.9008 74.3999 57.9008 76.1999C57.4008 76.1999 56.8008 76.1999 56.3008 76.1999C56.3008 76.2999 56.3008 76.4999 56.3008 76.5999C57.0008 76.6999 57.7008 76.6999 58.5008 76.6999Z" fill="black"/>
<path d="M58.0996 68.7997C58.2996 68.7997 58.4996 68.7997 58.6996 68.7997C58.6996 67.7997 58.7996 66.6997 58.7996 65.6997C59.1996 65.6997 59.4997 65.6997 59.8997 65.6997C59.7997 65.3997 59.4996 65.2997 59.0996 65.1997C58.7996 65.1997 58.4996 65.1997 58.1996 65.1997C58.0996 66.3997 58.0996 67.5997 58.0996 68.7997Z" fill="black"/>
<path d="M63.2004 76.9999C63.0004 76.4999 63.0003 75.9999 63.1003 75.3999C63.1003 74.6999 63.2004 74.0999 63.2004 73.3999C63.3004 72.2999 63.1004 71.3999 62.4004 70.8999C62.7004 71.4999 62.7004 72.1999 62.7004 72.6999C62.7004 73.3999 62.6003 73.9999 62.6003 74.6999C62.6003 75.2999 62.6004 75.6999 62.7004 76.1999C62.7004 76.2999 62.8004 76.3999 62.8004 76.4999C62.2004 76.4999 61.5004 76.3999 60.9004 76.3999C60.9004 76.5999 61.0004 76.6999 61.0004 76.7999C61.7004 76.8999 62.4004 76.8999 63.2004 76.9999Z" fill="black"/>
<path d="M63.5 68C63.5 67.7 63.5 67.3 63.6 67C63.7 65.9 63.4 65.1 62.7 64.5C62.9 65 63 65.6 63 66.3C63 66.6 63 67 62.9 67.3C62.8 68.5 62.4 69.4 61.5 69.8C61.8 70 62 70.1 62.1 70.4C63 70 63.4 69.2 63.5 68Z" fill="black"/>
<path d="M69.5996 67.6998C69.5996 67.7998 69.5996 67.9998 69.5996 68.0998C70.3996 68.1998 71.0996 68.2998 71.7996 68.3998C71.7996 68.2998 71.7997 68.0998 71.8997 67.9998C72.0997 66.7998 71.7996 65.8998 71.0996 65.2998C71.3996 65.8998 71.3997 66.4998 71.3997 67.2998C71.3997 67.4998 71.2996 67.6998 71.2996 67.8998C70.6996 67.7998 70.1996 67.6998 69.5996 67.6998Z" fill="black"/>
<path d="M70.9992 74.5999C71.1992 73.1999 70.6992 72.1999 69.9992 71.3999C70.3992 72.0999 70.5992 72.8999 70.4992 73.8999C70.1992 76.0999 68.7992 77.1999 66.4992 76.9999C65.9992 76.9999 65.5992 76.8999 65.1992 76.6999C65.6992 77.0999 66.3992 77.3999 67.2992 77.4999C69.4992 77.6999 70.7992 76.6999 70.9992 74.5999Z" fill="black"/>
<path d="M66.4002 74.1997C66.4002 73.8997 66.5002 73.5997 66.5002 73.2997C66.3002 73.2997 66.1002 73.2997 65.9002 73.1997C65.9002 73.2997 65.9002 73.3997 65.9002 73.4997C65.8002 74.1997 66.1002 74.4997 66.5002 74.5997C66.4002 74.4997 66.4002 74.3997 66.4002 74.1997Z" fill="black"/>
<path d="M67.4996 68.6001C67.2996 68.2001 67.1996 67.8001 67.1996 67.3001C67.2996 66.4001 67.6997 66.1001 68.3997 66.1001C68.2997 65.7001 67.9996 65.6001 67.5996 65.6001C67.0996 65.6001 66.5996 65.6001 66.5996 66.6001C66.5996 67.4001 66.9996 68.0001 67.4996 68.6001Z" fill="black"/>
<path d="M78.3992 78.4997C77.8992 78.3997 77.2992 78.2997 76.7992 78.1997C76.7992 78.2997 76.7992 78.4997 76.6992 78.5997C77.3992 78.6997 78.1992 78.8997 78.8992 78.9997C79.6992 74.7997 80.4992 70.4997 81.3992 66.2997C81.1992 66.2997 80.9992 66.1997 80.6992 66.1997C79.8992 70.2997 79.0992 74.3997 78.3992 78.4997Z" fill="black"/>
<path d="M74.8008 69.8998C75.0008 69.8998 75.2008 69.9998 75.4008 69.9998C75.6008 68.4998 75.9008 66.8998 76.1008 65.3998C75.9008 65.3998 75.7008 65.2998 75.4008 65.2998C75.2008 66.8998 75.0008 68.3998 74.8008 69.8998Z" fill="black"/>
<path d="M74.1 78.1997C74.4 76.3997 74.7 74.4997 75 72.6997C75.5 72.7997 76 72.8997 76.5 72.8997C76.5 72.7997 76.5 72.5997 76.6 72.4997C75.9 72.3997 75.2 72.2997 74.5 72.1997C74.2 73.9997 73.9 75.8997 73.7 77.6997C73.2 77.5997 72.6 77.4997 72.1 77.4997C72.1 77.5997 72.1 77.7997 72 77.8997C72.7 77.9997 73.4 78.0997 74.1 78.1997Z" fill="black"/>
<path d="M84.1995 69.2998C83.6995 71.5998 83.1995 73.7998 82.6995 76.0998C82.4995 76.7998 82.7995 77.0998 83.0995 77.2998C83.0995 77.1998 83.0995 77.0998 83.0995 76.8998C83.5995 74.5998 84.0995 72.3998 84.5995 70.0998C84.7995 69.1998 85.2995 68.9998 86.0995 69.0998C85.9995 68.6998 85.6995 68.5998 85.2995 68.4998C84.8995 68.3998 84.3995 68.3998 84.1995 69.2998Z" fill="black"/>
<path d="M87.7 77.9001C88.3 75.7001 88.8 73.6001 89.4 71.4001C89.7 70.3001 89.5 69.3001 88.9 68.6001C89.1 69.2001 89.1 69.9001 88.9 70.6001C88.3 72.8001 87.8 74.9001 87.2 77.1001C86.6 79.2001 85 80.1001 82.8 79.6001C82.3 79.5001 81.9 79.3001 81.5 79.1001C82 79.6001 82.7 80.0001 83.6 80.2001C85.7 80.7001 87.2 79.9001 87.7 77.9001Z" fill="black"/>
<path d="M93.6003 71.2C93.9003 71.3 94.3003 71.4 94.6003 71.5C94.6003 71.1 94.3004 71 93.9004 70.8C93.6004 70.7 93.3004 70.6 93.0004 70.5C92.6004 71.8 92.3004 73 91.9004 74.3C92.1004 74.4 92.3004 74.4 92.5004 74.5C92.9004 73.5 93.3003 72.3 93.6003 71.2Z" fill="black"/>
<path d="M91.8004 77.2001C92.2004 77.3001 92.5004 77.4001 92.9004 77.5001C95.1004 78.2001 96.6004 77.5001 97.2004 75.5001C97.4004 75.0001 97.6004 74.4001 97.7004 73.9001C98.1004 72.8001 98.0004 71.9001 97.4004 71.1001C97.5004 71.7001 97.5004 72.3001 97.3004 73.1001C97.1004 73.6001 97.0004 74.2001 96.8004 74.7001C96.1004 76.8001 94.5004 77.5001 92.2004 76.8001C91.9004 76.7001 91.7004 76.6001 91.4004 76.6001C91.0004 78.2001 90.5003 79.7001 90.1003 81.3001C89.6003 81.1001 89.0004 81.0001 88.5004 80.9001C88.5004 81.0001 88.4004 81.2001 88.4004 81.3001C89.1004 81.5001 89.8003 81.7001 90.6003 81.9001C90.9003 80.3001 91.4004 78.7001 91.8004 77.2001Z" fill="black"/>
<path d="M18.7 73.9999C19.6 73.2999 19.9 72.3999 19.5 71.0999C19.5 70.9999 19.4 70.7999 19.4 70.6999C18.9 68.7999 17.6 68.0999 15.1 68.7999C13.9 69.0999 12.7 69.4999 11.5 69.8999C12.8 73.9999 14.1 78.0999 15.4 82.1999C16.5 81.7999 17.7 81.4999 18.8 81.1999C21 80.5999 21.8 79.2999 21.3 77.2999C21.2 76.9999 21.1 76.5999 21 76.2999C20.8 74.8999 20 74.0999 18.7 73.9999ZM14.4 70.8999C14.8 70.7999 15.2 70.6999 15.5 70.5999C16.3 70.3999 16.8 70.5999 17.1 71.4999C17.2 71.6999 17.2 71.9999 17.3 72.1999C17.6 73.1999 17.1 73.6999 16.3 73.8999C16 73.9999 15.7 74.0999 15.4 74.1999C15.1 72.9999 14.7 71.8999 14.4 70.8999ZM18.8 76.6999C18.9 77.0999 19 77.3999 19.1 77.7999C19.4 78.6999 19 79.0999 18.3 79.3999C17.9 79.4999 17.5 79.5999 17 79.7999C16.6 78.4999 16.2 77.2999 15.9 75.9999C16.2 75.8999 16.6 75.7999 16.9 75.6999C18 75.2999 18.5 75.4999 18.8 76.6999Z" fill="black"/>
<path d="M22.8997 80.0001C23.5997 79.8001 24.1997 79.7001 24.8997 79.5001C24.7997 78.7001 24.7996 77.9001 24.6996 77.1001C25.5996 76.9001 26.4997 76.7001 27.3997 76.5001C27.6997 77.2001 27.9996 78.0001 28.2996 78.7001C28.9996 78.5001 29.7996 78.4001 30.4996 78.3001C28.8996 74.2001 27.2996 70.1001 25.5996 66.1001C24.3996 66.3001 23.1996 66.6001 22.0996 66.9001C22.2996 71.3001 22.5997 75.6001 22.8997 80.0001ZM24.5996 75.4001C24.4996 73.2001 24.3996 71.0001 24.2996 68.8001C25.1996 70.8001 25.9996 72.9001 26.7996 74.9001C26.0996 75.0001 25.2996 75.2001 24.5996 75.4001Z" fill="black"/>
<path d="M31.5992 78.0997C32.2992 77.9997 33.0992 77.7997 33.7992 77.6997C33.4992 75.9997 33.1992 74.1997 32.8992 72.4997C33.1992 72.4997 33.3992 72.3997 33.6992 72.3997C34.6992 72.1997 35.2992 72.5997 35.3992 73.7997C35.4992 74.4997 35.5992 75.0997 35.6992 75.7997C35.8992 76.7997 35.9992 76.9997 36.0992 77.2997C36.8992 77.1997 37.5992 77.0997 38.3992 76.9997C38.0992 76.5997 37.9992 76.0997 37.9992 75.4997C37.8992 74.7997 37.7992 74.1997 37.6992 73.4997C37.4992 72.1997 36.9992 71.1997 35.7992 70.9997C36.7992 70.3997 37.1992 69.4997 36.9992 68.1997C36.9992 67.8997 36.8992 67.4997 36.8992 67.1997C36.6992 65.1997 35.3992 64.3997 32.8992 64.7997C31.6992 64.9997 30.3992 65.1997 29.1992 65.3997C29.9992 69.5997 30.7992 73.8997 31.5992 78.0997ZM34.5992 67.6997C34.6992 68.0997 34.6992 68.4997 34.7992 68.9997C34.8992 69.9997 34.4992 70.3997 33.5992 70.5997C33.2992 70.5997 32.9992 70.6997 32.6992 70.6997C32.4992 69.3997 32.2992 68.0997 32.0992 66.7997C32.4992 66.6997 32.8992 66.6997 33.2992 66.5997C33.9992 66.4997 34.4992 66.7997 34.5992 67.6997Z" fill="black"/>
<path d="M39.7008 76.9C40.9008 76.8 42.0008 76.6 43.2008 76.5C45.4008 76.3 46.5008 75.2 46.4008 73.2C46.4008 72.8 46.4008 72.5 46.3008 72.1C46.2008 70.7 45.7008 69.8 44.4008 69.5C45.4008 69 45.8008 68.1 45.8008 66.8C45.8008 66.6 45.8008 66.5 45.8008 66.3C45.7008 64.3 44.5008 63.4 42.0008 63.6C40.8008 63.7 39.5008 63.8 38.3008 64C38.7008 68.3 39.2008 72.6 39.7008 76.9ZM40.8008 65.6C41.2008 65.6 41.6008 65.5 42.0008 65.5C42.9008 65.4 43.3008 65.8 43.3008 66.7C43.3008 66.9 43.3008 67.2 43.4008 67.4C43.5008 68.4 43.0008 68.8 42.1008 68.9C41.8008 68.9 41.5008 69 41.2008 69C41.1008 67.9 41.0008 66.8 40.8008 65.6ZM41.4008 70.9C41.7008 70.9 42.1008 70.8 42.4008 70.8C43.5008 70.7 43.9008 71 44.0008 72.2C44.0008 72.6 44.1008 72.9 44.1008 73.3C44.2008 74.3 43.8008 74.6 43.0008 74.7C42.6008 74.7 42.1008 74.8 41.7008 74.8C41.6008 73.5 41.5008 72.2 41.4008 70.9Z" fill="black"/>
<path d="M54.0008 75.9997C54.0008 75.3997 54.0008 74.7997 54.0008 74.1997C52.7008 74.1997 51.4008 74.1997 50.1008 74.2997C50.1008 72.9997 50.0008 71.7997 50.0008 70.4997C51.1008 70.4997 52.1008 70.3997 53.2008 70.3997C53.2008 69.7997 53.2008 69.1997 53.2008 68.5997C52.1008 68.5997 51.0008 68.5997 49.9008 68.6997C49.9008 67.4997 49.8008 66.2997 49.8008 65.0997C51.2008 65.0997 52.6008 64.9997 54.0008 64.9997C54.0008 64.3997 54.0008 63.7997 54.0008 63.1997C51.8008 63.1997 49.5008 63.2997 47.3008 63.3997C47.5008 67.6997 47.7008 71.9997 48.0008 76.2997C50.0008 76.0997 52.0008 75.9997 54.0008 75.9997Z" fill="black"/>
<path d="M55.4004 76C56.1004 76 56.9003 76 57.6003 76C57.6003 74.2 57.7004 72.5 57.7004 70.7C58.0004 70.7 58.2004 70.7 58.5004 70.7C59.6004 70.7 60.0004 71.2 60.0004 72.4C60.0004 73.1 59.9004 73.8 59.9004 74.4C59.9004 75.5 59.9004 75.7 60.0004 76C60.8004 76 61.5004 76.1 62.3004 76.1C62.1004 75.6 62.1003 75.1 62.1003 74.5C62.1003 73.8 62.2004 73.2 62.2004 72.5C62.3004 71.2 62.0004 70.2 60.8004 69.7C61.9004 69.3 62.4004 68.5 62.5004 67.2C62.5004 66.9 62.5003 66.5 62.6003 66.2C62.7003 64.2 61.7003 63.2 59.1003 63.1C57.9003 63.1 56.6004 63 55.4004 63C55.5004 67.4 55.4004 71.7 55.4004 76ZM59.1003 65C60.0003 65 60.3004 65.5 60.3004 66.4C60.3004 66.8 60.3004 67.2 60.2004 67.7C60.2004 68.7 59.6004 69 58.7004 69C58.4004 69 58.1004 69 57.8004 69C57.8004 67.7 57.9004 66.4 57.9004 65C58.3004 65 58.7003 65 59.1003 65Z" fill="black"/>
<path d="M67.7994 63.5999C65.3994 63.3999 64.0994 64.4999 63.9994 66.4999C63.7994 70.1999 68.2994 71.0999 67.9994 73.6999C67.8994 74.5999 67.3994 74.8999 66.6994 74.7999C65.9994 74.6999 65.5993 74.3999 65.5993 73.3999C65.5993 73.0999 65.6994 72.7999 65.6994 72.4999C64.9994 72.3999 64.2994 72.3999 63.4994 72.2999C63.4994 72.5999 63.4994 72.7999 63.3994 73.0999C63.2994 75.1999 64.2994 76.3999 66.4994 76.5999C68.6994 76.7999 69.9994 75.7999 70.1994 73.6999C70.6994 69.9999 66.0994 68.9999 66.2994 66.3999C66.3994 65.4999 66.7993 65.1999 67.5993 65.1999C68.3993 65.2999 68.7994 65.6999 68.6994 66.5999C68.6994 66.7999 68.6993 66.9999 68.5993 67.0999C69.3993 67.1999 70.0994 67.2999 70.8994 67.3999C70.8994 67.2999 70.8994 67.0999 70.8994 66.9999C71.2994 65.0999 70.1994 63.7999 67.7994 63.5999Z" fill="black"/>
<path d="M77.0996 70.4998C76.1996 70.2998 75.2997 70.1998 74.3997 70.0998C74.6997 68.2998 74.8996 66.3998 75.1996 64.5998C74.3996 64.4998 73.5996 64.3998 72.7996 64.2998C72.1996 68.5998 71.6996 72.7998 71.0996 77.0998C71.7996 77.1998 72.5996 77.2998 73.2996 77.3998C73.5996 75.5998 73.7996 73.6998 74.0996 71.8998C74.9996 71.9998 75.8996 72.1998 76.6996 72.2998C76.3996 74.0998 76.0996 75.8998 75.7996 77.7998C76.5996 77.8998 77.2996 78.0998 78.0996 78.1998C78.8996 73.9998 79.6996 69.6998 80.4996 65.4998C79.6996 65.2998 78.7996 65.1998 77.9996 65.0998C77.7996 66.8998 77.3996 68.6998 77.0996 70.4998Z" fill="black"/>
<path d="M85.7999 66.4999C83.3999 65.9999 81.8999 66.8999 81.4999 68.8999C81.0999 71.0999 80.5999 73.2999 80.1999 75.4999C79.7999 77.4999 80.7999 78.8999 82.8999 79.3999C84.9999 79.8999 86.4999 79.0999 86.9999 77.0999C87.5999 74.8999 88.0999 72.7999 88.6999 70.5999C89.1999 68.4999 88.1999 66.9999 85.7999 66.4999ZM86.3999 69.7999C85.8999 72.0999 85.2999 74.2999 84.7999 76.5999C84.5999 77.4999 84.0999 77.6999 83.3999 77.5999C82.6999 77.3999 82.2999 76.9999 82.4999 76.0999C82.9999 73.7999 83.4999 71.5999 83.9999 69.2999C84.1999 68.3999 84.6999 68.1999 85.4999 68.2999C86.1999 68.3999 86.5999 68.8999 86.3999 69.7999Z" fill="black"/>
<path d="M96.5992 74.5999C96.7992 74.0999 96.8992 73.4999 97.0992 72.9999C97.6992 70.9999 96.8992 69.5999 94.4992 68.8999C93.2992 68.5999 92.1992 68.1999 90.9992 67.8999C89.8992 72.0999 88.7992 76.1999 87.6992 80.3999C88.3992 80.5999 89.1992 80.7999 89.8992 80.9999C90.2992 79.3999 90.7992 77.8999 91.1992 76.2999C91.5992 76.3999 91.8992 76.4999 92.2992 76.5999C94.4992 77.2999 95.8992 76.5999 96.5992 74.5999ZM94.7992 72.1999C94.5992 72.7999 94.3992 73.3999 94.1992 74.0999C93.8992 74.9999 93.4992 75.0999 92.6992 74.8999C92.2992 74.7999 91.9992 74.6999 91.5992 74.5999C91.9992 73.1999 92.3992 71.7999 92.7992 70.3999C93.1992 70.4999 93.4992 70.5999 93.8992 70.6999C94.6992 70.8999 95.0992 71.2999 94.7992 72.1999Z" fill="black"/>
<path d="M10.1003 79.2997C11.0003 78.9997 11.5003 78.0997 11.3003 77.2997C11.0003 76.4997 10.1003 76.0997 9.10026 76.4997C8.20026 76.7997 7.60031 77.7997 7.90031 78.4997C8.20031 79.1997 9.20026 79.5997 10.1003 79.2997Z" fill="black"/>
<path d="M9.39929 80.1999C9.69929 80.1999 10.0993 80.0999 10.3993 79.9999C11.7993 79.4999 12.4992 78.1999 12.0992 76.9999C11.8992 76.4999 11.4993 75.9999 10.9993 75.7999C10.3993 75.4999 9.59925 75.4999 8.79925 75.6999C8.09925 75.9999 7.49928 76.4999 7.19928 77.0999C6.99928 77.5999 6.89924 78.1999 7.09924 78.6999C7.49924 79.6999 8.39929 80.1999 9.39929 80.1999ZM7.59924 77.2999C7.89924 76.6999 8.39926 76.2999 8.99926 76.0999C9.29926 75.9999 9.59929 75.8999 9.89929 75.8999C10.1993 75.8999 10.5993 75.9999 10.8993 76.0999C11.2993 76.2999 11.5993 76.6999 11.7993 77.0999C12.0993 78.0999 11.4993 79.1999 10.2993 79.5999C9.19925 79.9999 7.89924 79.5999 7.59924 78.5999C7.39924 78.1999 7.39924 77.6999 7.59924 77.2999Z" fill="black"/>
<path d="M100.701 76.7001C99.8005 76.4001 98.8005 76.7001 98.5005 77.5001C98.2005 78.3001 98.7005 79.2001 99.7005 79.5001C100.601 79.8001 101.601 79.5001 101.901 78.7001C102.201 78.0001 101.701 77.0001 100.701 76.7001Z" fill="black"/>
<path d="M101.001 76C100.301 75.7 99.5011 75.8 98.8011 76.1C98.3011 76.4 97.9012 76.8 97.7012 77.3C97.3012 78.5 98.1012 79.9 99.4012 80.3C99.7012 80.4 100.101 80.5 100.401 80.5C101.401 80.5 102.301 80 102.701 79.1C102.901 78.6 102.901 78 102.601 77.5C102.301 76.8 101.701 76.2 101.001 76ZM99.6011 79.9C98.5011 79.5 97.8011 78.4 98.1011 77.4C98.2011 77 98.6011 76.6 99.0011 76.4C99.3011 76.3 99.6011 76.2 100.001 76.2C100.301 76.2 100.601 76.3 100.901 76.4C101.501 76.6 102.001 77.1 102.301 77.6C102.501 78 102.501 78.5 102.401 78.9C101.901 79.9 100.701 80.3 99.6011 79.9Z" fill="black"/>
</svg>
