<svg width="99" height="110" viewBox="0 0 99 110" fill="none" xmlns="http://www.w3.org/2000/svg">
<path d="M22.6996 75.3003C19.4996 74.5003 16.0996 77.3003 14.2996 81.7003C14.3996 81.4003 14.4996 81.2003 14.5996 80.9003C15.2996 79.1003 16.3996 77.5003 17.7996 76.1003C16.2996 77.4003 14.9996 78.9003 14.0996 80.7003C13.5996 81.6003 13.2996 82.5003 13.0996 83.4003C12.9996 83.9003 12.8996 84.3003 12.7996 84.8003C12.7996 85.0003 12.6996 85.3003 12.6996 85.5003L12.5996 86.2003C12.5996 86.4003 12.5996 86.7003 12.5996 86.9003C12.5996 87.1003 12.5996 87.4003 12.5996 87.6003V88.3003C12.5996 88.4003 12.5996 88.5003 12.5996 88.7003L12.6996 89.1003C12.6996 89.3003 12.7996 89.6003 12.7996 89.8003L12.9996 90.5003C12.9996 90.6003 13.0996 90.7003 13.0996 90.9003L13.1996 91.3003L13.3997 92.0003C13.6997 92.9003 14.1997 93.8003 14.8997 94.6003C15.5997 95.3003 16.5996 95.8003 17.5996 95.8003C16.5996 95.7003 15.7996 95.2003 15.1996 94.5003C14.5996 93.8003 14.1996 92.9003 13.9996 92.0003C13.9996 91.9003 13.9996 91.9003 13.9996 91.8003C14.7996 93.9003 16.0996 95.2003 17.7996 95.6003C19.5996 96.0003 21.4996 95.4003 23.1996 93.7003C24.8996 92.1003 26.1996 89.7003 26.7996 87.0003C27.4996 84.3003 27.3996 81.6003 26.6996 79.4003C25.8996 77.2003 24.4996 75.7003 22.6996 75.3003ZM17.8997 94.9003C16.2997 94.5003 15.0997 93.2003 14.3997 91.2003C13.6997 89.1003 13.6996 86.6003 14.2996 84.0003C15.5996 78.8003 19.1996 75.2003 22.4996 76.0003C23.9996 76.4003 25.2997 77.7003 25.8997 79.7003C26.5997 81.8003 26.5996 84.3003 25.9996 86.9003C25.3996 89.5003 24.1996 91.7003 22.5996 93.2003C21.1996 94.7003 19.4997 95.3003 17.8997 94.9003Z" fill="black"/>
<path d="M23.7988 95.2003C25.5988 93.5003 26.8989 91.4003 27.6989 89.1003C28.4989 86.8003 28.6988 84.3003 28.2988 81.8003C28.3988 84.3003 27.9988 86.7003 27.2988 88.9003C26.4988 91.1003 25.3988 93.2003 23.7988 95.2003Z" fill="black"/>
<path d="M12.4988 85.4003C12.7988 82.9003 13.6989 80.5003 15.1989 78.3003C13.3989 80.3003 12.2988 82.8003 11.9988 85.3003C11.6988 87.9003 12.0989 90.6003 13.3989 93.0003C12.3989 90.5003 12.1988 87.9003 12.4988 85.4003Z" fill="black"/>
<path d="M73.5992 74.3001C71.7992 74.8001 70.3993 76.3001 69.6993 78.5001C69.2993 79.8001 69.0993 81.3001 69.1993 82.8001C69.0993 81.3001 69.0993 79.7001 69.3993 78.1001C68.3993 81.4001 68.4992 85.0001 69.7992 88.2001C70.3992 89.8001 71.2993 91.3001 72.4993 92.5001C73.0993 93.1001 73.7993 93.7001 74.4993 94.1001C75.2993 94.5001 76.0993 94.8001 76.9993 94.9001C75.2993 94.5001 73.8993 93.5001 72.8993 92.2001C72.5993 91.9001 72.3993 91.6001 72.1993 91.3001C74.0993 93.8001 76.5993 95.2001 78.9993 94.6001H79.0992C82.5992 93.6001 84.2993 88.3001 82.8993 82.8001C81.2993 77.1001 77.1992 73.4001 73.5992 74.3001ZM78.7992 93.8001H78.6993C75.4993 94.6001 71.6993 91.1001 70.3993 85.9001C69.6993 83.4001 69.6993 80.8001 70.3993 78.7001C71.0993 76.7001 72.2992 75.3001 73.7992 74.9001C76.9992 74.1001 80.7992 77.6001 82.0992 82.8001C83.3992 88.0001 81.8992 92.9001 78.7992 93.8001Z" fill="black"/>
<path d="M79.4004 73.9004C81.7004 76.6004 83.5004 79.5004 84.4004 82.7004C84.8004 84.3004 85.0004 85.9004 85.0004 87.6004C84.9004 89.3004 84.6004 91.0004 83.9004 92.6004C84.8004 91.1004 85.4003 89.4004 85.6003 87.7004C85.8003 86.0004 85.6004 84.2004 85.2004 82.5004C84.1004 79.1004 82.1004 76.2004 79.4004 73.9004Z" fill="black"/>
<path d="M84.0988 90.4003C84.8988 87.8003 84.7989 85.1003 84.1989 82.6003C83.4989 80.1003 82.1988 77.7003 80.2988 75.8003C81.9988 77.9003 83.0988 80.3003 83.7988 82.7003C84.3988 85.1003 84.4988 87.7003 84.0988 90.4003Z" fill="black"/>
<path d="M69.5996 88.1001C68.6996 85.9001 68.2996 83.6001 68.2996 81.1001C67.8996 83.6001 68.2996 86.0001 69.1996 88.2001C70.0996 90.4001 71.4996 92.4001 73.4996 94.0001C71.6996 92.3001 70.4996 90.3001 69.5996 88.1001Z" fill="black"/>
<path d="M72.7988 95.4004C73.6988 96.5004 74.4988 97.5004 75.2988 98.7004C75.9988 99.8004 76.6989 101 77.1989 102.3C76.6989 99.4004 75.1988 97.0004 72.7988 95.4004Z" fill="black"/>
<path d="M78.599 101C78.699 102.2 79.199 103.4 80.199 104.3C79.499 103.2 79.199 102.1 79.099 101C78.999 99.9001 79.199 98.7001 79.799 97.6001C78.899 98.5001 78.499 99.7001 78.599 101Z" fill="black"/>
<path d="M47.5988 27.3001V17.1001H46.4988V21.7001H43.9988V17.1001H42.7988V27.3001H43.9988V22.7001H46.4988V27.3001H47.5988Z" fill="black"/>
<path d="M53.3992 19.5004C53.3992 17.9004 52.5992 16.9004 50.9992 16.9004C49.3992 16.9004 48.6992 17.9004 48.6992 19.5004V24.8004C48.6992 26.3004 49.4992 27.4004 50.9992 27.4004C51.4992 27.4004 51.8992 27.3004 52.1992 27.1004C52.3992 27.5004 52.8992 27.8004 53.4992 27.8004H53.6992V26.8004H53.5992C53.2992 26.8004 53.0992 26.7004 52.9992 26.5004C53.2992 26.1004 53.3992 25.5004 53.3992 24.9004V19.5004ZM52.2992 24.9004C52.2992 25.8004 51.8992 26.4004 51.0992 26.4004C50.2992 26.4004 49.8992 25.9004 49.8992 24.9004V19.5004C49.8992 18.6004 50.2992 18.0004 51.0992 18.0004C51.8992 18.0004 52.2992 18.6004 52.2992 19.5004V24.9004Z" fill="black"/>
<path d="M45.3992 74.3V74.1C45.3992 73.1 44.8992 72.5 43.7992 72.5H42.1992V79.3H43.8992C44.9992 79.3 45.4992 78.7 45.4992 77.7V77.1C45.4992 76.4 45.2992 75.9 44.6992 75.6C45.1992 75.4 45.3992 75 45.3992 74.3ZM43.2992 73.5H43.7992C44.1992 73.5 44.2992 73.7 44.2992 74.2V74.6C44.2992 75.1 44.0992 75.3 43.6992 75.3H43.2992V73.5ZM44.3992 77.7C44.3992 78.2 44.1992 78.4 43.7992 78.4H43.1992V76.3H43.6992C44.1992 76.3 44.3992 76.5 44.3992 77.1V77.7Z" fill="black"/>
<path d="M49.0996 73.5V72.5H46.0996V79.3H49.0996V78.3H47.1996V76.3H48.6996V75.4H47.1996V73.5H49.0996Z" fill="black"/>
<path d="M49.6 77.2004V77.6004C49.6 78.7004 50.1 79.3004 51.2 79.3004C52.2 79.3004 52.8 78.7004 52.8 77.6004C52.8 75.7004 50.7 75.4004 50.7 74.0004C50.7 73.5004 50.9 73.3004 51.2 73.3004C51.5 73.3004 51.7 73.5004 51.7 74.0004V74.3004H52.7V74.1004C52.7 73.0004 52.2 72.4004 51.1 72.4004C50.1 72.4004 49.5 73.0004 49.5 74.1004C49.5 76.0004 51.6 76.3004 51.6 77.7004C51.6 78.2004 51.4 78.4004 51 78.4004C50.7 78.4004 50.4 78.2004 50.4 77.7004V77.2004H49.6Z" fill="black"/>
<path d="M55.1996 79.3V73.5H56.3997V72.5H53.0996V73.5H54.1996V79.3H55.1996Z" fill="black"/>
<path d="M40.8989 81.2002H39.2988V88.0002H40.3989V85.4002H40.8989C41.9989 85.4002 42.4988 84.8002 42.4988 83.7002V82.8002C42.4988 81.8002 41.9989 81.2002 40.8989 81.2002ZM41.3989 83.8002C41.3989 84.3002 41.1989 84.4002 40.8989 84.4002H40.3989V82.1002H40.8989C41.1989 82.1002 41.3989 82.3002 41.3989 82.7002V83.8002Z" fill="black"/>
<path d="M45.1 86.1003V87.2003C45.1 87.8003 45.1 87.9003 45.2 88.0003H46.3C46.2 87.7003 46.2 87.5003 46.2 87.2003V86.2003C46.2 85.5003 46 85.0003 45.5 84.8003C46 84.6003 46.2 84.1003 46.2 83.4003V82.9003C46.2 81.9003 45.7 81.3003 44.6 81.3003H43V88.0003H44.1V85.2003H44.5C44.9 85.2003 45.1 85.5003 45.1 86.1003ZM44.1 82.2003H44.6C45 82.2003 45.1 82.4003 45.1 82.9003V83.6003C45.1 84.1003 44.9 84.3003 44.5 84.3003H44.1V82.2003Z" fill="black"/>
<path d="M48.0004 81.2002H46.9004V88.0002H48.0004V81.2002Z" fill="black"/>
<path d="M51.7996 86.4001V85.5001H50.7996V86.5001C50.7996 87.0001 50.5996 87.2001 50.1996 87.2001C49.8996 87.2001 49.5996 87.0001 49.5996 86.5001V82.8001C49.5996 82.3001 49.7996 82.1001 50.1996 82.1001C50.4996 82.1001 50.7996 82.3001 50.7996 82.8001V83.5001H51.7996V82.8001C51.7996 81.7001 51.2996 81.1001 50.1996 81.1001C49.1996 81.1001 48.5996 81.7001 48.5996 82.8001V86.3001C48.5996 87.4001 49.0996 88.0001 50.1996 88.0001C51.2996 88.1001 51.7996 87.5001 51.7996 86.4001Z" fill="black"/>
<path d="M52.5 88.0002H55.4V87.0002H53.6V85.0002H55V84.1002H53.6V82.2002H55.4V81.2002H52.5V88.0002Z" fill="black"/>
<path d="M59.0992 86.4002C59.0992 84.5002 56.9992 84.2002 56.9992 82.8002C56.9992 82.3002 57.1992 82.1002 57.4992 82.1002C57.7992 82.1002 57.9992 82.3002 57.9992 82.8002V83.1002H58.9992V82.9002C58.9992 81.8002 58.4992 81.2002 57.3992 81.2002C56.3992 81.2002 55.7992 81.8002 55.7992 82.9002C55.7992 84.8002 57.8992 85.1002 57.8992 86.5002C57.8992 87.0002 57.6992 87.2002 57.2992 87.2002C56.9992 87.2002 56.6992 87.0002 56.6992 86.5002V86.0002H55.6992V86.4002C55.6992 87.5002 56.1992 88.1002 57.2992 88.1002C58.4992 88.1002 59.0992 87.5002 59.0992 86.4002Z" fill="black"/>
<path d="M33.1 14.3003L31.8 11.2003L33.5 10.5003L34.8 13.6003L35.6 13.3003L32.8 6.30029L32 6.60029L33.3 9.80029L31.5 10.5003L30.3 7.30029L29.5 7.60029L32.3 14.6003L33.1 14.3003Z" fill="black"/>
<path d="M37.3004 12.8001L37.2004 11.3001L39.0004 10.8001L39.7004 12.2001L40.5004 12.0001L37.1003 5.1001L35.9004 5.4001L36.5004 13.0001L37.3004 12.8001ZM38.7004 10.1001L37.1003 10.5001L36.8004 6.1001L38.7004 10.1001Z" fill="black"/>
<path d="M40.9474 4.20835L40.1602 4.35059L41.4937 11.7313L42.2809 11.5891L40.9474 4.20835Z" fill="black"/>
<path d="M44.3989 11.3001L44.0988 8.10014L44.6989 8.00014C45.3989 7.90014 45.7989 8.20014 45.8989 9.00014L45.9988 10.2001C45.9988 10.7001 46.0989 10.9001 46.1989 11.1001L46.9988 11.0001C46.7988 10.8001 46.7988 10.4001 46.7988 10.1001L46.6989 8.90014C46.5989 8.10014 46.2988 7.60014 45.5988 7.40014C46.1988 7.10014 46.4989 6.60014 46.3989 5.80014L46.2988 5.20014C46.1988 4.10014 45.5988 3.50014 44.4988 3.60014L42.7988 3.80014L43.4988 11.3001H44.3989ZM44.4988 4.50014C45.0988 4.40014 45.3988 4.80014 45.4988 5.40014L45.5988 6.10014C45.6988 6.90014 45.2988 7.20014 44.5988 7.20014L43.9988 7.30014L43.6989 4.50014H44.4988Z" fill="black"/>
<path d="M49.7 11.1004C50.9 11.1004 51.4 10.4004 51.4 9.20039V8.30039H50.6V9.30039C50.6 10.0004 50.3 10.4004 49.7 10.4004C49.1 10.4004 48.8 10.0004 48.8 9.30039L48.9 5.30039C48.9 4.60039 49.2 4.20039 49.8 4.20039C50.4 4.20039 50.7 4.60039 50.7 5.30039V6.00039H51.5V5.30039C51.5 4.20039 51 3.40039 49.8 3.40039C48.6 3.40039 48.1 4.10039 48.1 5.30039L48 9.20039C48 10.3004 48.6 11.1004 49.7 11.1004Z" fill="black"/>
<path d="M54.0995 11.4002C55.2995 11.5002 55.8996 10.9002 55.9996 9.7002L56.6996 4.0002H55.9996L55.2995 9.7002C55.1995 10.4002 54.8995 10.7002 54.2995 10.7002C53.6995 10.6002 53.4995 10.2002 53.5995 9.5002L54.2995 3.8002L53.4996 3.7002L52.7995 9.4002C52.5995 10.5002 52.9995 11.3002 54.0995 11.4002Z" fill="black"/>
<path d="M58.9 12.2004L60.4 5.60039L61.8 5.90039L61.9 5.20039L58.4 4.40039L58.2 5.10039L59.6 5.40039L58 12.0004L58.9 12.2004Z" fill="black"/>
<path d="M62.3989 10.9002L61.6989 10.6002L61.5989 11.0002C61.1989 12.1002 61.4989 13.0002 62.5989 13.3002C63.6989 13.7002 64.3989 13.2002 64.7989 12.1002C65.4989 10.1002 63.1989 9.1002 63.6989 7.5002C63.8989 6.9002 64.2989 6.6002 64.8989 6.8002C65.4989 7.0002 65.5989 7.5002 65.3989 8.1002L65.2989 8.3002L66.0989 8.6002L66.1989 8.4002C66.5989 7.3002 66.2989 6.4002 65.1989 6.1002C64.0989 5.7002 63.3989 6.2002 62.9989 7.3002C62.2989 9.3002 64.5989 10.3002 64.0989 11.9002C63.8989 12.5002 63.4989 12.8002 62.8989 12.6002C62.2989 12.4002 62.1989 11.9002 62.3989 11.3002V10.9002Z" fill="black"/>
<path d="M35.8999 90.4C34.7999 90 33.9998 90.5 33.5998 91.6C32.8998 93.6 35.3998 94.7 34.7998 96.2C34.5998 96.8 34.0998 97.1 33.4998 96.9C32.8998 96.7 32.6998 96.2 32.9998 95.6L33.1999 95.2L32.3999 94.9L32.2998 95.3C31.8998 96.4 32.1999 97.3 33.3999 97.7C34.5999 98.1 35.3998 97.6 35.7998 96.6C36.4998 94.6 33.9998 93.5 34.5998 91.9C34.7998 91.3 35.1998 91 35.7998 91.2C36.3998 91.4 36.4998 91.9 36.2998 92.5L36.1999 92.7L36.9998 93L37.0998 92.8C37.2998 91.7 36.9999 90.8 35.8999 90.4Z" fill="black"/>
<path d="M41.3989 95.5001L39.4988 95.1001L40.1989 91.8001L39.2988 91.6001L37.7988 98.9001L38.5988 99.1001L39.2988 95.8001L41.2988 96.2001L40.5988 99.5001L41.4988 99.7001L42.9988 92.4001L42.0988 92.2001L41.3989 95.5001Z" fill="black"/>
<path d="M46.2988 92.7002L44.2988 100.1H45.0988L45.4988 98.6002L47.4988 98.7002L47.6989 100.2L48.5988 100.3L47.4988 92.7002H46.2988ZM45.6989 98.0002L46.7988 93.7002L47.4988 98.1002L45.6989 98.0002Z" fill="black"/>
<path d="M53.0988 99.2L51.2988 92.8H50.2988L52.4988 100.2L53.7988 100.1L54.6989 92.5H53.8989L53.0988 99.2Z" fill="black"/>
<path d="M58.8004 98.5004L58.2004 95.9004L60.1003 95.5004L60.0004 94.7004L58.0004 95.2004L57.5004 92.7004L59.8004 92.1004L59.7004 91.4004L56.4004 92.1004L58.1003 99.5004L61.4004 98.7004L61.2004 98.0004L58.8004 98.5004Z" fill="black"/>
<path d="M62.7996 92.2001C62.5996 91.6001 62.6996 91.1001 63.2996 90.9001C63.8996 90.7001 64.2996 90.9001 64.4996 91.6001L64.5996 91.8001L65.3996 91.5001L65.2996 91.3001C64.8996 90.2001 64.0996 89.7001 62.8996 90.2001C61.7996 90.6001 61.4996 91.5001 61.8996 92.6001C62.6996 94.6001 65.1996 93.8001 65.7996 95.3001C65.9996 95.9001 65.8996 96.4001 65.2996 96.6001C64.6996 96.8001 64.2996 96.6001 63.9996 95.9001L63.7996 95.5001L62.9996 95.8001L63.1996 96.2001C63.5996 97.3001 64.3996 97.8001 65.5996 97.3001C66.7996 96.9001 66.9996 96.0001 66.5996 94.9001C65.9996 92.9001 63.3996 93.8001 62.7996 92.2001Z" fill="black"/>
<path d="M98.1996 44.8002C94.6996 44.8002 91.7996 41.9002 91.7996 38.4002C91.7996 38.1002 91.5996 37.9002 91.2996 37.9002H62.6996C62.8996 37.5002 62.9996 37.1002 63.1996 36.8002H90.7996C91.1996 36.8002 91.4996 36.5002 91.4996 36.1002C91.4996 35.7002 91.1996 35.4002 90.7996 35.4002H63.7996C69.1996 22.9002 73.3996 11.6002 76.5996 1.4002C76.6996 1.0002 76.5996 0.700195 76.1996 0.500195C75.8996 0.400195 75.4996 0.500195 75.2996 0.800195L53.7996 35.4002H41.8997L19.6996 0.600195C19.4996 0.300195 19.0996 0.200195 18.7996 0.300195C18.4996 0.400195 18.2996 0.800195 18.4996 1.20019C21.8996 11.5002 26.3996 22.8002 31.9996 35.4002H7.99963C7.59963 35.4002 7.29962 35.7002 7.29962 36.1002C7.29962 36.5002 7.59963 36.8002 7.99963 36.8002H32.5996C32.7996 37.2002 32.8996 37.6002 33.0996 37.9002H7.49963C7.19963 37.9002 6.99963 38.1002 6.99963 38.4002C6.99963 41.9002 4.09961 44.8002 0.599609 44.8002C0.299609 44.8002 0.0996094 45.0002 0.0996094 45.3002V59.3002C0.0996094 59.6002 0.299609 59.8002 0.599609 59.8002C4.09961 59.8002 6.99963 62.6002 6.99963 66.2002C6.99963 66.5002 7.19963 66.7002 7.49963 66.7002H29.5996C29.0996 67.1002 28.5996 67.4002 27.9996 67.8002H7.89966C7.49966 67.8002 7.19965 68.1002 7.19965 68.5002C7.19965 68.9002 7.49966 69.2002 7.89966 69.2002H25.7996C23.3996 70.7002 20.8997 71.9002 18.3997 72.9002C13.7997 74.8002 9.89961 82.1002 10.0996 88.5002C10.1996 93.5002 12.7996 97.1002 17.1996 98.6002C17.2996 98.6002 17.3996 98.6002 17.4996 98.7002C20.9996 99.5002 24.7997 97.2002 27.3997 92.8002C27.9997 93.0002 28.3996 93.4002 28.6996 94.0002V94.1002H28.7996H28.8997C28.9997 94.1002 29.1997 94.1002 29.3997 94.0002C30.2997 93.4002 31.5996 90.3002 31.4996 89.3002C31.4996 89.0002 31.2996 88.8002 31.1996 88.8002H31.0996H30.9996C30.2996 88.9002 29.6996 88.8002 29.0996 88.6002C30.2996 84.5002 29.9996 81.6002 27.9996 77.2002C27.3996 75.8002 27.6997 74.0002 28.8997 72.8002C29.9997 71.6002 31.2996 70.4002 32.7996 69.2002H64.1996C65.2996 70.1002 66.1996 71.0002 67.0996 71.9002C68.2996 73.1002 68.5996 74.9002 67.9996 76.4002C65.7996 81.5002 65.6996 84.7002 67.2996 89.2002C68.3996 92.0002 69.7996 94.1002 71.4996 95.6002C73.9996 98.0002 74.7996 99.8002 75.5996 101.4C76.0996 102.5 76.5996 103.6 77.5996 104.6C81.6996 109.2 85.4997 109.1 85.8997 109.1C86.0997 109.1 86.2997 109.1 86.3997 109C86.9997 108.8 87.2996 108.3 87.2996 107.9C87.3996 107.2 86.9996 106.5 86.0996 106.3C86.0996 106.3 81.7996 105.5 81.0996 102.2C80.8996 101 80.9997 99.7002 81.3997 98.2002C81.7997 97.1002 82.3996 96.1002 83.1996 95.3002C83.9996 94.5002 84.6996 93.6002 85.1996 92.6002C86.7996 89.3002 86.7996 85.0002 85.0996 80.6002C83.4996 76.4002 80.6996 73.1002 77.7996 72.0002C75.7996 71.3002 73.7996 70.4002 71.7996 69.4002H90.8997C91.2997 69.4002 91.5996 69.1002 91.5996 68.7002C91.5996 68.3002 91.2997 68.0002 90.8997 68.0002H69.3997C68.9997 67.7002 68.5996 67.4002 68.0996 67.1002C67.9996 67.0002 67.8996 67.0002 67.7996 66.9002H91.2996C91.5996 66.9002 91.7996 66.7002 91.7996 66.4002C91.7996 62.9002 94.6996 60.0002 98.1996 60.0002C98.4996 60.0002 98.6996 59.8002 98.6996 59.5002V45.5002C98.6996 45.0002 98.4996 44.8002 98.1996 44.8002ZM97.7996 58.8002C94.1996 59.0002 91.1996 62.0002 90.9996 65.6002H7.99963C7.79963 62.0002 4.79965 59.0002 1.19965 58.8002V45.7002C4.79965 45.5002 7.79963 42.5002 7.99963 38.9002H90.9996C91.1996 42.5002 94.1996 45.5002 97.7996 45.7002V58.8002ZM84.5996 92.0002C84.0996 93.0002 83.4996 93.8002 82.6996 94.5002C81.7996 95.4002 81.0996 96.5002 80.6996 97.7002C80.1996 99.3002 80.0997 100.7 80.3997 102.1V102.2V102.1C80.0997 101.1 79.9996 99.9002 80.1996 98.8002C80.3996 97.7002 80.7996 96.6002 81.4996 95.6002C79.6996 97.2002 78.9996 99.9002 79.6996 102.3C80.3996 104.6 82.4997 106.5 84.8997 106.9C83.7997 106.5 82.7996 105.8 82.0996 105C81.9996 104.9 81.8996 104.8 81.7996 104.6C83.3996 106.3 85.8996 106.7 85.9996 106.8C86.4996 106.9 86.6996 107.3 86.6996 107.6C86.6996 107.9 86.4996 108.2 85.9996 108.2C85.9996 108.2 82.1996 108.4 78.1996 104C77.2996 103 76.8996 102 76.2996 100.9C75.4996 99.3002 74.6996 97.4002 72.0996 94.9002C70.4996 93.4002 69.0996 91.4002 68.0996 88.8002C66.5996 84.5002 66.6996 81.4002 68.7996 76.6002C69.5996 74.8002 69.1996 72.7002 67.7996 71.3002C67.0996 70.6002 66.2996 69.8002 65.4996 69.1002H65.6996C66.0996 69.5002 66.4997 69.8002 66.8997 70.2002C67.4997 70.8002 68.1996 71.4002 68.6996 72.2002C68.9996 72.6002 69.0996 73.0002 69.2996 73.4002C69.3996 73.8002 69.4997 74.3002 69.3997 74.8002C69.4997 74.4002 69.4997 73.9002 69.3997 73.4002C69.2997 72.9002 69.0997 72.5002 68.8997 72.1002C68.6997 71.7002 68.3996 71.3002 68.0996 71.0002C67.7996 70.7002 67.4996 70.3002 67.1996 70.0002C66.8996 69.7002 66.5996 69.4002 66.2996 69.1002H70.4996C72.7996 70.5002 75.2996 71.5002 77.6996 72.4002C80.3996 73.5002 83.0996 76.7002 84.5996 80.6002C86.0996 84.8002 86.0996 88.9002 84.5996 92.0002ZM27.4996 77.3002C28.7996 80.2002 29.3996 82.3002 29.1996 84.6002C29.1996 84.5002 29.1996 84.4002 29.1996 84.3002C29.1996 82.1002 28.5997 79.9002 27.3997 78.0002C28.3997 80.0002 28.6996 82.2002 28.6996 84.3002C28.5996 86.4002 28.0996 88.4002 27.1996 90.3002C26.7996 91.2002 26.2996 92.1002 25.6996 93.0002C25.0996 93.9002 24.4996 94.7002 23.6996 95.4002C22.8996 96.1002 22.0996 96.7002 21.0996 97.2002C20.0996 97.6002 18.9997 97.9002 17.8997 97.8002C18.9997 98.0002 20.0996 97.9002 21.1996 97.5002C21.3996 97.4002 21.5996 97.3002 21.7996 97.2002C20.2996 97.9002 18.7996 98.2002 17.2996 97.7002C13.1996 96.2002 10.7996 92.9002 10.6996 88.2002C10.4996 82.1002 14.1996 75.2002 18.5996 73.3002C21.4996 72.2002 24.2996 70.7002 27.0996 69.0002H31.1996C30.9996 69.1002 30.7996 69.3002 30.5996 69.5002C29.9996 70.0002 29.1996 70.6002 28.4996 71.4002C28.0996 71.8002 27.7996 72.2002 27.5996 72.6002C27.2996 73.0002 27.1996 73.4002 26.9996 73.8002C26.8996 74.2002 26.7996 74.5002 26.7996 74.7002C26.7996 74.8002 26.7996 74.9002 26.7996 75.0002C26.7996 75.1002 26.7996 75.1002 26.7996 75.1002C26.7996 75.1002 26.7997 75.0002 26.8997 74.7002C26.8997 74.5002 26.9996 74.2002 27.1996 73.8002C27.2996 73.4002 27.5996 73.0002 27.7996 72.6002C28.0996 72.2002 28.3996 71.8002 28.7996 71.4002C29.5996 70.7002 30.3996 70.0002 30.9996 69.5002C31.1996 69.3002 31.4996 69.1002 31.5996 69.0002H31.7996C30.5996 70.0002 29.4996 71.1002 28.4996 72.1002C27.1996 73.6002 26.7996 75.6002 27.4996 77.3002ZM30.3997 91.5002C29.8997 92.7002 29.3996 93.3002 29.1996 93.5002C29.1996 93.4002 29.0996 93.4002 29.0996 93.3002C29.1996 93.0002 29.2997 92.7002 29.3997 92.3002C29.3997 92.3002 29.3997 92.2002 29.3997 92.0002C29.3997 91.9002 29.3997 91.7002 29.3997 91.7002C29.3997 91.7002 29.2996 91.8002 29.2996 91.9002C29.1996 92.0002 29.1996 92.1002 29.1996 92.1002C29.0996 92.3002 28.9997 92.5002 28.8997 92.7002L28.7996 92.6002C28.7996 92.5002 28.8997 92.3002 28.8997 92.2002C28.8997 92.2002 28.8997 92.1002 28.8997 92.0002C28.8997 91.9002 28.8997 91.8002 28.8997 91.8002C28.8997 91.8002 28.7996 91.8002 28.7996 91.9002C28.7996 92.0002 28.6996 92.0002 28.6996 92.0002C28.5996 92.1002 28.5996 92.1002 28.4996 92.2002H28.3997C28.3997 92.1002 28.4996 92.0002 28.4996 91.9002V91.8002C28.4996 91.7002 28.4996 91.7002 28.4996 91.6002C28.4996 91.6002 28.3997 91.6002 28.3997 91.7002L28.2996 91.8002C28.1996 91.9002 28.0996 92.0002 27.9996 92.0002C28.3996 91.2002 28.7996 90.3002 29.1996 89.4002C29.1996 89.3002 29.2996 89.2002 29.2996 89.1002V89.4002C29.2996 89.4002 29.2997 89.7002 29.3997 89.7002C29.4997 89.7002 29.5996 89.5002 29.5996 89.5002L29.6996 89.2002C29.6996 89.3002 29.6996 89.5002 29.6996 89.6002C29.6996 89.6002 29.6996 89.7002 29.6996 89.8002C29.6996 89.9002 29.6996 90.0002 29.6996 90.0002L29.7996 89.9002C29.8996 89.8002 29.8997 89.7002 29.8997 89.7002C29.9997 89.6002 29.9996 89.4002 30.0996 89.3002C30.0996 89.5002 30.0996 89.7002 30.0996 89.9002C30.0996 89.9002 30.0996 90.0002 30.0996 90.1002C30.0996 90.2002 30.0996 90.3002 30.0996 90.4002C30.0996 90.4002 30.1996 90.3002 30.2996 90.2002C29.9996 90.1002 29.9996 90.0002 29.9996 90.0002C30.0996 89.9002 30.0996 89.8002 30.0996 89.6002C30.0996 90.0002 29.9997 90.4002 29.8997 90.7002C29.8997 90.7002 29.7996 90.9002 29.7996 91.1002C29.6996 91.3002 29.6996 91.5002 29.6996 91.5002C29.6996 91.5002 29.8996 91.3002 29.9996 91.2002C30.0996 91.0002 30.1996 90.8002 30.1996 90.8002C30.3996 90.3002 30.5996 89.7002 30.7996 89.1002C30.8996 89.1002 30.9996 89.1002 31.0996 89.1002C30.9996 89.5002 30.8997 90.3002 30.3997 91.5002ZM30.0996 67.6002C30.1996 67.5002 30.3996 67.4002 30.5996 67.3002C30.8996 67.1002 31.1996 66.8002 31.5996 66.6002H34.3997C33.8997 67.0002 33.4996 67.3002 32.9996 67.7002H30.0996V67.6002ZM31.2996 66.6002C30.9996 66.8002 30.7996 67.0002 30.5996 67.2002C30.3996 67.4002 30.1996 67.5002 30.0996 67.6002C30.0996 67.6002 30.0996 67.6002 29.9996 67.7002H29.1996C29.6996 67.3002 30.1996 67.0002 30.6996 66.6002H31.2996ZM33.3997 67.6002C33.8997 67.2002 34.3997 66.9002 34.8997 66.5002H34.9996C34.4996 66.9002 33.9997 67.3002 33.3997 67.6002ZM62.2996 66.6002H62.5996C62.6996 66.6002 62.6996 66.7002 62.7996 66.7002C63.1996 67.0002 63.5996 67.3002 63.9996 67.7002H63.6996C63.2996 67.3002 62.7996 66.9002 62.2996 66.6002ZM64.6996 67.6002C64.2996 67.2002 63.8997 66.9002 63.3997 66.5002H65.9996C66.3996 66.8002 66.8996 67.0002 67.2996 67.1002C67.0996 66.9002 66.7996 66.7002 66.5996 66.5002H66.7996C67.0996 66.8002 67.3996 67.0002 67.6996 67.3002C67.7996 67.4002 67.9996 67.5002 68.0996 67.6002H64.6996ZM59.3997 38.0002C59.5997 37.6002 59.7996 37.2002 59.9996 36.9002H60.3997C60.1997 37.3002 59.9996 37.7002 59.7996 38.0002H59.3997ZM58.8997 38.0002H58.3997C58.5997 37.6002 58.7996 37.2002 58.9996 36.9002H59.4996C59.2996 37.2002 59.0997 37.6002 58.8997 38.0002ZM60.4996 38.0002C60.6996 37.6002 60.8996 37.2002 60.9996 36.9002H62.4996C62.2996 37.3002 62.1996 37.7002 61.9996 38.0002H60.4996ZM61.6996 35.4002C63.5996 31.3002 65.4996 27.3002 67.2996 23.2002C67.2996 23.2002 67.6996 22.3002 68.2996 20.8002C68.8996 19.4002 69.6996 17.5002 70.4996 15.6002C70.8996 14.6002 71.2996 13.7002 71.5996 12.8002C71.8996 11.9002 72.2996 11.1002 72.4996 10.3002C72.7996 9.60019 72.9996 9.0002 73.0996 8.5002C73.1996 8.3002 73.1996 8.10019 73.2996 8.0002C73.2996 7.9002 73.3996 7.8002 73.2996 7.8002C73.2996 7.8002 73.2996 7.9002 73.1996 8.0002C73.1996 8.10019 73.0996 8.3002 72.9996 8.5002C72.7996 8.9002 72.5996 9.5002 72.2996 10.2002C71.9996 10.9002 71.6996 11.7002 71.2996 12.5002C70.8996 13.3002 70.5996 14.3002 70.1996 15.2002C68.6996 18.8002 66.9996 22.4002 66.9996 22.4002C64.9996 26.8002 62.8996 31.2002 60.7996 35.5002H60.3997C61.1997 33.9002 61.8996 32.3002 62.6996 30.6002C62.6996 30.6002 63.7997 28.2002 64.8997 25.8002C65.3997 24.6002 65.9996 23.4002 66.2996 22.5002C66.4996 22.0002 66.6996 21.7002 66.7996 21.4002C66.8996 21.3002 66.8997 21.2002 66.8997 21.1002C66.8997 21.0002 66.8997 21.0002 66.8997 21.0002C66.8997 21.0002 66.8996 21.0002 66.7996 21.1002C66.7996 21.2002 66.6996 21.3002 66.6996 21.4002C66.5996 21.6002 66.3996 22.0002 66.1996 22.4002C65.7996 23.3002 65.2996 24.4002 64.6996 25.5002C63.5996 27.8002 62.4996 30.0002 62.4996 30.0002C61.5996 31.8002 60.7997 33.6002 59.8997 35.4002H59.3997C59.6997 34.8002 59.8997 34.3002 59.8997 34.3002C59.8997 34.3002 59.5996 34.8002 59.1996 35.4002H54.3997L75.9996 1.3002C72.7996 11.6002 68.4996 22.9002 63.0996 35.5002H61.6996V35.4002ZM58.6996 36.8002C58.4996 37.2002 58.2996 37.6002 58.0996 37.9002H53.0996L53.7996 36.8002H58.6996ZM35.8997 38.0002H35.4996C35.2996 37.6002 35.0997 37.2002 34.8997 36.9002H35.2996C35.5996 37.2002 35.6997 37.6002 35.8997 38.0002ZM35.7996 36.8002H36.2996C36.4996 37.2002 36.6997 37.6002 36.8997 37.9002H36.3997C36.1997 37.6002 35.9996 37.2002 35.7996 36.8002ZM42.8997 38.0002H37.1996C36.9996 37.6002 36.7996 37.3002 36.5996 36.9002H42.1996L42.8997 38.0002ZM35.7996 35.4002C35.3996 34.6002 35.0996 34.0002 34.9996 34.0002C34.9996 34.0002 35.1996 34.6002 35.5996 35.4002H35.0996C34.2996 33.7002 33.3996 31.9002 32.5996 30.2002C32.5996 30.2002 31.4997 27.8002 30.3997 25.4002C29.8997 24.2002 29.2997 23.0002 28.8997 22.1002C28.6997 21.7002 28.4997 21.3002 28.3997 21.0002C28.2997 20.9002 28.2996 20.8002 28.2996 20.7002C28.2996 20.6002 28.1996 20.6002 28.1996 20.6002C28.1996 20.6002 28.1996 20.6002 28.1996 20.7002C28.1996 20.8002 28.2996 20.9002 28.2996 21.0002C28.3996 21.3002 28.5996 21.6002 28.6996 22.1002C29.0996 23.0002 29.4996 24.1002 29.9996 25.3002C30.9996 27.6002 31.9996 29.9002 31.9996 29.9002C32.7996 31.8002 33.6996 33.6002 34.4996 35.5002H34.0996C32.0996 31.4002 30.1996 27.3002 28.2996 23.2002C28.2996 23.2002 27.8996 22.3002 27.2996 20.8002C26.6996 19.4002 25.8996 17.5002 24.9996 15.6002C24.5996 14.6002 24.1996 13.7002 23.7996 12.8002C23.3996 11.9002 23.0996 11.1002 22.7996 10.4002C22.4996 9.7002 22.2996 9.10019 22.0996 8.7002C21.9996 8.5002 21.8997 8.30019 21.8997 8.20019C21.8997 8.10019 21.7996 8.0002 21.7996 8.0002C21.7996 8.0002 21.7996 8.10019 21.7996 8.20019C21.7996 8.30019 21.8996 8.5002 21.9996 8.7002C22.0996 9.10019 22.3996 9.7002 22.5996 10.4002C22.8996 11.1002 23.1996 11.9002 23.4996 12.8002C23.7996 13.7002 24.1996 14.6002 24.5996 15.5002C26.0996 19.2002 27.5996 22.8002 27.5996 22.8002C29.4996 27.1002 31.3997 31.4002 33.3997 35.7002H32.4996C26.7996 23.1002 22.3997 11.7002 18.8997 1.4002L40.9996 35.7002H35.7996V35.4002ZM34.2996 36.8002C34.4996 37.2002 34.6996 37.6002 34.7996 37.9002H33.7996C33.5996 37.5002 33.4996 37.1002 33.2996 36.8002H34.2996ZM53.0996 36.8002L52.3997 37.9002H43.7996L43.0996 36.8002H53.0996ZM34.6996 67.6002C35.1996 67.2002 35.6996 66.9002 36.1996 66.5002H61.0996C61.5996 66.9002 62.0996 67.2002 62.5996 67.6002H34.6996Z" fill="black"/>
<path d="M90.2 40.0003C90.2 39.9003 90.1 39.8003 90 39.8003H8.90002C8.80002 39.8003 8.70001 39.9003 8.70001 40.0003C8.10001 43.3003 5.50001 45.9003 2.20001 46.5003C2.10001 46.5003 2 46.6003 2 46.7003V57.8003C2 57.9003 2.10001 58.0003 2.20001 58.0003C5.50001 58.6003 8.10001 61.2003 8.70001 64.5003C8.70001 64.6003 8.80002 64.7003 8.90002 64.7003H90C90.1 64.7003 90.2 64.6003 90.2 64.5003C90.8 61.2003 93.4 58.6003 96.7 58.0003C96.8 58.0003 96.9 57.9003 96.9 57.8003V46.7003C96.9 46.6003 96.8 46.5003 96.7 46.5003C93.4 45.9003 90.8 43.2003 90.2 40.0003ZM96.4 57.7003C93.1 58.4003 90.5 61.0003 89.8 64.3003H9.09998C8.39998 61.0003 5.8 58.4003 2.5 57.7003V46.9003C5.8 46.2003 8.39998 43.6003 9.09998 40.3003H89.8C90.5 43.6003 93.1 46.2003 96.4 46.9003V57.7003Z" fill="black"/>
<path d="M17.2996 48.0001V48.5001C17.2996 49.8001 16.8996 50.8001 16.0996 51.3001C16.3996 51.4001 16.5996 51.6001 16.6996 51.8001C17.4996 51.3001 17.7996 50.4001 17.7996 49.2001V48.7001C17.7996 47.5001 17.4996 46.6001 16.7996 46.1001C17.1996 46.6001 17.2996 47.2001 17.2996 48.0001Z" fill="black"/>
<path d="M14.5004 47.5C14.4004 47.1 14.1004 47 13.7004 47H12.9004V50.2H13.5004V47.4H14.5004V47.5Z" fill="black"/>
<path d="M18.0988 55.0004C18.0988 53.8004 17.7988 53.0004 17.0988 52.4004C17.2988 52.9004 17.4988 53.5004 17.4988 54.3004V55.4004C17.4988 57.7004 16.1989 59.0004 13.8989 59.0004H11.2988V59.5004H14.7988C16.9988 59.5004 18.0988 58.3004 18.0988 56.2004V55.0004Z" fill="black"/>
<path d="M13.5 53.2002H14.5C14.6 53.2002 14.6 53.2002 14.7 53.2002C14.5 52.8002 14.2 52.7002 13.7 52.7002H13V56.5002H13.6V53.2002H13.5Z" fill="black"/>
<path d="M22.1 51.2003L21.8 48.8003L21 54.1003H21.7L22.1 51.2003Z" fill="black"/>
<path d="M22.8989 56.5H20.5988L20.1989 59H18.8989L18.7988 59.5H20.8989L21.2988 56.9H22.9988L22.8989 56.5Z" fill="black"/>
<path d="M23.7988 45.5L25.9988 59H24.2988V59.5H26.5988L24.2988 45.5H23.7988Z" fill="black"/>
<path d="M29.6996 53.3003H29.1996V59.0003H27.5996V59.5003H29.7996V53.8003H30.5996C30.6996 53.8003 30.6996 53.8003 30.7996 53.8003C30.4996 53.4003 30.1996 53.3003 29.6996 53.3003Z" fill="black"/>
<path d="M33.6003 48.0001V49.1001C33.6003 50.5001 33.2004 51.4001 32.4004 51.9001C32.6004 52.1001 32.8004 52.3001 33.0004 52.5001C33.8004 52.0001 34.2004 51.1001 34.2004 49.8001V48.7001C34.2004 47.5001 33.9004 46.6001 33.2004 46.1001C33.5004 46.6001 33.6003 47.2001 33.6003 48.0001Z" fill="black"/>
<path d="M29.7992 47.5H30.7992C30.6992 47.1 30.3992 47 29.9992 47H29.1992V50.8H29.7992V47.5Z" fill="black"/>
<path d="M34.1996 57.8004V55.6004C34.1996 54.4004 33.8996 53.5004 33.2996 52.9004C33.5996 53.5004 33.5996 54.3004 33.5996 54.9004V57.1004C33.5996 57.7004 33.5996 58.2004 33.7996 58.7004L33.9996 59.0004H32.0996C32.0996 59.2004 32.1996 59.3004 32.1996 59.5004H34.3997C34.1997 59.0004 34.1996 58.5004 34.1996 57.8004Z" fill="black"/>
<path d="M37.7988 53.2002H38.7988C38.8988 53.2002 38.8988 53.2002 38.9988 53.2002C38.7988 52.8002 38.4988 52.7002 37.9988 52.7002H37.2988V56.5002H37.8989V53.2002H37.7988Z" fill="black"/>
<path d="M42.4992 56.2004V55.0004C42.4992 53.8004 42.1992 53.0004 41.4992 52.4004C41.6992 52.9004 41.8992 53.5004 41.8992 54.3004V55.4004C41.8992 57.7004 40.5992 59.0004 38.2992 59.0004H35.6992V59.5004H39.1992C41.2992 59.5004 42.4992 58.3004 42.4992 56.2004Z" fill="black"/>
<path d="M37.7992 47.5H38.7992C38.6992 47.1 38.3992 47 37.9992 47H37.1992V50.2H37.7992V47.5Z" fill="black"/>
<path d="M41.3 46.1001C41.5 46.6001 41.7 47.2001 41.7 48.0001V48.5001C41.7 49.8001 41.3 50.8001 40.5 51.3001C40.8 51.4001 41 51.6001 41.1 51.8001C41.9 51.3001 42.2 50.4001 42.2 49.2001V48.7001C42.2 47.5001 41.9 46.6001 41.3 46.1001Z" fill="black"/>
<path d="M49.7988 57.5H49.1989V59H43.7988V59.5H49.7988V57.5Z" fill="black"/>
<path d="M45.4004 56.6004H46.0004V53.4004H49.0004V51.4004H48.4004V52.9004H45.4004V56.6004Z" fill="black"/>
<path d="M49.2004 47H45.4004V50.4H46.0004V47.5H49.8004V45.5H49.2004V47Z" fill="black"/>
<path d="M56.8 46.1001C57 46.6001 57.2 47.2001 57.2 48.0001V49.1001C57.2 50.5001 56.8 51.4001 56 51.9001C56.2 52.1001 56.4 52.3001 56.6 52.5001C57.4 52.0001 57.8 51.1001 57.8 49.8001V48.7001C57.7 47.5001 57.4 46.6001 56.8 46.1001Z" fill="black"/>
<path d="M52.7988 47.0004V50.8004H53.3989V47.4004H54.3989C54.2989 47.0004 53.9988 46.9004 53.5988 46.9004H52.7988V47.0004Z" fill="black"/>
<path d="M53.3989 53.8003H54.1989C54.2989 53.8003 54.2989 53.8003 54.3989 53.8003C54.1989 53.4003 53.8989 53.3003 53.3989 53.3003H52.8989V59.0003H51.2988V59.5003H53.4988V53.8003H53.3989Z" fill="black"/>
<path d="M57.7996 57.8004V55.6004C57.7996 54.4004 57.4997 53.5004 56.8997 52.9004C57.1997 53.5004 57.1996 54.3004 57.1996 54.9004V57.1004C57.1996 57.7004 57.1997 58.2004 57.3997 58.7004L57.4996 59.0004H55.5996C55.5996 59.2004 55.6996 59.3004 55.6996 59.5004H57.8997C57.7997 59.0004 57.7996 58.5004 57.7996 57.8004Z" fill="black"/>
<path d="M64.7988 48.1001V48.8001H63.2988V49.3001H65.3989V48.9001C65.3989 47.6001 64.9989 46.7001 64.3989 46.1001C64.6989 46.6001 64.7988 47.3001 64.7988 48.1001Z" fill="black"/>
<path d="M64.0996 52.8003C64.5996 53.5003 64.8997 54.4003 64.8997 55.5003C64.8997 57.9003 63.5997 59.3003 61.3997 59.3003C60.8997 59.3003 60.4996 59.2003 60.0996 59.1003C60.5996 59.5003 61.3996 59.8003 62.2996 59.8003C64.4996 59.8003 65.5996 58.5003 65.5996 56.3003C65.3996 54.6003 64.7996 53.6003 64.0996 52.8003Z" fill="black"/>
<path d="M62.2 47.3003C62 46.9003 61.8 46.8003 61.4 46.8003C60.9 46.8003 60.5 46.9003 60.5 47.9003C60.5 48.7003 60.9 49.4003 61.5 50.0003C61.3 49.6003 61.1 49.1003 61.1 48.6003C61.1 47.7003 61.5 47.3003 62.2 47.3003Z" fill="black"/>
<path d="M61.0002 56.7003C61.0002 56.6003 61.0002 56.4003 61.0002 56.3003V55.3003H60.4002V55.6003C60.3002 56.4003 60.6002 56.6003 61.0002 56.7003Z" fill="black"/>
<path d="M68.8989 45.5H68.2988V50.6H68.8989V45.5Z" fill="black"/>
<path d="M70.2992 53H68.2992V59H66.6992V59.5H68.8992V53.5H70.2992V53Z" fill="black"/>
<path d="M73.1003 59H71.4004V59.5H73.7004V45.5H73.1003V59Z" fill="black"/>
<path d="M80.6992 46C80.9992 46.6 81.1992 47.3 81.1992 48.1V55.4C81.1992 57.8 79.8992 59.2 77.5992 59.2C77.0992 59.2 76.5992 59.1 76.1992 59C76.6992 59.4 77.4992 59.7 78.3992 59.7C80.5992 59.7 81.6992 58.4 81.6992 56.2V48.9C81.7992 47.6 81.3992 46.6 80.6992 46Z" fill="black"/>
<path d="M77.2992 56.3003V48.7003C77.2992 47.7003 77.6992 47.3003 78.3992 47.3003C78.1992 46.9003 77.8992 46.8003 77.5992 46.8003C77.1992 46.8003 76.6992 46.9003 76.6992 47.9003V55.5003C76.6992 56.3003 76.9992 56.6003 77.2992 56.6003C77.2992 56.6003 77.2992 56.4003 77.2992 56.3003Z" fill="black"/>
<path d="M88.6992 46.2002C88.9992 46.8002 89.0992 47.4002 89.0992 48.3002V50.1002C89.0992 52.5002 87.8992 53.8002 85.5992 53.8002H84.7992V59.0002H83.1992V59.5002H85.3992V54.2002H86.3992C88.5992 54.2002 89.6992 53.0002 89.6992 50.7002V48.9002C89.6992 47.7002 89.3992 46.7002 88.6992 46.2002Z" fill="black"/>
<path d="M85.3989 47.5H86.3989C86.2989 47.1 85.9988 47 85.5988 47H84.7988V51.3H85.3989V47.5Z" fill="black"/>
<path d="M13.9004 58.8003C16.1004 58.8003 17.2004 57.6003 17.2004 55.5003V54.4003C17.2004 52.9003 16.7003 51.9003 15.6003 51.4003C16.6003 50.9003 17.0004 50.0003 17.0004 48.6003V48.0003C17.0004 45.8003 16.0004 44.8003 13.7004 44.8003H10.4004V58.8003H13.9004ZM14.8004 48.2003V49.0003C14.8004 50.1003 14.3004 50.5003 13.5004 50.5003H12.6003V46.8003H13.7004C14.5004 46.8003 14.8004 47.2003 14.8004 48.2003ZM12.7004 52.5003H13.7004C14.7004 52.5003 15.1003 52.9003 15.1003 54.2003V55.4003C15.1003 56.4003 14.7004 56.8003 14.0004 56.8003H12.7004V52.5003Z" fill="black"/>
<path d="M25.6996 58.8003L23.4996 44.8003H20.2996L18.0996 58.8003H20.0996L20.4996 56.3003H23.1996L23.5996 58.8003H25.6996ZM21.7996 47.2003L22.8997 54.3003H20.7996L21.7996 47.2003Z" fill="black"/>
<path d="M31.8992 51.9003C32.8992 51.4003 33.2992 50.5003 33.2992 49.1003V48.0003C33.2992 45.8003 32.2992 44.8003 29.9992 44.8003H26.6992V58.8003H28.8992V53.1003H29.6992C30.6992 53.1003 31.0992 53.6003 31.0992 54.9003V57.1003C31.0992 58.2003 31.1992 58.5003 31.2992 58.8003H33.4992C33.2992 58.3003 33.2992 57.8003 33.2992 57.1003V54.9003C33.3992 53.5003 32.9992 52.4003 31.8992 51.9003ZM28.9992 51.1003V46.8003H30.0992C30.8992 46.8003 31.1992 47.2003 31.1992 48.2003V49.6003C31.1992 50.7003 30.6992 51.1003 29.8992 51.1003H28.9992Z" fill="black"/>
<path d="M34.7988 44.8003V58.8003H38.2988C40.4988 58.8003 41.5988 57.6003 41.5988 55.5003V54.4003C41.5988 52.9003 41.0988 51.9003 39.9988 51.4003C40.9988 50.9003 41.3989 50.0003 41.3989 48.6003V48.0003C41.3989 45.8003 40.3988 44.8003 38.0988 44.8003H34.7988ZM39.1989 48.2003V49.0003C39.1989 50.1003 38.6989 50.5003 37.8989 50.5003H36.9988V46.8003H38.0988C38.8988 46.8003 39.1989 47.2003 39.1989 48.2003ZM36.9988 52.5003H37.9988C38.9988 52.5003 39.3989 52.9003 39.3989 54.2003V55.4003C39.3989 56.4003 38.9988 56.8003 38.2988 56.8003H36.9988V52.5003Z" fill="black"/>
<path d="M42.9004 44.8003V58.8003H49.0004V56.8003H45.1003V52.7003H48.2004V50.7003H45.1003V46.8003H49.0004V44.8003H42.9004Z" fill="black"/>
<path d="M50.2992 58.8003H52.4992V53.1003H53.2992C54.2992 53.1003 54.6992 53.6003 54.6992 54.9003V57.1003C54.6992 58.2003 54.7992 58.5003 54.8992 58.8003H57.0992C56.8992 58.3003 56.8992 57.8003 56.8992 57.1003V54.9003C56.8992 53.4003 56.4992 52.4003 55.3992 51.9003C56.3992 51.4003 56.7992 50.5003 56.7992 49.1003V48.0003C56.7992 45.8003 55.7992 44.8003 53.4992 44.8003H50.1992V58.8003H50.2992ZM53.5992 46.8003C54.3992 46.8003 54.6992 47.2003 54.6992 48.2003V49.6003C54.6992 50.7003 54.1992 51.1003 53.3992 51.1003H52.4992V46.8003H53.5992Z" fill="black"/>
<path d="M58.1 48.1002C58.1 52.1002 62.4 52.6002 62.4 55.5002C62.4 56.5002 62 56.9002 61.3 56.9002C60.6 56.9002 60.2 56.5002 60.2 55.5002V54.5002H58V55.4002C58 57.6002 59.1 58.9002 61.3 58.9002C63.5 58.9002 64.6 57.6002 64.6 55.4002C64.6 51.4002 60.3 50.9002 60.3 48.0002C60.3 47.0002 60.7 46.6002 61.4 46.6002C62.1 46.6002 62.5 47.0002 62.5 48.0002V48.6002H64.6V48.2002C64.6 46.0002 63.5 44.7002 61.4 44.7002C59.2 44.6002 58.1 45.9002 58.1 48.1002Z" fill="black"/>
<path d="M70.6003 50.8003H68.1003V44.8003H65.9004V58.8003H68.1003V52.8003H70.6003V58.8003H72.8004V44.8003H70.6003V50.8003Z" fill="black"/>
<path d="M80.8989 55.4001V48.1001C80.8989 45.9001 79.6988 44.6001 77.5988 44.6001C75.3988 44.6001 74.2988 45.9001 74.2988 48.1001V55.4001C74.2988 57.6001 75.4988 58.9001 77.5988 58.9001C79.7988 58.9001 80.8989 57.7001 80.8989 55.4001ZM76.3989 55.6001V48.0001C76.3989 47.0001 76.7988 46.6001 77.4988 46.6001C78.1988 46.6001 78.5988 47.0001 78.5988 48.0001V55.6001C78.5988 56.6001 78.1988 57.0001 77.4988 57.0001C76.8988 56.9001 76.3989 56.6001 76.3989 55.6001Z" fill="black"/>
<path d="M84.6003 58.8002V53.5002H85.6003C87.8003 53.5002 88.9004 52.3002 88.9004 50.0002V48.2002C88.9004 46.0002 87.8003 44.7002 85.6003 44.7002H82.4004V58.7002H84.6003V58.8002ZM84.6003 46.8002H85.6003C86.3003 46.8002 86.7004 47.1002 86.7004 48.1002V50.2002C86.7004 51.2002 86.3003 51.5002 85.6003 51.5002H84.6003V46.8002Z" fill="black"/>
<path d="M6.50037 50.7002C5.60037 50.7002 4.90039 51.4002 4.90039 52.3002C4.90039 53.2002 5.60037 53.9002 6.50037 53.9002C7.40037 53.9002 8.10034 53.2002 8.10034 52.3002C8.20034 51.5002 7.40037 50.7002 6.50037 50.7002Z" fill="black"/>
<path d="M6.5 49.9004C5.1 49.9004 4 51.0004 4 52.4004C4 53.8004 5.1 54.9004 6.5 54.9004C7.9 54.9004 9 53.8004 9 52.4004C9 51.0004 7.9 49.9004 6.5 49.9004ZM6.5 54.4004C5.4 54.4004 4.5 53.5004 4.5 52.4004C4.5 51.3004 5.4 50.4004 6.5 50.4004C7.6 50.4004 8.5 51.3004 8.5 52.4004C8.6 53.5004 7.6 54.4004 6.5 54.4004Z" fill="black"/>
<path d="M93.1 54.0003C93.9836 54.0003 94.7 53.284 94.7 52.4003C94.7 51.5166 93.9836 50.8003 93.1 50.8003C92.2163 50.8003 91.5 51.5166 91.5 52.4003C91.5 53.284 92.2163 54.0003 93.1 54.0003Z" fill="black"/>
<path d="M90.5996 52.4004C90.5996 53.8004 91.6996 54.9004 93.0996 54.9004C94.4996 54.9004 95.5996 53.8004 95.5996 52.4004C95.5996 51.0004 94.4996 49.9004 93.0996 49.9004C91.7996 49.9004 90.5996 51.0004 90.5996 52.4004ZM93.0996 50.3004C94.1996 50.3004 95.0996 51.2004 95.0996 52.3004C95.0996 53.4004 94.1996 54.3004 93.0996 54.3004C91.9996 54.3004 91.0996 53.4004 91.0996 52.3004C91.0996 51.2004 91.9996 50.3004 93.0996 50.3004Z" fill="black"/>
<path d="M14.7 30.7002L17.5 29.2002L20.2 30.7002L19.7 27.6002L21.9 25.4002L18.9 25.0002L17.5 22.2002L16.1 25.0002L13 25.4002L15.3 27.6002L14.7 30.7002Z" fill="black"/>
<path d="M77.2004 27.6002L76.6003 30.7002L79.4004 29.2002L82.1003 30.7002L81.6003 27.6002L83.8004 25.4002L80.8004 25.0002L79.4004 22.2002L78.0004 25.0002L74.9004 25.4002L77.2004 27.6002Z" fill="black"/>
</svg>
