<svg width="141" height="107" viewBox="0 0 141 107" fill="none" xmlns="http://www.w3.org/2000/svg">
<path d="M41.5996 43.0997C41.5996 43.7997 41.5996 44.5997 41.6996 45.2997C41.6996 45.6997 42.0996 45.9997 42.3996 45.8997C42.7996 45.8997 43.0996 45.4997 42.9996 45.1997C42.8996 44.4997 42.8996 43.7997 42.8996 43.0997C42.8996 33.8997 47.5996 25.6997 54.7996 20.9997C54.5996 20.5997 54.3996 20.0997 54.2996 19.6997C46.6996 24.6997 41.5996 33.2997 41.5996 43.0997Z" fill="black"/>
<path d="M96.0992 43.0996C96.0992 43.7996 96.0992 44.5996 95.9992 45.2996C95.9992 45.6996 96.2992 45.9996 96.5992 45.9996C96.5992 45.9996 96.5992 45.9996 96.6992 45.9996C97.0992 45.9996 97.3992 45.6996 97.3992 45.3996C97.4992 44.5996 97.4992 43.7996 97.4992 43.0996C97.4992 33.2996 92.3992 24.5996 84.6992 19.5996C84.4992 19.9996 84.3992 20.4996 84.1992 20.8996C91.2992 25.6996 96.0992 33.7996 96.0992 43.0996Z" fill="black"/>
<path d="M94.3008 43.1997C94.3008 44.3997 94.2008 45.6997 94.1008 46.6997L94.0008 47.1997H138.201C138.501 47.1997 138.701 46.9997 138.701 46.6997C138.701 46.3997 138.501 46.1997 138.201 46.1997H95.0008C95.1008 45.1997 95.2008 44.0997 95.2008 43.0997C95.2008 34.1997 90.6008 26.2997 83.7008 21.6997C83.6008 21.9997 83.4008 22.2997 83.3008 22.4997C89.9008 27.0997 94.3008 34.5997 94.3008 43.1997Z" fill="black"/>
<path d="M43.8992 43.1996C43.8992 44.2996 43.9992 45.1996 44.0992 46.2996H0.699219C0.399219 46.2996 0.199219 46.4996 0.199219 46.7996C0.199219 47.0996 0.399219 47.2996 0.699219 47.2996H45.0992L44.9992 46.7996C44.7992 45.4996 44.6992 44.4996 44.6992 43.2996C44.6992 34.7996 48.9992 27.2996 55.5992 22.8996C55.4992 22.5996 55.2992 22.2996 55.1992 22.0996C48.3992 26.4996 43.8992 34.2996 43.8992 43.1996Z" fill="black"/>
<path d="M78.5004 5.6C78.7004 5.7 79.0004 5.8 79.1004 6C79.3004 6.2 79.4004 6.5 79.2004 6.8C79.3004 6.7 79.4004 6.5 79.4004 6.4C79.4004 6.2 79.4004 6.1 79.3004 5.9C79.2004 5.6 78.9004 5.4 78.6004 5.3C78.1004 5 77.6004 4.8 77.1004 4.5C76.1004 4.1 75.0004 3.6 73.9004 3.5C75.0004 4 75.9004 4.5 76.9004 5C77.5004 5.2 78.0004 5.4 78.5004 5.6Z" fill="black"/>
<path d="M81 12.5996C80.5 15.4996 79.8 18.2996 78.8 20.9996C77.8 23.6996 76.6 26.2996 75 28.7996C76.9 26.4996 78.4 23.8996 79.4 21.1996C80.3 18.4996 80.9 15.5996 81 12.5996Z" fill="black"/>
<path d="M67.5008 3.89994C67.8008 3.89994 68.1008 3.89994 68.3008 3.79994C68.6008 3.69994 68.8008 3.59994 69.1008 3.49994C69.6008 3.29994 70.0008 3.09994 70.5008 3.09994C70.7008 3.09994 71.0008 3.19994 71.2008 3.29994C71.4008 3.39994 71.6008 3.59994 71.6008 3.89994C71.6008 3.59994 71.5008 3.29994 71.3008 3.09994C71.1008 2.89994 70.8008 2.69994 70.5008 2.69994C69.9008 2.59994 69.3008 2.79994 68.8008 2.99994C68.6008 3.09994 68.3008 3.19994 68.1008 3.29994C67.9008 3.39994 67.6008 3.39994 67.4008 3.49994C66.9008 3.59994 66.3008 3.69994 65.8008 3.79994C66.4008 3.79994 67.0008 3.89994 67.5008 3.89994Z" fill="black"/>
<path d="M78 13.3999C77.6 16.1999 77 18.7999 76.3 21.2999C75.6 23.8999 74.7 26.3999 73.5 28.9999C75 26.5999 76 24.0999 76.8 21.4999C77.5 18.8999 77.9 16.1999 78 13.3999Z" fill="black"/>
<path d="M82.4992 12.1997C81.9992 15.1997 81.0992 18.0997 79.9992 20.7997C78.8992 23.4997 77.4992 26.0997 75.6992 28.6997C77.7992 26.3997 79.4992 23.8997 80.5992 21.0997C81.6992 18.2997 82.3992 15.3997 82.4992 12.1997Z" fill="black"/>
<path d="M81.1004 8.49971C81.1004 8.69971 81.2004 8.99971 81.3004 9.29971C81.4004 9.59971 81.6004 9.79971 81.8004 9.89971C82.0004 10.0997 82.2004 10.1997 82.3004 10.3997C82.4004 10.5997 82.5004 10.7997 82.5004 10.9997C82.5004 11.0997 82.4004 11.1997 82.4004 11.2997C82.3004 11.3997 82.2004 11.4997 82.1004 11.4997C82.2004 11.4997 82.4004 11.4997 82.5004 11.3997C82.6004 11.2997 82.7004 11.1997 82.8004 11.0997C82.9004 10.9997 82.9004 10.7997 82.9004 10.6997C82.9004 10.5997 82.8004 10.3997 82.8004 10.2997C82.7004 9.99971 82.5004 9.79971 82.3004 9.69971C82.1004 9.49971 82.0004 9.39971 81.9004 9.19971C81.8004 8.99971 81.8004 8.79971 81.7004 8.59971C81.7004 8.39971 81.6004 8.09971 81.5004 7.79971C81.2004 7.29971 80.8004 6.99971 80.4004 6.69971C80.7004 7.09971 81.0004 7.59971 81.1004 7.99971C81.1004 8.09971 81.1004 8.29971 81.1004 8.49971Z" fill="black"/>
<path d="M70.5 4.79961C70.3 4.89961 70 5.09961 70 5.39961C70.1 5.19961 70.4 5.09961 70.6 5.09961C70.8 5.09961 71 5.09961 71.2 5.19961C71.4 5.29961 71.6 5.39961 71.8 5.49961C72 5.59961 72.2 5.69961 72.5 5.79961C73 5.89961 73.5 5.79961 73.9 5.89961C74.1 5.89961 74.3 5.99961 74.5 6.09961C74.7 6.19961 74.9 6.39961 75 6.59961C75 6.29961 74.9 6.09961 74.7 5.89961C74.5 5.69961 74.3 5.59961 74 5.49961C73.5 5.39961 73 5.39961 72.6 5.29961C72.2 5.19961 71.8 4.99961 71.3 4.79961C71 4.69961 70.7 4.69961 70.5 4.79961Z" fill="black"/>
<path d="M60.5005 38.3998C60.0005 40.1998 60.1005 42.1998 61.0005 43.8998C60.3005 42.0998 60.3005 40.1998 60.8005 38.5998C61.3005 36.8998 62.4005 35.3998 64.0005 34.2998C62.3005 35.0998 61.0005 36.5998 60.5005 38.3998Z" fill="black"/>
<path d="M57.3008 8.99977C57.4008 8.79977 57.6008 8.59977 57.7008 8.29977C57.8008 8.09977 58.0008 7.89977 58.2008 7.79977C58.4008 7.69977 58.6008 7.49977 58.9008 7.59977C58.7008 7.39977 58.3008 7.39977 58.0008 7.49977C57.7008 7.59977 57.4008 7.89977 57.3008 8.09977C57.1008 8.39977 57.0008 8.59977 56.9008 8.89977C56.9008 8.99977 56.8008 9.19977 56.8008 9.39977C56.8008 9.59977 56.9008 9.69977 56.9008 9.79977C57.0008 9.39977 57.2008 9.19977 57.3008 8.99977Z" fill="black"/>
<path d="M63.7992 5.9998C63.6992 6.0998 63.6992 6.1998 63.6992 6.3998C63.7992 6.2998 63.7992 6.1998 63.8992 6.1998C63.9992 6.1998 64.0992 6.1998 64.1992 6.1998C64.3992 6.1998 64.4992 6.1998 64.6992 6.2998C64.8992 6.2998 65.0992 6.3998 65.3992 6.2998C65.4992 6.2998 65.5992 6.1998 65.6992 6.0998C65.7992 5.9998 65.7992 5.8998 65.7992 5.7998C65.5992 5.9998 65.4992 5.8998 65.2992 5.8998C65.0992 5.8998 64.9992 5.7998 64.7992 5.7998C64.6992 5.7998 64.5992 5.7998 64.4992 5.7998C64.3992 5.7998 64.1992 5.7998 64.0992 5.8998C63.9992 5.7998 63.8992 5.8998 63.7992 5.9998Z" fill="black"/>
<path d="M60.8008 5.6999C61.1008 5.3999 61.4008 5.1999 61.8008 4.9999C62.0008 4.8999 62.2008 4.8999 62.4008 4.7999C62.6008 4.7999 62.8008 4.7999 63.1008 4.6999C63.2008 4.6999 63.4008 4.5999 63.5008 4.4999C63.6008 4.3999 63.7008 4.2999 63.8008 4.1999C63.9008 4.0999 63.9008 3.9999 64.0008 3.9999C64.1008 3.8999 64.2008 3.8999 64.3008 3.9999C64.2008 3.8999 64.1008 3.8999 63.9008 3.8999C63.8008 3.8999 63.7008 3.9999 63.6008 4.0999C63.4008 4.1999 63.3008 4.2999 63.1008 4.2999C62.9008 4.2999 62.7008 4.2999 62.4008 4.2999C62.2008 4.2999 61.9008 4.3999 61.7008 4.4999C61.2008 4.6999 60.8008 4.9999 60.6008 5.3999C60.4008 5.7999 60.3008 6.2999 60.3008 6.7999C60.3008 6.3999 60.5008 5.9999 60.8008 5.6999Z" fill="black"/>
<path d="M60.0004 10.5997C59.9004 10.4997 59.8004 10.2997 59.8004 10.1997C59.8004 10.0997 59.8004 9.89971 59.9004 9.79971C60.0004 9.59971 60.2004 9.39971 60.4004 9.19971C60.6004 8.99971 60.9004 8.79971 61.1004 8.59971C61.3004 8.39971 61.6004 7.99971 61.6004 7.69971C61.2004 8.19971 60.6004 8.39971 60.0004 8.79971C59.9004 8.89971 59.7004 8.99971 59.6004 9.19971C59.5004 9.39971 59.4004 9.49971 59.4004 9.69971C59.4004 9.89971 59.4004 10.0997 59.5004 10.2997C59.7004 10.3997 59.8004 10.5997 60.0004 10.5997Z" fill="black"/>
<path d="M78.3996 7.59971C78.0996 7.19971 77.5996 6.89971 77.0996 6.69971C77.4996 6.99971 77.7996 7.39971 78.0996 7.79971C78.3996 8.19971 78.5996 8.59971 78.9996 8.99971C79.3996 9.39971 79.6996 9.59971 79.8996 9.99971C79.9996 10.1997 80.0996 10.3997 79.9996 10.5997C79.9996 10.7997 79.7996 11.0997 79.5996 11.1997C79.8996 11.1997 80.0996 10.9997 80.1996 10.6997C80.2996 10.3997 80.2996 10.0997 80.1996 9.89971C80.0996 9.59971 79.9996 9.39971 79.7996 9.19971C79.5996 8.99971 79.4996 8.79971 79.2996 8.69971C78.9996 8.39971 78.7996 7.99971 78.3996 7.59971Z" fill="black"/>
<path d="M62.6992 13.6997C62.6992 16.3997 63.0992 18.9997 63.6992 21.5997C64.2992 24.0997 65.1992 26.5997 66.3992 29.0997C65.4992 26.4997 64.7992 23.9997 64.1992 21.4997C63.4992 18.9997 63.0992 16.3997 62.6992 13.6997Z" fill="black"/>
<path d="M64.1992 14.0996C64.1992 16.6996 64.4992 19.2996 64.8992 21.6996C65.3992 24.1996 66.0992 26.6996 66.9992 29.0996C66.2992 26.4996 65.7992 24.0996 65.2992 21.5996C64.8992 19.1996 64.4992 16.6996 64.1992 14.0996Z" fill="black"/>
<path d="M76.4008 13.6997C76.1008 16.3997 75.6008 18.8997 75.0008 21.3997C74.4008 23.8997 73.7008 26.3997 72.8008 28.9997C74.0008 26.5997 74.9008 24.0997 75.5008 21.4997C76.1008 19.0997 76.4008 16.4997 76.4008 13.6997Z" fill="black"/>
<path d="M61.1992 13.3999C61.1992 16.1999 61.6992 18.8999 62.3992 21.4999C63.0992 24.0999 64.1992 26.5999 65.6992 29.0999C64.5992 26.4999 63.6992 23.9999 62.9992 21.3999C62.1992 18.7999 61.5992 16.1999 61.1992 13.3999Z" fill="black"/>
<path d="M74.9 14.0996C74.6 16.6996 74.2 19.1996 73.7 21.6996C73.2 24.1996 72.7 26.5996 72 29.1996C73 26.6996 73.7 24.2996 74.1 21.7996C74.7 19.2996 74.9 16.7996 74.9 14.0996Z" fill="black"/>
<path d="M65.6992 14.5C65.6992 17.1 65.8992 19.5 66.1992 22C66.4992 24.4 67.0992 26.9 67.7992 29.4C67.3992 26.9 66.9992 24.4 66.6992 22C66.2992 19.5 65.9992 17 65.6992 14.5Z" fill="black"/>
<path d="M73.4008 14.5C73.1008 17 72.8008 19.5 72.5008 21.9C72.2008 24.3 71.8008 26.8 71.3008 29.3C72.0008 26.8 72.5008 24.4 72.9008 22C73.3008 19.5 73.4008 17.1 73.4008 14.5Z" fill="black"/>
<path d="M59.6992 13C59.7992 15.9 60.2992 18.7 61.0992 21.3C61.9992 24 63.1992 26.5 64.8992 28.9C63.4992 26.3 62.4992 23.8 61.5992 21.2C60.7992 18.6 60.0992 15.9 59.6992 13Z" fill="black"/>
<path d="M58.1992 12.5996C58.2992 15.5996 58.8992 18.4996 59.8992 21.1996C60.8992 23.8996 62.3992 26.4996 64.2992 28.7996C62.6992 26.1996 61.4992 23.5996 60.4992 20.9996C59.3992 18.2996 58.6992 15.5996 58.1992 12.5996Z" fill="black"/>
<path d="M65.0007 8.7C64.8007 8.7 64.5007 8.8 64.2007 8.9C63.9007 9.1 63.8007 9.4 63.7007 9.6C63.6007 9.9 63.7007 10.1 63.7007 10.4C63.8007 10.2 63.9007 9.9 64.0007 9.7C64.1007 9.5 64.2007 9.4 64.4007 9.3C64.5007 9.2 64.8007 9.1 65.0007 9C65.2007 8.9 65.5007 8.7 65.6007 8.5C65.5007 8.7 65.2007 8.7 65.0007 8.7Z" fill="black"/>
<path d="M56.6992 12.2998C56.7992 15.3998 57.4992 18.3998 58.5992 21.0998C59.7992 23.8998 61.3992 26.4998 63.4992 28.6998C61.6992 26.0998 60.2992 23.4998 59.1992 20.7998C58.0992 18.0998 57.1992 15.2998 56.6992 12.2998Z" fill="black"/>
<path d="M66.7992 11.0996C66.8992 10.9996 66.8992 10.7996 66.8992 10.5996C66.5992 10.5996 66.3992 10.6996 66.2992 10.8996C66.1992 11.0996 66.2992 11.3996 66.3992 11.4996C66.5992 11.2996 66.7992 11.1996 66.7992 11.0996Z" fill="black"/>
<path d="M79.5008 13C79.1008 15.9 78.4008 18.5 77.6008 21.1C76.7008 23.7 75.7008 26.3 74.3008 28.9C76.0008 26.5 77.3008 24 78.1008 21.3C78.9008 18.7 79.4008 15.9 79.5008 13Z" fill="black"/>
<path d="M74.8996 8.19996C74.4996 8.09996 73.9996 8.09996 73.5996 8.29996C73.9996 8.29996 74.3996 8.39996 74.7996 8.59996C74.9996 8.69996 75.0996 8.79996 75.1996 8.89996C75.2996 8.99996 75.3996 9.19996 75.4996 9.29996C75.5996 9.49996 75.6996 9.69996 75.8996 9.89996C76.0996 10.1 76.2996 10.2 76.4996 10.3C76.5996 10.3 76.6996 10.4 76.7996 10.4C76.8996 10.4 76.8996 10.5 76.9996 10.6C77.0996 10.7 77.0996 10.8 77.0996 10.8C77.0996 10.9 77.0996 11 76.9996 11.1C77.0996 11 77.1996 10.9 77.1996 10.8C77.1996 10.7 77.1996 10.6 77.0996 10.4C77.0996 10.3 76.9996 10.2 76.8996 10.1C76.7996 9.99996 76.6996 9.99996 76.5996 9.89996C76.3996 9.79996 76.2996 9.69996 76.1996 9.59996C76.0996 9.49996 75.9996 9.29996 75.8996 9.09996C75.7996 8.89996 75.5996 8.69996 75.4996 8.59996C75.3996 8.39996 75.1996 8.19996 74.8996 8.19996Z" fill="black"/>
<path d="M69.3008 9.6999C69.7008 9.5999 70.1008 9.5999 70.4008 9.5999C70.7008 9.5999 71.1008 9.6999 71.2008 9.8999C71.3008 9.9999 71.4008 10.1999 71.5008 10.2999C71.6008 10.4999 71.7008 10.6999 71.9008 10.7999C72.1008 10.9999 72.3008 10.9999 72.4008 11.0999C72.5008 11.0999 72.5008 11.1999 72.6008 11.2999C72.6008 11.3999 72.6008 11.4999 72.5008 11.5999C72.6008 11.5999 72.7008 11.3999 72.7008 11.2999C72.7008 11.1999 72.7008 11.0999 72.6008 10.9999C72.4008 10.7999 72.3008 10.6999 72.2008 10.5999C72.1008 10.4999 72.0008 10.2999 72.0008 10.0999C71.9008 9.8999 71.8008 9.6999 71.7008 9.4999C71.5008 9.2999 71.3008 9.1999 71.1008 9.0999C70.9008 8.9999 70.7008 8.9999 70.4008 9.0999C70.0008 9.2999 69.7008 9.4999 69.3008 9.6999Z" fill="black"/>
<path d="M69.6008 7C69.4008 7 69.1008 7 68.9008 7.1C68.7008 7.2 68.5008 7.3 68.3008 7.4C68.8008 7.5 69.1008 7.5 69.5008 7.5C69.7008 7.5 69.8008 7.5 70.0008 7.6C70.2008 7.7 70.3008 7.7 70.5008 7.9C70.5008 7.7 70.4008 7.4 70.2008 7.3C70.0008 7.1 69.8008 7 69.6008 7Z" fill="black"/>
<path d="M81.2008 20.6999C79.9008 23.4999 78.4008 26.0999 76.3008 28.5999C78.6008 26.3999 80.5008 23.7999 81.8008 20.9999C83.1008 18.1999 83.8008 15.0999 83.9008 11.8999C83.4008 14.9999 82.5008 17.8999 81.2008 20.6999Z" fill="black"/>
<path d="M71.8996 14.8999C71.3996 19.8999 70.9996 24.3999 70.5996 29.3999C71.5996 24.3999 71.9996 19.8999 71.8996 14.8999Z" fill="black"/>
<path d="M68.6993 15.1997C68.5993 20.0997 68.7993 24.4997 69.1993 29.4997C69.2993 24.5997 69.0993 20.0997 68.6993 15.1997Z" fill="black"/>
<path d="M70.4004 15.1997C70.0004 19.9997 69.9004 24.4997 69.9004 29.4997C70.3004 24.5997 70.5004 20.0997 70.4004 15.1997Z" fill="black"/>
<path d="M57.9992 20.6999C56.6992 17.8999 55.7992 14.9999 55.1992 11.8999C55.2992 15.0999 56.0992 18.1999 57.3992 20.9999C58.6992 23.7999 60.4992 26.3999 62.8992 28.6999C60.7992 26.0999 59.1992 23.4999 57.9992 20.6999Z" fill="black"/>
<path d="M67.1992 14.8999C67.1992 19.8999 67.5992 24.4999 68.4992 29.3999C68.0992 24.3999 67.6992 19.8999 67.1992 14.8999Z" fill="black"/>
<path d="M55.1992 105.4H52.9992V103.4H55.0992V102.8H52.9992V101.1H55.1992V101.8H55.8992V100.5H51.6992V101L52.2992 101.1V105.4L51.6992 105.5V106H55.8992V104.7H55.2992L55.1992 105.4Z" fill="black"/>
<path d="M58.9 102.9C58.4 102.8 58.1 102.6 57.9 102.5C57.7 102.3 57.6 102.1 57.6 101.9C57.6 101.6 57.7 101.4 57.9 101.2C58.1 101 58.4 100.9 58.8 100.9C59 100.9 59.3 100.9 59.5 101C59.7 101.1 59.8 101.1 60 101.2L60.1 102H60.7V101C60.5 100.8 60.3 100.7 59.9 100.5C59.6 100.4 59.2 100.3 58.9 100.3C58.3 100.3 57.8 100.4 57.5 100.7C57.1 101 57 101.3 57 101.8C57 102.2 57.2 102.5 57.5 102.8C57.8 103.1 58.3 103.3 58.9 103.4C59.4 103.5 59.7 103.7 59.9 103.8C60.1 104 60.2 104.2 60.2 104.4C60.2 104.7 60.1 104.9 59.9 105C59.7 105.2 59.4 105.2 59 105.2C58.7 105.2 58.5 105.2 58.3 105.1C58.1 105 57.9 104.9 57.8 104.8L57.7 104H57.1V105C57.3 105.2 57.6 105.4 57.9 105.5C58.2 105.6 58.6 105.7 59 105.7C59.6 105.7 60.1 105.6 60.4 105.3C60.8 105 60.9 104.7 60.9 104.2C60.9 103.8 60.7 103.4 60.4 103.2C59.9 103.3 59.5 103.1 58.9 102.9Z" fill="black"/>
<path d="M61.1992 101.7H61.7992V101.1H63.0992V105.4L62.4992 105.5V106H64.3992V105.5L63.7992 105.4V101.1H64.9992L65.0992 101.7H65.6992V100.5H61.1992V101.7Z" fill="black"/>
<path d="M68.3996 100.5H66.6996H66.0996V101L66.6996 101.1V105.4L66.0996 105.5V106H68.3996C69.0996 106 69.6996 105.8 70.0996 105.3C70.4996 104.9 70.7996 104.3 70.7996 103.6V102.9C70.7996 102.2 70.5996 101.6 70.0996 101.2C69.6996 100.7 69.0996 100.5 68.3996 100.5ZM70.0996 103.6C70.0996 104.1 69.9996 104.6 69.6996 104.9C69.3996 105.2 68.9996 105.4 68.4996 105.4H67.5996V101.1H68.4996C68.9996 101.1 69.3996 101.3 69.6996 101.6C69.9996 101.9 70.0996 102.4 70.0996 102.9V103.6Z" fill="black"/>
<path d="M72.1004 105.2H71.4004V106H72.1004V105.2Z" fill="black"/>
<path d="M76.7 100.5L75 100.8V101.3H75.9V105.4L75.1 105.5V106H77.5V105.5L76.7 105.4V100.5Z" fill="black"/>
<path d="M79.7996 100.4C79.2996 100.4 78.8996 100.6 78.5996 100.9C78.2996 101.3 78.0996 101.7 78.0996 102.3C78.0996 102.9 78.2996 103.4 78.5996 103.7C78.8996 104 79.2996 104.2 79.8996 104.2C80.0996 104.2 80.2996 104.2 80.4996 104.1C80.6996 104 80.7996 103.9 80.8996 103.7C80.8996 104.3 80.7996 104.7 80.5996 105C80.3996 105.3 80.0996 105.4 79.7996 105.4C79.5996 105.4 79.3996 105.4 79.2996 105.4C79.0996 105.4 78.9996 105.3 78.7996 105.2L78.6996 105.8C78.8996 105.9 78.9996 105.9 79.1996 106C79.3996 106 79.5996 106.1 79.7996 106.1C80.3996 106.1 80.8996 105.9 81.1996 105.5C81.5996 105.1 81.6996 104.4 81.6996 103.6V102.6C81.6996 101.9 81.4996 101.4 81.1996 101C80.7996 100.6 80.3996 100.4 79.7996 100.4ZM80.8996 103C80.7996 103.2 80.6996 103.3 80.4996 103.5C80.2996 103.6 80.0996 103.7 79.7996 103.7C79.4996 103.7 79.2996 103.6 79.0996 103.3C78.8996 103.1 78.7996 102.7 78.7996 102.4C78.7996 102 78.8996 101.7 79.0996 101.4C79.2996 101.1 79.4996 101 79.7996 101C80.1996 101 80.3996 101.1 80.5996 101.4C80.7996 101.6 80.8996 102 80.8996 102.5V103Z" fill="black"/>
<path d="M85.0008 103.2C85.3008 103.1 85.5008 102.9 85.7008 102.7C85.9008 102.5 85.9008 102.2 85.9008 101.9C85.9008 101.4 85.7008 101 85.4008 100.8C85.1008 100.5 84.7008 100.4 84.2008 100.4C83.7008 100.4 83.3008 100.5 83.0008 100.8C82.7008 101.1 82.6008 101.4 82.6008 101.9C82.6008 102.2 82.7008 102.4 82.8008 102.7C83.0008 102.9 83.2008 103.1 83.4008 103.2C83.1008 103.3 82.8008 103.5 82.6008 103.7C82.4008 103.9 82.3008 104.2 82.3008 104.5C82.3008 105 82.5008 105.4 82.8008 105.7C83.1008 106 83.6008 106.1 84.1008 106.1C84.6008 106.1 85.1008 106 85.4008 105.7C85.7008 105.4 85.9008 105 85.9008 104.5C85.9008 104.2 85.8008 103.9 85.6008 103.7C85.6008 103.4 85.3008 103.3 85.0008 103.2ZM83.4008 101.9C83.4008 101.6 83.5008 101.4 83.6008 101.2C83.8008 101 84.0008 100.9 84.2008 100.9C84.5008 100.9 84.7008 101 84.8008 101.2C85.0008 101.4 85.1008 101.6 85.1008 101.9C85.1008 102.2 85.0008 102.4 84.9008 102.6C84.7008 102.8 84.5008 102.9 84.3008 102.9C84.0008 102.9 83.8008 102.8 83.7008 102.6C83.5008 102.4 83.4008 102.2 83.4008 101.9ZM85.0008 105.2C84.8008 105.4 84.6008 105.5 84.2008 105.5C83.9008 105.5 83.6008 105.4 83.4008 105.2C83.2008 105 83.1008 104.8 83.1008 104.5C83.1008 104.2 83.2008 103.9 83.4008 103.8C83.6008 103.6 83.8008 103.5 84.1008 103.5C84.4008 103.5 84.7008 103.6 84.9008 103.8C85.1008 104 85.2008 104.2 85.2008 104.5C85.3008 104.8 85.2008 105 85.0008 105.2Z" fill="black"/>
<path d="M86.6992 101.7H87.2992L87.3992 101.1H89.6992C89.1992 101.7 88.7992 102.4 88.4992 103.1C88.1992 103.8 87.9992 104.6 87.8992 105.4L87.7992 106H88.4992L88.5992 105.4C88.6992 104.5 88.8992 103.8 89.0992 103.2C89.2992 102.6 89.7992 101.9 90.3992 101.1V100.5H86.6992V101.7Z" fill="black"/>
<path d="M15.8008 90.9996V91.6996H18.5008V90.9996L17.6008 90.8996V88.3996H21.3008V90.8996L20.5008 90.9996V91.6996H23.2008V90.9996L22.3008 90.8996V84.9996L23.2008 84.7996V84.0996H22.3008H21.3008H20.5008V84.7996L21.3008 84.9996V87.5996H17.6008V84.9996L18.5008 84.7996V84.0996H15.8008V84.7996L16.6008 84.9996V90.8996L15.8008 90.9996Z" fill="black"/>
<path d="M28.9008 91.6996H31.1008V90.9996L30.5008 90.8996L27.9008 84.0996H27.0008L24.4008 90.8996L23.8008 90.9996V91.6996H26.0008V90.9996L25.4008 90.8996L25.9008 89.4996H28.9008L29.4008 90.8996L28.8008 90.9996V91.6996H28.9008ZM26.3008 88.6996L27.5008 85.4996L28.7008 88.6996H26.3008Z" fill="black"/>
<path d="M31.6992 90.9996V91.6996H34.3992V90.9996L33.5992 90.8996V84.9996L34.3992 84.7996V84.0996H31.6992V84.7996L32.4992 84.9996V90.8996L31.6992 90.9996Z" fill="black"/>
<path d="M35.0996 90.9996V91.6996H37.7996V90.9996L36.9996 90.8996V88.2996H38.5996C38.9996 88.2996 39.2996 88.3996 39.5996 88.6996C39.7996 88.8996 39.9996 89.2996 39.9996 89.6996V90.2996C39.9996 90.6996 40.0996 90.9996 40.2996 91.2996C40.4996 91.5996 40.7996 91.6996 41.0996 91.6996H41.5996V90.9996H41.3996C41.2996 90.9996 41.1996 90.8996 41.0996 90.7996C40.9996 90.6996 40.9996 90.4996 40.9996 90.2996V89.6996C40.9996 89.2996 40.8996 88.8996 40.6996 88.5996C40.4996 88.2996 40.1996 88.0996 39.7996 87.8996C40.1996 87.6996 40.4996 87.4996 40.6996 87.1996C40.8996 86.8996 40.9996 86.5996 40.9996 86.1996C40.9996 85.4996 40.7996 84.9996 40.2996 84.5996C39.7996 84.1996 39.1996 84.0996 38.3996 84.0996H35.9996H35.1996V84.7996L35.9996 84.9996V90.8996L35.0996 90.9996ZM36.9996 84.9996H38.3996C38.8996 84.9996 39.2996 85.0996 39.5996 85.2996C39.8996 85.4996 39.9996 85.7996 39.9996 86.1996C39.9996 86.5996 39.8996 86.8996 39.5996 87.1996C39.2996 87.3996 38.8996 87.4996 38.3996 87.4996H36.9996V84.9996Z" fill="black"/>
<path d="M44.0004 85.6997C44.4004 85.0997 45.0004 84.7997 45.8004 84.7997C46.1004 84.7997 46.4004 84.8997 46.7004 84.9997C46.9004 85.0997 47.1004 85.1997 47.3004 85.3997L47.5004 86.4997H48.2004V85.1997C48.0004 84.8997 47.7004 84.6997 47.2004 84.4997C46.8004 84.2997 46.3004 84.1997 45.7004 84.1997C44.7004 84.1997 43.9004 84.5997 43.3004 85.2997C42.7004 85.9997 42.4004 86.8997 42.4004 87.9997C42.4004 89.0997 42.7004 89.9997 43.3004 90.6997C43.9004 91.3997 44.7004 91.7997 45.7004 91.7997C46.3004 91.7997 46.8004 91.6997 47.2004 91.4997C47.6004 91.2997 48.0004 90.9997 48.2004 90.7997V89.4997H47.5004L47.3004 90.5997C47.1004 90.7997 46.9004 90.8997 46.7004 90.9997C46.4004 91.0997 46.1004 91.1997 45.8004 91.1997C45.1004 91.1997 44.5004 90.8997 44.1004 90.2997C43.7004 89.6997 43.5004 88.9997 43.5004 88.0997V87.9997C43.3004 86.9997 43.6004 86.2997 44.0004 85.6997Z" fill="black"/>
<path d="M51.7992 84.7996V84.0996H49.9992H49.1992V84.7996L49.9992 84.9996V89.2996C49.9992 90.0996 50.2992 90.6996 50.7992 91.1996C51.2992 91.5996 51.9992 91.8996 52.7992 91.8996C53.6992 91.8996 54.3992 91.6996 54.8992 91.1996C55.3992 90.7996 55.6992 90.0996 55.6992 89.2996V84.9996L56.4992 84.8996V84.1996H55.6992H53.7992V84.8996L54.5992 84.9996V89.2996C54.5992 89.8996 54.3992 90.2996 54.0992 90.5996C53.7992 90.8996 53.2992 90.9996 52.6992 90.9996C52.1992 90.9996 51.6992 90.8996 51.3992 90.5996C51.0992 90.2996 50.8992 89.8996 50.8992 89.2996V84.9996L51.7992 84.7996Z" fill="black"/>
<path d="M62.3 84.9996L62.4 85.7996H63.3V84.0996H57V85.7996H57.9V84.9996H59.6V90.8996L58.8 90.9996V91.6996H61.5V90.9996L60.6 90.8996V84.9996H62.3Z" fill="black"/>
<path d="M67.9004 90.7C67.6004 90.9 67.2004 91 66.7004 91C66.3004 91 66.0004 90.9 65.7004 90.8C65.4004 90.7 65.2004 90.6 65.0004 90.4L64.8004 89.3H64.0004V90.7C64.3004 91 64.7004 91.3 65.1004 91.4C65.6004 91.6 66.1004 91.7 66.6004 91.7C67.4004 91.7 68.1004 91.5 68.5004 91.1C69.0004 90.7 69.2004 90.2 69.2004 89.6C69.2004 89 69.0004 88.6 68.6004 88.2C68.2004 87.8 67.6004 87.5 66.8004 87.3C66.1004 87.1 65.7004 86.9 65.4004 86.7C65.1004 86.5 65.0004 86.2 65.0004 85.9C65.0004 85.5 65.1004 85.2 65.4004 85C65.7004 84.8 66.1004 84.7 66.6004 84.7C66.9004 84.7 67.2004 84.7 67.5004 84.8C67.8004 84.9 68.0004 85 68.1004 85.1L68.3004 86.2H69.1004V85C68.8004 84.7 68.5004 84.5 68.1004 84.3C67.7004 84.1 67.2004 84 66.7004 84C65.9004 84 65.2004 84.2 64.7004 84.6C64.2004 85 63.9004 85.5 63.9004 86.1C63.9004 86.7 64.1004 87.1 64.6004 87.5C65.0004 87.9 65.7004 88.1 66.5004 88.3C67.2004 88.5 67.6004 88.7 67.9004 88.9C68.2004 89.1 68.3004 89.4 68.3004 89.8C68.3004 90.2 68.2004 90.5 67.9004 90.7Z" fill="black"/>
<path d="M73.2008 88.5999C73.0008 88.8999 72.8008 89.2999 72.8008 89.6999C72.8008 90.2999 73.0008 90.7999 73.5008 91.1999C73.9008 91.5999 74.5008 91.7999 75.3008 91.7999C75.7008 91.7999 76.0008 91.6999 76.3008 91.5999C76.6008 91.4999 76.9008 91.2999 77.2008 91.0999L77.6008 91.5999H78.8008L77.8008 90.3999C78.1008 90.0999 78.3008 89.6999 78.4008 89.3999C78.5008 88.9999 78.6008 88.5999 78.6008 88.0999H77.7008C77.7008 88.3999 77.7008 88.6999 77.6008 88.9999C77.5008 89.2999 77.4008 89.4999 77.3008 89.6999L75.5008 87.5999L76.1008 87.1999C76.5008 86.8999 76.7008 86.6999 76.9008 86.3999C77.1008 86.1999 77.2008 85.8999 77.2008 85.4999C77.2008 85.0999 77.0008 84.6999 76.7008 84.3999C76.4008 84.0999 75.9008 83.8999 75.4008 83.8999C74.8008 83.8999 74.3008 84.0999 74.0008 84.3999C73.7008 84.6999 73.5008 85.1999 73.5008 85.7999C73.5008 86.0999 73.6008 86.3999 73.7008 86.5999C73.8008 86.8999 74.0008 87.1999 74.3008 87.4999C73.8008 87.8999 73.5008 88.1999 73.2008 88.5999ZM74.8008 85.0999C75.0008 84.8999 75.2008 84.7999 75.4008 84.7999C75.7008 84.7999 75.9008 84.8999 76.1008 84.9999C76.3008 85.1999 76.4008 85.2999 76.4008 85.5999C76.4008 85.7999 76.4008 85.9999 76.3008 86.0999C76.2008 86.2999 76.1008 86.3999 75.9008 86.4999L75.2008 86.9999C75.0008 86.7999 74.9008 86.4999 74.8008 86.2999C74.7008 86.0999 74.7008 85.8999 74.7008 85.6999C74.5008 85.5999 74.6008 85.2999 74.8008 85.0999ZM74.0008 89.0999C74.1008 88.8999 74.3008 88.6999 74.6008 88.3999L74.8008 88.1999L76.7008 90.4999C76.5008 90.6999 76.3008 90.7999 76.0008 90.8999C75.8008 90.9999 75.5008 90.9999 75.3008 90.9999C74.8008 90.9999 74.5008 90.8999 74.2008 90.5999C74.0008 90.2999 73.8008 89.9999 73.8008 89.5999C73.9008 89.4999 73.9008 89.2999 74.0008 89.0999Z" fill="black"/>
<path d="M86.3008 90.7C86.0008 90.9 85.6008 91 85.1008 91C84.7008 91 84.4008 90.9 84.1008 90.8C83.8008 90.7 83.6008 90.6 83.4008 90.4L83.2008 89.3H82.4008V90.7C82.7008 91 83.1008 91.3 83.5008 91.4C84.0008 91.6 84.5008 91.7 85.0008 91.7C85.8008 91.7 86.5008 91.5 86.9008 91.1C87.4008 90.7 87.6008 90.2 87.6008 89.6C87.6008 89 87.4008 88.6 87.0008 88.2C86.6008 87.8 86.0008 87.5 85.2008 87.3C84.5008 87.1 84.1008 86.9 83.8008 86.7C83.5008 86.5 83.4008 86.2 83.4008 85.9C83.4008 85.5 83.5008 85.2 83.8008 85C84.1008 84.8 84.5008 84.7 85.0008 84.7C85.3008 84.7 85.6008 84.7 85.9008 84.8C86.2008 84.9 86.4008 85 86.5008 85.1L86.7008 86.2H87.5008V85C87.2008 84.7 86.9008 84.5 86.5008 84.3C86.1008 84.1 85.6008 84 85.1008 84C84.3008 84 83.6008 84.2 83.1008 84.6C82.6008 85 82.3008 85.5 82.3008 86.1C82.3008 86.7 82.5008 87.1 83.0008 87.5C83.4008 87.9 84.1008 88.1 84.9008 88.3C85.6008 88.5 86.0008 88.7 86.3008 88.9C86.6008 89.1 86.7008 89.4 86.7008 89.8C86.7008 90.2 86.6008 90.5 86.3008 90.7Z" fill="black"/>
<path d="M88.5996 90.9996V91.6996H91.2996V90.9996L90.4996 90.8996V88.3996H94.1996V90.8996L93.2996 90.9996V91.6996H95.9996V90.9996L95.1996 90.8996V84.9996L95.9996 84.7996V84.0996H95.1996H94.1996H93.2996V84.7996L94.1996 84.9996V87.5996H90.4996V84.9996L91.2996 84.7996V84.0996H88.5996V84.7996L89.4996 84.9996V90.8996L88.5996 90.9996Z" fill="black"/>
<path d="M99.8992 84.0996L97.2992 90.8996L96.6992 90.9996V91.6996H98.8992V90.9996L98.2992 90.8996L98.7992 89.4996H101.799L102.299 90.8996L101.699 90.9996V91.6996H103.899V90.9996L103.299 90.8996L100.699 84.0996H99.8992ZM99.0992 88.6996L100.299 85.4996L101.499 88.6996H99.0992Z" fill="black"/>
<path d="M105.5 84.0996H103.1V84.7996L103.7 84.8996L106.2 91.6996H107.1L109.6 84.8996L110.2 84.7996V84.0996H107.8V84.7996L108.5 84.8996L106.8 89.7996L106.7 90.3996H106.6L106.5 89.7996L104.8 84.8996L105.5 84.7996V84.0996Z" fill="black"/>
<path d="M110.801 90.9996V91.6996H116.701V89.8996H115.801L115.701 90.8996H112.701V88.1996H115.601V87.3996H112.701V84.9996H115.701V85.9996H116.601V84.0996H110.801V84.7996L111.701 84.9996V90.8996L110.801 90.9996Z" fill="black"/>
<path d="M121.699 90.7C121.399 90.9 120.999 91 120.499 91C120.099 91 119.799 90.9 119.499 90.8C119.199 90.7 118.999 90.6 118.799 90.4L118.599 89.3H117.799V90.7C118.099 91 118.499 91.3 118.899 91.4C119.399 91.6 119.899 91.7 120.399 91.7C121.199 91.7 121.899 91.5 122.299 91.1C122.799 90.7 122.999 90.2 122.999 89.6C122.999 89 122.799 88.6 122.399 88.2C121.999 87.8 121.399 87.5 120.599 87.3C119.899 87.1 119.499 86.9 119.199 86.7C118.899 86.5 118.799 86.2 118.799 85.9C118.799 85.5 118.899 85.2 119.199 85C119.499 84.8 119.899 84.7 120.399 84.7C120.699 84.7 120.999 84.7 121.299 84.8C121.599 84.9 121.799 85 121.899 85.1L122.099 86.2H122.899V85C122.599 84.7 122.299 84.5 121.899 84.3C121.499 84.1 120.999 84 120.499 84C119.699 84 118.999 84.2 118.499 84.6C117.999 85 117.699 85.5 117.699 86.1C117.699 86.7 117.899 87.1 118.399 87.5C118.799 87.9 119.499 88.1 120.299 88.3C120.999 88.5 121.399 88.7 121.699 88.9C121.999 89.1 122.099 89.4 122.099 89.8C122.199 90.2 121.999 90.5 121.699 90.7Z" fill="black"/>
<path d="M13.4996 58.8999V59.7999C13.4996 62.0999 12.8996 63.6999 11.5996 64.6999C11.9996 64.8999 12.2996 65.1999 12.5996 65.5999C13.7996 64.6999 14.3996 63.1999 14.3996 61.0999V60.1999C14.3996 58.2999 13.8996 56.7999 12.9996 55.8999C13.2996 56.6999 13.4996 57.6999 13.4996 58.8999Z" fill="black"/>
<path d="M6.70081 67.9998H8.40079C8.50079 67.9998 8.5008 67.9998 8.6008 67.9998C8.3008 67.4998 7.80079 67.2998 7.00079 67.2998H5.80078V73.6998H6.70081V67.9998Z" fill="black"/>
<path d="M14.7008 73.2999V73.1999V71.1999C14.7008 69.2999 14.3008 67.8999 13.3008 66.8999C13.6008 67.7999 13.8008 68.7999 13.8008 69.9999V71.9999C13.8008 76.0999 11.5008 78.3999 7.40079 78.3999H2.80078V78.9999H8.90079C11.8008 78.9999 13.6008 77.8999 14.4008 75.6999L14.7008 73.2999Z" fill="black"/>
<path d="M8.30078 57.9998C8.00078 57.3998 7.6008 57.2998 7.1008 57.2998H5.80078V62.6998H6.70081V57.9998H8.30078Z" fill="black"/>
<path d="M23.0996 73.8999H19.2996L18.5996 78.2999H16.1996L16.0996 78.9999H19.5996L20.2996 74.5999H23.1996L23.0996 73.8999Z" fill="black"/>
<path d="M29.3004 78.3V77.6L25.6004 54.5H24.9004L28.7004 78.3H25.6004L25.7004 79H29.5004L29.4004 78.3H29.3004Z" fill="black"/>
<path d="M21.7004 64.8998L21.1004 61.2998L19.9004 69.4998H21.0004L21.7004 64.8998Z" fill="black"/>
<path d="M35.1004 68.2998H34.3004V78.2998H31.4004V78.9998H35.3004V68.9998H36.6004C36.7004 68.9998 36.7004 68.9998 36.8004 68.9998C36.4004 68.4998 35.8004 68.2998 35.1004 68.2998Z" fill="black"/>
<path d="M35.2008 57.9998H36.8008C36.5008 57.3998 36.1008 57.2998 35.6008 57.2998H34.3008V63.6998H35.2008V57.9998Z" fill="black"/>
<path d="M42.8992 72.1997C42.8992 70.1997 42.4992 68.6997 41.4992 67.6997C41.8992 68.7997 41.9992 69.9997 41.9992 70.9997V74.7997C41.9992 75.8997 41.9992 76.6997 42.3992 77.5997L42.6992 78.3997H39.1992C39.2992 78.5997 39.2992 78.7997 39.3992 79.0997H43.2992C42.8992 78.1997 42.8992 77.2997 42.8992 76.0997V72.1997Z" fill="black"/>
<path d="M42 58.8998V60.7998C42 63.0998 41.4 64.7998 40 65.7998C40.4 66.0998 40.7 66.3998 40.9 66.6998C42.2 65.7998 42.9 64.2998 42.9 61.9998V60.0998C42.9 58.1998 42.4 56.6998 41.5 55.7998C41.8 56.6998 42 57.6998 42 58.8998Z" fill="black"/>
<path d="M49.3004 67.9998H51.0004C51.1004 67.9998 51.1004 67.9998 51.2004 67.9998C50.9004 67.4998 50.4004 67.2998 49.6004 67.2998H48.4004V73.6998H49.3004V67.9998Z" fill="black"/>
<path d="M50.9004 57.9998C50.6004 57.3998 50.2004 57.2998 49.7004 57.2998H48.4004V62.6998H49.3004V57.9998H50.9004Z" fill="black"/>
<path d="M56.0992 58.8999V59.7999C56.0992 62.0999 55.4992 63.6999 54.1992 64.6999C54.5992 64.8999 54.8992 65.1999 55.1992 65.5999C56.3992 64.6999 56.9992 63.1999 56.9992 61.0999V60.1999C56.9992 58.2999 56.4992 56.7999 55.5992 55.8999C55.8992 56.6999 56.0992 57.6999 56.0992 58.8999Z" fill="black"/>
<path d="M56.4004 69.9999V71.9999C56.4004 76.0999 54.1004 78.3999 50.0004 78.3999H45.4004V78.9999H51.5004C55.4004 78.9999 57.4004 76.9999 57.4004 73.1999V71.1999C57.4004 69.2999 57.0004 67.8999 56.0004 66.8999C56.3004 67.6999 56.4004 68.6999 56.4004 69.9999Z" fill="black"/>
<path d="M69.2992 78.3H59.6992V79H70.1992V75.5H69.2992V78.3Z" fill="black"/>
<path d="M68.7996 68.2998V64.7998H67.8996V67.5998H62.5996V73.6998H63.4996V68.2998H68.7996Z" fill="black"/>
<path d="M69.2996 57.3H62.5996V63H63.4996V58H70.1996V54.5H69.2996V57.3Z" fill="black"/>
<path d="M76.4 57.9998H78C77.7 57.3998 77.3 57.2998 76.8 57.2998H75.5V63.6998H76.4V57.9998Z" fill="black"/>
<path d="M84.1004 73.1998C84.0004 72.7998 84.0004 72.3998 84.0004 71.8998V70.8998C83.8004 69.5998 83.4004 68.4998 82.7004 67.7998C83.1004 68.8998 83.2004 70.0998 83.2004 71.0998V74.8998C83.2004 75.9998 83.2004 76.7998 83.6004 77.6998L83.9004 78.4998H80.4004C80.5004 78.6998 80.5004 78.8998 80.6004 79.1998H84.5004C84.1004 78.2998 84.1004 77.3998 84.1004 76.1998V73.1998Z" fill="black"/>
<path d="M83.1992 58.8998V60.7998C83.1992 63.0998 82.5992 64.7998 81.1992 65.7998C81.5992 66.0998 81.8992 66.3998 82.0992 66.6998C83.3992 65.7998 84.0992 64.2998 84.0992 61.9998V60.0998C84.0992 58.1998 83.5992 56.6998 82.6992 55.7998C82.9992 56.6998 83.1992 57.6998 83.1992 58.8998Z" fill="black"/>
<path d="M76.2996 68.2998H75.4996V78.2998H72.5996V78.9998H76.4996V68.9998H77.7996C77.8996 68.9998 77.8996 68.9998 77.9996 68.9998C77.5996 68.4998 76.9996 68.2998 76.2996 68.2998Z" fill="black"/>
<path d="M96.6004 59.0997V60.3997H93.9004V61.0997H97.5004V60.2997C97.5004 58.2997 97.0004 56.6997 96.0004 55.6997C96.4004 56.6997 96.6004 57.7997 96.6004 59.0997Z" fill="black"/>
<path d="M96.7004 71.8999C96.7004 76.1999 94.4004 78.5999 90.4004 78.5999C89.7004 78.5999 89.0004 78.4999 88.4004 78.3999C89.3004 78.9999 90.5004 79.2999 91.9004 79.2999C95.7004 79.2999 97.6004 77.0999 97.6004 73.0999C97.6004 70.7999 96.8004 69.1999 95.7004 67.8999C96.3004 68.9999 96.7004 70.2999 96.7004 71.8999Z" fill="black"/>
<path d="M89.7008 73.9C89.7008 73.7 89.7008 73.5 89.7008 73.3V71.5H88.8008V72C88.8008 73.4 89.2008 73.8 89.7008 73.9Z" fill="black"/>
<path d="M90.4996 57C89.7996 57 89.0996 57.1 89.0996 58.9C89.0996 60.2 89.5996 61.1 90.3996 62.1C90.0996 61.5 89.9996 60.9 89.9996 60.2C89.9996 58.6 90.5996 57.9 91.6996 57.8C91.3996 57.1 90.9996 57 90.4996 57Z" fill="black"/>
<path d="M103.599 54.5H102.699V63.2H103.599V54.5Z" fill="black"/>
<path d="M111 78.3H108V79H111.9V54.5H111V78.3Z" fill="black"/>
<path d="M106.001 67.7998H102.701V78.2998H99.8008V78.9998H103.601V68.4998H106.001V67.7998Z" fill="black"/>
<path d="M124.599 55.7998C124.999 56.6998 125.199 57.8998 125.199 59.1998V71.9998C125.199 76.2998 122.899 78.6998 118.799 78.6998C118.099 78.6998 117.399 78.5998 116.699 78.4998C117.599 79.0998 118.799 79.3998 120.199 79.3998C123.999 79.3998 126.099 77.1998 126.099 73.1998V60.3998C126.099 58.3998 125.599 56.7998 124.599 55.7998Z" fill="black"/>
<path d="M118.3 73.4V60.1C118.3 58.5 119 57.8 120.1 57.7C119.8 57.1 119.4 57 118.8 57C118 57 117.4 57.2 117.4 58.9V72.2C117.4 73.5 117.8 73.9 118.3 74C118.3 73.8 118.3 73.6 118.3 73.4Z" fill="black"/>
<path d="M138.599 56C138.999 56.9 139.199 58 139.199 59.3V62.5C139.199 66.8 136.999 69.1 132.899 69.1H131.599V78.3H128.699V79H132.599V69.8H134.399C135.999 69.8 137.299 69.4 138.299 68.7C139.599 67.7 140.199 66 140.199 63.8V60.6C140.099 58.5 139.599 57 138.599 56Z" fill="black"/>
<path d="M132.5 57.9998H134.1C133.9 57.3998 133.4 57.2998 132.9 57.2998H131.6V64.4998H132.5V57.9998Z" fill="black"/>
<path d="M7.40039 77.7998C11.3004 77.7998 13.3004 75.7998 13.3004 71.9998V69.9998C13.3004 67.3998 12.5004 65.4998 10.4004 64.6998C12.1004 63.8998 12.9004 62.2998 12.9004 59.7998V58.8998C12.9004 55.0998 11.2004 53.2998 7.20041 53.2998H1.40039V77.7998H7.40039ZM9.1004 59.2998V60.6998C9.1004 62.6998 8.20038 63.2998 6.80038 63.2998H5.30038V56.7998H7.20041C8.50041 56.7998 9.1004 57.4998 9.1004 59.2998ZM5.20041 66.6998H6.90039C8.70039 66.6998 9.40039 67.3998 9.40039 69.6998V71.7998C9.40039 73.5998 8.70039 74.1998 7.40039 74.1998H5.20041V66.6998Z" fill="black"/>
<path d="M28.0992 77.7998L24.1992 53.2998H18.5992L14.6992 77.7998H18.1992L18.8992 73.2998H23.5992L24.2992 77.7998H28.0992ZM21.0992 57.5998L22.9992 69.9998H19.2992L21.0992 57.5998Z" fill="black"/>
<path d="M38.9004 65.7998C40.6004 64.9998 41.4004 63.2998 41.4004 60.7998V58.8998C41.4004 55.0998 39.7004 53.2998 35.7004 53.2998H29.9004V77.7998H33.8004V67.7998H35.1004C36.9004 67.7998 37.6004 68.5998 37.6004 70.8998V74.7998C37.6004 76.7998 37.7004 77.1998 38.0004 77.7998H41.9004C41.5004 76.8998 41.5004 75.9998 41.5004 74.7998V70.9998C41.4004 68.4998 40.8004 66.5998 38.9004 65.7998ZM33.7004 64.2998V56.7998H35.6004C37.0004 56.7998 37.6004 57.5998 37.6004 59.2998V61.6998C37.6004 63.6998 36.7004 64.2998 35.3004 64.2998H33.7004Z" fill="black"/>
<path d="M50 77.7998C53.9 77.7998 55.9 75.7998 55.9 71.9998V69.9998C55.9 67.3998 55.1 65.4998 53 64.6998C54.7 63.8998 55.5 62.2998 55.5 59.7998V58.8998C55.5 55.0998 53.8 53.2998 49.8 53.2998H44V77.7998H50ZM51.6 59.2998V60.6998C51.6 62.6998 50.7 63.2998 49.3 63.2998H47.8V56.7998H49.7C51.1 56.7998 51.6 57.4998 51.6 59.2998ZM47.8 66.6998H49.5C51.3 66.6998 52 67.3998 52 69.6998V71.7998C52 73.5998 51.3 74.1998 50 74.1998H47.8V66.6998Z" fill="black"/>
<path d="M62.0992 74.2997V67.0997H67.3992V63.5997H62.0992V56.7997H68.6992V53.1997H58.1992V77.7997H68.6992V74.2997H62.0992Z" fill="black"/>
<path d="M80.0996 65.7998C81.7996 64.9998 82.5996 63.2998 82.5996 60.7998V58.8998C82.5996 55.0998 80.8996 53.2998 76.8996 53.2998H71.0996V77.7998H74.9996V67.7998H76.2996C78.0996 67.7998 78.7996 68.5998 78.7996 70.8998V74.7998C78.7996 76.7998 78.8996 77.1998 79.1996 77.7998H83.0996C82.6996 76.8998 82.6996 75.9998 82.6996 74.7998V70.9998C82.6996 68.4998 81.9996 66.5998 80.0996 65.7998ZM74.9996 64.2998V56.7998H76.8996C78.2996 56.7998 78.8996 57.5998 78.8996 59.2998V61.6998C78.8996 63.6998 77.9996 64.2998 76.5996 64.2998H74.9996Z" fill="black"/>
<path d="M96.1 71.8999C96.1 64.8999 88.6 63.8999 88.6 58.8999C88.6 57.0999 89.3 56.4999 90.5 56.4999C91.7 56.4999 92.4 57.1999 92.4 58.8999V59.8999H96V59.0999C96 55.1999 94.1 52.8999 90.3 52.8999C86.5 52.8999 84.6 55.0999 84.6 59.0999C84.6 66.0999 92.1 67.0999 92.1 72.0999C92.1 73.8999 91.3 74.4999 90.1 74.4999C88.9 74.4999 88.1 73.8999 88.1 72.0999V70.2999H84.5V71.7999C84.5 75.6999 86.5 77.9999 90.2 77.9999C94.1 78.0999 96.1 75.7999 96.1 71.8999Z" fill="black"/>
<path d="M106.601 63.7997H102.201V53.1997H98.3008V77.7997H102.201V67.2997H106.601V77.7997H110.501V53.1997H106.601V63.7997Z" fill="black"/>
<path d="M124.7 71.8999V59.0999C124.7 55.1999 122.6 52.8999 118.8 52.8999C115 52.8999 112.9 55.0999 112.9 59.0999V71.8999C112.9 75.7999 115 78.0999 118.8 78.0999C122.6 78.0999 124.7 75.7999 124.7 71.8999ZM116.8 72.0999V58.8999C116.8 57.0999 117.6 56.4999 118.8 56.4999C120 56.4999 120.8 57.1999 120.8 58.8999V72.1999C120.8 73.9999 120 74.5999 118.8 74.5999C117.6 74.5999 116.8 73.8999 116.8 72.0999Z" fill="black"/>
<path d="M132.8 53.1997H127.1V77.6997H131V68.4997H132.8C136.7 68.4997 138.5 66.3997 138.5 62.3997V59.1997C138.6 55.3997 136.7 53.1997 132.8 53.1997ZM131 56.7997H132.8C134 56.7997 134.7 57.3997 134.7 59.0997V62.7997C134.7 64.5997 134 65.0997 132.8 65.0997H131V56.7997Z" fill="black"/>
<path d="M138.2 49.6998C138.6 49.6998 138.9 49.3998 138.9 48.9998C138.9 48.5998 138.6 48.2998 138.2 48.2998H79.3H78.1C78.3 47.7998 78.5 47.2998 78.7 46.7998C80.5 42.5998 82.5 37.8998 75.9 32.3998C76.1 32.1998 76.3 31.9998 76.3 31.7998V30.4998C76.3 30.3998 76.3 30.2998 76.2 30.1998C80.2 26.3998 83.2 21.2998 84.6 15.8998C85 14.4998 85.3 12.7998 84.8 11.1998C84.7 10.8998 84.6 10.6998 84.6 10.3998C84.6 10.1998 84.5 10.0998 84.5 9.89984C84.4 9.59984 84.3 9.29984 84 8.99984C83.9 8.89984 83.8 8.89985 83.7 8.79985C83.6 8.79985 83.5 8.69984 83.5 8.69984C83.4 8.39984 83.3 8.09985 83.3 7.79985C83.2 7.29985 83.2 6.89984 82.9 6.39984C82.6 5.89984 82.2 5.49985 81.8 5.19984C81.5 4.89984 81 4.69985 80.6 4.79985H80.5C80.3 4.89985 80.1 4.89984 80 4.89984C80 4.49984 79.9 3.89984 79.3 3.69984C79.2 3.69984 79.1 3.59985 79 3.59985C78.9 3.59985 78.8 3.59985 78.8 3.59985C78.7 3.59985 78.7 3.49984 78.6 3.39984C78.6 3.29984 78.5 3.29984 78.5 3.19984C78.2 2.79984 77.7 2.69984 77.3 2.69984C77.1 2.69984 77 2.59985 76.9 2.59985C76.5 2.49985 76.2 2.29984 75.8 1.99984C75.6 1.89984 75.5 1.79984 75.3 1.69984C74.5 1.29984 73.8 1.19984 73.3 1.39984C73.2 1.39984 73.1 1.49984 73 1.49984C72.9 1.59984 72.7 1.59985 72.6 1.59985C72.5 1.59985 72.3 1.49984 72.1 1.39984L72 1.29985C71.2 0.799845 70.2 0.799845 69.4 1.09985C68.6 0.699845 67.6 0.799845 66.8 1.29985L66.7 1.39984C66.5 1.49984 66.4 1.59985 66.2 1.59985C66.1 1.59985 66 1.49984 65.8 1.49984C65.7 1.49984 65.6 1.39984 65.5 1.39984C64.9 1.19984 64.2 1.29984 63.5 1.69984C63.3 1.79984 63.2 1.89984 63 1.99984C62.6 2.19984 62.3 2.49985 61.9 2.59985C61.8 2.59985 61.6 2.69984 61.5 2.69984C61.1 2.79984 60.6 2.89984 60.3 3.19984C60.3 3.29984 60.2 3.29984 60.2 3.39984C60.1 3.49984 60.1 3.59985 60 3.59985C60 3.59985 59.9 3.59985 59.8 3.59985C59.7 3.59985 59.6 3.59984 59.5 3.69984C58.9 3.89984 58.8 4.49984 58.8 4.89984C58.7 4.89984 58.5 4.89985 58.3 4.79985H58.2C57.7 4.69985 57.3 4.89984 57 5.19984C56.6 5.49985 56.2 5.89984 56 6.39984C55.8 6.79984 55.7 7.29985 55.6 7.79985C55.5 8.09985 55.5 8.49985 55.4 8.69984C55.4 8.69984 55.3 8.79985 55.2 8.79985C55.1 8.79985 55 8.89984 54.9 8.99984C54.6 9.19984 54.5 9.59984 54.4 9.79984C54.4 9.99984 54.3 10.0998 54.3 10.2998C54.2 10.5998 54.2 10.8998 54.1 11.0998C53.6 12.6998 53.9 14.3998 54.3 15.7998C55.7 21.1998 58.7 26.1998 62.7 30.0998C62.7 30.1998 62.6 30.2998 62.6 30.3998V31.6998C62.6 31.8998 62.7 32.0998 63 32.2998C56.4 37.7998 58.4 42.4998 60.2 46.6998C60.4 47.1998 60.6 47.6998 60.8 48.1998H59.6H0.700012C0.300012 48.1998 0 48.4998 0 48.8998C0 49.2998 0.300012 49.5998 0.700012 49.5998H138.2V49.6998ZM77 40.0998C76.9 39.0998 76.6 38.1998 76.1 37.2998C77.5 38.8998 77.7 41.2998 76.7 43.0998C77 42.0998 77 41.0998 77 40.0998ZM77.5 39.4998C77.1 37.8998 76.3 36.3998 75.1 35.1998C76.5 36.1998 77.5 37.7998 77.9 39.3998C78.3 41.0998 78.1 42.7998 77.2 44.3998C77.8 42.7998 77.9 41.0998 77.5 39.4998ZM76.5 47.0998C76.8 46.1998 77.2 45.2998 77.6 44.2998C78 43.3998 78.2 42.4998 78.4 41.4998C78.5 40.9998 78.5 40.4998 78.4 40.0998C78.4 39.8998 78.3 39.5998 78.3 39.3998C78.2 39.1998 78.2 38.8998 78.1 38.6998C77.8 37.7998 77.3 36.8998 76.7 36.0998C76.4 35.6998 76.1 35.2998 75.7 34.8998C75.3 34.4998 75 34.1998 74.6 33.8998C75 34.1998 75.4 34.4998 75.8 34.7998C76.2 35.0998 76.6 35.4998 76.9 35.8998C77.6 36.6998 78.1 37.5998 78.5 38.4998C78.5 38.5998 78.6 38.6998 78.6 38.8998C78.6 38.9998 78.7 39.0998 78.7 39.2998C78.8 39.5998 78.8 39.7998 78.8 40.0998C78.9 40.5998 78.9 41.0998 78.8 41.5998C78.7 42.5998 78.4 43.5998 78 44.4998C77.6 45.3998 77.2 46.2998 76.9 47.1998C76.8 47.4998 76.6 47.8998 76.5 48.1998H76C76.2 47.8998 76.3 47.4998 76.5 47.0998ZM67.9 32.4998C67.4 32.4998 67 32.3998 67 32.3998C65.7 32.1998 64.5 31.8998 63.3 31.4998C64.5 31.8998 65.7 32.0998 66.9 32.1998C66.9 32.1998 67.4 32.1998 67.9 32.1998C68.4 32.1998 68.9 32.1998 68.9 32.1998C68.9 32.1998 68.4 32.1998 68 32.0998C67.5 32.0998 67.1 31.9998 67.1 31.9998C65.8 31.7998 64.6 31.4998 63.4 31.0998C64.6 31.3998 65.8 31.6998 67 31.7998C67 31.7998 67.5 31.7998 68 31.8998C68.5 31.8998 69 31.8998 69 31.8998C69 31.8998 68.5 31.7998 68.1 31.7998C67.6 31.7998 67.2 31.6998 67.2 31.6998C65.9 31.4998 64.7 31.1998 63.5 30.7998V30.6998C65 31.1998 67.5 31.4998 69.7 31.4998C72 31.4998 74.4 31.1998 75.9 30.6998V30.7998C75.1 31.0998 74.2 31.2998 73.4 31.3998C73.4 31.3998 73.1 31.4998 72.7 31.4998C72.4 31.5998 72 31.5998 72 31.5998C72 31.5998 72.3 31.5998 72.6 31.5998C72.9 31.5998 73.2 31.5998 73.2 31.5998C74.1 31.4998 74.9 31.3998 75.8 31.1998V31.2998C75 31.5998 74.1 31.7998 73.3 31.8998C73.3 31.8998 73 31.9998 72.6 31.9998C72.3 32.0998 71.9 32.0998 71.9 32.0998C71.9 32.0998 72.2 32.0998 72.5 32.0998C72.8 32.0998 73.1 32.0998 73.1 32.0998C74 31.9998 74.8 31.8998 75.7 31.6998V31.7998C74.9 32.0998 74 32.2998 73.2 32.3998C73.2 32.3998 72.9 32.4998 72.5 32.4998C72.2 32.5998 71.8 32.5998 71.8 32.5998C71.8 32.5998 72.1 32.5998 72.4 32.5998C72.7 32.5998 73 32.5998 73 32.5998C73.8 32.4998 74.6 32.3998 75.4 32.1998C74.8 32.5998 72.4 32.9998 69.3 32.9998C65.9 32.9998 63.4 32.4998 63.1 32.0998C64.3 32.4998 65.5 32.6998 66.7 32.7998C66.7 32.7998 67.2 32.7998 67.7 32.7998C68.2 32.7998 68.7 32.7998 68.7 32.6998C68.8 32.5998 68.3 32.4998 67.9 32.4998ZM78.2 46.5998C78 47.1998 77.7 47.6998 77.5 48.2998H77.2C77.4 47.8998 77.5 47.4998 77.7 47.0998L77.9 46.6998C78.5 45.2998 79.2 43.8998 79.5 42.3998C80.3 38.2998 77.8 35.1998 75.1 32.7998C75.2 32.7998 75.3 32.6998 75.4 32.6998C81.9 38.0998 80 42.3998 78.2 46.5998ZM54.9 15.7998C54.5 14.3998 54.2 12.8998 54.7 11.4998C54.8 11.1998 54.9 10.8998 54.9 10.5998C54.9 10.3998 55 10.2998 55 10.0998C55.1 9.89985 55.1 9.69985 55.2 9.59984C55.2 9.59984 55.3 9.49984 55.4 9.49984C55.6 9.39984 55.8 9.29984 55.9 8.99984C56 8.69984 56.1 8.29984 56.1 7.89984C56.2 7.49984 56.2 7.09984 56.4 6.69984C56.6 6.29984 57 5.89985 57.3 5.59985C57.5 5.39985 57.8 5.29985 57.9 5.29985H58C58.3 5.39985 58.7 5.49985 59.1 5.29985L59.3 5.19984V4.99985C59.3 4.59984 59.4 4.19985 59.6 4.09985C59.6 4.09985 59.7 4.09985 59.8 4.09985C59.9 4.09985 60.1 4.09984 60.2 3.99985C60.4 3.89985 60.5 3.79985 60.6 3.59985L60.7 3.49985C60.9 3.29984 61.2 3.19985 61.6 3.09985C61.8 3.09985 61.9 2.99985 62.1 2.99985C62.6 2.89985 63 2.59984 63.3 2.39984C63.4 2.29984 63.6 2.19985 63.7 2.09985C64.1 1.89985 64.7 1.59985 65.2 1.79985C65.3 1.79985 65.3 1.89984 65.4 1.89984C65.6 1.99984 65.8 2.09985 66 2.09985C66.3 2.09985 66.6 1.89985 66.8 1.79985L66.9 1.69984C67.5 1.29984 68.3 1.29985 69 1.59985H69.1H69.4H69.5C70.2 1.29985 71 1.29984 71.6 1.69984C71.6 1.69984 71.7 1.69985 71.7 1.79985C71.9 1.89985 72.2 2.09985 72.5 2.09985C72.7 2.09985 72.9 1.99984 73.1 1.89984C73.2 1.89984 73.2 1.79985 73.3 1.79985C73.8 1.59985 74.4 1.79985 74.8 2.09985C75 2.19985 75.1 2.29984 75.2 2.39984C75.6 2.59984 76 2.89985 76.4 2.99985C76.6 2.99985 76.7 3.09985 76.9 3.09985C77.3 3.19985 77.6 3.19985 77.8 3.49985L77.9 3.59985C78 3.69985 78.1 3.89985 78.3 3.99985C78.4 4.09984 78.6 4.09985 78.7 4.09985C78.8 4.09985 78.8 4.09985 78.9 4.09985C79.1 4.19985 79.2 4.59984 79.2 4.99985V5.19984L79.4 5.29985C79.8 5.49985 80.2 5.39985 80.5 5.29985H80.6C80.8 5.19985 81.1 5.39985 81.2 5.59985C81.5 5.89985 81.9 6.29984 82.1 6.69984C82.3 6.99985 82.3 7.39984 82.4 7.89984C82.5 8.29984 82.5 8.59984 82.6 8.99984C82.7 9.29984 83 9.39984 83.1 9.49984C83.2 9.49984 83.2 9.59984 83.3 9.59984C83.4 9.69985 83.5 9.89985 83.5 10.0998C83.5 10.1998 83.6 10.3998 83.6 10.5998C83.7 10.8998 83.7 11.1998 83.8 11.4998C84.3 12.8998 84 14.4998 83.6 15.7998C82.2 21.0998 79.2 26.0998 75.2 29.8998H75.1C73.6 30.2998 71.2 30.5998 69 30.5998C66.8 30.5998 64.4 30.2998 62.9 29.8998H62.8C59.3 26.1998 56.3 21.1998 54.9 15.7998ZM60.8 46.5998C59 42.3998 57.1 38.0998 63.7 32.7998C65.5 33.4998 69.4 33.4998 69.6 33.4998C69.8 33.4998 71.9 33.4998 73.7 33.1998C74.1 33.5998 74.6 33.9998 75 34.3998C72.9 34.8998 70 34.8998 69.6 34.8998C69.2 34.8998 66.2 34.8998 64.1 34.3998C59.1 38.7998 60.5 41.9998 62.2 46.0998C62.5 46.7998 62.8 47.5998 63.1 48.3998H63C62.8 47.9998 62.6 47.4998 62.4 47.0998C62.5 47.4998 62.7 47.9998 62.8 48.3998H62.4C61.8 46.7998 61 45.3998 60.5 43.8998C60.2 42.9998 59.9 42.0998 59.8 41.0998C59.7 40.5998 59.7 40.0998 59.8 39.6998C59.8 39.1998 60 38.7998 60.1 38.2998C60.2 37.7998 60.5 37.3998 60.7 36.9998C60.9 36.5998 61.2 36.1998 61.5 35.7998C62.1 34.9998 62.8 34.2998 63.6 33.5998C62.8 34.1998 62 34.8998 61.4 35.6998C61.1 36.0998 60.8 36.4998 60.5 36.8998C60.2 37.2998 60 37.7998 59.8 38.2998C59.6 38.7998 59.5 39.2998 59.4 39.7998C59.3 40.2998 59.3 40.7998 59.4 41.2998C59.5 42.2998 59.8 43.2998 60.1 44.1998C60.7 45.6998 61.5 47.0998 62.1 48.4998H61.6C61.3 47.7998 61 47.1998 60.8 46.5998Z" fill="black"/>
<path d="M123.499 94.8999H15.3992C14.9992 94.8999 14.6992 95.1999 14.6992 95.5999C14.6992 95.9999 14.9992 96.2999 15.3992 96.2999H123.499C123.899 96.2999 124.199 95.9999 124.199 95.5999C124.199 95.1999 123.899 94.8999 123.499 94.8999Z" fill="black"/>
<path d="M123.5 97.5996H15.4004C15.1004 97.5996 14.9004 97.7996 14.9004 98.0996C14.9004 98.3996 15.1004 98.5996 15.4004 98.5996H123.5C123.8 98.5996 124 98.3996 124 98.0996C124 97.7996 123.8 97.5996 123.5 97.5996Z" fill="black"/>
</svg>
