<svg width="30" height="30" viewBox="0 0 30 30" fill="none" xmlns="http://www.w3.org/2000/svg">
<g clip-path="url(#clip0)">
<path d="M26.8898 3.90733H25.0065V2.41475C25.0065 1.98496 24.6549 1.6333 24.2251 1.6333C23.7953 1.6333 23.4436 1.98496 23.4436 2.41475V3.90733H15.7854V2.41475C15.7854 1.98496 15.4337 1.6333 15.0039 1.6333C14.5741 1.6333 14.2225 1.98496 14.2225 2.41475V3.90733H6.48607V2.41475C6.48607 1.98496 6.13442 1.6333 5.70462 1.6333C5.27482 1.6333 4.92316 1.98496 4.92316 2.41475V3.90733H3.118C1.3988 3.90733 0 5.35302 0 7.07222V25.241C0 26.968 1.39099 28.3668 3.118 28.3668H26.882C28.609 28.3668 30 26.968 30 25.2488V7.07222C30.0078 5.35302 28.609 3.90733 26.8898 3.90733ZM28.4449 25.241C28.4449 26.1006 27.7573 26.7961 26.8977 26.8039H26.8898H3.118C2.2584 26.8039 1.56291 26.1084 1.56291 25.2488V25.241V7.07222C1.56291 6.20481 2.2584 5.47024 3.118 5.47024H4.92316V6.60335C4.92316 7.03315 5.27482 7.3848 5.70462 7.3848C6.13442 7.3848 6.48607 7.03315 6.48607 6.60335V5.47024H14.2225V6.60335C14.2225 7.03315 14.5741 7.3848 15.0039 7.3848C15.4337 7.3848 15.7854 7.03315 15.7854 6.60335V5.47024H23.4436V6.60335C23.4436 7.03315 23.7953 7.3848 24.2251 7.3848C24.6549 7.3848 25.0065 7.03315 25.0065 6.60335V5.47024H26.8898C27.7573 5.47024 28.4449 6.21262 28.4449 7.07222V25.241Z" fill="black"/>
<path d="M12.9478 10.5498H11.5803C11.1505 10.5498 10.7988 10.9015 10.7988 11.3313C10.7988 11.7611 11.1505 12.1127 11.5803 12.1127H12.9478C13.3776 12.1127 13.7293 11.7611 13.7293 11.3313C13.7293 10.9015 13.3776 10.5498 12.9478 10.5498Z" fill="black"/>
<path d="M18.3873 10.5498H17.0197C16.5899 10.5498 16.2383 10.9015 16.2383 11.3313C16.2383 11.7611 16.5899 12.1127 17.0197 12.1127H18.3873C18.8171 12.1127 19.1687 11.7611 19.1687 11.3313C19.1687 10.9015 18.8249 10.5498 18.3873 10.5498Z" fill="black"/>
<path d="M23.8736 10.5498H22.5061C22.0763 10.5498 21.7246 10.9015 21.7246 11.3313C21.7246 11.7611 22.0763 12.1127 22.5061 12.1127H23.8736C24.3034 12.1127 24.6551 11.7611 24.6551 11.3313C24.6551 10.9015 24.3034 10.5498 23.8736 10.5498Z" fill="black"/>
<path d="M12.9478 15.9419H11.5803C11.1505 15.9419 10.7988 16.2935 10.7988 16.7233C10.7988 17.1531 11.1505 17.5048 11.5803 17.5048H12.9478C13.3776 17.5048 13.7293 17.1531 13.7293 16.7233C13.7293 16.2935 13.3776 15.9419 12.9478 15.9419Z" fill="black"/>
<path d="M7.47126 15.9419H6.09591C5.66611 15.9419 5.31445 16.2935 5.31445 16.7233C5.31445 17.1531 5.66611 17.5048 6.09591 17.5048H7.46345C7.89325 17.5048 8.2449 17.1531 8.2449 16.7233C8.2449 16.2935 7.90106 15.9419 7.47126 15.9419Z" fill="black"/>
<path d="M18.3873 15.9419H17.0197C16.5899 15.9419 16.2383 16.2935 16.2383 16.7233C16.2383 17.1531 16.5899 17.5048 17.0197 17.5048H18.3873C18.8171 17.5048 19.1687 17.1531 19.1687 16.7233C19.1687 16.2935 18.8249 15.9419 18.3873 15.9419Z" fill="black"/>
<path d="M23.8736 15.9419H22.5061C22.0763 15.9419 21.7246 16.2935 21.7246 16.7233C21.7246 17.1531 22.0763 17.5048 22.5061 17.5048H23.8736C24.3034 17.5048 24.6551 17.1531 24.6551 16.7233C24.6551 16.2935 24.3034 15.9419 23.8736 15.9419Z" fill="black"/>
<path d="M12.9478 21.2554H11.5803C11.1505 21.2554 10.7988 21.607 10.7988 22.0368C10.7988 22.4666 11.1505 22.8183 11.5803 22.8183H12.9478C13.3776 22.8183 13.7293 22.4666 13.7293 22.0368C13.7293 21.607 13.3776 21.2554 12.9478 21.2554Z" fill="black"/>
<path d="M7.47126 21.2554H6.09591C5.66611 21.2554 5.31445 21.607 5.31445 22.0368C5.31445 22.4666 5.66611 22.8183 6.09591 22.8183H7.46345C7.89325 22.8183 8.2449 22.4666 8.2449 22.0368C8.2449 21.607 7.90106 21.2554 7.47126 21.2554Z" fill="black"/>
<path d="M18.3873 21.2554H17.0197C16.5899 21.2554 16.2383 21.607 16.2383 22.0368C16.2383 22.4666 16.5899 22.8183 17.0197 22.8183H18.3873C18.8171 22.8183 19.1687 22.4666 19.1687 22.0368C19.1687 21.607 18.8249 21.2554 18.3873 21.2554Z" fill="black"/>
</g>
<defs>
<clipPath id="clip0">
<rect width="30" height="30" fill="white"/>
</clipPath>
</defs>
</svg>
