<svg width="28" height="28" viewBox="0 0 28 28" fill="none" xmlns="http://www.w3.org/2000/svg">
<g clip-path="url(#clip0)">
<path d="M19.4942 0H7.94817C6.84317 0 5.95117 0.896 5.95117 1.999V25.445C5.95117 26.547 6.84317 27.442 7.94817 27.442H19.4942C20.5972 27.442 21.4912 26.547 21.4912 25.445V1.999C21.4912 0.896 20.5972 0 19.4942 0ZM10.8722 1.214H16.5722C16.7162 1.214 16.8332 1.429 16.8332 1.695C16.8332 1.961 16.7162 2.177 16.5722 2.177H10.8722C10.7272 2.177 10.6122 1.961 10.6122 1.695C10.6122 1.429 10.7272 1.214 10.8722 1.214ZM13.7222 25.469C13.0192 25.469 12.4472 24.897 12.4472 24.193C12.4472 23.489 13.0192 22.919 13.7222 22.919C14.4232 22.919 14.9952 23.489 14.9952 24.193C14.9952 24.897 14.4232 25.469 13.7222 25.469ZM19.9952 21.1H7.44817V3.373H19.9952V21.1Z" fill="white"/>
</g>
<defs>
<clipPath id="clip0">
<rect width="27.442" height="27.442" fill="white"/>
</clipPath>
</defs>
</svg>
