<svg width="30" height="30" viewBox="0 0 30 30" fill="none" xmlns="http://www.w3.org/2000/svg">
<path d="M29.1421 4.10162C28.7008 3.65953 27.9847 3.65877 27.5434 4.09974L13.9794 17.628L9.08548 12.3128C8.66261 11.8538 7.94765 11.824 7.48787 12.2468C7.02843 12.6697 6.99902 13.385 7.42189 13.8444L13.1129 20.0249C13.3213 20.2515 13.613 20.383 13.9205 20.3894C13.9288 20.3897 13.9368 20.3897 13.9447 20.3897C14.2436 20.3897 14.5311 20.271 14.7429 20.06L29.1399 5.7007C29.5823 5.25978 29.5831 4.54371 29.1421 4.10162Z" fill="#282828"/>
<path d="M28.8693 13.8693C28.2448 13.8693 27.7387 14.3754 27.7387 15C27.7387 22.0244 22.0244 27.7387 15 27.7387C7.97602 27.7387 2.26131 22.0244 2.26131 15C2.26131 7.97602 7.97602 2.26131 15 2.26131C15.6245 2.26131 16.1307 1.75518 16.1307 1.13068C16.1307 0.506133 15.6245 0 15 0C6.72891 0 0 6.72891 0 15C0 23.2707 6.72891 30 15 30C23.2707 30 30 23.2707 30 15C30 14.3755 29.4939 13.8693 28.8693 13.8693Z" fill="#282828"/>
</svg>
