<svg width="30" height="30" viewBox="0 0 30 30" fill="none" xmlns="http://www.w3.org/2000/svg">
<path d="M27.0122 23.798C27.6867 23.2838 28.125 22.4742 28.125 21.5625C28.125 20.1717 27.1092 19.0167 25.7812 18.7922V18.2812C25.7812 16.9889 24.7298 15.9375 23.4375 15.9375H15.4688V14.2294C15.7219 14.422 16.0261 14.5312 16.3495 14.5312C17.1389 14.5312 17.7797 13.9022 17.8073 13.1198C18.5723 13.0927 19.1864 12.4786 19.2136 11.7136C19.9786 11.6864 20.5927 11.0723 20.6198 10.3073C21.4022 10.2797 22.0312 9.63844 22.0312 8.84953C22.0312 8.45859 21.8789 8.09109 21.6028 7.815L21.5053 7.7175C22.1494 6.92719 22.5 5.94844 22.5 4.91484C22.5 2.46328 20.5055 0.46875 18.0539 0.46875C16.9069 0.46875 15.8292 0.90375 15 1.68938C14.1708 0.90375 13.0931 0.46875 11.9461 0.46875C9.49453 0.46875 7.5 2.46328 7.5 4.91484C7.5 6.06656 7.93828 7.14891 8.73047 7.97953C8.54344 8.23078 8.4375 8.53078 8.4375 8.84953C8.4375 9.63891 9.06656 10.2797 9.84891 10.3073C9.87609 11.0723 10.4902 11.6864 11.2552 11.7136C11.2823 12.4786 11.8964 13.0927 12.6614 13.1198C12.6891 13.9022 13.3303 14.5312 14.1192 14.5312C14.2617 14.5312 14.3986 14.5045 14.5312 14.4656V15.9375H6.5625C5.27016 15.9375 4.21875 16.9889 4.21875 18.2812V18.7922C2.89078 19.0167 1.875 20.1717 1.875 21.5625C1.875 22.4742 2.31328 23.2838 2.98781 23.798C1.50656 24.4533 0.46875 25.935 0.46875 27.6562V29.5312H8.90625V27.6562C8.90625 25.935 7.86844 24.4533 6.38719 23.798C7.06172 23.2838 7.5 22.4742 7.5 21.5625C7.5 20.1717 6.48422 19.0167 5.15625 18.7922V18.2812C5.15625 17.5059 5.78719 16.875 6.5625 16.875H14.5312V18.7922C13.2033 19.0163 12.1875 20.1712 12.1875 21.5625C12.1875 22.4742 12.6258 23.2838 13.3003 23.798C11.8191 24.4533 10.7812 25.935 10.7812 27.6562V29.5312H19.2188V27.6562C19.2188 25.935 18.1809 24.4533 16.6997 23.798C17.3742 23.2838 17.8125 22.4742 17.8125 21.5625C17.8125 20.1717 16.7967 19.0167 15.4688 18.7922V16.875H23.4375C24.2128 16.875 24.8438 17.5059 24.8438 18.2812V18.7922C23.5158 19.0163 22.5 20.1712 22.5 21.5625C22.5 22.4742 22.9383 23.2838 23.6128 23.798C22.1316 24.4533 21.0938 25.935 21.0938 27.6562V29.5312H29.5312V27.6562C29.5312 25.935 28.4934 24.4533 27.0122 23.798ZM18.0539 1.40625C19.9884 1.40625 21.5625 2.98031 21.5625 4.91484C21.5625 5.69719 21.3052 6.43828 20.8359 7.04766L18.6806 4.89234C18.8203 4.78734 18.9558 4.67578 19.0819 4.55016L18.4191 3.88734C17.9025 4.40344 17.2167 4.6875 16.4864 4.6875H15.7434L14.9433 5.48766C14.8547 5.57625 14.7366 5.625 14.6114 5.625H12.8503C12.7434 5.625 12.6562 5.53781 12.6562 5.43094C12.6562 5.37984 12.6769 5.32969 12.713 5.29359L15.5728 2.43375C16.2356 1.77141 17.1164 1.40625 18.0539 1.40625ZM11.9461 1.40625C12.8405 1.40625 13.6814 1.74187 14.3325 2.34797L12.0497 4.63078C11.8364 4.84406 11.7188 5.12859 11.7188 5.43094C11.7188 6.05484 12.2264 6.5625 12.8503 6.5625H14.6114C14.9869 6.5625 15.3403 6.41625 15.6061 6.15047L16.1316 5.625H16.4864C16.9547 5.625 17.4084 5.53547 17.8313 5.36906L20.94 8.47781C21.0389 8.57719 21.0938 8.70891 21.0938 8.84953C21.0938 9.13922 20.858 9.375 20.5683 9.375C20.4277 9.375 20.2959 9.32016 20.1966 9.22125L19.0814 8.10609L18.4186 8.76891L19.5338 9.88406C19.6327 9.98344 19.6875 10.1152 19.6875 10.2558C19.6875 10.5455 19.4517 10.7812 19.162 10.7812C19.0214 10.7812 18.8897 10.7264 18.7903 10.6275L17.6752 9.51234L17.0123 10.1752L18.1275 11.2903C18.2264 11.3897 18.2812 11.5214 18.2812 11.662C18.2812 11.9517 18.0455 12.1875 17.7558 12.1875C17.6152 12.1875 17.4834 12.1327 17.3841 12.0338L16.2689 10.9186L15.6061 11.5814L16.7213 12.6966C16.8202 12.7959 16.875 12.9277 16.875 13.0683C16.875 13.358 16.6392 13.5938 16.3495 13.5938C16.2089 13.5938 16.0772 13.5389 15.9778 13.44L15.8212 13.2834C15.8967 13.1053 15.9375 12.9127 15.9375 12.713C15.9375 11.9236 15.3084 11.2828 14.5261 11.2552C14.4989 10.4902 13.8848 9.87609 13.1198 9.84891C13.0927 9.08391 12.4786 8.46984 11.7136 8.44266C11.6859 7.66031 11.0447 7.03125 10.2558 7.03125C9.94031 7.03125 9.64313 7.13438 9.39422 7.31766C8.77828 6.66422 8.4375 5.81672 8.4375 4.91484C8.4375 2.98031 10.0116 1.40625 11.9461 1.40625ZM9.375 8.84953C9.375 8.70891 9.42984 8.57719 9.52875 8.47781L9.88406 8.1225C9.98344 8.02359 10.1152 7.96875 10.2558 7.96875C10.5455 7.96875 10.7812 8.20453 10.7812 8.49422C10.7812 8.63484 10.7264 8.76656 10.6275 8.86594L10.2722 9.22125C10.1728 9.32016 10.0411 9.375 9.90047 9.375C9.61078 9.375 9.375 9.13922 9.375 8.84953ZM10.7812 10.2558C10.7812 10.1152 10.8361 9.98344 10.935 9.88406L11.2903 9.52875C11.3897 9.42984 11.5214 9.375 11.662 9.375C11.9517 9.375 12.1875 9.61078 12.1875 9.90047C12.1875 10.0411 12.1327 10.1728 12.0338 10.2722L11.6784 10.6275C11.5791 10.7264 11.4473 10.7812 11.3067 10.7812C11.017 10.7812 10.7812 10.5455 10.7812 10.2558ZM12.1875 11.662C12.1875 11.5214 12.2423 11.3897 12.3412 11.2903L12.6966 10.935C12.7959 10.8361 12.9277 10.7812 13.0683 10.7812C13.358 10.7812 13.5938 11.017 13.5938 11.3067C13.5938 11.4473 13.5389 11.5791 13.44 11.6784L13.0847 12.0338C12.9853 12.1327 12.8536 12.1875 12.713 12.1875C12.4233 12.1875 12.1875 11.9517 12.1875 11.662ZM14.1192 13.5938C13.8295 13.5938 13.5938 13.358 13.5938 13.0683C13.5938 12.9277 13.6486 12.7959 13.7475 12.6966L14.1028 12.3412C14.2022 12.2423 14.3339 12.1875 14.4745 12.1875C14.7642 12.1875 15 12.4233 15 12.713C15 12.8536 14.9452 12.9853 14.8463 13.0847L14.4909 13.44C14.3916 13.5389 14.2598 13.5938 14.1192 13.5938ZM7.96875 27.6562V28.5938H7.03125V26.7188H6.09375V28.5938H3.28125V26.7188H2.34375V28.5938H1.40625V27.6562C1.40625 25.8469 2.87812 24.375 4.6875 24.375C6.49687 24.375 7.96875 25.8469 7.96875 27.6562ZM6.5625 21.5625C6.5625 22.5966 5.72156 23.4375 4.6875 23.4375C3.65344 23.4375 2.8125 22.5966 2.8125 21.5625C2.8125 20.5284 3.65344 19.6875 4.6875 19.6875C5.72156 19.6875 6.5625 20.5284 6.5625 21.5625ZM18.2812 27.6562V28.5938H17.3438V26.7188H16.4062V28.5938H13.5938V26.7188H12.6562V28.5938H11.7188V27.6562C11.7188 25.8469 13.1906 24.375 15 24.375C16.8094 24.375 18.2812 25.8469 18.2812 27.6562ZM16.875 21.5625C16.875 22.5966 16.0341 23.4375 15 23.4375C13.9659 23.4375 13.125 22.5966 13.125 21.5625C13.125 20.5284 13.9659 19.6875 15 19.6875C16.0341 19.6875 16.875 20.5284 16.875 21.5625ZM23.4375 21.5625C23.4375 20.5284 24.2784 19.6875 25.3125 19.6875C26.3466 19.6875 27.1875 20.5284 27.1875 21.5625C27.1875 22.5966 26.3466 23.4375 25.3125 23.4375C24.2784 23.4375 23.4375 22.5966 23.4375 21.5625ZM28.5938 28.5938H27.6562V26.7188H26.7188V28.5938H23.9062V26.7188H22.9688V28.5938H22.0312V27.6562C22.0312 25.8469 23.5031 24.375 25.3125 24.375C27.1219 24.375 28.5938 25.8469 28.5938 27.6562V28.5938Z" fill="black"/>
<path d="M17.8125 17.8125H18.75V18.75H17.8125V17.8125Z" fill="black"/>
<path d="M19.6875 17.8125H20.625V18.75H19.6875V17.8125Z" fill="black"/>
<path d="M21.5625 17.8125H22.5V18.75H21.5625V17.8125Z" fill="black"/>
<path d="M7.5 17.8125H8.4375V18.75H7.5V17.8125Z" fill="black"/>
<path d="M9.375 17.8125H10.3125V18.75H9.375V17.8125Z" fill="black"/>
<path d="M11.25 17.8125H12.1875V18.75H11.25V17.8125Z" fill="black"/>
</svg>
