<svg width="33" height="33" viewBox="0 0 33 33" fill="none" xmlns="http://www.w3.org/2000/svg">
<g clip-path="url(#clip0)">
<path d="M24.4754 22.5496V17.0496C24.4724 14.3171 22.2579 12.1026 19.5254 12.0996H10.7254C7.99285 12.1026 5.77834 14.3171 5.77539 17.0496V24.1996H6.87539V17.0496C6.87781 14.9243 8.60005 13.202 10.7254 13.1996H11.5977L14.7365 16.3385C14.9514 16.5531 15.2994 16.5531 15.5143 16.3385L18.6531 13.1996H19.5254C21.6507 13.202 23.373 14.9243 23.3754 17.0496V22.5496H24.4754ZM15.1254 15.1719L13.1531 13.1996H17.0977L15.1254 15.1719Z" fill="black"/>
<path d="M9.625 18.1504H10.725V23.1004H9.625V18.1504Z" fill="black"/>
<path d="M19.5254 18.1504H20.6254V22.0004H19.5254V18.1504Z" fill="black"/>
<path d="M31.075 24.2002H24.0609C22.8487 23.5366 21.4927 23.1797 20.1107 23.1606C20.0691 23.1569 20.0256 23.1553 19.9869 23.1553C18.5633 23.1553 17.1623 23.5122 15.9122 24.1935L11.825 24.2002C10.6101 24.2002 9.62502 25.1853 9.62502 26.4002C9.62449 26.4437 9.62717 26.4872 9.63281 26.5305C9.64087 26.6814 9.66504 26.8307 9.70425 26.9765L6.60378 25.5559L6.55383 25.5312L4.70188 24.6852C3.97544 24.3509 3.12842 24.41 2.45515 24.8415C1.78162 25.2734 1.37449 26.0183 1.37502 26.8181V26.9392C1.371 27.8295 1.87534 28.6437 2.67402 29.0369L9.78562 32.5982C10.3208 32.8622 10.9093 32.9997 11.506 33.0002H31.075C31.3788 33.0002 31.625 32.754 31.625 32.4502V24.7502C31.625 24.4465 31.3788 24.2002 31.075 24.2002ZM23.375 31.9002H11.506C11.0784 31.8994 10.6565 31.8009 10.273 31.6121L3.16467 28.0502C2.74143 27.8421 2.47368 27.4111 2.47502 26.9392V26.8181C2.47502 26.3932 2.69121 25.9977 3.04919 25.7683C3.40691 25.539 3.85674 25.5078 4.24265 25.6853L6.0793 26.524L6.12871 26.5482L10.4951 28.5503C10.5674 28.5833 10.6458 28.6002 10.725 28.6002H16.775V27.5002H11.825C11.2374 27.501 10.754 27.0375 10.7301 26.4502C10.7293 26.4319 10.7277 26.4134 10.725 26.3954C10.7277 25.7898 11.2194 25.3002 11.825 25.3002H16.0435C16.1377 25.3002 16.2304 25.276 16.3126 25.2299L16.4444 25.1555C17.5267 24.5676 18.7379 24.2566 19.9695 24.2502C20.0028 24.2569 20.0366 24.2604 20.0707 24.2606C21.2209 24.2717 22.3529 24.5523 23.375 25.0803V31.9002ZM30.525 31.9002H24.475V25.3002H30.525V31.9002Z" fill="black"/>
<path d="M25.5742 29.7002H26.6742V30.8002H25.5742V29.7002Z" fill="black"/>
<path d="M15.1246 11C17.5537 10.9973 19.5219 9.02881 19.5246 6.6V4.4C19.5246 1.96985 17.5548 0 15.1246 0C12.6945 0 10.7246 1.96985 10.7246 4.4V6.6C10.7273 9.02881 12.6958 10.9973 15.1246 11ZM11.8246 4.4C11.8246 2.57759 13.3022 1.1 15.1246 1.1C16.9473 1.1 18.4246 2.57759 18.4246 4.4V6.6C18.4246 8.42241 16.9473 9.9 15.1246 9.9C13.3022 9.9 11.8246 8.42241 11.8246 6.6V4.4Z" fill="black"/>
<path d="M14.0258 4.40022C14.0269 3.93428 14.3204 3.51909 14.7595 3.36279L14.3921 2.32617C13.5142 2.63823 12.9271 3.46833 12.9258 4.40022V4.95022H14.0258V4.40022Z" fill="black"/>
</g>
<defs>
<clipPath id="clip0">
<rect width="33" height="33" fill="white"/>
</clipPath>
</defs>
</svg>
