<svg width="31" height="31" viewBox="0 0 31 31" fill="none" xmlns="http://www.w3.org/2000/svg">
<g clip-path="url(#clip0)">
<path d="M30.8376 27.2474C30.5109 26.2964 29.696 25.3523 28.4153 24.4412C27.4957 23.7874 26.503 23.2741 25.5618 22.9602C26.0753 21.9996 25.8074 20.7807 24.8969 20.133C24.4183 19.7925 23.8357 19.6588 23.2565 19.7565C23.1764 19.77 23.0978 19.7881 23.0208 19.8099C23.4379 17.4506 22.88 15.0529 21.5237 13.1389V8.64826C21.5237 8.39747 21.3204 8.19416 21.0696 8.19416C20.8188 8.19416 20.6155 8.39747 20.6155 8.64826V12.053C20.2513 11.682 19.8509 11.3389 19.4159 11.0295C17.4808 9.6532 15.1257 9.11271 12.7843 9.50759C10.443 9.90247 8.39579 11.1856 7.01981 13.1204C5.7398 14.9194 5.17672 17.1168 5.43416 19.3078C5.48696 19.7571 5.57378 20.1986 5.69185 20.6292H2.44971C1.5997 20.6292 0.908196 19.9377 0.908196 19.0877V2.46338C0.908196 1.61337 1.5997 0.921868 2.44971 0.921868H19.0739C19.9239 0.921868 20.6154 1.61337 20.6154 2.46338V6.8318C20.6154 7.08259 20.8188 7.2859 21.0695 7.2859C21.3203 7.2859 21.5236 7.08259 21.5236 6.8318V2.46338C21.5236 1.11259 20.4247 0.0136719 19.0739 0.0136719H2.44971C1.09892 0.0137324 0 1.11265 0 2.46338V19.0876C0 20.4384 1.09892 21.5373 2.44971 21.5373H5.99403C6.50244 22.828 7.30856 23.9893 8.36188 24.9222C8.44834 24.9987 8.55575 25.0363 8.6628 25.0363C8.78831 25.0363 8.91322 24.9846 9.00295 24.8832C9.16921 24.6955 9.15177 24.4085 8.96408 24.2422C7.49885 22.9446 6.56553 21.1545 6.33606 19.2016C6.10495 17.2347 6.61052 15.2619 7.75975 13.6467C8.9952 11.9095 10.8332 10.7575 12.9353 10.403C15.0374 10.0485 17.1519 10.5337 18.8894 11.7694C21.6775 13.7527 22.8862 17.2667 21.9164 20.5378C21.8868 20.5743 21.8578 20.6115 21.8303 20.6502L18.9908 24.642C18.963 24.6811 18.9373 24.7208 18.9124 24.761C16.4024 26.5606 13.0572 26.7504 10.3634 25.2373C10.1447 25.1145 9.86785 25.1922 9.74506 25.4108C9.62228 25.6295 9.69996 25.9063 9.91859 26.0291C11.2691 26.7877 12.7661 27.1623 14.2598 27.1623C15.7574 27.1623 17.2512 26.7847 18.5886 26.0405C18.6255 26.6844 18.9429 27.3066 19.5081 27.7086C19.8845 27.9764 20.3252 28.1163 20.7781 28.1163C20.901 28.1163 21.0249 28.106 21.1485 28.0851C21.6343 28.0031 22.0686 27.7661 22.397 27.4096C23.0027 28.1963 23.8133 28.9657 24.7321 29.6193C26.1659 30.639 27.2918 30.9853 28.1603 30.9852C29.4186 30.9852 30.1361 30.2577 30.4636 29.7972C31.015 29.0221 31.1443 28.1403 30.8376 27.2474ZM20.9974 27.1896C20.6576 27.247 20.3155 27.1685 20.0344 26.9686C19.4544 26.5561 19.3182 25.7485 19.7308 25.1685L22.5703 21.1768C22.7702 20.8958 23.0675 20.7095 23.4075 20.6521C23.4801 20.6399 23.5527 20.6338 23.625 20.6338C23.8908 20.6338 24.1495 20.7159 24.3705 20.8731C24.9504 21.2857 25.0867 22.0932 24.6741 22.6732L21.8346 26.665C21.6347 26.946 21.3374 27.1323 20.9974 27.1896ZM29.7235 29.2709C29.3066 29.857 28.7571 30.0751 28.1698 30.075C27.1453 30.075 26.0063 29.4111 25.2585 28.8794C24.328 28.2174 23.5234 27.4333 22.962 26.6468L25.0268 23.7442C25.953 24.0162 26.9576 24.5191 27.8889 25.1812C29.0652 26.0182 30.8678 27.6622 29.7235 29.2709Z" fill="black"/>
<path d="M14.2483 24.7055C14.6078 24.7055 14.9699 24.6754 15.3316 24.6144C17.0252 24.3287 18.5063 23.4006 19.5018 22.001C21.5571 19.1118 20.8786 15.0891 17.9893 13.0339C15.1002 10.9787 11.0775 11.6573 9.02223 14.5464C6.96698 17.4356 7.64552 21.4583 10.5347 23.5135C11.6355 24.2966 12.9242 24.7055 14.2483 24.7055ZM9.76222 15.0729C10.8381 13.5605 12.5413 12.7536 14.2696 12.7536C15.3766 12.7536 16.4941 13.0849 17.4629 13.774C19.944 15.5389 20.5267 18.9934 18.7618 21.4745C17.9068 22.6765 16.635 23.4735 15.1805 23.7188C13.726 23.9642 12.2632 23.6284 11.0612 22.7734C8.58 21.0085 7.99736 17.5541 9.76222 15.0729Z" fill="black"/>
<path d="M14.2623 19.5733C15.0456 19.5733 15.6829 18.9361 15.6829 18.1528V15.193C15.6829 14.4097 15.0456 13.7725 14.2623 13.7725C13.4791 13.7725 12.8418 14.4097 12.8418 15.193V18.1528C12.8418 18.9361 13.4791 19.5733 14.2623 19.5733ZM13.75 15.193C13.75 14.9105 13.9798 14.6807 14.2623 14.6807C14.5449 14.6807 14.7747 14.9105 14.7747 15.193V18.1528C14.7747 18.4353 14.5449 18.6651 14.2623 18.6651C13.9798 18.6651 13.75 18.4353 13.75 18.1528V15.193Z" fill="black"/>
<path d="M14.2623 22.7747C15.0456 22.7747 15.6829 22.1374 15.6829 21.3541C15.6829 20.5708 15.0456 19.9336 14.2623 19.9336C13.4791 19.9336 12.8418 20.5708 12.8418 21.3541C12.8418 22.1374 13.4791 22.7747 14.2623 22.7747ZM14.2623 20.8418C14.5449 20.8418 14.7747 21.0716 14.7747 21.3541C14.7747 21.6367 14.5449 21.8665 14.2623 21.8665C13.9798 21.8665 13.75 21.6367 13.75 21.3541C13.75 21.0716 13.9798 20.8418 14.2623 20.8418Z" fill="black"/>
<path d="M6.27914 2.11738C6.10179 1.94004 5.81426 1.94004 5.63698 2.11738L2.37519 5.37916C2.19785 5.5565 2.19785 5.84398 2.37519 6.02132C2.46383 6.11002 2.58008 6.15434 2.69627 6.15434C2.81246 6.15434 2.92871 6.11002 3.01735 6.02132L6.27914 2.75954C6.45648 2.58226 6.45648 2.29472 6.27914 2.11738Z" fill="black"/>
<path d="M3.85838 7.9211C3.97457 7.9211 4.09082 7.87678 4.17946 7.78808L9.20801 2.75954C9.38535 2.5822 9.38535 2.29472 9.20801 2.11738C9.03067 1.94004 8.74313 1.94004 8.56585 2.11738L3.5373 7.14592C3.35996 7.32326 3.35996 7.61074 3.5373 7.78808C3.62594 7.87672 3.74213 7.9211 3.85838 7.9211Z" fill="black"/>
<path d="M19.0452 5.0168L15.7834 8.27858C15.6061 8.45592 15.6061 8.74346 15.7834 8.92074C15.872 9.00944 15.9883 9.05376 16.1045 9.05376C16.2207 9.05376 16.3369 9.00944 16.4256 8.92074L19.6873 5.65896C19.8647 5.48161 19.8647 5.19414 19.6873 5.0168C19.5101 4.83945 19.2225 4.83945 19.0452 5.0168Z" fill="black"/>
</g>
<defs>
<clipPath id="clip0">
<rect width="31" height="31" fill="white"/>
</clipPath>
</defs>
</svg>
