<svg width="31" height="31" viewBox="0 0 31 31" fill="none" xmlns="http://www.w3.org/2000/svg">
<g clip-path="url(#clip0)">
<path d="M28.6118 19.4744C28.1853 19.4744 27.8397 19.82 27.8397 20.2464V27.1015C27.8382 28.3802 26.8023 29.4165 25.5235 29.4177H3.8603C2.58158 29.4165 1.54563 28.3802 1.54412 27.1015V6.98237C1.54563 5.70395 2.58158 4.6677 3.8603 4.66619H10.7154C11.1418 4.66619 11.4874 4.32057 11.4874 3.89413C11.4874 3.46799 11.1418 3.12207 10.7154 3.12207H3.8603C1.7293 3.12448 0.00241269 4.85137 0 6.98237V27.1018C0.00241269 29.2328 1.7293 30.9597 3.8603 30.9621H25.5235C27.6545 30.9597 29.3814 29.2328 29.3838 27.1018V20.2464C29.3838 19.82 29.0382 19.4744 28.6118 19.4744Z" fill="black"/>
<path d="M29.0786 1.13481C27.7218 -0.222022 25.522 -0.222022 24.1652 1.13481L10.3912 14.9089C10.2968 15.0033 10.2286 15.1203 10.193 15.2487L8.38169 21.788C8.3072 22.0562 8.3829 22.3433 8.57953 22.5402C8.77647 22.7368 9.06358 22.8125 9.33169 22.7383L15.871 20.9267C15.9995 20.8911 16.1165 20.823 16.2109 20.7286L29.9846 6.95422C31.3393 5.59648 31.3393 3.39852 29.9846 2.04078L29.0786 1.13481ZM12.0734 15.4107L23.3464 4.13741L26.982 7.77303L15.7087 19.0463L12.0734 15.4107ZM11.3472 16.868L14.2518 19.7728L10.234 20.886L11.3472 16.868ZM28.8929 5.86248L28.0741 6.68129L24.4381 3.04536L25.2572 2.22656C26.0109 1.47289 27.2329 1.47289 27.9866 2.22656L28.8929 3.13252C29.6453 3.88709 29.6453 5.10821 28.8929 5.86248Z" fill="black"/>
</g>
<defs>
<clipPath id="clip0">
<rect width="31" height="31" fill="white"/>
</clipPath>
</defs>
</svg>
