<svg width="47" height="47" viewBox="0 0 47 47" fill="none" xmlns="http://www.w3.org/2000/svg">
<circle cx="23.5" cy="23.5" r="23.5" fill="#282828"/>
<path d="M33.3848 15.666H32.4599L31.624 13.4021C31.5348 13.1605 31.3045 13 31.0469 13H15.9531C15.6955 13 15.4652 13.1605 15.376 13.4021L14.5401 15.666H13.6152C13.2755 15.666 13 15.9415 13 16.2812V31.7441C13 32.3482 13.2446 32.9173 13.6887 33.3466C14.1246 33.7679 14.6957 34 15.2969 34H33.3848C33.7245 34 34 33.7245 34 33.3848V16.2812C34 15.9415 33.7245 15.666 33.3848 15.666ZM32.7695 18.25C32.7695 18.9837 32.1309 19.6035 31.375 19.6035C30.6287 19.6035 30.0215 18.9963 30.0215 18.25V16.8965H32.0312H32.7695V18.25ZM28.791 18.25C28.791 18.9963 28.1838 19.6035 27.4375 19.6035C26.6912 19.6035 26.084 18.9963 26.084 18.25V16.8965H28.791V18.25ZM24.8535 18.25C24.8535 18.9963 24.2463 19.6035 23.5 19.6035C22.7537 19.6035 22.1465 18.9963 22.1465 18.25V16.8965H24.8535V18.25ZM20.916 18.25C20.916 18.9963 20.3088 19.6035 19.5625 19.6035C18.8162 19.6035 18.209 18.9963 18.209 18.25V16.8965H20.916V18.25ZM16.3818 14.2305H30.6182L31.1483 15.666H15.8517L16.3818 14.2305ZM14.2305 16.8965H14.9688H16.9785V18.25C16.9785 18.9963 16.3713 19.6035 15.625 19.6035C14.8691 19.6035 14.2305 18.9837 14.2305 18.25V16.8965ZM14.2305 28.8813L16.3223 28.2615V29.6031L14.2305 30.2229V28.8813ZM16.3223 26.9781L14.2305 27.5979V26.7812C14.2305 26.2254 14.7188 25.7559 15.2969 25.7559C15.8623 25.7559 16.3223 26.2158 16.3223 26.7812V26.9781ZM14.2305 31.7441V31.5063L16.3223 30.8865V31.7441C16.3223 32.3095 15.8623 32.7695 15.2969 32.7695C14.7188 32.7695 14.2305 32.2999 14.2305 31.7441ZM17.5527 32.7695V23.7871H22.2285V32.7695H17.5527ZM23.459 32.7695V23.1719C23.459 22.8321 23.1835 22.5566 22.8438 22.5566H16.9375C16.5977 22.5566 16.3223 22.8321 16.3223 23.1719V24.7729C16.0144 24.6151 15.666 24.5254 15.2969 24.5254C14.9211 24.5254 14.5571 24.616 14.2305 24.7869V20.4334C14.6465 20.6938 15.1263 20.834 15.625 20.834C16.4131 20.834 17.1194 20.479 17.5938 19.9209C18.0681 20.479 18.7744 20.834 19.5625 20.834C20.3506 20.834 21.0569 20.479 21.5312 19.9209C22.0056 20.479 22.7119 20.834 23.5 20.834C24.2881 20.834 24.9944 20.479 25.4688 19.9209C25.9431 20.479 26.6494 20.834 27.4375 20.834C28.2256 20.834 28.9319 20.479 29.4062 19.9209C29.8806 20.479 30.5869 20.834 31.375 20.834C31.8737 20.834 32.3535 20.6938 32.7695 20.4334V32.7695H23.459Z" fill="#B59E5C"/>
<path d="M31.0449 22.5566H25.4668C25.127 22.5566 24.8516 22.8321 24.8516 23.1719V28.4219C24.8516 28.7616 25.127 29.0371 25.4668 29.0371H31.0449C31.3847 29.0371 31.6602 28.7616 31.6602 28.4219V23.1719C31.6602 22.8321 31.3847 22.5566 31.0449 22.5566ZM30.4297 27.8066H26.082V23.7871H30.4297V27.8066Z" fill="#B59E5C"/>
</svg>
