<svg width="1366" height="558" viewBox="0 0 1366 558" fill="none" xmlns="http://www.w3.org/2000/svg">
<path d="M731.742 282.506L736.383 276.912L725.195 267.509" stroke="#0E0E0E" stroke-opacity="0.14" stroke-width="2" stroke-linecap="round" stroke-linejoin="round"/>
<path d="M705.199 304.882H615.336" stroke="#0E0E0E" stroke-opacity="0.14" stroke-width="2" stroke-miterlimit="10" stroke-linecap="round" stroke-linejoin="round"/>
<path d="M740.906 304.882H723.053" stroke="#0E0E0E" stroke-opacity="0.14" stroke-width="2" stroke-miterlimit="10" stroke-linecap="round" stroke-linejoin="round"/>
<path opacity="0.3" d="M728.647 277.388L733.408 281.434L715.792 302.383L709.603 296.789C697.582 305.239 681.99 305.477 666.516 305.477C627.239 305.477 595.34 278.221 595.34 240.49C595.34 202.76 628.429 170.98 667.588 170.98C706.747 170.98 739.835 202.641 739.835 240.49C739.954 253.94 735.788 266.675 728.647 277.388ZM681.752 272.27L669.968 261.914L687.584 241.204L699.605 251.797C700.795 248.108 701.39 244.418 701.39 240.49C701.39 221.565 685.917 205.497 667.707 205.497C649.496 205.497 634.023 221.565 634.023 240.49C634.023 259.653 649.496 275.721 667.707 275.721C672.706 275.602 677.348 274.531 681.752 272.27Z" fill="#050505" fill-opacity="0.33"/>
<path d="M721.267 272.389L732.337 281.911L714.721 302.502L702.343 291.671C690.321 300.002 675.8 304.882 660.208 304.882C620.811 304.882 587.604 273.222 587.604 235.848C587.604 198.356 620.811 166.934 660.208 166.934C699.605 166.934 732.813 198.356 732.813 235.848C732.694 249.06 728.409 261.677 721.267 272.389ZM674.253 267.39L662.47 257.154L680.085 236.563L692.107 247.037C693.297 243.347 693.892 239.657 693.892 235.729C693.892 216.924 678.419 200.974 660.089 200.974C641.878 200.974 626.286 216.924 626.286 235.729C626.286 254.773 641.759 270.603 660.089 270.603C665.088 270.603 669.849 269.532 674.253 267.39Z" stroke="#0E0E0E" stroke-opacity="0.14" stroke-width="2" stroke-linecap="round" stroke-linejoin="round"/>
<path d="M658.185 270.484C645.687 262.629 637.594 250.012 637.594 235.848C637.594 221.565 645.806 208.949 658.304 201.093" stroke="#0E0E0E" stroke-opacity="0.14" stroke-width="2" stroke-linecap="round" stroke-linejoin="round"/>
<path d="M660.803 290.361C691.239 290.361 715.911 265.689 715.911 235.253C715.911 204.818 691.239 180.145 660.803 180.145C630.368 180.145 605.695 204.818 605.695 235.253C605.695 265.689 630.368 290.361 660.803 290.361Z" stroke="#0E0E0E" stroke-opacity="0.14" stroke-width="2" stroke-linecap="round" stroke-linejoin="round" stroke-dasharray="12 12"/>
<path d="M718.054 184.906H729.837L729.718 127.179" stroke="#0E0E0E" stroke-opacity="0.14" stroke-width="2" stroke-miterlimit="10" stroke-linecap="round" stroke-linejoin="round"/>
<path d="M725.314 119.562L729.48 114.444L733.765 119.562H725.314Z" stroke="#0E0E0E" stroke-opacity="0.14" stroke-width="2" stroke-miterlimit="10" stroke-linecap="round" stroke-linejoin="round"/>
<path d="M725.314 111.111L729.48 105.874L733.765 111.111H725.314Z" stroke="#0E0E0E" stroke-opacity="0.14" stroke-width="2" stroke-miterlimit="10" stroke-linecap="round" stroke-linejoin="round"/>
<path d="M725.314 102.541L729.48 97.3044L733.765 102.541H725.314Z" stroke="#0E0E0E" stroke-opacity="0.14" stroke-width="2" stroke-miterlimit="10" stroke-linecap="round" stroke-linejoin="round"/>
<path d="M725.314 93.9718L729.48 88.8538L733.765 93.9718H725.314Z" stroke="#0E0E0E" stroke-opacity="0.14" stroke-width="2" stroke-miterlimit="10" stroke-linecap="round" stroke-linejoin="round"/>
<path d="M725.314 85.521L729.48 80.2839L733.765 85.521H725.314Z" stroke="#0E0E0E" stroke-opacity="0.14" stroke-width="2" stroke-miterlimit="10" stroke-linecap="round" stroke-linejoin="round"/>
<path d="M725.314 76.9514L729.48 71.7144L733.765 76.9514H725.314Z" stroke="#0E0E0E" stroke-opacity="0.14" stroke-width="2" stroke-miterlimit="10" stroke-linecap="round" stroke-linejoin="round"/>
<g opacity="0.3">
<path opacity="0.3" d="M728.29 118.848L732.456 113.611L736.74 118.848H728.29Z" fill="#050505" fill-opacity="0.33"/>
<path opacity="0.3" d="M728.29 110.278L732.456 105.16L736.74 110.278H728.29Z" fill="#050505" fill-opacity="0.33"/>
<path opacity="0.3" d="M728.29 101.827L732.456 96.5901L736.74 101.827H728.29Z" fill="#050505" fill-opacity="0.33"/>
<path opacity="0.3" d="M728.29 93.2573L732.456 88.0203L736.74 93.2573H728.29Z" fill="#050505" fill-opacity="0.33"/>
<path opacity="0.3" d="M728.29 84.6876L732.456 79.5696L736.74 84.6876H728.29Z" fill="#050505" fill-opacity="0.33"/>
<path opacity="0.3" d="M728.29 76.2371L732.456 71L736.74 76.2371H728.29Z" fill="#050505" fill-opacity="0.33"/>
</g>
<path d="M579.986 212.519H568.203V177.288" stroke="#0E0E0E" stroke-opacity="0.14" stroke-width="2" stroke-miterlimit="10" stroke-linecap="round" stroke-linejoin="round"/>
<path d="M572.726 169.671L568.56 164.553L564.275 169.671H572.726Z" stroke="#0E0E0E" stroke-opacity="0.14" stroke-width="2" stroke-miterlimit="10" stroke-linecap="round" stroke-linejoin="round"/>
<path d="M572.726 161.22L568.56 155.983L564.275 161.22H572.726Z" stroke="#0E0E0E" stroke-opacity="0.14" stroke-width="2" stroke-miterlimit="10" stroke-linecap="round" stroke-linejoin="round"/>
<path d="M572.726 152.651L568.56 147.414L564.275 152.651H572.726Z" stroke="#0E0E0E" stroke-opacity="0.14" stroke-width="2" stroke-miterlimit="10" stroke-linecap="round" stroke-linejoin="round"/>
<path d="M572.726 144.081L568.56 138.844L564.275 144.081H572.726Z" stroke="#0E0E0E" stroke-opacity="0.14" stroke-width="2" stroke-miterlimit="10" stroke-linecap="round" stroke-linejoin="round"/>
<g opacity="0.3">
<path opacity="0.3" d="M569.393 169.076L565.227 163.72L560.942 168.838L569.393 169.076Z" fill="#050505" fill-opacity="0.33"/>
<path opacity="0.3" d="M569.512 160.506L565.465 155.269L561.18 160.268L569.512 160.506Z" fill="#050505" fill-opacity="0.33"/>
<path opacity="0.3" d="M569.75 151.936L565.703 146.699L561.299 151.817L569.75 151.936Z" fill="#050505" fill-opacity="0.33"/>
<path opacity="0.3" d="M569.988 143.486L565.822 138.13L561.537 143.248L569.988 143.486Z" fill="#050505" fill-opacity="0.33"/>
</g>
<path d="M318.967 313.809V394.15L357.768 394.031" stroke="#0E0E0E" stroke-opacity="0.14" stroke-width="2" stroke-miterlimit="10" stroke-linecap="round" stroke-linejoin="round"/>
<path d="M365.386 389.627L370.504 393.793L365.386 398.078V389.627Z" stroke="#0E0E0E" stroke-opacity="0.14" stroke-width="2" stroke-miterlimit="10" stroke-linecap="round" stroke-linejoin="round"/>
<path d="M373.837 389.627L379.074 393.793L373.837 398.078V389.627Z" stroke="#0E0E0E" stroke-opacity="0.14" stroke-width="2" stroke-miterlimit="10" stroke-linecap="round" stroke-linejoin="round"/>
<path d="M382.406 389.627L387.643 393.793L382.406 398.078V389.627Z" stroke="#0E0E0E" stroke-opacity="0.14" stroke-width="2" stroke-miterlimit="10" stroke-linecap="round" stroke-linejoin="round"/>
<path d="M390.976 389.627L396.213 393.793L390.976 398.078V389.627Z" stroke="#0E0E0E" stroke-opacity="0.14" stroke-width="2" stroke-miterlimit="10" stroke-linecap="round" stroke-linejoin="round"/>
<path d="M399.546 389.627L404.664 393.793L399.546 398.078V389.627Z" stroke="#0E0E0E" stroke-opacity="0.14" stroke-width="2" stroke-miterlimit="10" stroke-linecap="round" stroke-linejoin="round"/>
<path d="M407.997 389.627L413.234 393.793L407.997 398.078V389.627Z" stroke="#0E0E0E" stroke-opacity="0.14" stroke-width="2" stroke-miterlimit="10" stroke-linecap="round" stroke-linejoin="round"/>
<g opacity="0.3">
<path opacity="0.3" d="M366.1 392.603L371.337 396.769L366.1 401.053V392.603Z" fill="#050505" fill-opacity="0.33"/>
<path opacity="0.3" d="M374.67 392.603L379.788 396.769L374.67 401.053V392.603Z" fill="#050505" fill-opacity="0.33"/>
<path opacity="0.3" d="M383.121 392.603L388.358 396.769L383.121 401.053V392.603Z" fill="#050505" fill-opacity="0.33"/>
<path opacity="0.3" d="M391.69 392.603L396.927 396.769L391.69 401.053V392.603Z" fill="#050505" fill-opacity="0.33"/>
<path opacity="0.3" d="M400.26 392.603L405.497 396.769L400.26 401.053V392.603Z" fill="#050505" fill-opacity="0.33"/>
<path opacity="0.3" d="M408.83 392.603L413.948 396.769L408.83 401.053V392.603Z" fill="#050505" fill-opacity="0.33"/>
</g>
<path opacity="0.3" d="M347.056 210.734V229.54H410.496V263.104H347.056V304.882H309.445V177.169H416.804V210.734H347.056Z" fill="#050505" fill-opacity="0.33"/>
<path d="M318.848 304.406V297.264" stroke="#0E0E0E" stroke-opacity="0.14" stroke-width="2" stroke-linecap="round" stroke-linejoin="round"/>
<path d="M318.848 282.981V204.426" stroke="#0E0E0E" stroke-opacity="0.14" stroke-width="2" stroke-linecap="round" stroke-linejoin="round" stroke-dasharray="11.99 11.99"/>
<path d="M318.848 197.284V190.143H325.989" stroke="#0E0E0E" stroke-opacity="0.14" stroke-width="2" stroke-linecap="round" stroke-linejoin="round"/>
<path d="M340.867 190.143H393" stroke="#0E0E0E" stroke-opacity="0.14" stroke-width="2" stroke-linecap="round" stroke-linejoin="round" stroke-dasharray="12.52 12.52"/>
<path d="M400.498 190.143H407.639" stroke="#0E0E0E" stroke-opacity="0.14" stroke-width="2" stroke-linecap="round" stroke-linejoin="round"/>
<path d="M338.01 205.021V223.827H401.45V257.391H338.01V304.763H300.399V171.456H407.758V205.021H338.01Z" stroke="#0E0E0E" stroke-opacity="0.14" stroke-width="2" stroke-linecap="round" stroke-linejoin="round"/>
<path d="M347.413 303.692V257.748" stroke="#0E0E0E" stroke-opacity="0.14" stroke-width="2" stroke-linecap="round" stroke-linejoin="round"/>
<path d="M347.413 223.826V205.259" stroke="#0E0E0E" stroke-opacity="0.14" stroke-width="2" stroke-linecap="round" stroke-linejoin="round"/>
<path d="M286.354 304.882H370.266" stroke="#0E0E0E" stroke-opacity="0.14" stroke-width="2" stroke-miterlimit="10" stroke-linecap="round" stroke-linejoin="round"/>
<path d="M381.811 304.882H403.474" stroke="#0E0E0E" stroke-opacity="0.14" stroke-width="2" stroke-miterlimit="10" stroke-linecap="round" stroke-linejoin="round"/>
<path d="M500.716 162.41V103.97H447.75" stroke="#0E0E0E" stroke-opacity="0.14" stroke-width="2" stroke-miterlimit="10" stroke-linecap="round" stroke-linejoin="round"/>
<path d="M442.99 108.373L437.753 104.208L442.99 100.042V108.373Z" stroke="#0E0E0E" stroke-opacity="0.14" stroke-width="2" stroke-miterlimit="10" stroke-linecap="round" stroke-linejoin="round"/>
<path d="M434.42 108.373L429.302 104.208L434.42 100.042V108.373Z" stroke="#0E0E0E" stroke-opacity="0.14" stroke-width="2" stroke-miterlimit="10" stroke-linecap="round" stroke-linejoin="round"/>
<path d="M425.969 108.373L420.732 104.208L425.969 100.042V108.373Z" stroke="#0E0E0E" stroke-opacity="0.14" stroke-width="2" stroke-miterlimit="10" stroke-linecap="round" stroke-linejoin="round"/>
<path d="M417.399 108.373L412.162 104.208L417.399 100.042V108.373Z" stroke="#0E0E0E" stroke-opacity="0.14" stroke-width="2" stroke-miterlimit="10" stroke-linecap="round" stroke-linejoin="round"/>
<path d="M408.83 108.373L403.593 104.208L408.83 100.042V108.373Z" stroke="#0E0E0E" stroke-opacity="0.14" stroke-width="2" stroke-miterlimit="10" stroke-linecap="round" stroke-linejoin="round"/>
<path d="M400.26 108.373L395.142 104.208L400.26 100.042V108.373Z" stroke="#0E0E0E" stroke-opacity="0.14" stroke-width="2" stroke-miterlimit="10" stroke-linecap="round" stroke-linejoin="round"/>
<g opacity="0.2">
<path opacity="0.2" d="M440.966 111.706L435.848 107.54L440.966 103.255V111.706Z" fill="#050505" fill-opacity="0.33"/>
<path opacity="0.2" d="M432.515 111.706L427.278 107.54L432.515 103.255V111.706Z" fill="#050505" fill-opacity="0.33"/>
<path opacity="0.2" d="M423.946 111.706L418.709 107.54L423.946 103.255V111.706Z" fill="#050505" fill-opacity="0.33"/>
<path opacity="0.2" d="M415.376 111.706L410.139 107.54L415.376 103.255V111.706Z" fill="#050505" fill-opacity="0.33"/>
<path opacity="0.2" d="M406.806 111.706L401.688 107.54L406.806 103.255V111.706Z" fill="#050505" fill-opacity="0.33"/>
<path opacity="0.2" d="M398.356 111.706L393.119 107.54L398.356 103.255V111.706Z" fill="#050505" fill-opacity="0.33"/>
</g>
<path opacity="0.1" d="M510 324.878C641.996 324.878 749 320.188 749 314.404C749 308.619 641.996 303.93 510 303.93C378.004 303.93 271 308.619 271 314.404C271 320.188 378.004 324.878 510 324.878Z" fill="#050505" fill-opacity="0.33"/>
<path opacity="0.3" d="M533.21 291.194H486.79L481.91 304.643L439.3 305.12L488.695 177.288H531.186L580.938 305L538.566 305.12L533.21 291.194ZM522.497 263.818L510.119 231.801L497.502 263.818H522.497Z" fill="#050505" fill-opacity="0.33"/>
<path d="M443.704 304.406L487.147 189.428H514.523L557.848 304.406" stroke="#0E0E0E" stroke-opacity="0.14" stroke-width="2" stroke-linecap="round" stroke-linejoin="round" stroke-dasharray="12 12"/>
<path d="M524.164 286.909H477.744L470.96 304.763H428.469L479.649 171.456H522.14L573.321 304.763H530.829L524.164 286.909ZM513.452 259.176L501.073 226.802L488.457 259.176H513.452Z" stroke="#0E0E0E" stroke-opacity="0.14" stroke-width="2" stroke-linecap="round" stroke-linejoin="round"/>
<path d="M497.859 258.105L505.239 239.299" stroke="#0E0E0E" stroke-opacity="0.14" stroke-width="2" stroke-linecap="round" stroke-linejoin="round"/>
<path d="M470.96 304.763L481.791 304.882L487.623 287.028" stroke="#0E0E0E" stroke-opacity="0.14" stroke-width="2" stroke-linecap="round" stroke-linejoin="round"/>
<path d="M423.232 304.882H444.894" stroke="#0E0E0E" stroke-opacity="0.14" stroke-width="2" stroke-miterlimit="10" stroke-linecap="round" stroke-linejoin="round"/>
<path d="M599.268 304.882H515.356" stroke="#0E0E0E" stroke-opacity="0.14" stroke-width="2" stroke-miterlimit="10" stroke-linecap="round" stroke-linejoin="round"/>
<path d="M501.311 304.882H476.792" stroke="#0E0E0E" stroke-opacity="0.14" stroke-width="2" stroke-miterlimit="10" stroke-linecap="round" stroke-linejoin="round"/>
<path d="M1347.39 373.477C1350.92 374.963 1354.98 373.307 1356.47 369.78C1357.96 366.252 1356.3 362.189 1352.77 360.704C1349.25 359.218 1345.18 360.874 1343.7 364.401C1342.21 367.928 1343.87 371.992 1347.39 373.477Z" stroke="#0E0E0E" stroke-opacity="0.14" stroke-width="2" stroke-linecap="round" stroke-linejoin="round" stroke-dasharray="4 4"/>
<path d="M1443.13 320.402C1444.01 320.469 1444.93 320.408 1445.66 320.113C1447.29 319.447 1448.5 318.002 1448.69 316.126L1449.79 308.166C1450.14 305.907 1448.94 303.749 1446.77 302.834C1446.39 302.673 1446 302.512 1445.57 302.478L1442.56 302.115C1442.37 300.078 1441.92 297.933 1441.23 295.99L1443.91 294.262C1445.11 293.563 1445.85 292.521 1446.13 291.136C1446.36 289.879 1446.21 288.46 1445.45 287.391L1441.22 280.648C1440.67 279.814 1439.94 279.055 1438.92 278.624C1437.64 278.086 1436.4 278.167 1435.19 278.557C1435 278.631 1434.64 278.779 1434.41 278.98L1431.78 280.58C1430.26 279.189 1428.56 277.871 1426.8 276.681L1427.78 273.635C1428.19 272.304 1428.11 271.067 1427.41 269.87C1426.84 268.728 1425.73 267.806 1424.52 267.45L1416.97 265.023C1415.9 264.72 1414.72 264.673 1413.63 265.117C1412.17 265.708 1411.25 266.824 1410.79 268.283L1409.86 271.201C1407.8 271.087 1405.69 271.1 1403.6 271.423L1402.42 268.518C1401.9 267.248 1400.97 266.253 1399.69 265.715C1398.41 265.177 1397.05 265.204 1395.96 265.647L1388.52 268.679C1387.24 269.197 1386.25 270.131 1385.77 271.281C1385.23 272.558 1385.25 273.923 1385.7 275.012L1386.88 277.917C1385.16 279.147 1383.64 280.613 1382.12 282.078L1379.29 280.586C1377.94 279.866 1376.45 279.839 1375.05 280.303C1373.96 280.747 1373.02 281.554 1372.59 282.575L1368.88 289.587C1368.22 290.811 1368.12 292.122 1368.51 293.339C1368.9 294.556 1369.78 295.679 1370.87 296.29L1373.58 297.729C1373.02 299.753 1372.73 301.884 1372.61 303.941L1369.49 304.58C1369.18 304.6 1368.94 304.802 1368.63 304.822C1366.46 305.709 1365.12 308.156 1365.65 310.483L1367.34 318.261C1367.54 319.552 1368.43 320.675 1369.47 321.414C1370.51 322.154 1371.89 322.436 1373.24 322.1L1376.24 321.408C1377.1 323.277 1378.28 325.126 1379.56 326.719L1377.62 329.207C1375.95 331.365 1376.28 334.511 1378.44 336.172L1384.79 341.1C1385.12 341.389 1385.5 341.551 1385.88 341.712C1387.03 342.196 1388.53 342.223 1389.62 341.779C1390.34 341.483 1391.18 340.932 1391.63 340.22L1393.52 337.86C1395.44 338.667 1397.41 339.346 1399.43 339.897L1399.58 343.117C1399.61 344.482 1400.18 345.625 1401.11 346.62C1402.1 347.488 1403.38 348.025 1404.61 347.945L1412.55 347.676C1413.17 347.636 1413.66 347.542 1414.2 347.32C1416.2 346.506 1417.44 344.624 1417.3 342.459L1417.23 339.42C1419.3 338.788 1421.11 338.049 1423.04 337.054L1425.18 339.461C1426.52 340.927 1428.85 341.458 1430.79 340.772C1431.34 340.55 1431.76 340.275 1432.23 339.871L1438.22 334.574C1439.21 333.639 1439.82 332.543 1439.8 331.178C1439.9 329.867 1439.38 328.597 1438.45 327.602L1436.37 325.376C1437.56 323.622 1438.5 321.759 1439.31 319.843L1443.13 320.402ZM1438.08 318.122C1437.11 320.422 1435.96 322.795 1434.48 324.879L1433.85 325.665L1437.26 329.356C1437.66 329.827 1437.95 330.553 1437.87 331.118C1437.85 331.864 1437.46 332.449 1436.99 332.852L1431 338.15C1430.76 338.352 1430.58 338.426 1430.34 338.627C1429.44 338.997 1428.18 338.768 1427.45 338.009L1423.96 334.136L1423.18 334.56C1422.04 335.131 1421.08 335.629 1419.99 336.072C1418.72 336.59 1417.5 336.98 1416.1 337.444L1415.12 337.632L1415.26 342.654C1415.27 343.71 1414.71 344.678 1413.62 345.121C1413.44 345.195 1413.08 345.343 1412.82 345.236L1404.89 345.504C1404.27 345.545 1403.63 345.276 1403.05 344.879C1402.52 344.355 1402.3 343.81 1402.25 343.191L1402.04 337.988L1401.09 337.739C1398.58 337.282 1396.1 336.388 1393.85 335.292L1392.96 334.915L1389.8 338.848C1389.51 339.177 1389.22 339.507 1388.73 339.601C1387.82 339.971 1386.82 339.85 1386.16 339.271L1379.81 334.343C1379.23 333.947 1378.88 333.348 1378.89 332.602C1378.85 331.983 1378.99 331.291 1379.39 330.706L1382.6 326.645L1382 325.939C1380.44 323.929 1379.11 321.717 1377.97 319.431L1377.6 318.524L1372.64 319.593C1372.15 319.687 1371.58 319.599 1371.2 319.438C1370.44 319.115 1369.83 318.409 1369.72 317.609L1368.03 309.831C1367.77 308.668 1368.43 307.444 1369.52 307C1369.7 306.926 1369.83 306.98 1369.88 306.852L1374.85 305.784L1374.79 304.856C1374.81 302.308 1375.26 299.793 1375.9 297.205L1376.15 296.257L1371.71 293.937C1371.07 293.668 1370.73 293.07 1370.5 292.526C1370.34 291.853 1370.29 291.235 1370.69 290.65L1374.4 283.638C1374.61 283.127 1375.08 282.723 1375.63 282.502C1376.35 282.206 1377.1 282.219 1377.74 282.488L1382.3 284.862L1382.93 284.075C1384.62 282.226 1386.55 280.485 1388.69 278.979L1389.52 278.428L1387.6 273.708C1387.38 273.164 1387.39 272.417 1387.66 271.779C1387.93 271.14 1388.4 270.737 1389 270.387L1396.44 267.355C1397.71 266.837 1399.25 267.483 1399.76 268.754L1401.69 273.473L1402.67 273.285C1405.19 272.996 1407.8 272.889 1410.29 273.037L1411.29 273.158L1412.85 268.398C1413.11 267.759 1413.69 267.1 1414.37 266.932C1414.91 266.71 1415.53 266.67 1416.04 266.885L1423.59 269.312C1424.23 269.581 1424.81 269.978 1425.03 270.523C1425.38 271.121 1425.37 271.867 1425.16 272.378L1423.55 277.266L1424.39 277.77C1426.53 279.121 1428.56 280.728 1430.35 282.537L1431.09 283.297L1435.38 280.594C1436.03 280.117 1436.96 280.056 1437.73 280.379C1438.24 280.594 1438.57 280.883 1438.84 281.3L1443.07 288.043C1443.42 288.642 1443.59 289.314 1443.32 289.953C1443.18 290.645 1442.78 291.23 1442.18 291.58L1437.89 294.282L1438.26 295.19C1439.04 297.624 1439.64 300.131 1439.74 302.733L1439.8 303.661L1444.76 304.394C1445.45 304.535 1446.09 304.804 1446.44 305.402C1446.84 305.873 1447.01 306.545 1446.87 307.238L1445.77 315.198C1445.71 316.072 1445.07 316.859 1444.17 317.228C1443.8 317.376 1443.31 317.47 1442.88 317.437L1437.79 316.65L1438.08 318.122Z" fill="#050505" fill-opacity="0.33"/>
<g opacity="0.3">
<path opacity="0.3" d="M1448.74 323.515C1449.65 323.145 1450.28 322.358 1450.35 321.484L1451.44 313.524C1451.58 312.832 1451.41 312.16 1451.01 311.689C1450.61 311.218 1450.02 310.822 1449.33 310.68L1444.38 309.947L1444.32 309.02C1444.15 306.546 1443.61 303.91 1442.83 301.476L1442.46 300.569L1446.76 297.866C1447.35 297.517 1447.75 296.932 1447.89 296.239C1448.03 295.547 1447.99 294.928 1447.64 294.33L1443.42 287.586C1443.14 287.17 1442.68 286.827 1442.3 286.665C1441.53 286.343 1440.61 286.403 1439.95 286.88L1435.66 289.583L1434.92 288.823C1433.13 287.015 1431.1 285.408 1428.96 284.056L1428.12 283.552L1429.73 278.665C1430 278.026 1429.83 277.354 1429.61 276.809C1429.26 276.211 1428.85 275.74 1428.16 275.599L1420.61 273.172C1420.1 272.956 1419.48 272.997 1418.94 273.219C1418.21 273.514 1417.69 274.045 1417.42 274.684L1415.86 279.444L1414.86 279.323C1412.24 279.121 1409.69 279.101 1407.24 279.572L1406.26 279.76L1404.33 275.04C1403.82 273.769 1402.28 273.124 1401.01 273.642L1393.57 276.673C1393.03 276.895 1392.5 277.426 1392.23 278.065C1391.96 278.704 1392 279.322 1392.17 279.995L1394.09 284.714L1393.26 285.266C1391.12 286.771 1389.24 288.385 1387.51 290.361L1386.87 291.148L1382.31 288.775C1381.67 288.506 1380.8 288.438 1380.2 288.788C1379.65 289.01 1379.18 289.413 1378.97 289.924L1375.26 296.936C1374.99 297.575 1374.85 298.267 1375.07 298.812C1375.24 299.484 1375.77 300.009 1376.29 300.224L1380.72 302.543L1380.47 303.491C1379.76 305.898 1379.43 308.466 1379.36 311.142L1379.42 312.07L1374.46 313.139C1374.27 313.213 1374.15 313.159 1374.09 313.287C1373 313.73 1372.34 314.954 1372.6 316.117L1374.29 323.896C1374.4 324.696 1375.01 325.402 1375.77 325.724C1376.28 325.94 1376.72 325.973 1377.21 325.879L1382.17 324.81L1382.54 325.718C1383.69 328.004 1385.01 330.216 1386.57 332.226L1386.85 332.643L1383.63 336.703C1383.24 337.288 1382.97 337.927 1383.13 338.599C1383.18 339.218 1383.52 339.816 1384.06 340.341L1390.4 345.269C1391.06 345.847 1392.06 345.968 1392.97 345.598C1393.33 345.45 1393.75 345.175 1394.04 344.845L1397.2 340.912L1398.09 341.289C1400.34 342.385 1402.87 343.151 1405.33 343.736L1406.28 343.985L1406.5 349.189C1406.54 349.807 1406.83 350.533 1407.29 350.876C1407.82 351.401 1408.51 351.542 1409.13 351.502L1417.07 351.233C1417.37 351.213 1417.56 351.139 1417.87 351.119C1418.77 350.749 1419.51 349.707 1419.51 348.651L1419.37 343.629L1420.35 343.441C1421.69 343.105 1423.09 342.641 1424.23 342.07C1425.32 341.626 1426.41 341.182 1427.43 340.557L1428.21 340.134L1431.69 344.006C1432.42 344.766 1433.55 344.941 1434.59 344.625C1434.77 344.551 1435.13 344.403 1435.24 344.147L1441.23 338.85C1441.7 338.446 1441.97 337.808 1442.11 337.115C1442.12 336.369 1441.9 335.824 1441.5 335.354L1438.09 331.663L1438.72 330.876C1440.2 328.792 1441.48 326.473 1442.32 324.12L1442.69 323.225L1447.78 324.012C1447.89 323.757 1448.38 323.663 1448.74 323.515ZM1408.15 323.117C1401.51 320.32 1398.28 312.642 1401.13 305.872C1403.92 299.23 1411.6 295.996 1418.37 298.847C1425.01 301.644 1428.25 309.322 1425.4 316.092C1422.55 322.862 1414.92 325.968 1408.15 323.117Z" fill="#050505" fill-opacity="0.33"/>
</g>
<path d="M1287.31 309.378L1277.31 314.191L1285.89 279.904L1306.38 309.439L1295.47 307.852L1299.3 329.467L1290.45 330.851L1287.31 309.378Z" stroke="#0E0E0E" stroke-opacity="0.14" stroke-width="2" stroke-miterlimit="10" stroke-linecap="round" stroke-linejoin="round"/>
<path opacity="0.3" d="M1325.92 298.413L1355.66 227.775L1287.83 199.213L1258.09 269.852L1290.15 283.353L1282.93 312.645L1292.8 307.778L1296.06 329.305L1304.87 328.048L1300.96 306.252L1312 307.892L1296.79 286.15L1304.71 289.484L1325.92 298.413Z" fill="#050505" fill-opacity="0.33"/>
<path d="M1284.13 287.285L1245.94 271.203L1275.63 200.692L1345.76 230.222L1316.07 300.733L1294.1 291.481" stroke="#0E0E0E" stroke-opacity="0.14" stroke-width="2" stroke-miterlimit="10" stroke-linecap="round" stroke-linejoin="round"/>
<path d="M1273.21 206.44L1343.08 235.862" stroke="#0E0E0E" stroke-opacity="0.14" stroke-width="2" stroke-miterlimit="10" stroke-linecap="round" stroke-linejoin="round"/>
<path d="M1335.45 232.198L1337.55 227.217" stroke="#0E0E0E" stroke-opacity="0.14" stroke-width="2" stroke-miterlimit="10" stroke-linecap="round" stroke-linejoin="round"/>
<path opacity="0.3" d="M1319.85 257.813C1319.31 259.09 1317.92 259.554 1316.64 259.016L1273.46 240.835C1272.19 240.298 1271.6 238.845 1272.08 237.696C1272.62 236.418 1274.02 235.954 1275.29 236.492L1318.47 254.673C1319.75 255.211 1320.34 256.663 1319.85 257.813Z" fill="#050505" fill-opacity="0.33"/>
<path d="M1291.22 254.026L1276.78 247.948L1275.76 250.375L1290.2 256.453L1291.22 254.026Z" fill="#050505" fill-opacity="0.33"/>
<path d="M1308.46 261.288L1294.03 255.21L1293.01 257.637L1307.44 263.715L1308.46 261.288Z" fill="#050505" fill-opacity="0.33"/>
<path d="M1208.62 218.042L1216.12 215.938L1212.39 209.101L1208.62 218.042Z" stroke="#0E0E0E" stroke-opacity="0.14" stroke-width="2" stroke-miterlimit="10" stroke-linecap="round" stroke-linejoin="round"/>
<path opacity="0.3" d="M1210.62 215.427L1218.07 213.451L1214.7 206.465L1210.62 215.427Z" fill="#050505" fill-opacity="0.33"/>
<path d="M1327.69 182.763L1284.14 164.422" stroke="#0E0E0E" stroke-opacity="0.14" stroke-width="2" stroke-linecap="round" stroke-linejoin="round" stroke-dasharray="4 4"/>
<path d="M874.387 335.363C877.914 336.849 881.978 335.193 883.463 331.666C884.948 328.139 883.293 324.075 879.766 322.59C876.238 321.104 872.175 322.76 870.689 326.287C869.204 329.815 870.859 333.878 874.387 335.363Z" stroke="#0E0E0E" stroke-opacity="0.14" stroke-width="2" stroke-linecap="round" stroke-linejoin="round" stroke-dasharray="4 4"/>
<path d="M921.304 231.803C920.443 233.847 914.695 231.426 913.834 233.47C912.974 235.514 918.722 237.934 917.861 239.978C917 242.022 911.252 239.601 910.392 241.645C909.531 243.689 915.279 246.109 914.419 248.153C913.558 250.197 907.81 247.776 906.949 249.82C906.089 251.864 911.837 254.284 910.976 256.328C910.116 258.372 904.367 255.952 903.507 257.995" stroke="#0E0E0E" stroke-opacity="0.14" stroke-width="2" stroke-linecap="round" stroke-linejoin="round"/>
<path d="M1114.29 291.711C1117.81 293.196 1121.88 291.541 1123.36 288.013C1124.85 284.486 1123.19 280.423 1119.67 278.937C1116.14 277.452 1112.08 279.107 1110.59 282.635C1109.1 286.162 1110.76 290.226 1114.29 291.711Z" stroke="#0E0E0E" stroke-opacity="0.14" stroke-width="2" stroke-linecap="round" stroke-linejoin="round" stroke-dasharray="4 4"/>
<path d="M943.989 170.072C947.516 171.558 951.58 169.902 953.065 166.375C954.551 162.847 952.895 158.784 949.368 157.299C945.84 155.813 941.777 157.469 940.292 160.996C938.806 164.523 940.462 168.587 943.989 170.072Z" stroke="#0E0E0E" stroke-opacity="0.14" stroke-width="2" stroke-linecap="round" stroke-linejoin="round" stroke-dasharray="4 4"/>
<path d="M1068.41 168.173C1076.74 171.232 1084.02 170.386 1085.79 166.17C1087.35 162.466 1085.25 157.82 1079.75 155.507C1075.41 153.678 1070.36 154.257 1066.2 156.267L1061.89 145.429C1069.42 141.832 1078.06 140.959 1086.88 144.67C1098.75 149.672 1103.81 160.523 1099.56 170.615C1096.17 178.662 1086.52 183.018 1076.53 181.371L1073.84 187.758L1062.22 182.863L1068.41 168.173V168.173ZM1053.91 195.455C1055.69 191.24 1060.95 189.095 1065.55 191.032C1069.89 192.86 1071.91 198.071 1070.13 202.286C1068.2 206.885 1063.06 209.083 1058.72 207.254C1054.12 205.318 1051.97 200.053 1053.91 195.455Z" stroke="#0E0E0E" stroke-opacity="0.14" stroke-width="2" stroke-miterlimit="10" stroke-linecap="round" stroke-linejoin="round"/>
<g opacity="0.3">
<path opacity="0.3" d="M1070.32 174.695C1078.66 177.754 1085.93 176.907 1087.71 172.692C1089.27 168.987 1087.16 164.342 1081.67 162.029C1077.33 160.2 1072.27 160.778 1068.12 162.788L1063.81 151.95C1071.34 148.354 1079.98 147.48 1088.79 151.191C1100.67 156.194 1105.73 167.045 1101.48 177.136C1098.09 185.184 1088.43 189.54 1078.45 187.892L1075.76 194.279L1064.14 189.384L1070.32 174.695ZM1055.95 202.03C1057.73 197.815 1062.99 195.67 1067.59 197.607C1071.93 199.436 1073.95 204.646 1072.18 208.861C1070.24 213.46 1065.1 215.658 1060.76 213.829C1056.03 211.839 1054.02 206.629 1055.95 202.03Z" fill="#050505" fill-opacity="0.33"/>
</g>
<path d="M1006.03 181.308C1014.37 184.367 1021.64 183.52 1023.41 179.305C1024.97 175.601 1022.87 170.955 1017.38 168.642C1013.03 166.813 1007.98 167.391 1003.82 169.401L999.515 158.564C1007.05 154.967 1015.68 154.093 1024.5 157.805C1036.38 162.807 1041.43 173.658 1037.18 183.749C1033.79 191.797 1024.14 196.153 1014.16 194.506L1011.47 200.892L999.843 195.998L1006.03 181.308ZM991.607 208.771C993.382 204.556 998.646 202.411 1003.24 204.348C1007.59 206.177 1009.6 211.387 1007.83 215.602C1005.89 220.201 1000.76 222.399 996.414 220.57C991.688 218.58 989.725 213.242 991.607 208.771Z" stroke="#0E0E0E" stroke-opacity="0.14" stroke-width="2" stroke-miterlimit="10" stroke-linecap="round" stroke-linejoin="round"/>
<g opacity="0.3">
<path opacity="0.3" d="M1008.07 187.883C1016.41 190.943 1023.68 190.096 1025.46 185.88C1027.02 182.176 1024.91 177.53 1019.42 175.217C1015.08 173.389 1010.02 173.967 1005.87 175.977L1001.56 165.139C1009.09 161.542 1017.73 160.669 1026.54 164.38C1038.42 169.382 1043.48 180.234 1039.28 190.197C1035.89 198.244 1026.24 202.601 1016.25 200.953L1013.56 207.34L1001.94 202.445L1008.07 187.883ZM993.523 215.293C995.298 211.078 1000.56 208.933 1005.16 210.869C1009.5 212.698 1011.52 217.909 1009.75 222.124C1007.81 226.723 1002.67 228.921 998.33 227.092C993.731 225.156 991.641 219.764 993.523 215.293Z" fill="#050505" fill-opacity="0.33"/>
</g>
<path opacity="0.2" d="M1040.65 130.167C1042.37 126.08 1040.5 121.232 1036.28 119.457C1034.5 118.704 1032.57 118.644 1030.86 119.128C1033.06 112.835 1029.99 105.829 1023.73 103.194C1019.01 101.204 1013.74 102.292 1010.1 105.573C1009.62 102.064 1007.36 98.8568 1003.91 97.4045C998.549 95.1454 992.505 97.7135 990.299 102.951C989.594 100.698 987.906 98.6344 985.607 97.6662C981.392 95.8912 976.49 97.8878 974.715 102.103C973.102 105.935 974.621 110.184 977.929 112.329C978.258 112.618 978.587 112.907 978.971 113.069L1030.19 134.638C1030.58 134.799 1030.83 134.907 1031.14 134.886C1035.06 135.935 1039.03 133.999 1040.65 130.167Z" fill="#050505" fill-opacity="0.33"/>
<path d="M1033.71 123.787C1035.43 119.699 1033.56 114.852 1029.35 113.077C1027.56 112.324 1025.63 112.263 1023.92 112.747C1026.12 106.454 1023.05 99.4487 1016.8 96.8131C1012.07 94.8229 1006.8 95.9119 1003.16 99.1926C1002.68 95.6832 1000.42 92.4762 996.976 91.0239C991.611 88.7648 985.567 91.3328 983.361 96.57C982.656 94.3178 980.968 92.2538 978.669 91.2856C974.454 89.5106 969.552 91.5072 967.777 95.7225C966.164 99.5546 967.683 103.804 970.991 105.948C971.32 106.237 971.65 106.527 972.033 106.688L1023.26 128.257C1023.64 128.418 1023.89 128.526 1024.2 128.506C1028.18 129.427 1032.15 127.491 1033.71 123.787Z" stroke="#0E0E0E" stroke-opacity="0.14" stroke-width="2" stroke-linecap="round" stroke-linejoin="round"/>
<path opacity="0.2" d="M1146.36 123.4C1148.84 117.524 1146.03 110.626 1140.15 108.152C1137.59 107.076 1134.92 107.002 1132.54 107.654C1135.61 98.5713 1131.24 88.6076 1122.29 84.8424C1115.52 81.9916 1107.98 83.4772 1102.82 88.2235C1102.06 83.2417 1098.85 78.7304 1093.87 76.6327C1086.33 73.4591 1077.49 76.9549 1074.26 84.6191C1074.26 84.6191 1074.26 84.6191 1074.21 84.7468C1073.19 81.4592 1070.9 78.6892 1067.45 77.2369C1061.44 74.7089 1054.55 77.5189 1052.02 83.5225C1049.7 89.0152 1051.78 95.1534 1056.7 98.1252C1057.15 98.4681 1057.74 98.8648 1058.25 99.0799L1131.44 129.901C1131.95 130.116 1132.39 130.149 1132.77 130.311C1138.39 131.622 1144.1 128.765 1146.36 123.4Z" fill="#050505" fill-opacity="0.33"/>
<path d="M1136.38 114.236C1138.86 108.36 1136.05 101.462 1130.17 98.988C1127.62 97.9122 1124.94 97.8382 1122.56 98.4902C1125.64 89.4075 1121.26 79.4437 1112.32 75.6786C1105.55 72.8278 1098 74.3133 1092.85 79.0597C1092.09 74.0779 1088.87 69.5666 1083.89 67.4688C1076.36 64.2953 1067.51 67.7911 1064.29 75.4553C1064.29 75.4553 1064.29 75.4553 1064.23 75.583C1063.21 72.2954 1060.92 69.5254 1057.47 68.0731C1051.47 65.5451 1044.57 68.3551 1042.04 74.3587C1039.73 79.8514 1041.81 85.9896 1046.72 88.9614C1047.18 89.3043 1047.76 89.7009 1048.27 89.9161L1121.47 120.737C1121.98 120.952 1122.41 120.986 1122.8 121.147C1128.46 122.33 1134.18 119.473 1136.38 114.236Z" stroke="#0E0E0E" stroke-opacity="0.14" stroke-width="2" stroke-linecap="round" stroke-linejoin="round"/>
<path d="M1159.57 180.36L1166.15 192.4L1223.67 160.953L1217.09 148.914L1159.57 180.36Z" stroke="#0E0E0E" stroke-opacity="0.14" stroke-width="2" stroke-linecap="round" stroke-linejoin="round"/>
<path d="M1165.94 192.251L1148.25 194.275L1159.46 180.499L1165.94 192.251Z" stroke="#0E0E0E" stroke-opacity="0.14" stroke-width="2" stroke-linecap="round" stroke-linejoin="round"/>
<path d="M1163.25 186.154L1212.91 158.94" stroke="#0E0E0E" stroke-opacity="0.14" stroke-width="2" stroke-linecap="round" stroke-linejoin="round" stroke-dasharray="12 12"/>
<path d="M1217.08 148.667L1223.5 145.205C1225.48 144.082 1228.01 144.849 1229.14 146.826L1231.75 151.686C1232.87 153.663 1232.11 156.198 1230.13 157.32L1223.71 160.783" stroke="#0E0E0E" stroke-opacity="0.14" stroke-width="2" stroke-linecap="round" stroke-linejoin="round"/>
<path d="M1219.39 162.121L1213.58 151.256" stroke="#0E0E0E" stroke-opacity="0.14" stroke-width="2" stroke-linecap="round" stroke-linejoin="round"/>
<path d="M1155.21 193.448L1152.77 189.26" stroke="#0E0E0E" stroke-opacity="0.14" stroke-width="2" stroke-linecap="round" stroke-linejoin="round"/>
<g opacity="0.3">
<path opacity="0.3" d="M1210.35 146.435C1210.35 146.435 1208.74 147.41 1206.63 148.479L1158.77 174.644C1156.79 175.766 1155.11 176.56 1155.11 176.56C1155.11 176.56 1153.9 178.005 1152.52 179.834L1146.49 187.37C1144.99 189.145 1145.82 190.395 1148.04 190.127L1157.66 189.065C1159.88 188.796 1161.79 188.547 1161.79 188.547C1161.79 188.547 1163.4 187.572 1165.45 186.631L1213.5 160.392C1215.47 159.27 1217.16 158.476 1217.16 158.476C1217.16 158.476 1218.77 157.502 1220.83 156.56L1225.92 153.744C1227.9 152.621 1228.66 150.086 1227.54 148.11L1224.93 143.249C1223.8 141.272 1221.27 140.506 1219.29 141.629L1214.01 144.519C1212.09 145.514 1210.35 146.435 1210.35 146.435Z" fill="#050505" fill-opacity="0.33"/>
</g>
<path d="M1092.67 346.974L1085.57 363.835" stroke="#0E0E0E" stroke-opacity="0.14" stroke-width="2" stroke-linecap="round" stroke-linejoin="round" stroke-dasharray="4 4"/>
<path d="M1044.6 253.643L1042.49 246.14L1035.53 249.824L1044.6 253.643Z" stroke="#0E0E0E" stroke-opacity="0.14" stroke-width="2" stroke-miterlimit="10" stroke-linecap="round" stroke-linejoin="round"/>
<path opacity="0.3" d="M1041.93 251.767L1040.01 244.19L1032.97 247.693L1041.93 251.767Z" fill="#050505" fill-opacity="0.33"/>
<g opacity="0.3">
<path opacity="0.3" d="M228.598 59.5815C228.368 60.6199 227.699 64.6118 227.48 65.1079C226.939 67.0578 227.343 69.6535 224.805 69.308C222.186 68.8357 223.812 66.9086 223.06 57.0449C222.319 46.6388 221.13 43.6511 220.241 42.2554C218.787 39.9715 215.936 36.615 209.303 40.4816C206.431 42.1321 204.863 45.2706 204.194 47.3012C203.561 49.6664 203.78 51.1315 204.346 52.0197C204.911 52.9079 206.03 53.2653 206.999 52.8266C208.176 52.4341 207.679 50.2537 208.451 47.2655C208.901 45.731 210.585 45.0152 211.312 46.1572C212.282 47.6798 212.259 48.7643 212.573 57.6591C212.921 64.9272 213.741 69.5763 215.357 72.114C216.973 74.6517 220.723 78.8616 227.645 75.168C233.597 71.9131 234.863 63.2601 233.49 59.1418C232.739 57.123 229.324 56.8009 228.598 59.5815Z" fill="#050505" fill-opacity="0.33"/>
<path opacity="0.3" d="M213.801 32.9816C216.324 31.3752 217.067 28.028 215.46 25.5053C213.854 22.9825 210.507 22.2396 207.984 23.8459C205.461 25.4522 204.718 28.7995 206.325 31.3222C207.931 33.845 211.278 34.5879 213.801 32.9816Z" fill="#050505" fill-opacity="0.33"/>
</g>
<path d="M223.926 59.5251C223.695 60.5635 223.027 64.5554 222.808 65.0515C222.266 67.0014 222.671 69.5971 220.133 69.2517C217.514 68.7794 219.14 66.8523 218.387 56.9885C217.646 46.5825 216.457 43.5947 215.569 42.199C214.114 39.9151 211.264 36.5586 204.631 40.4252C201.759 42.0758 200.191 45.2142 199.522 47.2448C198.888 49.61 199.108 51.0752 199.673 51.9634C200.239 52.8516 201.358 53.2089 202.327 52.7702C203.504 52.3777 203.007 50.1973 203.779 47.2091C204.229 45.6746 205.913 44.9588 206.64 46.1008C207.61 47.6234 207.587 48.7079 207.901 57.6027C208.249 64.8708 209.069 69.5199 210.685 72.0576C212.301 74.5953 216.051 78.8052 222.972 75.1116C228.924 71.8567 230.191 63.2037 228.817 59.0854C228.067 57.0667 224.733 56.8714 223.926 59.5251Z" stroke="#0E0E0E" stroke-opacity="0.14" stroke-width="2" stroke-miterlimit="10"/>
<path d="M209.129 32.9251C211.651 31.3188 212.394 27.9715 210.788 25.4488C209.182 22.9261 205.835 22.1832 203.312 23.7895C200.789 25.3958 200.046 28.743 201.652 31.2658C203.259 33.7885 206.606 34.5314 209.129 32.9251Z" stroke="#0E0E0E" stroke-opacity="0.14" stroke-width="2" stroke-miterlimit="10"/>
<path opacity="0.2" d="M298.632 78.8299C296.936 76.1653 293.405 75.3817 290.741 77.0783C289.599 77.8054 288.826 78.8324 288.342 80.0324C285.583 76.2606 280.345 75.316 276.412 77.8205C273.367 79.7595 271.96 83.1517 272.307 86.4973C270.161 85.3672 267.323 85.3911 265.166 86.7645C261.74 88.9459 260.853 93.4339 262.954 96.7329C261.338 96.1565 259.539 96.4108 258.016 97.3803C255.351 99.0769 254.568 102.607 256.265 105.272C257.8 107.683 260.869 108.582 263.395 107.508C263.729 107.473 263.983 107.312 264.237 107.15L296.846 86.387C297.1 86.2254 297.227 86.1446 297.4 85.8561C299.684 84.4019 300.167 81.2407 298.632 78.8299Z" fill="#050505" fill-opacity="0.33"/>
<path d="M292.218 80.239C290.521 77.5745 286.991 76.7909 284.326 78.4875C283.184 79.2146 282.412 80.2416 281.928 81.4416C279.169 77.6698 273.931 76.7251 269.998 79.2296C266.953 81.1686 265.546 84.5608 265.893 87.9064C263.747 86.7764 260.909 86.8002 258.752 88.1737C255.326 90.355 254.439 94.8431 256.539 98.1421C254.924 97.5656 253.124 97.8199 251.602 98.7894C248.937 100.486 248.154 104.016 249.85 106.681C251.385 109.092 254.454 109.991 256.981 108.917C257.315 108.883 257.569 108.721 257.823 108.559L290.432 87.7961C290.686 87.6345 290.813 87.5537 290.985 87.2653C293.269 85.811 293.753 82.6498 292.218 80.239Z" stroke="#0E0E0E" stroke-opacity="0.14" stroke-width="2" stroke-linecap="round" stroke-linejoin="round"/>
<path d="M67.3018 102.011C70.8056 99.7796 71.8374 95.1307 69.6064 91.6269C67.3754 88.1231 62.7264 87.0913 59.2226 89.3223C55.7188 91.5532 54.687 96.2022 56.918 99.706C59.149 103.21 63.798 104.242 67.3018 102.011Z" stroke="#0E0E0E" stroke-opacity="0.14" stroke-width="2" stroke-linecap="round" stroke-linejoin="round" stroke-dasharray="4 4"/>
<path d="M-12.398 177.367C-24.7057 185.204 -28.4739 201.691 -20.5563 214.125C-12.6388 226.56 3.76754 230.201 16.2021 222.284C28.5099 214.447 32.278 197.96 24.3605 185.525C16.443 173.091 -0.0902536 169.53 -12.398 177.367ZM24.1663 192.782L18.0759 196.66C16.3213 192.784 13.9783 189.104 11.0009 185.829L16.9645 182.032C18.6031 183.485 20.1956 185.146 21.4883 187.176C22.6193 188.952 23.4967 190.89 24.1663 192.782ZM-11.965 200.452L-3.46381 195.039L3.48424 205.951L-5.14386 211.445C-7.91355 208.215 -10.2565 204.536 -11.965 200.452ZM-9.68628 179.385C-8.67121 178.739 -7.57534 178.219 -6.39869 177.827C-1.76044 179.51 2.43964 182.185 5.87845 185.346L-2.49586 190.678L-9.68628 179.385ZM-5.16043 192.374L-13.0272 197.383C-14.4359 192.931 -15.0024 188.12 -14.6461 183.078C-13.9656 182.467 -13.1582 181.774 -12.3508 181.082L-5.16043 192.374ZM5.18086 208.616L12.6944 220.416C11.7255 220.854 10.9642 221.339 9.9144 221.651C4.98769 219.795 0.787575 217.119 -2.81282 213.705L5.18086 208.616ZM7.84543 206.919L16.4735 201.425C18.0438 206.132 18.6911 211.069 18.2887 216.319C17.4353 217.219 16.501 217.992 15.359 218.719L7.84543 206.919ZM6.14881 204.254L-0.799243 193.342L8.20949 187.606C11.1061 190.755 13.5759 194.354 15.2844 198.437L6.14881 204.254ZM14.2528 180.013L8.79678 183.487C5.80802 180.754 2.5194 178.39 -1.11517 176.603C4.15698 175.92 9.68342 177.038 14.2528 180.013ZM-17.8177 187.059C-17.6551 191.236 -17.0311 195.296 -15.6918 199.08L-21.2747 202.635C-22.0375 197.236 -20.793 191.629 -17.8177 187.059ZM-20.72 206.027L-14.6296 202.149C-13.0018 206.105 -10.6589 209.785 -7.8084 213.141L-13.8988 217.019C-15.4566 215.693 -16.8415 214.078 -17.9726 212.302C-19.1845 210.399 -20.1426 208.334 -20.72 206.027ZM-11.314 219.118L-5.60425 215.483C-2.66159 218.424 0.915489 220.961 4.83853 222.921C-0.768181 223.638 -6.58307 222.348 -11.314 219.118ZM21.5872 212.257C21.4707 207.873 20.7658 203.685 19.265 199.648L24.8478 196.093C25.7723 201.746 24.6086 207.48 21.5872 212.257Z" fill="#050505" fill-opacity="0.33"/>
<path opacity="0.3" d="M4.67607 262.435C7.27226 263.992 10.549 264.937 13.8485 264.798C20.782 264.484 26.6762 260.018 28.8088 253.845C34.1975 257.547 41.3273 257.822 47.164 254.106C53.0007 250.389 55.8138 243.605 54.7392 237.156C61.1538 237.708 67.5674 234.338 70.8654 228.315C74.0825 222.165 73.1923 214.885 68.8761 209.787C74.7361 206.948 78.5763 200.936 78.3437 194.129C78.0304 187.196 73.5641 181.301 67.3913 179.169C71.0932 173.78 71.3683 166.65 67.6519 160.814C63.9355 154.977 57.151 152.164 50.7022 153.238C51.2543 146.824 47.8839 140.41 41.8608 137.112C35.7108 133.895 28.4313 134.785 23.3332 139.102C20.4936 133.242 14.4819 129.401 7.67522 129.634C0.741674 129.947 -5.15248 134.414 -7.28516 140.586C-12.6738 136.884 -19.8037 136.609 -25.6403 140.326C-31.477 144.042 -34.2902 150.827 -33.2155 157.275C-39.6302 156.723 -46.0438 160.094 -49.3417 166.117C-52.5588 172.267 -51.6686 179.546 -47.3525 184.644C-53.2124 187.484 -57.0526 193.496 -56.8201 200.302C-56.5068 207.236 -52.0404 213.13 -45.8677 215.263C-49.5696 220.651 -49.8446 227.781 -46.1282 233.618C-42.4118 239.455 -35.6274 242.268 -29.1786 241.193C-29.7306 247.608 -26.3602 254.021 -20.3371 257.319C-16.6218 259.233 -10.5878 260.028 -6.81545 259.231L-5.48188 285.131L4.67607 262.435Z" fill="#050505" fill-opacity="0.33"/>
<path d="M-8.12997 262.208C-5.53377 263.765 -2.25706 264.71 1.04244 264.57C7.97599 264.257 13.8701 259.791 16.0028 253.618C21.3915 257.32 28.5213 257.595 34.358 253.878C40.1946 250.162 43.0078 243.378 41.9332 236.929C48.3478 237.481 54.7614 234.111 58.0593 228.087C61.2765 221.937 60.3862 214.658 56.0701 209.56C61.9301 206.72 65.7703 200.709 65.5377 193.902C65.2244 186.968 60.7581 181.074 54.5853 178.941C58.2872 173.553 58.5622 166.423 54.8458 160.586C51.1294 154.75 44.345 151.936 37.8962 153.011C38.4483 146.596 35.0779 140.183 29.0548 136.885C22.9048 133.668 15.6253 134.558 10.5271 138.874C7.68754 133.014 1.67585 129.174 -5.13082 129.407C-12.0644 129.72 -17.9585 134.186 -20.0912 140.359C-25.4799 136.657 -32.6097 136.382 -38.4463 140.098C-44.283 143.815 -47.0962 150.599 -46.0216 157.048C-52.4362 156.496 -58.8498 159.866 -62.1477 165.89C-65.3649 172.04 -64.4746 179.319 -60.1585 184.417C-66.0184 187.257 -69.8586 193.268 -69.6261 200.075C-69.3128 207.009 -64.8465 212.903 -58.6737 215.035C-62.3756 220.424 -62.6506 227.554 -58.9342 233.391C-55.2178 239.227 -48.4334 242.04 -41.9846 240.966C-42.5367 247.38 -39.1662 253.794 -33.1431 257.092C-29.4278 259.006 -23.3938 259.801 -19.6215 259.004L-18.2879 284.903L-8.12997 262.208Z" stroke="#0E0E0E" stroke-opacity="0.14" stroke-width="2" stroke-miterlimit="10" stroke-linecap="round" stroke-linejoin="round"/>
<path d="M159.174 120.549C174.451 110.822 178.95 90.5523 169.222 75.2757C159.495 59.9992 139.226 55.5005 123.949 65.2276C108.673 74.9547 104.174 95.2242 113.901 110.501C123.628 125.777 143.898 130.276 159.174 120.549Z" stroke="#0E0E0E" stroke-opacity="0.14" stroke-width="2" stroke-miterlimit="10"/>
<path d="M154.731 113.57C166.153 106.297 169.517 91.1417 162.244 79.7193C154.971 68.2969 139.815 64.9333 128.393 72.2063C116.97 79.4793 113.607 94.6349 120.88 106.057C128.153 117.48 143.308 120.843 154.731 113.57Z" stroke="#0E0E0E" stroke-opacity="0.14" stroke-width="2" stroke-miterlimit="10"/>
<path d="M126.562 83.8935C128.856 79.9357 132.628 77.1774 137.035 75.9764" stroke="#0E0E0E" stroke-opacity="0.14" stroke-width="2" stroke-miterlimit="10" stroke-linecap="round" stroke-linejoin="round"/>
<path d="M147.985 124.821L145.897 168.592C145.598 172.884 141.895 176.311 137.396 175.966C132.977 175.748 129.55 172.046 129.641 167.708L131.81 124.064" stroke="#0E0E0E" stroke-opacity="0.14" stroke-width="2" stroke-miterlimit="10"/>
<path d="M148.494 130.381C145.425 131.443 142.368 131.963 138.953 131.641C136.369 131.503 133.923 130.743 131.604 129.901" stroke="#0E0E0E" stroke-opacity="0.14" stroke-width="2" stroke-miterlimit="10"/>
<path d="M148.207 136.092C145.138 137.154 142.081 137.674 138.666 137.352C136.082 137.214 133.636 136.453 131.317 135.612" stroke="#0E0E0E" stroke-opacity="0.14" stroke-width="2" stroke-miterlimit="10"/>
<path opacity="0.3" d="M148.557 61.8641C130.547 61.0267 115.149 74.9326 114.312 92.9418C113.612 108.367 123.595 121.804 137.821 125.942L137.279 125.931L135.11 169.575C134.811 173.867 138.365 177.489 142.865 177.834C147.284 178.052 151.067 174.751 151.366 170.459L153.535 126.815C167.909 123.904 179.015 111.661 179.669 96.4433C180.472 78.0995 166.566 62.7015 148.557 61.8641ZM145.687 118.972C132.097 118.353 121.699 106.784 122.399 93.3204C123.019 79.7298 134.587 69.3321 148.051 70.0323C161.642 70.6517 172.039 82.2204 171.339 95.684C170.72 109.275 159.232 119.799 145.687 118.972Z" fill="#050505" fill-opacity="0.33"/>
<path d="M146.814 148.748L177.774 129.035" stroke="#0E0E0E" stroke-opacity="0.14" stroke-width="2" stroke-miterlimit="10" stroke-linecap="round" stroke-linejoin="round"/>
<path d="M116.743 167.896L130.193 159.332" stroke="#0E0E0E" stroke-opacity="0.14" stroke-width="2" stroke-miterlimit="10" stroke-linecap="round" stroke-linejoin="round"/>
</svg>
