<svg width="178" height="46" viewBox="0 0 178 46" fill="none" xmlns="http://www.w3.org/2000/svg">
<g clip-path="url(#clip0)">
<path d="M46.3187 21.979L40.5187 18.5747L35.7422 23.0002L40.1775 27.4258L46.3187 23.6811C46.6598 23.3407 47.001 23.0002 47.001 22.6598C47.001 22.3194 46.6598 21.979 46.3187 21.979Z" fill="#282828"/>
<path d="M39.494 17.8936L33.0117 14.1489L19.0234 7L35.0587 22.3191L39.494 17.8936Z" fill="#282828"/>
<path d="M19.0234 39.0002L33.0117 31.5108L39.1528 28.1066L35.0587 24.0215L19.0234 39.0002Z" fill="#282828"/>
<path d="M18 7.68066V38.6594L34.0353 22.9998L18 7.68066Z" fill="#282828"/>
</g>
<rect x="0.5" y="0.5" width="177" height="45" rx="3.5" stroke="#282828"/>
<path d="M63.056 18L67.13 8.2H68.432L72.45 18H71.274L70.042 14.92H65.422L64.176 18H63.056ZM65.8 13.996H69.664L67.746 9.208L65.8 13.996ZM74.3248 18L71.2868 10.986H72.4348L74.8288 16.656L77.2228 10.986H78.3288L75.3048 18H74.3248ZM81.4885 18.126C80.7232 18.126 80.0979 17.93 79.6125 17.538C79.1365 17.146 78.8985 16.6373 78.8985 16.012C78.8985 15.3587 79.1505 14.8407 79.6545 14.458C80.1585 14.066 80.8399 13.87 81.6985 13.87C82.0719 13.87 82.4312 13.912 82.7765 13.996C83.1312 14.08 83.4579 14.1967 83.7565 14.346V13.422C83.7565 12.862 83.5979 12.442 83.2805 12.162C82.9632 11.8727 82.5012 11.728 81.8945 11.728C81.5492 11.728 81.1992 11.7793 80.8445 11.882C80.4992 11.9753 80.1165 12.1293 79.6965 12.344L79.3045 11.546C79.8085 11.3033 80.2752 11.126 80.7045 11.014C81.1339 10.902 81.5632 10.846 81.9925 10.846C82.8792 10.846 83.5605 11.056 84.0365 11.476C84.5219 11.896 84.7645 12.498 84.7645 13.282V18H83.7565V17.314C83.4392 17.5847 83.0892 17.79 82.7065 17.93C82.3332 18.0607 81.9272 18.126 81.4885 18.126ZM79.8925 15.984C79.8925 16.376 80.0559 16.698 80.3825 16.95C80.7185 17.1927 81.1479 17.314 81.6705 17.314C82.0905 17.314 82.4732 17.2487 82.8185 17.118C83.1639 16.9873 83.4765 16.782 83.7565 16.502V15.186C83.4672 14.99 83.1545 14.85 82.8185 14.766C82.4919 14.6727 82.1279 14.626 81.7265 14.626C81.1665 14.626 80.7185 14.752 80.3825 15.004C80.0559 15.2467 79.8925 15.5733 79.8925 15.984ZM87.0133 9.642C86.8266 9.642 86.6633 9.572 86.5233 9.432C86.3833 9.292 86.3133 9.12867 86.3133 8.942C86.3133 8.746 86.3833 8.58267 86.5233 8.452C86.6633 8.312 86.8266 8.242 87.0133 8.242C87.2093 8.242 87.3726 8.312 87.5033 8.452C87.6433 8.58267 87.7133 8.746 87.7133 8.942C87.7133 9.12867 87.6433 9.292 87.5033 9.432C87.3726 9.572 87.2093 9.642 87.0133 9.642ZM87.5313 10.986V18H86.4953V10.986H87.5313ZM90.334 7.962V18H89.298V8.2L90.334 7.962ZM94.3128 18.126C93.5474 18.126 92.9221 17.93 92.4368 17.538C91.9608 17.146 91.7228 16.6373 91.7228 16.012C91.7228 15.3587 91.9748 14.8407 92.4788 14.458C92.9828 14.066 93.6641 13.87 94.5228 13.87C94.8961 13.87 95.2554 13.912 95.6008 13.996C95.9554 14.08 96.2821 14.1967 96.5808 14.346V13.422C96.5808 12.862 96.4221 12.442 96.1048 12.162C95.7874 11.8727 95.3254 11.728 94.7188 11.728C94.3734 11.728 94.0234 11.7793 93.6688 11.882C93.3234 11.9753 92.9408 12.1293 92.5208 12.344L92.1288 11.546C92.6328 11.3033 93.0994 11.126 93.5288 11.014C93.9581 10.902 94.3874 10.846 94.8167 10.846C95.7034 10.846 96.3848 11.056 96.8608 11.476C97.3461 11.896 97.5888 12.498 97.5888 13.282V18H96.5808V17.314C96.2634 17.5847 95.9134 17.79 95.5308 17.93C95.1574 18.0607 94.7514 18.126 94.3128 18.126ZM92.7168 15.984C92.7168 16.376 92.8801 16.698 93.2068 16.95C93.5428 17.1927 93.9721 17.314 94.4948 17.314C94.9148 17.314 95.2974 17.2487 95.6428 17.118C95.9881 16.9873 96.3008 16.782 96.5808 16.502V15.186C96.2914 14.99 95.9788 14.85 95.6428 14.766C95.3161 14.6727 94.9521 14.626 94.5508 14.626C93.9908 14.626 93.5428 14.752 93.2068 15.004C92.8801 15.2467 92.7168 15.5733 92.7168 15.984ZM106.138 14.486C106.138 14.99 106.044 15.466 105.858 15.914C105.68 16.362 105.433 16.7493 105.116 17.076C104.798 17.3933 104.42 17.6453 103.982 17.832C103.552 18.0187 103.09 18.112 102.596 18.112C102.185 18.112 101.784 18.042 101.392 17.902C101.009 17.762 100.659 17.5613 100.342 17.3V18H99.3195V8.2L100.356 7.962V11.728C100.645 11.448 100.981 11.238 101.364 11.098C101.756 10.9487 102.171 10.874 102.61 10.874C103.104 10.874 103.566 10.9673 103.996 11.154C104.425 11.3407 104.798 11.5973 105.116 11.924C105.433 12.2413 105.68 12.624 105.858 13.072C106.044 13.5107 106.138 13.982 106.138 14.486ZM102.512 11.784C102.073 11.784 101.662 11.8727 101.28 12.05C100.906 12.218 100.598 12.456 100.356 12.764V16.236C100.598 16.5347 100.911 16.7727 101.294 16.95C101.676 17.118 102.082 17.202 102.512 17.202C103.249 17.202 103.865 16.9453 104.36 16.432C104.864 15.9093 105.116 15.2653 105.116 14.5C105.116 14.1173 105.046 13.7627 104.906 13.436C104.775 13.1 104.593 12.8107 104.36 12.568C104.126 12.3253 103.851 12.134 103.534 11.994C103.216 11.854 102.876 11.784 102.512 11.784ZM108.613 7.962V18H107.577V8.2L108.613 7.962ZM116.288 17.258C115.896 17.5473 115.485 17.7667 115.056 17.916C114.636 18.056 114.174 18.126 113.67 18.126C113.166 18.126 112.69 18.0327 112.242 17.846C111.803 17.6593 111.421 17.4027 111.094 17.076C110.777 16.7493 110.525 16.3667 110.338 15.928C110.151 15.48 110.058 14.9993 110.058 14.486C110.058 13.982 110.147 13.5107 110.324 13.072C110.511 12.6333 110.758 12.2507 111.066 11.924C111.374 11.5973 111.738 11.3407 112.158 11.154C112.587 10.9673 113.04 10.874 113.516 10.874C113.983 10.874 114.417 10.9673 114.818 11.154C115.229 11.3407 115.579 11.5973 115.868 11.924C116.167 12.2507 116.4 12.6333 116.568 13.072C116.745 13.5107 116.834 13.982 116.834 14.486V14.808H111.08C111.155 15.4987 111.439 16.0727 111.934 16.53C112.429 16.9873 113.021 17.216 113.712 17.216C114.076 17.216 114.431 17.16 114.776 17.048C115.121 16.936 115.411 16.7773 115.644 16.572L116.288 17.258ZM113.488 11.784C112.881 11.784 112.354 11.9893 111.906 12.4C111.467 12.8107 111.201 13.338 111.108 13.982H115.798C115.705 13.366 115.439 12.848 115 12.428C114.571 11.9987 114.067 11.784 113.488 11.784ZM120.968 14.486C120.968 13.982 121.062 13.506 121.248 13.058C121.435 12.61 121.687 12.2227 122.004 11.896C122.331 11.5693 122.714 11.3127 123.152 11.126C123.591 10.9393 124.058 10.846 124.552 10.846C125.047 10.846 125.509 10.9393 125.938 11.126C126.377 11.3127 126.755 11.5693 127.072 11.896C127.399 12.2227 127.656 12.61 127.842 13.058C128.029 13.506 128.122 13.982 128.122 14.486C128.122 14.9993 128.029 15.48 127.842 15.928C127.656 16.376 127.399 16.7633 127.072 17.09C126.755 17.4167 126.377 17.6733 125.938 17.86C125.509 18.0467 125.047 18.14 124.552 18.14C124.058 18.14 123.591 18.0467 123.152 17.86C122.714 17.6733 122.331 17.4167 122.004 17.09C121.687 16.7633 121.435 16.376 121.248 15.928C121.062 15.48 120.968 14.9993 120.968 14.486ZM124.552 17.216C124.907 17.216 125.238 17.146 125.546 17.006C125.864 16.866 126.134 16.6747 126.358 16.432C126.592 16.18 126.774 15.8907 126.904 15.564C127.035 15.228 127.1 14.8687 127.1 14.486C127.1 14.1033 127.035 13.7487 126.904 13.422C126.774 13.086 126.592 12.7967 126.358 12.554C126.134 12.3113 125.864 12.12 125.546 11.98C125.238 11.84 124.907 11.77 124.552 11.77C124.198 11.77 123.862 11.84 123.544 11.98C123.236 12.12 122.966 12.3113 122.732 12.554C122.508 12.7967 122.326 13.086 122.186 13.422C122.056 13.7487 121.99 14.1033 121.99 14.486C121.99 14.8687 122.056 15.228 122.186 15.564C122.317 15.8907 122.494 16.18 122.718 16.432C122.952 16.6747 123.227 16.866 123.544 17.006C123.862 17.146 124.198 17.216 124.552 17.216ZM129.562 18V10.986H130.598V11.812C130.868 11.4947 131.19 11.2567 131.564 11.098C131.937 10.93 132.352 10.846 132.81 10.846C133.603 10.846 134.252 11.098 134.756 11.602C135.26 12.106 135.512 12.7593 135.512 13.562V18H134.49V13.772C134.49 13.156 134.312 12.666 133.958 12.302C133.603 11.938 133.127 11.756 132.53 11.756C132.11 11.756 131.732 11.8493 131.396 12.036C131.069 12.2227 130.803 12.4887 130.598 12.834V18H129.562ZM141.121 16.432V11.868H139.609V10.986H141.121V9.208L142.143 8.942V10.986H144.257V11.868H142.143V16.166C142.143 16.5393 142.227 16.81 142.395 16.978C142.563 17.1367 142.838 17.216 143.221 17.216C143.417 17.216 143.59 17.202 143.739 17.174C143.898 17.146 144.066 17.0993 144.243 17.034V17.944C144.066 18.0093 143.865 18.056 143.641 18.084C143.426 18.112 143.216 18.126 143.011 18.126C142.404 18.126 141.938 17.9813 141.611 17.692C141.284 17.4027 141.121 16.9827 141.121 16.432ZM145.366 18V8.2L146.402 7.962V11.812C146.673 11.4947 146.995 11.2567 147.368 11.098C147.742 10.93 148.157 10.846 148.614 10.846C149.408 10.846 150.056 11.098 150.56 11.602C151.064 12.106 151.316 12.7593 151.316 13.562V18H150.294V13.772C150.294 13.156 150.117 12.666 149.762 12.302C149.408 11.938 148.932 11.756 148.334 11.756C147.914 11.756 147.536 11.8493 147.2 12.036C146.874 12.2227 146.608 12.4887 146.402 12.834V18H145.366ZM158.958 17.258C158.566 17.5473 158.155 17.7667 157.726 17.916C157.306 18.056 156.844 18.126 156.34 18.126C155.836 18.126 155.36 18.0327 154.912 17.846C154.473 17.6593 154.091 17.4027 153.764 17.076C153.447 16.7493 153.195 16.3667 153.008 15.928C152.821 15.48 152.728 14.9993 152.728 14.486C152.728 13.982 152.817 13.5107 152.994 13.072C153.181 12.6333 153.428 12.2507 153.736 11.924C154.044 11.5973 154.408 11.3407 154.828 11.154C155.257 10.9673 155.71 10.874 156.186 10.874C156.653 10.874 157.087 10.9673 157.488 11.154C157.899 11.3407 158.249 11.5973 158.538 11.924C158.837 12.2507 159.07 12.6333 159.238 13.072C159.415 13.5107 159.504 13.982 159.504 14.486V14.808H153.75C153.825 15.4987 154.109 16.0727 154.604 16.53C155.099 16.9873 155.691 17.216 156.382 17.216C156.746 17.216 157.101 17.16 157.446 17.048C157.791 16.936 158.081 16.7773 158.314 16.572L158.958 17.258ZM156.158 11.784C155.551 11.784 155.024 11.9893 154.576 12.4C154.137 12.8107 153.871 13.338 153.778 13.982H158.468C158.375 13.366 158.109 12.848 157.67 12.428C157.241 11.9987 156.737 11.784 156.158 11.784Z" fill="#282828"/>
<path d="M82.612 32.114C82.612 32.8327 82.486 33.5047 82.234 34.13C81.9913 34.746 81.6507 35.278 81.212 35.726C80.7827 36.1647 80.2647 36.5147 79.658 36.776C79.0513 37.028 78.398 37.154 77.698 37.154C76.97 37.154 76.2887 37.0233 75.654 36.762C75.0193 36.5007 74.4687 36.146 74.002 35.698C73.5447 35.2407 73.1807 34.704 72.91 34.088C72.6393 33.472 72.504 32.8093 72.504 32.1C72.504 31.3907 72.6347 30.728 72.896 30.112C73.1667 29.496 73.5307 28.964 73.988 28.516C74.4547 28.0587 75.0053 27.6993 75.64 27.438C76.2747 27.1767 76.9513 27.046 77.67 27.046C78.482 27.046 79.2473 27.2093 79.966 27.536C80.6847 27.8627 81.2773 28.3107 81.744 28.88L80.33 30.182C79.9847 29.7713 79.5833 29.4587 79.126 29.244C78.678 29.02 78.1927 28.908 77.67 28.908C77.2313 28.908 76.8207 28.992 76.438 29.16C76.0647 29.3187 75.738 29.5427 75.458 29.832C75.1873 30.112 74.9727 30.448 74.814 30.84C74.6647 31.2227 74.59 31.6427 74.59 32.1C74.59 32.5573 74.6693 32.982 74.828 33.374C74.9867 33.766 75.206 34.1067 75.486 34.396C75.766 34.676 76.0973 34.9 76.48 35.068C76.872 35.2267 77.2873 35.306 77.726 35.306C78.4167 35.306 79.0093 35.1147 79.504 34.732C80.008 34.3493 80.3207 33.8593 80.442 33.262H77.544V31.498H82.612V32.114ZM83.5352 33.36C83.5352 32.828 83.6332 32.3333 83.8292 31.876C84.0346 31.4093 84.3099 31.008 84.6552 30.672C85.0099 30.3267 85.4252 30.056 85.9012 29.86C86.3772 29.664 86.8859 29.566 87.4272 29.566C87.9686 29.566 88.4772 29.664 88.9532 29.86C89.4292 30.056 89.8399 30.3267 90.1852 30.672C90.5399 31.008 90.8152 31.4093 91.0112 31.876C91.2166 32.3333 91.3192 32.828 91.3192 33.36C91.3192 33.892 91.2166 34.3913 91.0112 34.858C90.8152 35.3153 90.5399 35.712 90.1852 36.048C89.8399 36.384 89.4292 36.65 88.9532 36.846C88.4772 37.042 87.9686 37.14 87.4272 37.14C86.8859 37.14 86.3772 37.042 85.9012 36.846C85.4252 36.65 85.0099 36.384 84.6552 36.048C84.3099 35.712 84.0346 35.3153 83.8292 34.858C83.6332 34.3913 83.5352 33.892 83.5352 33.36ZM87.4272 35.474C87.9872 35.474 88.4632 35.2687 88.8552 34.858C89.2472 34.4473 89.4432 33.948 89.4432 33.36C89.4432 32.7627 89.2472 32.2587 88.8552 31.848C88.4632 31.4373 87.9872 31.232 87.4272 31.232C86.8672 31.232 86.3912 31.4373 85.9992 31.848C85.6072 32.2587 85.4112 32.7627 85.4112 33.36C85.4112 33.948 85.6072 34.4473 85.9992 34.858C86.3912 35.2687 86.8672 35.474 87.4272 35.474ZM92.2169 33.36C92.2169 32.828 92.3149 32.3333 92.5109 31.876C92.7162 31.4093 92.9915 31.008 93.3369 30.672C93.6915 30.3267 94.1069 30.056 94.5829 29.86C95.0589 29.664 95.5675 29.566 96.1089 29.566C96.6502 29.566 97.1589 29.664 97.6349 29.86C98.1109 30.056 98.5215 30.3267 98.8669 30.672C99.2215 31.008 99.4969 31.4093 99.6929 31.876C99.8982 32.3333 100.001 32.828 100.001 33.36C100.001 33.892 99.8982 34.3913 99.6929 34.858C99.4969 35.3153 99.2215 35.712 98.8669 36.048C98.5215 36.384 98.1109 36.65 97.6349 36.846C97.1589 37.042 96.6502 37.14 96.1089 37.14C95.5675 37.14 95.0589 37.042 94.5829 36.846C94.1069 36.65 93.6915 36.384 93.3369 36.048C92.9915 35.712 92.7162 35.3153 92.5109 34.858C92.3149 34.3913 92.2169 33.892 92.2169 33.36ZM96.1089 35.474C96.6689 35.474 97.1449 35.2687 97.5369 34.858C97.9289 34.4473 98.1249 33.948 98.1249 33.36C98.1249 32.7627 97.9289 32.2587 97.5369 31.848C97.1449 31.4373 96.6689 31.232 96.1089 31.232C95.5489 31.232 95.0729 31.4373 94.6809 31.848C94.2889 32.2587 94.0929 32.7627 94.0929 33.36C94.0929 33.948 94.2889 34.4473 94.6809 34.858C95.0729 35.2687 95.5489 35.474 96.1089 35.474ZM104.595 37.042C104.081 37.042 103.596 36.944 103.139 36.748C102.691 36.552 102.299 36.286 101.963 35.95C101.636 35.614 101.375 35.222 101.179 34.774C100.992 34.3167 100.899 33.8267 100.899 33.304C100.899 32.7907 100.997 32.31 101.193 31.862C101.389 31.4047 101.655 31.008 101.991 30.672C102.327 30.336 102.723 30.0747 103.181 29.888C103.638 29.692 104.128 29.594 104.651 29.594C105.015 29.594 105.36 29.6453 105.687 29.748C106.023 29.8507 106.335 29.9953 106.625 30.182V29.706H108.515V37C108.515 37.9613 108.202 38.7033 107.577 39.226C106.961 39.7487 106.069 40.01 104.903 40.01C104.343 40.01 103.801 39.954 103.279 39.842C102.765 39.73 102.294 39.5667 101.865 39.352L102.537 37.854C102.938 38.05 103.33 38.1947 103.713 38.288C104.095 38.3907 104.478 38.442 104.861 38.442C105.43 38.442 105.859 38.316 106.149 38.064C106.447 37.8213 106.597 37.462 106.597 36.986V36.384C106.307 36.5987 105.99 36.762 105.645 36.874C105.309 36.986 104.959 37.042 104.595 37.042ZM102.789 33.304C102.789 33.892 102.989 34.3913 103.391 34.802C103.801 35.2127 104.301 35.418 104.889 35.418C105.234 35.418 105.551 35.362 105.841 35.25C106.13 35.1287 106.382 34.9653 106.597 34.76V31.89C106.391 31.6847 106.139 31.526 105.841 31.414C105.542 31.2927 105.229 31.232 104.903 31.232C104.315 31.232 103.815 31.4327 103.405 31.834C102.994 32.2353 102.789 32.7253 102.789 33.304ZM111.944 26.78V37H110.026V27.2L111.944 26.78ZM119.982 36.09C119.534 36.454 119.072 36.72 118.596 36.888C118.129 37.056 117.606 37.14 117.028 37.14C116.477 37.14 115.959 37.042 115.474 36.846C114.998 36.65 114.582 36.384 114.228 36.048C113.882 35.712 113.607 35.3153 113.402 34.858C113.206 34.3913 113.108 33.892 113.108 33.36C113.108 32.8373 113.201 32.3473 113.388 31.89C113.584 31.4233 113.85 31.022 114.186 30.686C114.522 30.3407 114.918 30.07 115.376 29.874C115.842 29.678 116.337 29.58 116.86 29.58C117.373 29.58 117.849 29.6827 118.288 29.888C118.736 30.084 119.118 30.3547 119.436 30.7C119.762 31.0453 120.014 31.4607 120.192 31.946C120.378 32.422 120.472 32.94 120.472 33.5V34.004H115.04C115.17 34.4613 115.422 34.83 115.796 35.11C116.169 35.39 116.608 35.53 117.112 35.53C117.429 35.53 117.728 35.4787 118.008 35.376C118.288 35.2733 118.526 35.1287 118.722 34.942L119.982 36.09ZM116.818 31.162C116.379 31.162 116.001 31.2973 115.684 31.568C115.366 31.8293 115.147 32.184 115.026 32.632H118.596C118.474 32.2027 118.25 31.8527 117.924 31.582C117.606 31.302 117.238 31.162 116.818 31.162ZM124.589 37V27.2H129.503C129.979 27.2 130.418 27.2793 130.819 27.438C131.23 27.5873 131.58 27.7973 131.869 28.068C132.158 28.3387 132.382 28.6653 132.541 29.048C132.709 29.4213 132.793 29.832 132.793 30.28C132.793 30.7187 132.709 31.1247 132.541 31.498C132.382 31.862 132.154 32.1793 131.855 32.45C131.566 32.7207 131.22 32.9307 130.819 33.08C130.418 33.2293 129.979 33.304 129.503 33.304H126.619V37H124.589ZM129.279 28.95H126.619V31.624H129.279C129.718 31.624 130.068 31.5027 130.329 31.26C130.6 31.0173 130.735 30.6953 130.735 30.294C130.735 29.8927 130.6 29.5707 130.329 29.328C130.068 29.076 129.718 28.95 129.279 28.95ZM135.91 26.78V37H133.992V27.2L135.91 26.78ZM139.72 37.126C138.936 37.126 138.297 36.9207 137.802 36.51C137.308 36.09 137.06 35.5487 137.06 34.886C137.06 34.1953 137.326 33.654 137.858 33.262C138.39 32.87 139.123 32.674 140.056 32.674C140.355 32.674 140.654 32.6973 140.952 32.744C141.251 32.7907 141.545 32.8607 141.834 32.954V32.436C141.834 32.016 141.704 31.6987 141.442 31.484C141.181 31.2693 140.798 31.162 140.294 31.162C139.986 31.162 139.65 31.2133 139.286 31.316C138.932 31.4093 138.526 31.5587 138.068 31.764L137.368 30.35C137.938 30.0887 138.488 29.8927 139.02 29.762C139.562 29.6313 140.094 29.566 140.616 29.566C141.596 29.566 142.357 29.804 142.898 30.28C143.449 30.7467 143.724 31.4093 143.724 32.268V37H141.834V36.496C141.526 36.7107 141.2 36.8693 140.854 36.972C140.518 37.0747 140.14 37.126 139.72 37.126ZM138.894 34.844C138.894 35.124 139.016 35.348 139.258 35.516C139.501 35.6747 139.823 35.754 140.224 35.754C140.542 35.754 140.831 35.7167 141.092 35.642C141.363 35.558 141.61 35.4413 141.834 35.292V34.2C141.601 34.1067 141.354 34.0413 141.092 34.004C140.84 33.9573 140.574 33.934 140.294 33.934C139.856 33.934 139.51 34.018 139.258 34.186C139.016 34.3447 138.894 34.564 138.894 34.844ZM147.013 37.336L147.125 37.07L144.283 29.706H146.397L148.203 34.676L150.275 29.706H152.347L148.987 37.574C148.614 38.4513 148.18 39.0767 147.685 39.45C147.191 39.8233 146.547 40.01 145.753 40.01C145.585 40.01 145.422 40.0007 145.263 39.982C145.114 39.9727 144.993 39.954 144.899 39.926V38.274C144.993 38.2927 145.091 38.3067 145.193 38.316C145.296 38.3253 145.422 38.33 145.571 38.33C145.917 38.33 146.206 38.246 146.439 38.078C146.682 37.91 146.873 37.6627 147.013 37.336Z" fill="#282828"/>
<defs>
<clipPath id="clip0">
<rect width="29" height="32" fill="white" transform="translate(18 7)"/>
</clipPath>
</defs>
</svg>
