<svg width="105" height="105" viewBox="0 0 105 105" fill="none" xmlns="http://www.w3.org/2000/svg">
<path d="M32.8438 71.729V71.7289C32.8435 69.3525 33.6667 67.0494 35.1733 65.2117C36.6799 63.3739 38.7769 62.115 41.1072 61.6492L41.1073 61.6492C45.0469 60.8608 49.6188 59.9461 53.2059 59.2284L57.6455 58.3403L58.9323 58.0828L59.2761 58.0141L59.3649 57.9963L59.3874 57.9918L59.3931 57.9907L59.3945 57.9904L59.3948 57.9903C59.3949 57.9903 59.395 57.9903 59.2969 57.5L59.395 57.9903L59.7969 57.9099V57.5V41.8281H76.7656V57.5V57.9099L77.1676 57.9903L87.3087 60.0185L87.4067 59.5282L87.3087 60.0185L95.453 61.6469C97.7839 62.1129 99.8813 63.3721 101.388 65.2103C102.895 67.0485 103.719 69.352 103.719 71.729V98.8281C103.719 100.125 103.203 101.369 102.286 102.286C101.369 103.203 100.125 103.719 98.8281 103.719H37.7344C36.4373 103.719 35.1934 103.203 34.2762 102.286C33.359 101.369 32.8438 100.125 32.8438 98.8281V71.729Z" fill="#3D4D63" stroke="black"/>
<path d="M103.72 71.7291V98.8282C103.72 100.125 103.204 101.369 102.287 102.286C101.37 103.204 100.126 103.719 98.8289 103.719H40.3762C54.6326 97.6572 77.1542 85.7906 87.7146 60.0996L95.4538 61.647L95.5517 61.1575L95.4538 61.647C97.7847 62.113 99.882 63.3722 101.389 65.2104C102.896 67.0486 103.72 69.3521 103.72 71.7291Z" fill="#374559" stroke="black"/>
<path d="M84.9531 35.4375V25.6562H86.25C87.5471 25.6562 88.791 26.1715 89.7082 27.0887C90.6254 28.0059 91.1406 29.2498 91.1406 30.5469C91.1406 31.8439 90.6254 33.0879 89.7082 34.0051C88.791 34.9222 87.5471 35.4375 86.25 35.4375H84.9531Z" fill="#FEB784" stroke="black"/>
<path d="M50.3125 25.6562H50.4023H51.6094V35.4375H50.3125C49.0154 35.4375 47.7715 34.9222 46.8543 34.0051C45.9371 33.0879 45.4219 31.8439 45.4219 30.5469C45.4219 29.2498 45.9371 28.0059 46.8543 27.0887C47.7715 26.1715 49.0154 25.6562 50.3125 25.6562Z" fill="#FEB784" stroke="black"/>
<path d="M68.2812 7.6875C76.9366 7.6875 83.9531 14.704 83.9531 23.3594V35.9375C83.9531 44.5928 76.9366 51.6094 68.2812 51.6094C59.6259 51.6094 52.6094 44.5928 52.6094 35.9375V23.3594C52.6094 14.704 59.6259 7.6875 68.2812 7.6875Z" fill="#FEC9A3" stroke="black"/>
<path d="M52.6094 23.7364V16.1719C52.6094 13.3136 53.5709 11.2081 55.0801 9.81408C56.4536 8.54542 58.3202 7.82978 60.4306 7.70665L60.2957 8.19198L60.2957 8.192C58.6866 13.9849 56.0621 19.2842 52.6094 23.7364Z" fill="#95573A" stroke="black"/>
<path d="M76.2668 8.192L76.2668 8.19198L76.1288 7.6954C78.3093 7.74915 80.1873 8.08593 81.5499 8.96807C83.0013 9.90773 83.9531 11.5252 83.9531 14.375V23.7364C80.5004 19.2842 77.8759 13.9849 76.2668 8.192Z" fill="#95573A" stroke="black"/>
<path d="M60.7559 1.57527L60.7557 1.5752C59.7926 0.933086 58.6733 0.5644 57.5171 0.508453C56.3609 0.452505 55.2112 0.711395 54.1906 1.25752C53.17 1.80364 52.3168 2.61652 51.7218 3.60947C51.1269 4.60241 50.8126 5.73819 50.8125 6.89571L60.7559 1.57527ZM60.7559 1.57527C61.9818 2.39215 63.3214 3.02397 64.7314 3.45038C66.141 3.87747 67.6058 4.09433 69.0786 4.09395C69.0787 4.09395 69.0787 4.09395 69.0787 4.09395H73.6719C76.3986 4.09395 79.0137 5.17715 80.9418 7.10526C82.7517 8.91519 83.8172 11.3305 83.941 13.8752H57.2081M60.7559 1.57527L57.2081 13.8752M57.2081 13.8752C57.2081 13.8752 57.208 13.8752 57.208 13.8752M57.2081 13.8752H57.208M57.208 13.8752C55.5119 13.8748 53.8855 13.2008 52.6862 12.0015M57.208 13.8752L52.6862 12.0015M52.6862 12.0015C51.4869 10.8022 50.8129 9.17575 50.8125 7.47969M52.6862 12.0015L50.8125 7.47969M50.8125 7.47969C50.8125 7.47965 50.8125 7.47961 50.8125 7.47958M50.8125 7.47969V7.47958M50.8125 7.47958V6.89576V7.47958Z" fill="#7A432A" stroke="black"/>
<path d="M83.9531 28.7162L84.4531 26.9714V37.7344C84.4554 41.3121 83.978 44.8739 83.0336 48.3247L80.5067 57.5943M83.9531 28.7162V26.9011L81.8207 34.3428M83.9531 28.7162V37.7344V37.7347C83.9554 41.2677 83.4839 44.785 82.5513 48.1927L82.5512 48.1932L80.0244 57.4628L80.5067 57.5943M83.9531 28.7162L82.3014 34.4804L81.8207 34.3428M81.8207 34.3428C81.0413 37.065 77.935 38.4576 75.4688 37.1145M81.8207 34.3428L82.3014 34.4805C81.4392 37.4918 77.9937 39.059 75.2296 37.5536L75.2296 37.5535M75.4688 37.1145C75.4306 37.0942 74.8084 36.6944 74.8084 36.6944M75.4688 37.1145L75.2348 37.5563C75.2332 37.5555 75.2314 37.5545 75.2296 37.5535M75.4688 37.1145L75.2296 37.5535M74.8084 36.6944C74.0673 36.2008 73.1967 35.9374 72.3063 35.9375H64.2562C63.3657 35.9372 62.4951 36.2006 61.7541 36.6944M74.8084 36.6944L74.5381 37.1151L74.5381 37.1151L74.5382 37.1152L74.5386 37.1154L74.5399 37.1162L74.5452 37.1196L74.5651 37.1324L74.6362 37.1781L74.855 37.3181C74.9353 37.3695 75.0174 37.4218 75.082 37.4628L75.0892 37.4673C75.1359 37.4969 75.1974 37.5358 75.2296 37.5535M74.8084 36.6944L74.5381 37.1151L74.5312 37.1106L74.5312 37.1106C73.8722 36.6716 73.0981 36.4374 72.3063 36.4375H72.3063H64.2562H64.2561C63.4644 36.4372 62.6904 36.6713 62.0316 37.1104L61.7541 36.6944M61.7541 36.6944C60.8892 37.2715 59.8517 37.5323 58.8167 37.4328C57.7818 37.3334 56.8129 36.8798 56.0737 36.1486M61.7541 36.6944L62.0314 37.1105C61.0708 37.7513 59.9184 38.041 58.7689 37.9305C57.6194 37.8201 56.5432 37.3162 55.7221 36.5041L55.7167 36.4987L55.7167 36.4987C55.1794 35.9507 54.7821 35.2813 54.5585 34.5472M56.0737 36.1486C55.5921 35.6574 55.2361 35.0572 55.036 34.3989M56.0737 36.1486L56.0737 36.1486L56.0737 36.1486ZM55.036 34.3989L52.6094 26.7353V28.3916M55.036 34.3989L54.5594 34.5499L54.5585 34.5472M55.036 34.3989L54.5576 34.5443C54.5579 34.5453 54.5582 34.5462 54.5585 34.5472M52.6094 28.3916L52.1094 26.8126V37.7344C52.1088 41.3127 52.5862 44.8751 53.5289 48.327L56.0558 57.5943M52.6094 28.3916L54.5585 34.5472M52.6094 28.3916V37.7344V37.7345C52.6088 41.2682 53.0803 44.7863 54.0112 48.1952L54.0113 48.1954L56.5381 57.4628L56.0558 57.5943M56.0558 57.5943C56.404 58.8713 57.0982 60.0274 58.0617 60.935C59.0251 61.8425 60.2205 62.4665 61.516 62.7379C62.0005 62.8399 62.4943 62.8911 62.9895 62.8906H73.573C75.1497 62.8905 76.6825 62.372 77.9355 61.4149C79.1884 60.4579 80.0919 59.1154 80.5067 57.5943M56.0558 57.5943L56.5382 57.4628C56.8622 58.651 57.5081 59.7266 58.4045 60.571C59.3009 61.4155 60.4132 61.996 61.6186 62.2485L61.6191 62.2486C62.0695 62.3435 62.5286 62.3911 62.989 62.3906H62.9895H73.573C75.04 62.3905 76.4662 61.9081 77.632 61.0176C78.7977 60.1271 79.6383 58.8781 80.0243 57.4628L80.5067 57.5943" fill="#7A432A" stroke="black"/>
<path d="M83.9527 28.7162L84.4527 26.9714V37.7344C84.455 41.3121 83.9776 44.8739 83.0332 48.3247L80.5063 57.5943M83.9527 28.7162V26.9011L81.8203 34.3428M83.9527 28.7162V37.7344V37.7347C83.955 41.2677 83.4835 44.785 82.5509 48.1927L82.5508 48.1932L80.024 57.4628L80.5063 57.5943M83.9527 28.7162L82.301 34.4804L81.8203 34.3428M81.8203 34.3428C81.0928 36.8839 78.3377 38.2664 75.9684 37.3467V37.8793M81.8203 34.3428L82.301 34.4805C81.5142 37.2282 78.5766 38.7736 75.9684 37.8793M75.9684 37.8793C75.8001 37.8216 75.6332 37.7537 75.4684 37.6754V46.7188C75.4684 50.6234 74.0557 54.3963 71.4912 57.3406C69.324 59.8288 66.458 61.5833 63.2878 62.3906H64.9844M75.9684 37.8793V46.7188C75.9684 50.7441 74.5121 54.6336 71.8682 57.669C69.9986 59.8155 67.6245 61.4324 64.9844 62.3906M64.9844 62.3906C64.4499 62.5847 63.9044 62.7517 63.35 62.8906H73.5727C75.1493 62.8905 76.6821 62.372 77.9351 61.4149C79.188 60.4579 80.0915 59.1154 80.5063 57.5943M64.9844 62.3906H73.5726C75.0396 62.3905 76.4658 61.9081 77.6316 61.0176C78.7973 60.1271 79.6379 58.8781 80.0239 57.4628L80.5063 57.5943" fill="#743B20" stroke="black"/>
<path d="M57.5006 46.2187H57.5H52.6215C52.7453 43.674 53.8108 41.2587 55.6207 39.4488C57.5488 37.5207 60.1639 36.4375 62.8906 36.4375H73.6719C76.3986 36.4375 79.0137 37.5207 80.9418 39.4488C82.7517 41.2587 83.8172 43.674 83.941 46.2187H79.0625H79.0619C76.7924 46.2213 74.587 45.4668 72.7946 44.0747C71.6762 43.166 70.2867 42.6559 68.8458 42.6251L68.8458 42.625H68.8351H67.7274V42.6249L67.7167 42.6251C66.2758 42.656 64.8864 43.1661 63.7679 44.0747C61.9755 45.4668 59.7701 46.2213 57.5006 46.2187Z" fill="#95573A" stroke="black"/>
<path d="M80.9401 7.10506C82.75 8.91499 83.8154 11.3303 83.9392 13.875H75.511C75.409 10.3148 74.1649 6.88651 71.9711 4.09375H73.6701C76.3969 4.09375 79.012 5.17695 80.9401 7.10506Z" fill="#743B20" stroke="black"/>
<path d="M82.6741 83.1559L82.7827 83.1521L82.8799 83.1035L93.5157 77.7856L103.719 79.4861V92.699L95.4201 89.3795L95.2849 89.3254L95.1418 89.3524L82.5637 91.7209L82.5263 91.7279L82.4904 91.7406L48.4303 103.719H37.7344C36.4373 103.719 35.1934 103.203 34.2762 102.286C33.359 101.369 32.8438 100.125 32.8438 98.8281V84.9356L82.6741 83.1559Z" fill="#FEB784" stroke="black"/>
<path d="M41.4295 1.57432C44.5158 11.9174 44.4296 22.9614 41.1632 33.2729L41.1632 33.2731L32.2846 61.3349C28.5242 63.2782 25.5691 66.4892 23.9451 70.4031L23.9445 70.4046L19.4786 81.2678L19.3208 81.6517L19.669 81.8775C21.4382 83.0246 22.8689 84.6233 23.8133 86.5084C24.7576 88.3932 25.1814 90.4958 25.0411 92.5992C24.5686 99.149 18.3947 104.281 11.6494 103.669C4.78994 103.047 -0.168575 97.0853 0.5737 90.4736L0.0768756 90.4179L0.573702 90.4736C1.27357 84.2381 6.79765 79.6432 13.1592 79.8376L13.5232 79.8488L13.6454 79.5058L41.4295 1.57432ZM13.434 85.97C10.1647 85.6221 7.20309 87.921 6.84224 91.1356C6.48112 94.3521 8.86632 97.2253 12.1378 97.5734C15.407 97.9212 18.3689 95.6234 18.7296 92.4077C19.0904 89.1898 16.7054 86.3181 13.434 85.97Z" fill="#C7C7C5" stroke="black"/>
<path d="M43.8544 79.5066L43.9767 79.8497L44.3407 79.8385C50.7023 79.6439 56.2283 84.2378 56.9277 90.4745C57.67 97.0861 52.7102 103.046 45.8525 103.669C39.1072 104.281 32.9333 99.1487 32.4594 92.5987C32.3194 90.4952 32.7435 88.3925 33.6878 86.5077C34.6323 84.6225 36.063 83.0236 37.8322 81.8763L38.1804 81.6506L38.0226 81.2667L33.5574 70.4046L33.5571 70.4041C32.7457 68.4368 31.5871 66.6315 30.1365 65.0744C28.722 63.5557 27.0575 62.2915 25.216 61.3366L17.4155 36.6829L17.4155 36.6829L16.3374 33.2734L16.3373 33.2731C13.0713 22.9616 12.985 11.9176 16.0708 1.57441L36.9612 60.1678L36.9612 60.1678L43.8544 79.5066ZM38.7725 92.406C39.1324 95.6202 42.093 97.9201 45.3642 97.5711C48.635 97.2243 51.0225 94.3524 50.6598 91.1354C50.2975 87.9211 47.3344 85.624 44.066 85.9706C40.7945 86.3176 38.4125 89.1899 38.7725 92.406Z" fill="#E0E0DE" stroke="black"/>
<path d="M43.8531 79.5065L43.9754 79.8495L44.3394 79.8383C50.7011 79.6437 56.227 84.2376 56.9265 90.4743C57.6687 97.0859 52.709 103.046 45.8512 103.669C39.1059 104.28 32.932 99.1485 32.4582 92.5985C32.3182 90.495 32.7422 88.3923 33.6865 86.5075C34.631 84.6223 36.0618 83.0234 37.8309 81.8761L38.1791 81.6504L38.0213 81.2665L33.5561 70.4044L33.5559 70.4039C32.7445 68.4366 31.5858 66.6313 30.1353 65.0743C28.7208 63.5555 27.0563 62.2913 25.2147 61.3364L18.4412 39.9285C23.8948 47.655 30.2443 54.409 37.0039 60.2911L43.8531 79.5065ZM38.7713 92.4058C39.1311 95.6201 42.092 97.92 45.3632 97.5709C48.6339 97.2239 51.0212 94.3521 50.6586 91.1352C50.2962 87.9209 47.3332 85.6239 44.0648 85.9705C40.7933 86.3174 38.4112 89.1897 38.7713 92.4058Z" fill="#D6D6D4" stroke="black"/>
<path d="M75.556 99.2953L75.5559 99.2953L69.1884 97.0582L69.1882 97.0581L54.0721 91.7417L54.0362 91.7291L53.9988 91.722L41.4207 89.3524L41.2776 89.3254L41.1424 89.3795L32.8438 92.699V79.4861L43.0468 77.7856L53.6826 83.1035L53.7715 83.1479L53.8706 83.155L71.8169 84.4375L71.817 84.4375L78.4698 84.9114L78.4699 84.9114L103.719 86.7155V98.828C103.719 98.828 103.719 98.8281 103.719 98.8281C103.718 100.125 103.203 101.369 102.286 102.286C101.369 103.203 100.125 103.718 98.8281 103.719C98.8281 103.719 98.828 103.719 98.828 103.719H88.1322L75.556 99.2953Z" fill="#FEC9A3" stroke="black"/>
<path d="M58.37 29.0712C58.1288 28.7103 58.0001 28.2859 58 27.8518C58.0007 27.2697 58.2322 26.7117 58.6438 26.3001C59.0554 25.8885 59.6135 25.657 60.1956 25.6562C60.6297 25.6563 61.054 25.7851 61.415 26.0262C61.776 26.2675 62.0574 26.6103 62.2235 27.0115C62.3897 27.4126 62.4331 27.854 62.3484 28.2798C62.2637 28.7057 62.0546 29.0969 61.7476 29.4039C61.4406 29.7109 61.0494 29.92 60.6236 30.0047C60.1977 30.0894 59.7563 30.0459 59.3552 29.8798C58.9541 29.7136 58.6112 29.4322 58.37 29.0712Z" fill="black" stroke="black"/>
<path d="M77.9195 26.2992L78.2731 25.9457L77.9195 26.2992C78.2265 26.6063 78.4356 26.9974 78.5203 27.4233C78.605 27.8491 78.5615 28.2905 78.3954 28.6917C78.2292 29.0928 77.9478 29.4357 77.5868 29.6769C77.2259 29.9181 76.8015 30.0468 76.3673 30.0469C75.7853 30.0461 75.2273 29.8146 74.8157 29.403C74.4041 28.9914 74.1726 28.4334 74.1719 27.8513C74.1719 27.4172 74.3007 26.9929 74.5419 26.6319C74.7831 26.2709 75.1259 25.9895 75.5271 25.8234C75.9282 25.6572 76.3696 25.6137 76.7955 25.6984C77.2213 25.7831 77.6125 25.9922 77.9195 26.2992Z" fill="black" stroke="black"/>
<path d="M27.4531 55.2031V52.6094H30.0469V55.2031H27.4531Z" fill="black" stroke="black"/>
</svg>
