<svg width="53" height="53" viewBox="0 0 53 53" fill="none" xmlns="http://www.w3.org/2000/svg">
<g clip-path="url(#clip0)">
<path d="M19.2205 16.3422C21.9789 16.3422 24.3824 15.7317 26.0869 14.611C27.7913 15.7318 30.1949 16.3422 32.9533 16.3422C38.3733 16.3422 42.0859 15.2603 44.3035 13.0346C45.7998 11.5328 46.5538 9.53598 46.5448 7.09818C46.5406 6.27358 46.0515 5.52578 45.2985 5.19319C44.5467 4.86069 43.6649 5.00065 43.0505 5.55166C41.0667 7.33844 39.4692 7.18824 36.2133 4.90945C34.3785 3.62461 32.5633 3 30.6644 3C28.5839 3 27.0482 3.94634 26.0869 4.68865C25.1255 3.94634 23.5899 3 21.5093 3C19.6351 3 17.8408 3.61074 16.0243 4.86721C12.7044 7.16226 11.0919 7.32198 9.12305 5.55156C8.50838 4.99816 7.62466 4.85779 6.87511 5.19329C6.12213 5.52599 5.63302 6.27368 5.62899 7.09943C5.61998 9.53556 6.37419 11.5324 7.87041 13.0341C10.0883 15.2601 13.8009 16.3422 19.2205 16.3422Z" fill="#B59E5C"/>
<path d="M20.8979 19.3813C21.2188 21.9589 23.4237 23.9598 26.0872 23.9598C28.7506 23.9598 30.9555 21.9589 31.2764 19.3813C29.3593 19.2271 27.6078 18.8047 26.0872 18.1309C24.5665 18.8047 22.8151 19.2271 20.8979 19.3813Z" fill="#B59E5C"/>
<path d="M47.9196 13.4571C47.5159 14.0938 47.0428 14.6848 46.5035 15.2262C43.8949 17.8452 39.924 19.223 34.3932 19.4228C34.0402 23.6959 30.4503 27.0653 26.0871 27.0653C21.7239 27.0653 18.134 23.6959 17.781 19.4228C12.2502 19.223 8.2793 17.8452 5.6707 15.2262C5.37775 14.9322 5.10447 14.6238 4.85189 14.3008C4.56723 15.5181 4.42334 16.751 4.42334 17.9808C4.42334 20.0583 4.81359 22.0976 5.53924 23.9402C6.51125 22.5127 7.94701 21.4196 9.63949 20.8854C10.4573 20.6266 11.3299 21.0811 11.5877 21.8988C11.8454 22.7166 11.392 23.5882 10.5742 23.847C8.9832 24.3491 7.77 25.672 7.40873 27.2982C7.23482 28.1947 7.14787 29.1201 7.14787 30.059C7.14787 33.3083 8.25342 36.3486 10.0981 38.5473C10.6736 36.7068 11.9241 35.1074 13.6352 34.1168C14.3774 33.6882 15.3277 33.9408 15.7573 34.683C16.1869 35.4263 15.9332 36.3755 15.191 36.8051C13.747 37.6405 12.8495 39.1953 12.8495 40.8608C13.1394 42.8825 13.8132 44.8141 14.8194 46.4952C16.0254 48.5117 17.6516 50.0634 19.5211 50.9847C20.7188 51.5757 22.5199 52.6254 24.318 54.9038C24.8687 55.6004 25.6637 56 26.5001 56C27.3376 56 28.1326 55.6004 28.6822 54.9038C30.0528 53.1668 31.5082 51.9753 33.4025 51.0395C35.2731 50.112 36.9045 48.5541 38.1208 46.5325C39.1352 44.8462 39.8236 42.9022 40.1311 40.867V40.8608C40.1311 39.1953 39.2336 37.6405 37.7895 36.8051C37.0473 36.3755 36.7937 35.4263 37.2233 34.683C37.6529 33.9408 38.6021 33.6882 39.3443 34.1168C41.0503 35.1043 42.2976 36.6954 42.8763 38.5286C44.6806 36.3372 45.7623 33.3063 45.7623 30.059C45.7623 29.1211 45.6743 28.1967 45.5014 27.3003C45.1215 25.7051 43.9746 24.3418 42.4053 23.847C41.5875 23.5882 41.1341 22.7166 41.3929 21.8988C41.6507 21.0811 42.5223 20.6266 43.34 20.8854C45.0232 21.4165 46.4507 22.4992 47.4227 23.9133C48.1732 22.0614 48.5769 20.0294 48.5769 17.9808C48.5769 16.4767 48.3564 14.9571 47.9196 13.4571Z" fill="#B59E5C"/>
</g>
<defs>
<clipPath id="clip0">
<rect width="53" height="53" fill="white"/>
</clipPath>
</defs>
</svg>
