<svg width="22" height="22" viewBox="0 0 22 22" fill="none" xmlns="http://www.w3.org/2000/svg">
<path d="M16.0448 0H5.95519C2.67144 0 0 2.67144 0 5.95519V16.0449C0 19.3285 2.67144 22 5.95519 22H16.0449C19.3285 22 22 19.3285 22 16.0449V5.95519C22 2.67144 19.3285 0 16.0448 0V0ZM11 17.0154C7.683 17.0154 4.98453 14.317 4.98453 11C4.98453 7.683 7.683 4.98453 11 4.98453C14.317 4.98453 17.0154 7.683 17.0154 11C17.0154 14.317 14.317 17.0154 11 17.0154ZM17.1593 6.40317C16.179 6.40317 15.3818 5.6059 15.3818 4.62568C15.3818 3.64546 16.179 2.84802 17.1593 2.84802C18.1395 2.84802 18.9369 3.64546 18.9369 4.62568C18.9369 5.6059 18.1395 6.40317 17.1593 6.40317Z" fill="white"/>
<path d="M10.9992 6.27441C8.3935 6.27441 6.27344 8.39431 6.27344 11.0001C6.27344 13.6058 8.3935 15.7258 10.9992 15.7258C13.605 15.7258 15.7249 13.6058 15.7249 11.0001C15.7249 8.39431 13.605 6.27441 10.9992 6.27441Z" fill="white"/>
<path d="M17.1596 4.1377C16.8907 4.1377 16.6719 4.35657 16.6719 4.62546C16.6719 4.89435 16.8907 5.11322 17.1596 5.11322C17.4287 5.11322 17.6476 4.89451 17.6476 4.62546C17.6476 4.3564 17.4287 4.1377 17.1596 4.1377Z" fill="white"/>
</svg>
