<svg width="186" height="54" viewBox="0 0 186 54" fill="none" xmlns="http://www.w3.org/2000/svg">
<g clip-path="url(#clip0)">
<path d="M25.5212 18.279C22.8592 23.2674 24.3803 30.5581 27.4226 35.1628C28.9437 37.4651 30.4648 39.3837 32.7465 39.3837C33.8874 39.3837 34.6479 39 35.0282 38.6162C35.7888 38.2325 36.5493 37.8488 38.0705 37.8488C39.2113 37.8488 39.9719 38.2325 40.7324 38.6162C41.493 39 42.2536 39.3837 43.3944 39.3837C45.6761 39.3837 47.1972 37.0814 48.7184 35.1628C49.8592 32.8604 50.6198 30.9418 51.0001 30.1744V29.7907C50.6198 29.7907 46.817 27.8721 46.817 23.2674C46.817 19.4302 49.4789 17.5116 50.2395 17.1279C50.2395 17.1279 50.2395 17.1279 50.2395 16.7442C47.9578 14.4418 44.9155 14.0581 43.7747 14.0581H43.3944C41.8733 14.0581 40.7324 14.4418 39.5916 15.2093C38.831 15.2093 38.0705 15.2093 37.6902 15.2093C37.3099 15.2093 36.5493 14.8255 35.7888 14.8255C34.6479 14.4418 33.5071 14.0581 32.3663 14.0581C29.324 14.0581 26.662 15.593 25.5212 18.279Z" fill="white"/>
<path d="M43.7747 6C42.2535 6 39.9718 7.15116 38.831 8.68605C37.6901 9.83721 36.9296 11.7558 37.3099 13.6744C37.3099 13.6744 37.3099 14.0581 37.6901 14.0581H38.0704C39.5916 14.0581 41.493 13.2907 42.6338 11.7558C43.7747 10.2209 44.1549 7.9186 43.7747 6C44.1549 6 44.1549 6 43.7747 6Z" fill="white"/>
</g>
<g filter="url(#filter0_d)">
<rect x="4.5" y="0.5" width="177" height="45" rx="3.5" stroke="white"/>
<path d="M67.056 18L71.13 8.2H72.432L76.45 18H75.274L74.042 14.92H69.422L68.176 18H67.056ZM69.8 13.996H73.664L71.746 9.208L69.8 13.996ZM78.3248 18L75.2868 10.986H76.4348L78.8288 16.656L81.2228 10.986H82.3288L79.3048 18H78.3248ZM85.4885 18.126C84.7232 18.126 84.0979 17.93 83.6125 17.538C83.1365 17.146 82.8985 16.6373 82.8985 16.012C82.8985 15.3587 83.1505 14.8407 83.6545 14.458C84.1585 14.066 84.8399 13.87 85.6985 13.87C86.0719 13.87 86.4312 13.912 86.7765 13.996C87.1312 14.08 87.4579 14.1967 87.7565 14.346V13.422C87.7565 12.862 87.5979 12.442 87.2805 12.162C86.9632 11.8727 86.5012 11.728 85.8945 11.728C85.5492 11.728 85.1992 11.7793 84.8445 11.882C84.4992 11.9753 84.1165 12.1293 83.6965 12.344L83.3045 11.546C83.8085 11.3033 84.2752 11.126 84.7045 11.014C85.1339 10.902 85.5632 10.846 85.9925 10.846C86.8792 10.846 87.5605 11.056 88.0365 11.476C88.5219 11.896 88.7645 12.498 88.7645 13.282V18H87.7565V17.314C87.4392 17.5847 87.0892 17.79 86.7065 17.93C86.3332 18.0607 85.9272 18.126 85.4885 18.126ZM83.8925 15.984C83.8925 16.376 84.0559 16.698 84.3825 16.95C84.7185 17.1927 85.1479 17.314 85.6705 17.314C86.0905 17.314 86.4732 17.2487 86.8185 17.118C87.1639 16.9873 87.4765 16.782 87.7565 16.502V15.186C87.4672 14.99 87.1545 14.85 86.8185 14.766C86.4919 14.6727 86.1279 14.626 85.7265 14.626C85.1665 14.626 84.7185 14.752 84.3825 15.004C84.0559 15.2467 83.8925 15.5733 83.8925 15.984ZM91.0133 9.642C90.8266 9.642 90.6633 9.572 90.5233 9.432C90.3833 9.292 90.3133 9.12867 90.3133 8.942C90.3133 8.746 90.3833 8.58267 90.5233 8.452C90.6633 8.312 90.8266 8.242 91.0133 8.242C91.2093 8.242 91.3726 8.312 91.5033 8.452C91.6433 8.58267 91.7133 8.746 91.7133 8.942C91.7133 9.12867 91.6433 9.292 91.5033 9.432C91.3726 9.572 91.2093 9.642 91.0133 9.642ZM91.5313 10.986V18H90.4953V10.986H91.5313ZM94.334 7.962V18H93.298V8.2L94.334 7.962ZM98.3128 18.126C97.5474 18.126 96.9221 17.93 96.4368 17.538C95.9608 17.146 95.7228 16.6373 95.7228 16.012C95.7228 15.3587 95.9748 14.8407 96.4788 14.458C96.9828 14.066 97.6641 13.87 98.5228 13.87C98.8961 13.87 99.2554 13.912 99.6008 13.996C99.9554 14.08 100.282 14.1967 100.581 14.346V13.422C100.581 12.862 100.422 12.442 100.105 12.162C99.7874 11.8727 99.3254 11.728 98.7188 11.728C98.3734 11.728 98.0234 11.7793 97.6688 11.882C97.3234 11.9753 96.9408 12.1293 96.5208 12.344L96.1288 11.546C96.6328 11.3033 97.0994 11.126 97.5288 11.014C97.9581 10.902 98.3874 10.846 98.8167 10.846C99.7034 10.846 100.385 11.056 100.861 11.476C101.346 11.896 101.589 12.498 101.589 13.282V18H100.581V17.314C100.263 17.5847 99.9134 17.79 99.5308 17.93C99.1574 18.0607 98.7514 18.126 98.3128 18.126ZM96.7168 15.984C96.7168 16.376 96.8801 16.698 97.2068 16.95C97.5428 17.1927 97.9721 17.314 98.4948 17.314C98.9148 17.314 99.2974 17.2487 99.6428 17.118C99.9881 16.9873 100.301 16.782 100.581 16.502V15.186C100.291 14.99 99.9788 14.85 99.6428 14.766C99.3161 14.6727 98.9521 14.626 98.5508 14.626C97.9908 14.626 97.5428 14.752 97.2068 15.004C96.8801 15.2467 96.7168 15.5733 96.7168 15.984ZM110.138 14.486C110.138 14.99 110.044 15.466 109.858 15.914C109.68 16.362 109.433 16.7493 109.116 17.076C108.798 17.3933 108.42 17.6453 107.982 17.832C107.552 18.0187 107.09 18.112 106.596 18.112C106.185 18.112 105.784 18.042 105.392 17.902C105.009 17.762 104.659 17.5613 104.342 17.3V18H103.32V8.2L104.356 7.962V11.728C104.645 11.448 104.981 11.238 105.364 11.098C105.756 10.9487 106.171 10.874 106.61 10.874C107.104 10.874 107.566 10.9673 107.996 11.154C108.425 11.3407 108.798 11.5973 109.116 11.924C109.433 12.2413 109.68 12.624 109.858 13.072C110.044 13.5107 110.138 13.982 110.138 14.486ZM106.512 11.784C106.073 11.784 105.662 11.8727 105.28 12.05C104.906 12.218 104.598 12.456 104.356 12.764V16.236C104.598 16.5347 104.911 16.7727 105.294 16.95C105.676 17.118 106.082 17.202 106.512 17.202C107.249 17.202 107.865 16.9453 108.36 16.432C108.864 15.9093 109.116 15.2653 109.116 14.5C109.116 14.1173 109.046 13.7627 108.906 13.436C108.775 13.1 108.593 12.8107 108.36 12.568C108.126 12.3253 107.851 12.134 107.534 11.994C107.216 11.854 106.876 11.784 106.512 11.784ZM112.613 7.962V18H111.577V8.2L112.613 7.962ZM120.288 17.258C119.896 17.5473 119.485 17.7667 119.056 17.916C118.636 18.056 118.174 18.126 117.67 18.126C117.166 18.126 116.69 18.0327 116.242 17.846C115.803 17.6593 115.421 17.4027 115.094 17.076C114.777 16.7493 114.525 16.3667 114.338 15.928C114.151 15.48 114.058 14.9993 114.058 14.486C114.058 13.982 114.147 13.5107 114.324 13.072C114.511 12.6333 114.758 12.2507 115.066 11.924C115.374 11.5973 115.738 11.3407 116.158 11.154C116.587 10.9673 117.04 10.874 117.516 10.874C117.983 10.874 118.417 10.9673 118.818 11.154C119.229 11.3407 119.579 11.5973 119.868 11.924C120.167 12.2507 120.4 12.6333 120.568 13.072C120.745 13.5107 120.834 13.982 120.834 14.486V14.808H115.08C115.155 15.4987 115.439 16.0727 115.934 16.53C116.429 16.9873 117.021 17.216 117.712 17.216C118.076 17.216 118.431 17.16 118.776 17.048C119.121 16.936 119.411 16.7773 119.644 16.572L120.288 17.258ZM117.488 11.784C116.881 11.784 116.354 11.9893 115.906 12.4C115.467 12.8107 115.201 13.338 115.108 13.982H119.798C119.705 13.366 119.439 12.848 119 12.428C118.571 11.9987 118.067 11.784 117.488 11.784ZM124.968 14.486C124.968 13.982 125.062 13.506 125.248 13.058C125.435 12.61 125.687 12.2227 126.004 11.896C126.331 11.5693 126.714 11.3127 127.152 11.126C127.591 10.9393 128.058 10.846 128.552 10.846C129.047 10.846 129.509 10.9393 129.938 11.126C130.377 11.3127 130.755 11.5693 131.072 11.896C131.399 12.2227 131.656 12.61 131.842 13.058C132.029 13.506 132.122 13.982 132.122 14.486C132.122 14.9993 132.029 15.48 131.842 15.928C131.656 16.376 131.399 16.7633 131.072 17.09C130.755 17.4167 130.377 17.6733 129.938 17.86C129.509 18.0467 129.047 18.14 128.552 18.14C128.058 18.14 127.591 18.0467 127.152 17.86C126.714 17.6733 126.331 17.4167 126.004 17.09C125.687 16.7633 125.435 16.376 125.248 15.928C125.062 15.48 124.968 14.9993 124.968 14.486ZM128.552 17.216C128.907 17.216 129.238 17.146 129.546 17.006C129.864 16.866 130.134 16.6747 130.358 16.432C130.592 16.18 130.774 15.8907 130.904 15.564C131.035 15.228 131.1 14.8687 131.1 14.486C131.1 14.1033 131.035 13.7487 130.904 13.422C130.774 13.086 130.592 12.7967 130.358 12.554C130.134 12.3113 129.864 12.12 129.546 11.98C129.238 11.84 128.907 11.77 128.552 11.77C128.198 11.77 127.862 11.84 127.544 11.98C127.236 12.12 126.966 12.3113 126.732 12.554C126.508 12.7967 126.326 13.086 126.186 13.422C126.056 13.7487 125.99 14.1033 125.99 14.486C125.99 14.8687 126.056 15.228 126.186 15.564C126.317 15.8907 126.494 16.18 126.718 16.432C126.952 16.6747 127.227 16.866 127.544 17.006C127.862 17.146 128.198 17.216 128.552 17.216ZM133.562 18V10.986H134.598V11.812C134.868 11.4947 135.19 11.2567 135.564 11.098C135.937 10.93 136.352 10.846 136.81 10.846C137.603 10.846 138.252 11.098 138.756 11.602C139.26 12.106 139.512 12.7593 139.512 13.562V18H138.49V13.772C138.49 13.156 138.312 12.666 137.958 12.302C137.603 11.938 137.127 11.756 136.53 11.756C136.11 11.756 135.732 11.8493 135.396 12.036C135.069 12.2227 134.803 12.4887 134.598 12.834V18H133.562ZM145.121 16.432V11.868H143.609V10.986H145.121V9.208L146.143 8.942V10.986H148.257V11.868H146.143V16.166C146.143 16.5393 146.227 16.81 146.395 16.978C146.563 17.1367 146.838 17.216 147.221 17.216C147.417 17.216 147.59 17.202 147.739 17.174C147.898 17.146 148.066 17.0993 148.243 17.034V17.944C148.066 18.0093 147.865 18.056 147.641 18.084C147.426 18.112 147.216 18.126 147.011 18.126C146.404 18.126 145.938 17.9813 145.611 17.692C145.284 17.4027 145.121 16.9827 145.121 16.432ZM149.366 18V8.2L150.402 7.962V11.812C150.673 11.4947 150.995 11.2567 151.368 11.098C151.742 10.93 152.157 10.846 152.614 10.846C153.408 10.846 154.056 11.098 154.56 11.602C155.064 12.106 155.316 12.7593 155.316 13.562V18H154.294V13.772C154.294 13.156 154.117 12.666 153.762 12.302C153.408 11.938 152.932 11.756 152.334 11.756C151.914 11.756 151.536 11.8493 151.2 12.036C150.874 12.2227 150.608 12.4887 150.402 12.834V18H149.366ZM162.958 17.258C162.566 17.5473 162.155 17.7667 161.726 17.916C161.306 18.056 160.844 18.126 160.34 18.126C159.836 18.126 159.36 18.0327 158.912 17.846C158.473 17.6593 158.091 17.4027 157.764 17.076C157.447 16.7493 157.195 16.3667 157.008 15.928C156.821 15.48 156.728 14.9993 156.728 14.486C156.728 13.982 156.817 13.5107 156.994 13.072C157.181 12.6333 157.428 12.2507 157.736 11.924C158.044 11.5973 158.408 11.3407 158.828 11.154C159.257 10.9673 159.71 10.874 160.186 10.874C160.653 10.874 161.087 10.9673 161.488 11.154C161.899 11.3407 162.249 11.5973 162.538 11.924C162.837 12.2507 163.07 12.6333 163.238 13.072C163.415 13.5107 163.504 13.982 163.504 14.486V14.808H157.75C157.825 15.4987 158.109 16.0727 158.604 16.53C159.099 16.9873 159.691 17.216 160.382 17.216C160.746 17.216 161.101 17.16 161.446 17.048C161.791 16.936 162.081 16.7773 162.314 16.572L162.958 17.258ZM160.158 11.784C159.551 11.784 159.024 11.9893 158.576 12.4C158.137 12.8107 157.871 13.338 157.778 13.982H162.468C162.375 13.366 162.109 12.848 161.67 12.428C161.241 11.9987 160.737 11.784 160.158 11.784Z" fill="white"/>
<path d="M81.944 37L85.976 27.2H88.328L92.304 37H90.106L89.112 34.424H85.066L84.058 37H81.944ZM85.696 32.8H88.496L87.11 29.188L85.696 32.8ZM93.0099 39.926V29.706H94.8999V30.308C95.1892 30.0747 95.5112 29.902 95.8659 29.79C96.2206 29.6687 96.5892 29.608 96.9719 29.608C97.4852 29.608 97.9659 29.706 98.4139 29.902C98.8712 30.098 99.2679 30.364 99.6039 30.7C99.9399 31.036 100.201 31.4327 100.388 31.89C100.584 32.3473 100.682 32.8373 100.682 33.36C100.682 33.8827 100.584 34.3727 100.388 34.83C100.192 35.2873 99.9259 35.684 99.5899 36.02C99.2539 36.356 98.8526 36.622 98.3859 36.818C97.9286 37.0047 97.4386 37.098 96.9159 37.098C96.5612 37.098 96.2112 37.0513 95.8659 36.958C95.5299 36.8553 95.2172 36.7107 94.9279 36.524V39.926H93.0099ZM96.6639 31.246C96.3186 31.246 95.9966 31.3067 95.6979 31.428C95.3992 31.54 95.1426 31.708 94.9279 31.932V34.802C95.1332 35.0073 95.3852 35.1707 95.6839 35.292C95.9919 35.4133 96.3186 35.474 96.6639 35.474C97.2612 35.474 97.7652 35.2733 98.1759 34.872C98.5866 34.4613 98.7919 33.9573 98.7919 33.36C98.7919 32.7627 98.5819 32.2633 98.1619 31.862C97.7512 31.4513 97.2519 31.246 96.6639 31.246ZM101.856 39.926V29.706H103.746V30.308C104.035 30.0747 104.357 29.902 104.712 29.79C105.066 29.6687 105.435 29.608 105.818 29.608C106.331 29.608 106.812 29.706 107.26 29.902C107.717 30.098 108.114 30.364 108.45 30.7C108.786 31.036 109.047 31.4327 109.234 31.89C109.43 32.3473 109.528 32.8373 109.528 33.36C109.528 33.8827 109.43 34.3727 109.234 34.83C109.038 35.2873 108.772 35.684 108.436 36.02C108.1 36.356 107.698 36.622 107.232 36.818C106.774 37.0047 106.284 37.098 105.762 37.098C105.407 37.098 105.057 37.0513 104.712 36.958C104.376 36.8553 104.063 36.7107 103.774 36.524V39.926H101.856ZM105.51 31.246C105.164 31.246 104.842 31.3067 104.544 31.428C104.245 31.54 103.988 31.708 103.774 31.932V34.802C103.979 35.0073 104.231 35.1707 104.53 35.292C104.838 35.4133 105.164 35.474 105.51 35.474C106.107 35.474 106.611 35.2733 107.022 34.872C107.432 34.4613 107.638 33.9573 107.638 33.36C107.638 32.7627 107.428 32.2633 107.008 31.862C106.597 31.4513 106.098 31.246 105.51 31.246ZM112.804 35.446L113.966 33.99C114.535 34.4847 115.081 34.8487 115.604 35.082C116.136 35.306 116.696 35.418 117.284 35.418C117.89 35.418 118.376 35.306 118.74 35.082C119.104 34.858 119.286 34.5593 119.286 34.186C119.286 33.85 119.16 33.5887 118.908 33.402C118.665 33.2153 118.254 33.0753 117.676 32.982L115.73 32.646C114.89 32.506 114.25 32.212 113.812 31.764C113.382 31.316 113.168 30.7373 113.168 30.028C113.168 29.1133 113.513 28.39 114.204 27.858C114.904 27.326 115.846 27.06 117.032 27.06C117.741 27.06 118.455 27.1813 119.174 27.424C119.902 27.6667 120.536 28.0027 121.078 28.432L119.986 29.944C119.463 29.5427 118.95 29.2487 118.446 29.062C117.942 28.866 117.424 28.768 116.892 28.768C116.35 28.768 115.916 28.8707 115.59 29.076C115.263 29.272 115.1 29.538 115.1 29.874C115.1 30.1727 115.207 30.406 115.422 30.574C115.636 30.742 115.996 30.8633 116.5 30.938L118.348 31.246C119.318 31.4047 120.046 31.7173 120.532 32.184C121.026 32.6413 121.274 33.248 121.274 34.004C121.274 34.956 120.896 35.7167 120.14 36.286C119.393 36.8553 118.394 37.14 117.144 37.14C116.36 37.14 115.585 36.9907 114.82 36.692C114.064 36.3933 113.392 35.978 112.804 35.446ZM123.084 34.942V31.316H121.586V29.706H123.084V27.844L125.002 27.41V29.706H127.074V31.316H125.002V34.55C125.002 34.8953 125.077 35.138 125.226 35.278C125.375 35.418 125.637 35.488 126.01 35.488C126.187 35.488 126.355 35.4787 126.514 35.46C126.673 35.432 126.845 35.3853 127.032 35.32V36.888C126.827 36.9533 126.579 37.0047 126.29 37.042C126.001 37.0887 125.753 37.112 125.548 37.112C124.736 37.112 124.12 36.93 123.7 36.566C123.289 36.1927 123.084 35.6513 123.084 34.942ZM127.619 33.36C127.619 32.828 127.717 32.3333 127.913 31.876C128.119 31.4093 128.394 31.008 128.739 30.672C129.094 30.3267 129.509 30.056 129.985 29.86C130.461 29.664 130.97 29.566 131.511 29.566C132.053 29.566 132.561 29.664 133.037 29.86C133.513 30.056 133.924 30.3267 134.269 30.672C134.624 31.008 134.899 31.4093 135.095 31.876C135.301 32.3333 135.403 32.828 135.403 33.36C135.403 33.892 135.301 34.3913 135.095 34.858C134.899 35.3153 134.624 35.712 134.269 36.048C133.924 36.384 133.513 36.65 133.037 36.846C132.561 37.042 132.053 37.14 131.511 37.14C130.97 37.14 130.461 37.042 129.985 36.846C129.509 36.65 129.094 36.384 128.739 36.048C128.394 35.712 128.119 35.3153 127.913 34.858C127.717 34.3913 127.619 33.892 127.619 33.36ZM131.511 35.474C132.071 35.474 132.547 35.2687 132.939 34.858C133.331 34.4473 133.527 33.948 133.527 33.36C133.527 32.7627 133.331 32.2587 132.939 31.848C132.547 31.4373 132.071 31.232 131.511 31.232C130.951 31.232 130.475 31.4373 130.083 31.848C129.691 32.2587 129.495 32.7627 129.495 33.36C129.495 33.948 129.691 34.4473 130.083 34.858C130.475 35.2687 130.951 35.474 131.511 35.474ZM136.582 37V29.706H138.5V30.504C138.734 30.1867 139.014 29.9487 139.34 29.79C139.676 29.622 140.045 29.538 140.446 29.538C140.633 29.5473 140.787 29.566 140.908 29.594C141.039 29.6127 141.151 29.65 141.244 29.706V31.386C141.104 31.3207 140.95 31.274 140.782 31.246C140.614 31.2087 140.442 31.19 140.264 31.19C139.891 31.19 139.546 31.2833 139.228 31.47C138.92 31.6567 138.678 31.9273 138.5 32.282V37H136.582ZM148.466 36.09C148.018 36.454 147.556 36.72 147.08 36.888C146.613 37.056 146.091 37.14 145.512 37.14C144.961 37.14 144.443 37.042 143.958 36.846C143.482 36.65 143.067 36.384 142.712 36.048C142.367 35.712 142.091 35.3153 141.886 34.858C141.69 34.3913 141.592 33.892 141.592 33.36C141.592 32.8373 141.685 32.3473 141.872 31.89C142.068 31.4233 142.334 31.022 142.67 30.686C143.006 30.3407 143.403 30.07 143.86 29.874C144.327 29.678 144.821 29.58 145.344 29.58C145.857 29.58 146.333 29.6827 146.772 29.888C147.22 30.084 147.603 30.3547 147.92 30.7C148.247 31.0453 148.499 31.4607 148.676 31.946C148.863 32.422 148.956 32.94 148.956 33.5V34.004H143.524C143.655 34.4613 143.907 34.83 144.28 35.11C144.653 35.39 145.092 35.53 145.596 35.53C145.913 35.53 146.212 35.4787 146.492 35.376C146.772 35.2733 147.01 35.1287 147.206 34.942L148.466 36.09ZM145.302 31.162C144.863 31.162 144.485 31.2973 144.168 31.568C143.851 31.8293 143.631 32.184 143.51 32.632H147.08C146.959 32.2027 146.735 31.8527 146.408 31.582C146.091 31.302 145.722 31.162 145.302 31.162Z" fill="white"/>
</g>
<defs>
<filter id="filter0_d" x="0" y="0" width="186" height="54" filterUnits="userSpaceOnUse" color-interpolation-filters="sRGB">
<feFlood flood-opacity="0" result="BackgroundImageFix"/>
<feColorMatrix in="SourceAlpha" type="matrix" values="0 0 0 0 0 0 0 0 0 0 0 0 0 0 0 0 0 0 127 0"/>
<feOffset dy="4"/>
<feGaussianBlur stdDeviation="2"/>
<feColorMatrix type="matrix" values="0 0 0 0 0 0 0 0 0 0 0 0 0 0 0 0 0 0 0.25 0"/>
<feBlend mode="normal" in2="BackgroundImageFix" result="effect1_dropShadow"/>
<feBlend mode="normal" in="SourceGraphic" in2="effect1_dropShadow" result="shape"/>
</filter>
<clipPath id="clip0">
<rect width="27" height="33" fill="white" transform="translate(24 6)"/>
</clipPath>
</defs>
</svg>
