<svg width="29" height="29" viewBox="0 0 29 29" fill="none" xmlns="http://www.w3.org/2000/svg">
<path d="M26.3139 19.6025V18.5289V12.0845V5.64003C26.3139 5.05022 25.8311 4.56641 25.2403 4.56641H3.75971C3.16888 4.56641 2.68473 5.04784 2.68473 5.64003V12.0845V18.5289V19.6025L0 22.8248C0 23.7125 0.720957 24.4345 1.61111 24.4345H27.3889C28.2777 24.4345 29 23.7122 29 22.8248L26.3139 19.6025ZM16.6496 23.8994H12.3528C12.2043 23.8994 12.084 23.7801 12.084 23.6307C12.084 23.4812 12.2043 23.3619 12.3528 23.3619H16.65C16.7971 23.3619 16.9187 23.4812 16.9187 23.6307C16.9146 23.7805 16.7967 23.8994 16.6496 23.8994ZM10.0727 22.8258L10.8922 21.8422H18.1061L18.927 22.8258H10.0727ZM24.8023 17.703C24.8023 18.2211 24.3804 18.6404 23.866 18.6404H5.13368C4.61929 18.6404 4.19731 18.2174 4.19731 17.703V6.46801C4.19731 5.94988 4.61929 5.53063 5.13368 5.53063H23.8663C24.3807 5.53063 24.8027 5.9526 24.8027 6.46801C24.8023 6.46801 24.8023 17.703 24.8023 17.703Z" fill="white"/>
</svg>
