<svg width="144" height="86" viewBox="0 0 144 86" fill="none" xmlns="http://www.w3.org/2000/svg">
<path d="M10.7188 63.8613C11.5599 63.8613 12.3732 63.9139 13.1587 64.019C13.9504 64.118 14.6585 64.2912 15.2832 64.5386C15.9141 64.7798 16.4305 65.1076 16.8325 65.522C17.2407 65.9364 17.4788 66.4528 17.5469 67.0713L15.1348 67.7393C15.1348 67.3682 15.008 67.0651 14.7544 66.8301C14.507 66.5889 14.1761 66.4002 13.7617 66.2642C13.3535 66.1219 12.8835 66.0229 12.3516 65.9673C11.8258 65.9116 11.2816 65.8838 10.7188 65.8838C10.1683 65.8838 9.62712 65.9085 9.09521 65.958C8.56331 66.0075 8.08398 66.1003 7.65723 66.2363C7.23665 66.3724 6.89648 66.561 6.63672 66.8022C6.37695 67.0435 6.24707 67.3558 6.24707 67.7393V69.9473H17.5469V74.7529C17.5469 75.1673 17.4541 75.5384 17.2686 75.8662C17.0892 76.1878 16.8387 76.4692 16.5171 76.7104C16.2017 76.9455 15.8244 77.1465 15.3853 77.3135C14.9523 77.4743 14.4823 77.6042 13.9751 77.7031C13.4741 77.8021 12.9453 77.8732 12.3887 77.9165C11.832 77.9598 11.2754 77.9814 10.7188 77.9814C10.1497 77.9814 9.59001 77.9598 9.03955 77.9165C8.4891 77.8732 7.96647 77.8021 7.47168 77.7031C6.97689 77.6042 6.51611 77.4743 6.08936 77.3135C5.66878 77.1465 5.29769 76.9455 4.97607 76.7104C4.65446 76.4692 4.39469 76.1878 4.19678 75.8662C3.99886 75.5446 3.87826 75.1735 3.83496 74.7529L6.24707 74.085C6.24707 74.4684 6.37695 74.7808 6.63672 75.022C6.89648 75.2632 7.23665 75.4518 7.65723 75.5879C8.08398 75.724 8.56331 75.8167 9.09521 75.8662C9.62712 75.9157 10.1683 75.9404 10.7188 75.9404C11.2816 75.9404 11.8258 75.9157 12.3516 75.8662C12.8835 75.8105 13.3535 75.7147 13.7617 75.5786C14.1761 75.4364 14.507 75.2446 14.7544 75.0034C15.008 74.7622 15.1348 74.4561 15.1348 74.085V71.8213H3.83496V67.0713C3.83496 66.6569 3.92464 66.292 4.104 65.9766C4.28955 65.6549 4.54004 65.3766 4.85547 65.1416C5.17708 64.9004 5.55745 64.6994 5.99658 64.5386C6.43571 64.3716 6.90885 64.2386 7.41602 64.1396C7.92936 64.0407 8.46436 63.9696 9.021 63.9263C9.58382 63.883 10.1497 63.8613 10.7188 63.8613ZM30.4609 74.2148C30.3063 74.0788 30.1146 73.9458 29.8857 73.8159C29.6569 73.686 29.3755 73.5716 29.0415 73.4727C28.7075 73.3675 28.3086 73.284 27.8447 73.2222C27.387 73.1541 26.849 73.1201 26.2305 73.1201C25.68 73.1201 25.1574 73.1325 24.6626 73.1572C24.174 73.1758 23.7441 73.2376 23.373 73.3428C23.002 73.4417 22.7082 73.6025 22.4917 73.8252C22.2752 74.0479 22.167 74.3571 22.167 74.7529V75.9404C22.7113 76.027 23.3112 76.0981 23.9668 76.1538C24.6224 76.2095 25.3522 76.2373 26.1562 76.2373C26.7995 76.2373 27.4829 76.2157 28.2065 76.1724C28.9364 76.1229 29.6878 76.027 30.4609 75.8848V74.2148ZM26.2861 67.4238C26.5954 67.4238 26.9696 67.4393 27.4087 67.4702C27.8478 67.5011 28.3055 67.5568 28.7817 67.6372C29.258 67.7114 29.728 67.8166 30.1919 67.9526C30.6619 68.0825 31.0825 68.2557 31.4536 68.4722C31.8309 68.6825 32.134 68.936 32.3628 69.2329C32.5916 69.5298 32.7061 69.8792 32.7061 70.2812V77.4619C32.1865 77.5671 31.599 77.6567 30.9434 77.731C30.3805 77.799 29.7095 77.8608 28.9302 77.9165C28.1509 77.9722 27.2819 78 26.3232 78C25.3708 78 24.3564 77.9598 23.2803 77.8794C22.2103 77.799 21.0908 77.6598 19.9219 77.4619V74.1221C19.9219 73.7633 20.0054 73.451 20.1724 73.1851C20.3455 72.9129 20.5806 72.681 20.8774 72.4893C21.1743 72.2975 21.5238 72.1398 21.9258 72.0161C22.3278 71.8924 22.7607 71.7935 23.2246 71.7192C23.6885 71.645 24.1709 71.5955 24.6719 71.5708C25.1729 71.5399 25.6738 71.5244 26.1748 71.5244C26.9355 71.5244 27.5819 71.5739 28.1138 71.6729C28.6519 71.7656 29.0972 71.8677 29.4497 71.979C29.8579 72.1151 30.195 72.2666 30.4609 72.4336V70.9307C30.4609 70.6771 30.3991 70.4606 30.2754 70.2812C30.1517 70.0957 29.9847 69.9411 29.7744 69.8174C29.5641 69.6875 29.3229 69.5854 29.0508 69.5112C28.7786 69.4308 28.4941 69.369 28.1973 69.3257C27.9004 69.2824 27.5973 69.2546 27.2881 69.2422C26.985 69.2298 26.7005 69.2236 26.4346 69.2236C26.1562 69.2236 25.8594 69.2329 25.5439 69.2515C25.2285 69.2638 24.9131 69.2917 24.5977 69.335C24.2884 69.3783 23.9884 69.4401 23.6978 69.5205C23.4132 69.5947 23.1597 69.6968 22.937 69.8267C22.7144 69.9565 22.535 70.1143 22.3989 70.2998C22.269 70.4792 22.2041 70.6956 22.2041 70.9492L19.9033 70.3555C19.9033 69.9411 20.0054 69.5824 20.2095 69.2793C20.4136 68.9701 20.6826 68.7072 21.0166 68.4907C21.3568 68.2743 21.7464 68.098 22.1855 67.9619C22.6247 67.8197 23.0793 67.7114 23.5493 67.6372C24.0256 67.5568 24.4987 67.5011 24.9688 67.4702C25.4388 67.4393 25.8779 67.4238 26.2861 67.4238ZM38.0498 78H35.9346V64.0654H38.0498V78ZM47.6611 67.2568C48.1807 67.2568 48.6971 67.2816 49.2104 67.3311C49.73 67.3805 50.2279 67.4609 50.7041 67.5723C51.1803 67.6836 51.6257 67.8228 52.04 67.9897C52.4544 68.1567 52.8132 68.3577 53.1162 68.5928C53.4255 68.8278 53.6667 69.0999 53.8398 69.4092C54.013 69.7122 54.0996 70.0524 54.0996 70.4297V75.2354C54.0996 75.5693 54.013 75.8755 53.8398 76.1538C53.6667 76.4321 53.4255 76.6826 53.1162 76.9053C52.8132 77.1217 52.4544 77.3104 52.04 77.4712C51.6257 77.632 51.1803 77.765 50.7041 77.8701C50.2279 77.9753 49.73 78.0526 49.2104 78.1021C48.6909 78.1577 48.1745 78.1855 47.6611 78.1855C47.1478 78.1855 46.6313 78.1577 46.1118 78.1021C45.5985 78.0526 45.1037 77.9753 44.6274 77.8701C44.1512 77.765 43.7059 77.632 43.2915 77.4712C42.8833 77.3104 42.5246 77.1217 42.2153 76.9053C41.9123 76.6826 41.6742 76.4352 41.501 76.1631C41.3278 75.8848 41.2412 75.5755 41.2412 75.2354V70.4297C41.2412 70.0524 41.3278 69.7122 41.501 69.4092C41.6742 69.0999 41.9123 68.8278 42.2153 68.5928C42.5246 68.3577 42.8833 68.1567 43.2915 67.9897C43.7059 67.8228 44.1512 67.6836 44.6274 67.5723C45.1037 67.4609 45.5985 67.3805 46.1118 67.3311C46.6313 67.2816 47.1478 67.2568 47.6611 67.2568ZM43.5977 74.6416C43.5977 74.9261 43.7152 75.1735 43.9502 75.3838C44.1914 75.5879 44.5037 75.7611 44.8872 75.9033C45.2707 76.0394 45.7036 76.1414 46.186 76.2095C46.6746 76.2775 47.1663 76.3115 47.6611 76.3115C48.1807 76.3115 48.6816 76.2744 49.1641 76.2002C49.6527 76.126 50.0856 76.0208 50.4629 75.8848C50.8402 75.7425 51.1401 75.5693 51.3628 75.3652C51.5916 75.1549 51.7061 74.9137 51.7061 74.6416V70.7822C51.7061 70.5163 51.5916 70.2782 51.3628 70.0679C51.1401 69.8514 50.8402 69.672 50.4629 69.5298C50.0856 69.3813 49.6527 69.27 49.1641 69.1958C48.6816 69.1154 48.1807 69.0752 47.6611 69.0752C47.1663 69.0752 46.6746 69.1123 46.186 69.1865C45.7036 69.2546 45.2707 69.3597 44.8872 69.502C44.5037 69.6442 44.1914 69.8236 43.9502 70.04C43.7152 70.2503 43.5977 70.4977 43.5977 70.7822V74.6416ZM62.5605 67.2568C63.0801 67.2568 63.5965 67.2816 64.1099 67.3311C64.6294 67.3805 65.1273 67.4609 65.6035 67.5723C66.0798 67.6836 66.5251 67.8228 66.9395 67.9897C67.3538 68.1567 67.7126 68.3577 68.0156 68.5928C68.3249 68.8278 68.5661 69.0999 68.7393 69.4092C68.9124 69.7122 68.999 70.0524 68.999 70.4297V75.2354C68.999 75.5693 68.9124 75.8755 68.7393 76.1538C68.5661 76.4321 68.3249 76.6826 68.0156 76.9053C67.7126 77.1217 67.3538 77.3104 66.9395 77.4712C66.5251 77.632 66.0798 77.765 65.6035 77.8701C65.1273 77.9753 64.6294 78.0526 64.1099 78.1021C63.5903 78.1577 63.0739 78.1855 62.5605 78.1855C62.0472 78.1855 61.5308 78.1577 61.0112 78.1021C60.4979 78.0526 60.0031 77.9753 59.5269 77.8701C59.0506 77.765 58.6053 77.632 58.1909 77.4712C57.7827 77.3104 57.424 77.1217 57.1147 76.9053C56.8117 76.6826 56.5736 76.4352 56.4004 76.1631C56.2272 75.8848 56.1406 75.5755 56.1406 75.2354V70.4297C56.1406 70.0524 56.2272 69.7122 56.4004 69.4092C56.5736 69.0999 56.8117 68.8278 57.1147 68.5928C57.424 68.3577 57.7827 68.1567 58.1909 67.9897C58.6053 67.8228 59.0506 67.6836 59.5269 67.5723C60.0031 67.4609 60.4979 67.3805 61.0112 67.3311C61.5308 67.2816 62.0472 67.2568 62.5605 67.2568ZM58.4971 74.6416C58.4971 74.9261 58.6146 75.1735 58.8496 75.3838C59.0908 75.5879 59.4032 75.7611 59.7866 75.9033C60.1701 76.0394 60.603 76.1414 61.0854 76.2095C61.5741 76.2775 62.0658 76.3115 62.5605 76.3115C63.0801 76.3115 63.5811 76.2744 64.0635 76.2002C64.5521 76.126 64.985 76.0208 65.3623 75.8848C65.7396 75.7425 66.0396 75.5693 66.2622 75.3652C66.491 75.1549 66.6055 74.9137 66.6055 74.6416V70.7822C66.6055 70.5163 66.491 70.2782 66.2622 70.0679C66.0396 69.8514 65.7396 69.672 65.3623 69.5298C64.985 69.3813 64.5521 69.27 64.0635 69.1958C63.5811 69.1154 63.0801 69.0752 62.5605 69.0752C62.0658 69.0752 61.5741 69.1123 61.0854 69.1865C60.603 69.2546 60.1701 69.3597 59.7866 69.502C59.4032 69.6442 59.0908 69.8236 58.8496 70.04C58.6146 70.2503 58.4971 70.4977 58.4971 70.7822V74.6416ZM71.5781 70.3369C71.5534 70.139 71.4946 69.972 71.4019 69.8359C71.3153 69.6999 71.2194 69.5885 71.1143 69.502C70.9967 69.3968 70.8669 69.3102 70.7246 69.2422L71.7637 67.4238C71.9925 67.5042 72.2214 67.6125 72.4502 67.7485C72.6419 67.866 72.8429 68.0176 73.0532 68.2031C73.2697 68.3825 73.4583 68.6051 73.6191 68.8711C73.9284 68.6732 74.2438 68.4876 74.5654 68.3145C74.8932 68.1351 75.2334 67.9805 75.5859 67.8506C75.9447 67.7207 76.3188 67.6187 76.7085 67.5444C77.1043 67.464 77.528 67.4238 77.9795 67.4238C78.932 67.4238 79.7484 67.5042 80.4287 67.665C81.1152 67.8197 81.675 68.0547 82.1079 68.3701C82.547 68.6794 82.8687 69.0659 83.0728 69.5298C83.2769 69.9937 83.3789 70.5348 83.3789 71.1533V78H80.9482V71.7285C80.9482 71.3822 80.9019 71.0853 80.8091 70.8379C80.7163 70.5843 80.5895 70.3709 80.4287 70.1978C80.2741 70.0184 80.0916 69.873 79.8813 69.7617C79.6711 69.6504 79.4515 69.5669 79.2227 69.5112C79 69.4494 78.7712 69.4092 78.5361 69.3906C78.3011 69.3659 78.0785 69.3535 77.8682 69.3535C77.4723 69.3535 77.0951 69.3813 76.7363 69.437C76.3776 69.4927 76.0374 69.57 75.7158 69.6689C75.3942 69.7617 75.0911 69.873 74.8066 70.0029C74.5221 70.1328 74.2562 70.2689 74.0088 70.4111V78H71.5781V70.3369ZM97.2764 78H95.1611V64.0654H97.2764V78ZM106.888 67.2568C107.407 67.2568 107.924 67.2816 108.437 67.3311C108.957 67.3805 109.454 67.4609 109.931 67.5723C110.407 67.6836 110.852 67.8228 111.267 67.9897C111.681 68.1567 112.04 68.3577 112.343 68.5928C112.652 68.8278 112.893 69.0999 113.066 69.4092C113.24 69.7122 113.326 70.0524 113.326 70.4297V75.2354C113.326 75.5693 113.24 75.8755 113.066 76.1538C112.893 76.4321 112.652 76.6826 112.343 76.9053C112.04 77.1217 111.681 77.3104 111.267 77.4712C110.852 77.632 110.407 77.765 109.931 77.8701C109.454 77.9753 108.957 78.0526 108.437 78.1021C107.917 78.1577 107.401 78.1855 106.888 78.1855C106.374 78.1855 105.858 78.1577 105.338 78.1021C104.825 78.0526 104.33 77.9753 103.854 77.8701C103.378 77.765 102.932 77.632 102.518 77.4712C102.11 77.3104 101.751 77.1217 101.442 76.9053C101.139 76.6826 100.901 76.4352 100.728 76.1631C100.554 75.8848 100.468 75.5755 100.468 75.2354V70.4297C100.468 70.0524 100.554 69.7122 100.728 69.4092C100.901 69.0999 101.139 68.8278 101.442 68.5928C101.751 68.3577 102.11 68.1567 102.518 67.9897C102.932 67.8228 103.378 67.6836 103.854 67.5723C104.33 67.4609 104.825 67.3805 105.338 67.3311C105.858 67.2816 106.374 67.2568 106.888 67.2568ZM102.824 74.6416C102.824 74.9261 102.942 75.1735 103.177 75.3838C103.418 75.5879 103.73 75.7611 104.114 75.9033C104.497 76.0394 104.93 76.1414 105.413 76.2095C105.901 76.2775 106.393 76.3115 106.888 76.3115C107.407 76.3115 107.908 76.2744 108.391 76.2002C108.879 76.126 109.312 76.0208 109.689 75.8848C110.067 75.7425 110.367 75.5693 110.589 75.3652C110.818 75.1549 110.933 74.9137 110.933 74.6416V70.7822C110.933 70.5163 110.818 70.2782 110.589 70.0679C110.367 69.8514 110.067 69.672 109.689 69.5298C109.312 69.3813 108.879 69.27 108.391 69.1958C107.908 69.1154 107.407 69.0752 106.888 69.0752C106.393 69.0752 105.901 69.1123 105.413 69.1865C104.93 69.2546 104.497 69.3597 104.114 69.502C103.73 69.6442 103.418 69.8236 103.177 70.04C102.942 70.2503 102.824 70.4977 102.824 70.7822V74.6416ZM121.36 67.4238C121.886 67.4238 122.421 67.4455 122.965 67.4888C123.51 67.5259 124.032 67.5785 124.533 67.6465C125.04 67.7083 125.514 67.7826 125.953 67.8691C126.398 67.9557 126.785 68.0485 127.112 68.1475H127.261V78.4639C127.261 78.903 127.168 79.3112 126.982 79.6885C126.797 80.0658 126.528 80.3905 126.175 80.6626C125.823 80.9409 125.39 81.1574 124.876 81.312C124.363 81.4666 123.779 81.5439 123.123 81.5439V79.9297C123.37 79.9297 123.599 79.9049 123.81 79.8555C124.02 79.806 124.202 79.7287 124.357 79.6235C124.518 79.5246 124.641 79.3978 124.728 79.2432C124.821 79.0947 124.867 78.9215 124.867 78.7236V77.2949C124.304 77.5114 123.72 77.6846 123.114 77.8145C122.514 77.9382 121.929 78 121.36 78C120.408 78 119.557 77.9351 118.809 77.8052C118.061 77.6691 117.427 77.4619 116.907 77.1836C116.388 76.9053 115.992 76.5527 115.72 76.126C115.448 75.6992 115.312 75.1921 115.312 74.6045V70.8193C115.312 70.2318 115.448 69.7246 115.72 69.2979C115.992 68.8711 116.388 68.5186 116.907 68.2402C117.427 67.9619 118.061 67.7578 118.809 67.6279C119.557 67.4919 120.408 67.4238 121.36 67.4238ZM122.028 76.1445C122.368 76.1445 122.681 76.1229 122.965 76.0796C123.25 76.0301 123.507 75.9683 123.735 75.894C123.97 75.8198 124.181 75.7425 124.366 75.6621C124.558 75.5755 124.725 75.4951 124.867 75.4209V69.6504C124.7 69.5885 124.505 69.5267 124.283 69.4648C124.066 69.403 123.831 69.3504 123.578 69.3071C123.33 69.2576 123.074 69.2205 122.808 69.1958C122.542 69.1649 122.282 69.1494 122.028 69.1494C121.453 69.1494 120.906 69.1649 120.386 69.1958C119.867 69.2267 119.412 69.3102 119.022 69.4463C118.633 69.5824 118.32 69.7926 118.085 70.0771C117.857 70.3555 117.742 70.7451 117.742 71.2461V73.9736C117.742 74.3014 117.795 74.5828 117.9 74.8179C118.005 75.0529 118.15 75.2508 118.336 75.4116C118.528 75.5724 118.757 75.7023 119.022 75.8013C119.288 75.894 119.579 75.9683 119.895 76.0239C120.21 76.0734 120.547 76.1074 120.906 76.126C121.271 76.1383 121.645 76.1445 122.028 76.1445ZM136.315 67.2568C136.835 67.2568 137.351 67.2816 137.865 67.3311C138.384 67.3805 138.882 67.4609 139.358 67.5723C139.835 67.6836 140.28 67.8228 140.694 67.9897C141.109 68.1567 141.467 68.3577 141.771 68.5928C142.08 68.8278 142.321 69.0999 142.494 69.4092C142.667 69.7122 142.754 70.0524 142.754 70.4297V75.2354C142.754 75.5693 142.667 75.8755 142.494 76.1538C142.321 76.4321 142.08 76.6826 141.771 76.9053C141.467 77.1217 141.109 77.3104 140.694 77.4712C140.28 77.632 139.835 77.765 139.358 77.8701C138.882 77.9753 138.384 78.0526 137.865 78.1021C137.345 78.1577 136.829 78.1855 136.315 78.1855C135.802 78.1855 135.286 78.1577 134.766 78.1021C134.253 78.0526 133.758 77.9753 133.282 77.8701C132.806 77.765 132.36 77.632 131.946 77.4712C131.538 77.3104 131.179 77.1217 130.87 76.9053C130.567 76.6826 130.328 76.4352 130.155 76.1631C129.982 75.8848 129.896 75.5755 129.896 75.2354V70.4297C129.896 70.0524 129.982 69.7122 130.155 69.4092C130.328 69.0999 130.567 68.8278 130.87 68.5928C131.179 68.3577 131.538 68.1567 131.946 67.9897C132.36 67.8228 132.806 67.6836 133.282 67.5723C133.758 67.4609 134.253 67.3805 134.766 67.3311C135.286 67.2816 135.802 67.2568 136.315 67.2568ZM132.252 74.6416C132.252 74.9261 132.369 75.1735 132.604 75.3838C132.846 75.5879 133.158 75.7611 133.542 75.9033C133.925 76.0394 134.358 76.1414 134.84 76.2095C135.329 76.2775 135.821 76.3115 136.315 76.3115C136.835 76.3115 137.336 76.2744 137.818 76.2002C138.307 76.126 138.74 76.0208 139.117 75.8848C139.494 75.7425 139.794 75.5693 140.017 75.3652C140.246 75.1549 140.36 74.9137 140.36 74.6416V70.7822C140.36 70.5163 140.246 70.2782 140.017 70.0679C139.794 69.8514 139.494 69.672 139.117 69.5298C138.74 69.3813 138.307 69.27 137.818 69.1958C137.336 69.1154 136.835 69.0752 136.315 69.0752C135.821 69.0752 135.329 69.1123 134.84 69.1865C134.358 69.2546 133.925 69.3597 133.542 69.502C133.158 69.6442 132.846 69.8236 132.604 70.04C132.369 70.2503 132.252 70.4977 132.252 70.7822V74.6416Z" fill="#B59E5C"/>
<g clip-path="url(#clip0)">
<path d="M19.2205 13.3422C21.9789 13.3422 24.3824 12.7317 26.0869 11.611C27.7913 12.7318 30.1949 13.3422 32.9533 13.3422C38.3733 13.3422 42.0859 12.2603 44.3035 10.0346C45.7998 8.53279 46.5538 6.53598 46.5448 4.09818C46.5406 3.27358 46.0515 2.52578 45.2985 2.19319C44.5467 1.86069 43.6649 2.00065 43.0505 2.55166C41.0667 4.33844 39.4692 4.18824 36.2133 1.90945C34.3785 0.624613 32.5633 0 30.6644 0C28.5839 0 27.0482 0.94634 26.0869 1.68865C25.1255 0.94634 23.5899 0 21.5093 0C19.6351 0 17.8408 0.610742 16.0243 1.86721C12.7044 4.16226 11.0919 4.32198 9.12305 2.55156C8.50838 1.99816 7.62466 1.85779 6.87511 2.19329C6.12213 2.52599 5.63302 3.27368 5.62899 4.09943C5.61998 6.53556 6.37419 8.53238 7.87041 10.0341C10.0883 12.2601 13.8009 13.3422 19.2205 13.3422Z" fill="#B59E5C"/>
<path d="M20.8979 16.3813C21.2188 18.9589 23.4237 20.9598 26.0872 20.9598C28.7506 20.9598 30.9555 18.9589 31.2764 16.3813C29.3593 16.2271 27.6078 15.8047 26.0872 15.1309C24.5665 15.8047 22.8151 16.2271 20.8979 16.3813Z" fill="#B59E5C"/>
<path d="M47.9196 10.4571C47.5159 11.0938 47.0428 11.6848 46.5035 12.2262C43.8949 14.8452 39.924 16.223 34.3932 16.4228C34.0402 20.6959 30.4503 24.0653 26.0871 24.0653C21.7239 24.0653 18.134 20.6959 17.781 16.4228C12.2502 16.223 8.2793 14.8452 5.6707 12.2262C5.37775 11.9322 5.10447 11.6238 4.85189 11.3008C4.56723 12.5181 4.42334 13.751 4.42334 14.9808C4.42334 17.0583 4.81359 19.0976 5.53924 20.9402C6.51125 19.5127 7.94701 18.4196 9.63949 17.8854C10.4573 17.6266 11.3299 18.0811 11.5877 18.8988C11.8454 19.7166 11.392 20.5882 10.5742 20.847C8.9832 21.3491 7.77 22.672 7.40873 24.2982C7.23482 25.1947 7.14787 26.1201 7.14787 27.059C7.14787 30.3083 8.25342 33.3486 10.0981 35.5473C10.6736 33.7068 11.9241 32.1074 13.6352 31.1168C14.3774 30.6882 15.3277 30.9408 15.7573 31.683C16.1869 32.4263 15.9332 33.3755 15.191 33.8051C13.747 34.6405 12.8495 36.1953 12.8495 37.8608C13.1394 39.8825 13.8132 41.8141 14.8194 43.4952C16.0254 45.5117 17.6516 47.0634 19.5211 47.9847C20.7188 48.5757 22.5199 49.6254 24.318 51.9038C24.8687 52.6004 25.6637 53 26.5001 53C27.3376 53 28.1326 52.6004 28.6822 51.9038C30.0528 50.1668 31.5082 48.9753 33.4025 48.0395C35.2731 47.112 36.9045 45.5541 38.1208 43.5325C39.1352 41.8462 39.8236 39.9022 40.1311 37.867V37.8608C40.1311 36.1953 39.2336 34.6405 37.7895 33.8051C37.0473 33.3755 36.7937 32.4263 37.2233 31.683C37.6529 30.9408 38.6021 30.6882 39.3443 31.1168C41.0503 32.1043 42.2976 33.6954 42.8763 35.5286C44.6806 33.3372 45.7623 30.3063 45.7623 27.059C45.7623 26.1211 45.6743 25.1967 45.5014 24.3003C45.1215 22.7051 43.9746 21.3418 42.4053 20.847C41.5875 20.5882 41.1341 19.7166 41.3929 18.8988C41.6507 18.0811 42.5223 17.6266 43.34 17.8854C45.0232 18.4165 46.4507 19.4992 47.4227 20.9133C48.1732 19.0614 48.5769 17.0294 48.5769 14.9808C48.5769 13.4767 48.3564 11.9571 47.9196 10.4571Z" fill="#B59E5C"/>
</g>
<defs>
<clipPath id="clip0">
<rect width="53" height="53" fill="white"/>
</clipPath>
</defs>
</svg>
