<svg width="177" height="40" viewBox="0 0 177 40" fill="none" xmlns="http://www.w3.org/2000/svg">
<path d="M7.3125 16.6055C8.10938 16.6055 8.87988 16.6553 9.62402 16.7549C10.374 16.8486 11.0449 17.0127 11.6367 17.2471C12.2344 17.4756 12.7236 17.7861 13.1045 18.1787C13.4912 18.5713 13.7168 19.0605 13.7812 19.6465L11.4961 20.2793C11.4961 19.9277 11.376 19.6406 11.1357 19.418C10.9014 19.1895 10.5879 19.0107 10.1953 18.8818C9.80859 18.7471 9.36328 18.6533 8.85938 18.6006C8.36133 18.5479 7.8457 18.5215 7.3125 18.5215C6.79102 18.5215 6.27832 18.5449 5.77441 18.5918C5.27051 18.6387 4.81641 18.7266 4.41211 18.8555C4.01367 18.9844 3.69141 19.1631 3.44531 19.3916C3.19922 19.6201 3.07617 19.916 3.07617 20.2793V22.3711H13.7812V26.9238C13.7812 27.3164 13.6934 27.668 13.5176 27.9785C13.3477 28.2832 13.1104 28.5498 12.8057 28.7783C12.5068 29.001 12.1494 29.1914 11.7334 29.3496C11.3232 29.502 10.8779 29.625 10.3975 29.7188C9.92285 29.8125 9.42188 29.8799 8.89453 29.9209C8.36719 29.9619 7.83984 29.9824 7.3125 29.9824C6.77344 29.9824 6.24316 29.9619 5.72168 29.9209C5.2002 29.8799 4.70508 29.8125 4.23633 29.7188C3.76758 29.625 3.33105 29.502 2.92676 29.3496C2.52832 29.1914 2.17676 29.001 1.87207 28.7783C1.56738 28.5498 1.32129 28.2832 1.13379 27.9785C0.946289 27.6738 0.832031 27.3223 0.791016 26.9238L3.07617 26.291C3.07617 26.6543 3.19922 26.9502 3.44531 27.1787C3.69141 27.4072 4.01367 27.5859 4.41211 27.7148C4.81641 27.8438 5.27051 27.9316 5.77441 27.9785C6.27832 28.0254 6.79102 28.0488 7.3125 28.0488C7.8457 28.0488 8.36133 28.0254 8.85938 27.9785C9.36328 27.9258 9.80859 27.835 10.1953 27.7061C10.5879 27.5713 10.9014 27.3896 11.1357 27.1611C11.376 26.9326 11.4961 26.6426 11.4961 26.291V24.1465H0.791016V19.6465C0.791016 19.2539 0.875977 18.9082 1.0459 18.6094C1.22168 18.3047 1.45898 18.041 1.75781 17.8184C2.0625 17.5898 2.42285 17.3994 2.83887 17.2471C3.25488 17.0889 3.70312 16.9629 4.18359 16.8691C4.66992 16.7754 5.17676 16.708 5.7041 16.667C6.2373 16.626 6.77344 16.6055 7.3125 16.6055ZM26.0156 26.4141C25.8691 26.2852 25.6875 26.1592 25.4707 26.0361C25.2539 25.9131 24.9873 25.8047 24.6709 25.7109C24.3545 25.6113 23.9766 25.5322 23.5371 25.4736C23.1035 25.4092 22.5938 25.377 22.0078 25.377C21.4863 25.377 20.9912 25.3887 20.5225 25.4121C20.0596 25.4297 19.6523 25.4883 19.3008 25.5879C18.9492 25.6816 18.6709 25.834 18.4658 26.0449C18.2607 26.2559 18.1582 26.5488 18.1582 26.9238V28.0488C18.6738 28.1309 19.2422 28.1982 19.8633 28.251C20.4844 28.3037 21.1758 28.3301 21.9375 28.3301C22.5469 28.3301 23.1943 28.3096 23.8799 28.2686C24.5713 28.2217 25.2832 28.1309 26.0156 27.9961V26.4141ZM22.0605 19.9805C22.3535 19.9805 22.708 19.9951 23.124 20.0244C23.54 20.0537 23.9736 20.1064 24.4248 20.1826C24.876 20.2529 25.3213 20.3525 25.7607 20.4814C26.2061 20.6045 26.6045 20.7686 26.9561 20.9736C27.3135 21.1729 27.6006 21.4131 27.8174 21.6943C28.0342 21.9756 28.1426 22.3066 28.1426 22.6875V29.4902C27.6504 29.5898 27.0938 29.6748 26.4727 29.7451C25.9395 29.8096 25.3037 29.8682 24.5654 29.9209C23.8271 29.9736 23.0039 30 22.0957 30C21.1934 30 20.2324 29.9619 19.2129 29.8857C18.1992 29.8096 17.1387 29.6777 16.0312 29.4902V26.3262C16.0312 25.9863 16.1104 25.6904 16.2686 25.4385C16.4326 25.1807 16.6553 24.9609 16.9365 24.7793C17.2178 24.5977 17.5488 24.4482 17.9297 24.3311C18.3105 24.2139 18.7207 24.1201 19.1602 24.0498C19.5996 23.9795 20.0566 23.9326 20.5312 23.9092C21.0059 23.8799 21.4805 23.8652 21.9551 23.8652C22.6758 23.8652 23.2881 23.9121 23.792 24.0059C24.3018 24.0938 24.7236 24.1904 25.0576 24.2959C25.4443 24.4248 25.7637 24.5684 26.0156 24.7266V23.3027C26.0156 23.0625 25.957 22.8574 25.8398 22.6875C25.7227 22.5117 25.5645 22.3652 25.3652 22.248C25.166 22.125 24.9375 22.0283 24.6797 21.958C24.4219 21.8818 24.1523 21.8232 23.8711 21.7822C23.5898 21.7412 23.3027 21.7148 23.0098 21.7031C22.7227 21.6914 22.4531 21.6855 22.2012 21.6855C21.9375 21.6855 21.6562 21.6943 21.3574 21.7119C21.0586 21.7236 20.7598 21.75 20.4609 21.791C20.168 21.832 19.8838 21.8906 19.6084 21.9668C19.3389 22.0371 19.0986 22.1338 18.8877 22.2568C18.6768 22.3799 18.5068 22.5293 18.3779 22.7051C18.2549 22.875 18.1934 23.0801 18.1934 23.3203L16.0137 22.7578C16.0137 22.3652 16.1104 22.0254 16.3037 21.7383C16.4971 21.4453 16.752 21.1963 17.0684 20.9912C17.3906 20.7861 17.7598 20.6191 18.1758 20.4902C18.5918 20.3555 19.0225 20.2529 19.4678 20.1826C19.9189 20.1064 20.3672 20.0537 20.8125 20.0244C21.2578 19.9951 21.6738 19.9805 22.0605 19.9805ZM33.2051 30H31.2012V16.7988H33.2051V30ZM42.3105 19.8223C42.8027 19.8223 43.292 19.8457 43.7783 19.8926C44.2705 19.9395 44.7422 20.0156 45.1934 20.1211C45.6445 20.2266 46.0664 20.3584 46.459 20.5166C46.8516 20.6748 47.1914 20.8652 47.4785 21.0879C47.7715 21.3105 48 21.5684 48.1641 21.8613C48.3281 22.1484 48.4102 22.4707 48.4102 22.8281V27.3809C48.4102 27.6973 48.3281 27.9873 48.1641 28.251C48 28.5146 47.7715 28.752 47.4785 28.9629C47.1914 29.168 46.8516 29.3467 46.459 29.499C46.0664 29.6514 45.6445 29.7773 45.1934 29.877C44.7422 29.9766 44.2705 30.0498 43.7783 30.0967C43.2861 30.1494 42.7969 30.1758 42.3105 30.1758C41.8242 30.1758 41.335 30.1494 40.8428 30.0967C40.3564 30.0498 39.8877 29.9766 39.4365 29.877C38.9854 29.7773 38.5635 29.6514 38.1709 29.499C37.7842 29.3467 37.4443 29.168 37.1514 28.9629C36.8643 28.752 36.6387 28.5176 36.4746 28.2598C36.3105 27.9961 36.2285 27.7031 36.2285 27.3809V22.8281C36.2285 22.4707 36.3105 22.1484 36.4746 21.8613C36.6387 21.5684 36.8643 21.3105 37.1514 21.0879C37.4443 20.8652 37.7842 20.6748 38.1709 20.5166C38.5635 20.3584 38.9854 20.2266 39.4365 20.1211C39.8877 20.0156 40.3564 19.9395 40.8428 19.8926C41.335 19.8457 41.8242 19.8223 42.3105 19.8223ZM38.4609 26.8184C38.4609 27.0879 38.5723 27.3223 38.7949 27.5215C39.0234 27.7148 39.3193 27.8789 39.6826 28.0137C40.0459 28.1426 40.4561 28.2393 40.9131 28.3037C41.376 28.3682 41.8418 28.4004 42.3105 28.4004C42.8027 28.4004 43.2773 28.3652 43.7344 28.2949C44.1973 28.2246 44.6074 28.125 44.9648 27.9961C45.3223 27.8613 45.6064 27.6973 45.8174 27.5039C46.0342 27.3047 46.1426 27.0762 46.1426 26.8184V23.1621C46.1426 22.9102 46.0342 22.6846 45.8174 22.4854C45.6064 22.2803 45.3223 22.1104 44.9648 21.9756C44.6074 21.835 44.1973 21.7295 43.7344 21.6592C43.2773 21.583 42.8027 21.5449 42.3105 21.5449C41.8418 21.5449 41.376 21.5801 40.9131 21.6504C40.4561 21.7148 40.0459 21.8145 39.6826 21.9492C39.3193 22.084 39.0234 22.2539 38.7949 22.459C38.5723 22.6582 38.4609 22.8926 38.4609 23.1621V26.8184ZM56.4258 19.8223C56.918 19.8223 57.4072 19.8457 57.8936 19.8926C58.3857 19.9395 58.8574 20.0156 59.3086 20.1211C59.7598 20.2266 60.1816 20.3584 60.5742 20.5166C60.9668 20.6748 61.3066 20.8652 61.5938 21.0879C61.8867 21.3105 62.1152 21.5684 62.2793 21.8613C62.4434 22.1484 62.5254 22.4707 62.5254 22.8281V27.3809C62.5254 27.6973 62.4434 27.9873 62.2793 28.251C62.1152 28.5146 61.8867 28.752 61.5938 28.9629C61.3066 29.168 60.9668 29.3467 60.5742 29.499C60.1816 29.6514 59.7598 29.7773 59.3086 29.877C58.8574 29.9766 58.3857 30.0498 57.8936 30.0967C57.4014 30.1494 56.9121 30.1758 56.4258 30.1758C55.9395 30.1758 55.4502 30.1494 54.958 30.0967C54.4717 30.0498 54.0029 29.9766 53.5518 29.877C53.1006 29.7773 52.6787 29.6514 52.2861 29.499C51.8994 29.3467 51.5596 29.168 51.2666 28.9629C50.9795 28.752 50.7539 28.5176 50.5898 28.2598C50.4258 27.9961 50.3438 27.7031 50.3438 27.3809V22.8281C50.3438 22.4707 50.4258 22.1484 50.5898 21.8613C50.7539 21.5684 50.9795 21.3105 51.2666 21.0879C51.5596 20.8652 51.8994 20.6748 52.2861 20.5166C52.6787 20.3584 53.1006 20.2266 53.5518 20.1211C54.0029 20.0156 54.4717 19.9395 54.958 19.8926C55.4502 19.8457 55.9395 19.8223 56.4258 19.8223ZM52.5762 26.8184C52.5762 27.0879 52.6875 27.3223 52.9102 27.5215C53.1387 27.7148 53.4346 27.8789 53.7979 28.0137C54.1611 28.1426 54.5713 28.2393 55.0283 28.3037C55.4912 28.3682 55.957 28.4004 56.4258 28.4004C56.918 28.4004 57.3926 28.3652 57.8496 28.2949C58.3125 28.2246 58.7227 28.125 59.0801 27.9961C59.4375 27.8613 59.7217 27.6973 59.9326 27.5039C60.1494 27.3047 60.2578 27.0762 60.2578 26.8184V23.1621C60.2578 22.9102 60.1494 22.6846 59.9326 22.4854C59.7217 22.2803 59.4375 22.1104 59.0801 21.9756C58.7227 21.835 58.3125 21.7295 57.8496 21.6592C57.3926 21.583 56.918 21.5449 56.4258 21.5449C55.957 21.5449 55.4912 21.5801 55.0283 21.6504C54.5713 21.7148 54.1611 21.8145 53.7979 21.9492C53.4346 22.084 53.1387 22.2539 52.9102 22.459C52.6875 22.6582 52.5762 22.8926 52.5762 23.1621V26.8184ZM64.9688 22.7402C64.9453 22.5527 64.8896 22.3945 64.8018 22.2656C64.7197 22.1367 64.6289 22.0312 64.5293 21.9492C64.418 21.8496 64.2949 21.7676 64.1602 21.7031L65.1445 19.9805C65.3613 20.0566 65.5781 20.1592 65.7949 20.2881C65.9766 20.3994 66.167 20.543 66.3662 20.7188C66.5713 20.8887 66.75 21.0996 66.9023 21.3516C67.1953 21.1641 67.4941 20.9883 67.7988 20.8242C68.1094 20.6543 68.4316 20.5078 68.7656 20.3848C69.1055 20.2617 69.46 20.165 69.8291 20.0947C70.2041 20.0186 70.6055 19.9805 71.0332 19.9805C71.9355 19.9805 72.709 20.0566 73.3535 20.209C74.0039 20.3555 74.5342 20.5781 74.9443 20.877C75.3604 21.1699 75.665 21.5361 75.8584 21.9756C76.0518 22.415 76.1484 22.9277 76.1484 23.5137V30H73.8457V24.0586C73.8457 23.7305 73.8018 23.4492 73.7139 23.2148C73.626 22.9746 73.5059 22.7725 73.3535 22.6084C73.207 22.4385 73.0342 22.3008 72.835 22.1953C72.6357 22.0898 72.4277 22.0107 72.2109 21.958C72 21.8994 71.7832 21.8613 71.5605 21.8438C71.3379 21.8203 71.127 21.8086 70.9277 21.8086C70.5527 21.8086 70.1953 21.835 69.8555 21.8877C69.5156 21.9404 69.1934 22.0137 68.8887 22.1074C68.584 22.1953 68.2969 22.3008 68.0273 22.4238C67.7578 22.5469 67.5059 22.6758 67.2715 22.8105V30H64.9688V22.7402ZM89.3145 30H87.3105V16.7988H89.3145V30ZM98.4199 19.8223C98.9121 19.8223 99.4014 19.8457 99.8877 19.8926C100.38 19.9395 100.852 20.0156 101.303 20.1211C101.754 20.2266 102.176 20.3584 102.568 20.5166C102.961 20.6748 103.301 20.8652 103.588 21.0879C103.881 21.3105 104.109 21.5684 104.273 21.8613C104.438 22.1484 104.52 22.4707 104.52 22.8281V27.3809C104.52 27.6973 104.438 27.9873 104.273 28.251C104.109 28.5146 103.881 28.752 103.588 28.9629C103.301 29.168 102.961 29.3467 102.568 29.499C102.176 29.6514 101.754 29.7773 101.303 29.877C100.852 29.9766 100.38 30.0498 99.8877 30.0967C99.3955 30.1494 98.9062 30.1758 98.4199 30.1758C97.9336 30.1758 97.4443 30.1494 96.9521 30.0967C96.4658 30.0498 95.9971 29.9766 95.5459 29.877C95.0947 29.7773 94.6729 29.6514 94.2803 29.499C93.8936 29.3467 93.5537 29.168 93.2607 28.9629C92.9736 28.752 92.748 28.5176 92.584 28.2598C92.4199 27.9961 92.3379 27.7031 92.3379 27.3809V22.8281C92.3379 22.4707 92.4199 22.1484 92.584 21.8613C92.748 21.5684 92.9736 21.3105 93.2607 21.0879C93.5537 20.8652 93.8936 20.6748 94.2803 20.5166C94.6729 20.3584 95.0947 20.2266 95.5459 20.1211C95.9971 20.0156 96.4658 19.9395 96.9521 19.8926C97.4443 19.8457 97.9336 19.8223 98.4199 19.8223ZM94.5703 26.8184C94.5703 27.0879 94.6816 27.3223 94.9043 27.5215C95.1328 27.7148 95.4287 27.8789 95.792 28.0137C96.1553 28.1426 96.5654 28.2393 97.0225 28.3037C97.4854 28.3682 97.9512 28.4004 98.4199 28.4004C98.9121 28.4004 99.3867 28.3652 99.8438 28.2949C100.307 28.2246 100.717 28.125 101.074 27.9961C101.432 27.8613 101.716 27.6973 101.927 27.5039C102.144 27.3047 102.252 27.0762 102.252 26.8184V23.1621C102.252 22.9102 102.144 22.6846 101.927 22.4854C101.716 22.2803 101.432 22.1104 101.074 21.9756C100.717 21.835 100.307 21.7295 99.8438 21.6592C99.3867 21.583 98.9121 21.5449 98.4199 21.5449C97.9512 21.5449 97.4854 21.5801 97.0225 21.6504C96.5654 21.7148 96.1553 21.8145 95.792 21.9492C95.4287 22.084 95.1328 22.2539 94.9043 22.459C94.6816 22.6582 94.5703 22.8926 94.5703 23.1621V26.8184ZM112.131 19.9805C112.629 19.9805 113.136 20.001 113.651 20.042C114.167 20.0771 114.662 20.127 115.137 20.1914C115.617 20.25 116.065 20.3203 116.481 20.4023C116.903 20.4844 117.27 20.5723 117.58 20.666H117.721V30.4395C117.721 30.8555 117.633 31.2422 117.457 31.5996C117.281 31.957 117.026 32.2646 116.692 32.5225C116.358 32.7861 115.948 32.9912 115.462 33.1377C114.976 33.2842 114.422 33.3574 113.801 33.3574V31.8281C114.035 31.8281 114.252 31.8047 114.451 31.7578C114.65 31.7109 114.823 31.6377 114.97 31.5381C115.122 31.4443 115.239 31.3242 115.321 31.1777C115.409 31.0371 115.453 30.873 115.453 30.6855V29.332C114.92 29.5371 114.366 29.7012 113.792 29.8242C113.224 29.9414 112.67 30 112.131 30C111.229 30 110.423 29.9385 109.714 29.8154C109.005 29.6865 108.404 29.4902 107.912 29.2266C107.42 28.9629 107.045 28.6289 106.787 28.2246C106.529 27.8203 106.4 27.3398 106.4 26.7832V23.1973C106.4 22.6406 106.529 22.1602 106.787 21.7559C107.045 21.3516 107.42 21.0176 107.912 20.7539C108.404 20.4902 109.005 20.2969 109.714 20.1738C110.423 20.0449 111.229 19.9805 112.131 19.9805ZM112.764 28.2422C113.086 28.2422 113.382 28.2217 113.651 28.1807C113.921 28.1338 114.164 28.0752 114.381 28.0049C114.604 27.9346 114.803 27.8613 114.979 27.7852C115.16 27.7031 115.318 27.627 115.453 27.5566V22.0898C115.295 22.0312 115.11 21.9727 114.899 21.9141C114.694 21.8555 114.472 21.8057 114.231 21.7646C113.997 21.7178 113.754 21.6826 113.502 21.6592C113.25 21.6299 113.004 21.6152 112.764 21.6152C112.219 21.6152 111.7 21.6299 111.208 21.6592C110.716 21.6885 110.285 21.7676 109.916 21.8965C109.547 22.0254 109.251 22.2246 109.028 22.4941C108.812 22.7578 108.703 23.127 108.703 23.6016V26.1855C108.703 26.4961 108.753 26.7627 108.853 26.9854C108.952 27.208 109.09 27.3955 109.266 27.5479C109.447 27.7002 109.664 27.8232 109.916 27.917C110.168 28.0049 110.443 28.0752 110.742 28.1279C111.041 28.1748 111.36 28.207 111.7 28.2246C112.046 28.2363 112.4 28.2422 112.764 28.2422ZM126.299 19.8223C126.791 19.8223 127.28 19.8457 127.767 19.8926C128.259 19.9395 128.73 20.0156 129.182 20.1211C129.633 20.2266 130.055 20.3584 130.447 20.5166C130.84 20.6748 131.18 20.8652 131.467 21.0879C131.76 21.3105 131.988 21.5684 132.152 21.8613C132.316 22.1484 132.398 22.4707 132.398 22.8281V27.3809C132.398 27.6973 132.316 27.9873 132.152 28.251C131.988 28.5146 131.76 28.752 131.467 28.9629C131.18 29.168 130.84 29.3467 130.447 29.499C130.055 29.6514 129.633 29.7773 129.182 29.877C128.73 29.9766 128.259 30.0498 127.767 30.0967C127.274 30.1494 126.785 30.1758 126.299 30.1758C125.812 30.1758 125.323 30.1494 124.831 30.0967C124.345 30.0498 123.876 29.9766 123.425 29.877C122.974 29.7773 122.552 29.6514 122.159 29.499C121.772 29.3467 121.433 29.168 121.14 28.9629C120.853 28.752 120.627 28.5176 120.463 28.2598C120.299 27.9961 120.217 27.7031 120.217 27.3809V22.8281C120.217 22.4707 120.299 22.1484 120.463 21.8613C120.627 21.5684 120.853 21.3105 121.14 21.0879C121.433 20.8652 121.772 20.6748 122.159 20.5166C122.552 20.3584 122.974 20.2266 123.425 20.1211C123.876 20.0156 124.345 19.9395 124.831 19.8926C125.323 19.8457 125.812 19.8223 126.299 19.8223ZM122.449 26.8184C122.449 27.0879 122.561 27.3223 122.783 27.5215C123.012 27.7148 123.308 27.8789 123.671 28.0137C124.034 28.1426 124.444 28.2393 124.901 28.3037C125.364 28.3682 125.83 28.4004 126.299 28.4004C126.791 28.4004 127.266 28.3652 127.723 28.2949C128.186 28.2246 128.596 28.125 128.953 27.9961C129.311 27.8613 129.595 27.6973 129.806 27.5039C130.022 27.3047 130.131 27.0762 130.131 26.8184V23.1621C130.131 22.9102 130.022 22.6846 129.806 22.4854C129.595 22.2803 129.311 22.1104 128.953 21.9756C128.596 21.835 128.186 21.7295 127.723 21.6592C127.266 21.583 126.791 21.5449 126.299 21.5449C125.83 21.5449 125.364 21.5801 124.901 21.6504C124.444 21.7148 124.034 21.8145 123.671 21.9492C123.308 22.084 123.012 22.2539 122.783 22.459C122.561 22.6582 122.449 22.8926 122.449 23.1621V26.8184Z" fill="#B59E5C"/>
<g clip-path="url(#clip0)">
<path d="M151.506 10.0696C153.588 10.0696 155.402 9.60883 156.689 8.76305C157.975 9.60891 159.789 10.0696 161.871 10.0696C165.961 10.0696 168.763 9.25305 170.437 7.57328C171.566 6.43984 172.135 4.93281 172.128 3.09297C172.125 2.47062 171.756 1.90625 171.188 1.65523C170.62 1.4043 169.955 1.50992 169.491 1.92578C167.994 3.2743 166.788 3.16094 164.331 1.44109C162.946 0.471406 161.576 0 160.143 0C158.573 0 157.414 0.714219 156.689 1.27445C155.963 0.714219 154.804 0 153.234 0C151.819 0 150.465 0.460938 149.094 1.40922C146.589 3.14133 145.372 3.26188 143.886 1.9257C143.422 1.50805 142.755 1.40211 142.189 1.65531C141.621 1.90641 141.252 2.4707 141.249 3.09391C141.242 4.9325 141.811 6.43953 142.94 7.57289C144.614 9.25289 147.416 10.0696 151.506 10.0696Z" fill="#B59E5C"/>
<path d="M152.772 12.3633C153.014 14.3086 154.678 15.8188 156.688 15.8188C158.699 15.8188 160.363 14.3086 160.605 12.3633C159.158 12.2469 157.836 11.9281 156.688 11.4196C155.541 11.9281 154.219 12.2469 152.772 12.3633Z" fill="#B59E5C"/>
<path d="M173.166 7.89221C172.861 8.37268 172.504 8.81877 172.097 9.22737C170.128 11.2039 167.131 12.2438 162.957 12.3946C162.691 15.6196 159.981 18.1625 156.688 18.1625C153.395 18.1625 150.686 15.6196 150.42 12.3946C146.245 12.2438 143.249 11.2039 141.28 9.22737C141.059 9.00549 140.852 8.77268 140.662 8.52893C140.447 9.44768 140.338 10.3781 140.338 11.3063C140.338 12.8742 140.633 14.4133 141.181 15.8039C141.914 14.7266 142.998 13.9016 144.275 13.4985C144.892 13.3031 145.551 13.6461 145.745 14.2633C145.94 14.8805 145.598 15.5383 144.981 15.7336C143.78 16.1125 142.864 17.111 142.592 18.3383C142.46 19.0149 142.395 19.7133 142.395 20.4219C142.395 22.8742 143.229 25.1688 144.621 26.8281C145.056 25.4391 145.999 24.2321 147.291 23.4844C147.851 23.161 148.568 23.3516 148.892 23.9117C149.217 24.4727 149.025 25.1891 148.465 25.5133C147.375 26.1438 146.698 27.3172 146.698 28.5742C146.917 30.1 147.425 31.5578 148.184 32.8266C149.095 34.3485 150.322 35.5196 151.733 36.2149C152.637 36.661 153.996 37.4531 155.353 39.1727C155.769 39.6985 156.369 40 157 40C157.632 40 158.232 39.6985 158.647 39.1727C159.681 37.8617 160.78 36.9625 162.209 36.2563C163.621 35.5563 164.852 34.3805 165.77 32.8547C166.536 31.5821 167.056 30.1149 167.288 28.5789V28.5742C167.288 27.3172 166.61 26.1438 165.52 25.5133C164.96 25.1891 164.769 24.4727 165.093 23.9117C165.417 23.3516 166.134 23.161 166.694 23.4844C167.981 24.2297 168.923 25.4305 169.359 26.8141C170.721 25.1602 171.538 22.8727 171.538 20.4219C171.538 19.7141 171.471 19.0164 171.341 18.3399C171.054 17.136 170.188 16.1071 169.004 15.7336C168.387 15.5383 168.045 14.8805 168.24 14.2633C168.434 13.6461 169.092 13.3031 169.709 13.4985C170.98 13.8992 172.057 14.7164 172.791 15.7836C173.357 14.386 173.662 12.8524 173.662 11.3063C173.662 10.1711 173.495 9.02424 173.166 7.89221Z" fill="#B59E5C"/>
</g>
<defs>
<clipPath id="clip0">
<rect width="40" height="40" fill="white" transform="translate(137)"/>
</clipPath>
</defs>
</svg>
