<svg width="30" height="30" viewBox="0 0 30 30" fill="none" xmlns="http://www.w3.org/2000/svg">
<g clip-path="url(#clip0)">
<path d="M29.1836 19.9145L27.6155 19.5223C27.4844 19.0894 27.3103 18.6704 27.0959 18.2722L27.9281 16.8855C28.0463 16.6887 28.0152 16.4367 27.8531 16.2744L26.2924 14.7117C26.13 14.5493 25.878 14.5185 25.6812 14.6367L24.2945 15.4688C24.1146 15.3724 23.9295 15.2833 23.741 15.2022C23.5124 15.1053 23.2788 15.0208 23.0409 14.9492L22.6488 13.3809C22.5934 13.1582 22.3934 13.002 22.1639 13.002H19.958C19.7285 13.002 19.5285 13.1582 19.4728 13.3809L19.0809 14.9492C18.6478 15.0804 18.229 15.2544 17.8308 15.4688L16.4441 14.6367C16.2473 14.5185 15.9953 14.5493 15.833 14.7117L14.2702 16.2724C14.1079 16.4348 14.0771 16.6868 14.1953 16.8836L15.0274 18.2702C14.8128 18.6685 14.6389 19.0872 14.5078 19.5204L12.9395 19.9123C12.7168 19.968 12.5605 20.1679 12.5605 20.3975V22.6048C12.5605 22.8343 12.7168 23.0343 12.9395 23.0897L14.5078 23.4818C14.6389 23.9148 14.8128 24.3335 15.0274 24.732L14.1953 26.1187C14.0771 26.3155 14.1079 26.5675 14.2702 26.7298L15.831 28.2906C15.9934 28.4527 16.2454 28.4837 16.4419 28.3655L17.8286 27.5334C18.2271 27.7478 18.6458 27.9219 19.0788 28.053L19.4709 29.6211C19.5266 29.8438 19.7265 30 19.9561 30.0003H22.1634C22.3929 30 22.5929 29.8438 22.6483 29.6211L23.0405 28.053C23.4734 27.9219 23.8921 27.7478 24.2906 27.5334L25.6773 28.3655C25.8741 28.4837 26.1261 28.4527 26.2885 28.2906L27.849 26.7298C28.0113 26.5675 28.0423 26.3155 27.9242 26.1187L27.092 24.732C27.3064 24.3335 27.4805 23.9148 27.6116 23.4818L29.1797 23.0897C29.4024 23.0343 29.5587 22.8343 29.5587 22.6048V20.3994C29.5592 20.1711 29.4048 19.9714 29.1836 19.9145ZM28.5627 22.2161L27.091 22.5843C26.9121 22.6287 26.7724 22.7676 26.727 22.9464C26.5893 23.4882 26.3742 24.0073 26.0877 24.4873C25.9935 24.6456 25.9935 24.8426 26.0877 25.0006L26.8689 26.3008L25.8624 27.3115L24.5621 26.5303C24.4042 26.4358 24.2071 26.4358 24.0491 26.5303C23.5689 26.8165 23.0497 27.0319 22.5079 27.1693C22.3292 27.2148 22.1902 27.3547 22.1458 27.5334L21.7747 29.0041H20.3485L19.9805 27.5324C19.936 27.3537 19.7969 27.2138 19.6184 27.1684C19.0766 27.0307 18.5574 26.8155 18.0772 26.5291C17.9192 26.4349 17.7221 26.4349 17.5641 26.5291L16.2639 27.3102L15.2533 26.3038L16.0344 25.0035C16.1289 24.8456 16.1289 24.6485 16.0344 24.4905C15.7482 24.0102 15.5329 23.4911 15.3954 22.9493C15.35 22.7708 15.2101 22.6316 15.0313 22.5872L13.5607 22.2161V20.7901L15.0323 20.4219C15.211 20.3774 15.351 20.2385 15.3964 20.0598C15.5338 19.5179 15.7492 18.9988 16.0354 18.5188C16.1299 18.3606 16.1299 18.1635 16.0354 18.0055L15.2543 16.7053L16.261 15.6947L17.5612 16.4758C17.7192 16.5703 17.9162 16.5703 18.0742 16.4758C18.5545 16.1896 19.0736 15.9743 19.6154 15.8368C19.7939 15.7914 19.9331 15.6515 19.9776 15.4727L20.3485 14.0021H21.7747L22.1429 15.4737C22.1873 15.6524 22.3263 15.7924 22.5047 15.8378C23.0466 15.975 23.5657 16.1901 24.0455 16.4765C24.2037 16.571 24.401 16.571 24.5592 16.4765L25.8592 15.6954L26.8698 16.7024L26.0887 18.0026C25.9945 18.1606 25.9945 18.3576 26.0887 18.5156C26.3751 18.9959 26.5903 19.515 26.728 20.0568C26.7734 20.2353 26.913 20.3745 27.092 20.4189L28.5627 20.7901V22.2161Z" fill="black"/>
<path d="M21.0611 17.5024C18.8516 17.5024 17.0605 19.2935 17.0605 21.503C17.0605 23.7125 18.8516 25.5035 21.0611 25.5035C23.2704 25.5035 25.0616 23.7125 25.0616 21.503C25.0592 19.2947 23.2694 17.5049 21.0611 17.5024ZM21.0611 24.5034C19.4039 24.5034 18.0607 23.1599 18.0607 21.503C18.0607 19.846 19.4039 18.5026 21.0611 18.5026C22.718 18.5026 24.0615 19.846 24.0615 21.503C24.0598 23.1594 22.7173 24.5017 21.0611 24.5034Z" fill="black"/>
<path d="M23.5625 6.00098H24.5626V14.002H23.5625V6.00098Z" fill="black"/>
<path d="M2.55886 25.5034V27.5037C2.55886 27.7798 2.78277 28.0037 3.05893 28.0037H13.5603V27.0036H3.55899V25.5034H9.55979C9.6372 25.5041 9.71362 25.487 9.78321 25.4533L11.7835 24.4532C11.9532 24.3687 12.0606 24.1954 12.0606 24.0056C12.0606 23.8162 11.9532 23.6428 11.7835 23.5581L9.78321 22.5579C9.71411 22.5225 9.63744 22.5037 9.55979 22.503H3.55899V5.50073H22.5615C23.6662 5.50073 24.5618 4.60511 24.5618 3.50047V2.50033C24.5618 2.22417 24.3379 2.00027 24.0617 2.00027H22.5615V3.0004H23.5617V3.50047C23.5617 4.05279 23.1138 4.5006 22.5615 4.5006C22.0092 4.5006 21.5614 4.05279 21.5614 3.50047V2.00027C21.5614 1.44795 22.0092 1.00013 22.5615 1.00013H24.5618C25.1141 1.00013 25.5619 1.44795 25.5619 2.00027V13.5018H26.5621V2.00027C26.5621 0.895627 25.6664 0 24.5618 0H2.55886C1.45398 0 0.558594 0.895627 0.558594 2.00027V3.50047C0.558594 4.60511 1.45398 5.50073 2.55886 5.50073V22.503H2.05879C1.23031 22.503 0.558594 23.1747 0.558594 24.0032C0.558594 24.8317 1.23031 25.5034 2.05879 25.5034H2.55886ZM1.55873 3.50047V2.00027C1.55873 1.44795 2.00654 1.00013 2.55886 1.00013H20.8391C20.6592 1.30291 20.5632 1.64817 20.5613 2.00027V3.50047C20.5632 3.85256 20.6592 4.19783 20.8391 4.5006H2.55886C2.00654 4.5006 1.55873 4.05279 1.55873 3.50047ZM10.4417 24.0032L9.44161 24.5033H9.05973V23.5031H9.44161L10.4417 24.0032ZM1.55873 24.0032C1.55873 23.727 1.78263 23.5031 2.05879 23.5031H8.05959V24.5033H2.05879C1.78263 24.5033 1.55873 24.2794 1.55873 24.0032Z" fill="black"/>
<path d="M0.558594 7.50098H1.55873V17.5023H0.558594V7.50098Z" fill="black"/>
<path d="M20.0609 8.00116V7.00102H13.56C13.4275 7.00102 13.3002 7.05376 13.2065 7.14752L12.2928 8.06122C10.1084 6.46018 7.08237 6.69385 5.16976 8.61134C4.97466 8.80644 4.97466 9.12313 5.16976 9.31823L8.70587 12.8543C8.79939 12.9484 8.92661 13.0016 9.05944 13.0018H14.0601C14.3363 13.0018 14.5602 12.7779 14.5602 12.5018C14.5597 11.0941 14.0176 9.74065 13.0458 8.7222L13.7671 8.00116H20.0609ZM13.532 12.0017H9.2665L6.24998 8.98517C7.78729 7.7543 9.94774 7.6703 11.5761 8.77787L10.2061 10.1479L10.9132 10.8551L12.3414 9.42688C13.0065 10.1338 13.4243 11.0372 13.532 12.0017Z" fill="black"/>
<path d="M21.0625 7.00098H22.0626V8.0011H21.0625V7.00098Z" fill="black"/>
<path d="M6.05859 14.502H7.05873V15.5021H6.05859V14.502Z" fill="black"/>
<path d="M8.05859 14.502H13.0593V15.5021H8.05859V14.502Z" fill="black"/>
<path d="M5.05859 16.5024H13.0597V17.5026H5.05859V16.5024Z" fill="black"/>
<path d="M16.0605 9.00098H17.0607V10.0011H16.0605V9.00098Z" fill="black"/>
<path d="M18.0605 9.00098H22.0611V10.0011H18.0605V9.00098Z" fill="black"/>
<path d="M16.0605 11.0015H22.0613V12.0016H16.0605V11.0015Z" fill="black"/>
<path d="M5.05859 18.5024H11.5595V19.5026H5.05859V18.5024Z" fill="black"/>
</g>
<defs>
<clipPath id="clip0">
<rect width="30" height="30" fill="white"/>
</clipPath>
</defs>
</svg>
