<svg width="24" height="14" viewBox="0 0 24 14" fill="none" xmlns="http://www.w3.org/2000/svg">
<path d="M17.6567 11.8804C17.8219 11.3266 17.9077 10.7479 17.9077 10.1677C17.9077 6.87315 15.2274 4.19287 11.9329 4.19287C8.63832 4.19287 5.95804 6.87315 5.95804 10.1677C5.95804 10.748 6.04386 11.3266 6.20905 11.8804H0V13.2788H23.8657V11.8804H17.6567Z" fill="#333333"/>
<path d="M12.6328 0H11.2344V2.79677H12.6328V0Z" fill="#333333"/>
<path d="M16.4151 1.01459L15.0156 3.43604L16.2263 4.13579L17.6258 1.71435L16.4151 1.01459Z" fill="#333333"/>
<path d="M20.3917 4.4845L17.9688 5.88086L18.6669 7.09238L21.0899 5.69602L20.3917 4.4845Z" fill="#333333"/>
<path d="M19.3025 9.47662L19.3008 10.875L22.0975 10.8784L22.0992 9.47997L19.3025 9.47662Z" fill="#333333"/>
<path d="M7.4099 1.01428L6.19922 1.71387L7.59837 4.13519L8.80905 3.4356L7.4099 1.01428Z" fill="#333333"/>
<path d="M3.43254 4.48432L2.73438 5.6958L5.15741 7.09218L5.85558 5.8807L3.43254 4.48432Z" fill="#333333"/>
<path d="M4.51942 9.47809L1.72266 9.48145L1.72433 10.8798L4.5211 10.8765L4.51942 9.47809Z" fill="#333333"/>
</svg>
