<svg width="33" height="33" viewBox="0 0 33 33" fill="none" xmlns="http://www.w3.org/2000/svg">
<g clip-path="url(#clip0)">
<path d="M26.4 13.2C30.0395 13.2 33 10.2395 33 6.6C33 2.96055 30.0395 0 26.4 0C23.7572 0 21.4785 1.56487 20.4255 3.81375L18.6581 3.16143C18.6791 3.02607 18.7 2.89072 18.7 2.75C18.7 1.23374 17.4663 0 15.95 0C14.4337 0 13.2 1.23374 13.2 2.75C13.2 4.26626 14.4337 5.5 15.95 5.5C16.9351 5.5 17.7942 4.97471 18.2797 4.19429L20.0441 4.84553C19.8892 5.40547 19.8 5.99172 19.8 6.6C19.8 7.32053 19.9198 8.01233 20.1344 8.66196L14.0854 11.2256C12.9779 9.13167 10.7795 7.7 8.25 7.7C7.43037 7.7 6.64834 7.85737 5.92351 8.1313L4.40215 4.93416C5.06494 4.43142 5.5 3.64375 5.5 2.75C5.5 1.23374 4.26626 0 2.75 0C1.23374 0 0 1.23374 0 2.75C0 4.26626 1.23374 5.5 2.75 5.5C2.97881 5.5 3.19822 5.46375 3.41118 5.4103L4.93066 8.60422C2.97209 9.75041 1.65 11.8712 1.65 14.3C1.65 16.5814 2.81392 18.595 4.57832 19.7807L3.57231 21.5891C3.31047 21.5067 3.03816 21.45 2.75 21.45C1.23374 21.45 0 22.6837 0 24.2C0 25.7163 1.23374 26.95 2.75 26.95C4.26626 26.95 5.5 25.7163 5.5 24.2C5.5 23.3672 5.12 22.6287 4.53374 22.1243L5.54189 20.3121C6.36904 20.6865 7.28428 20.9 8.25 20.9C9.75928 20.9 11.1474 20.3852 12.2606 19.5293L14.4254 21.9108C13.3276 23.0901 12.65 24.6654 12.65 26.4C12.65 26.7365 12.6836 27.0644 12.7319 27.3872L10.1849 27.9917C9.74666 27.0545 8.80107 26.4 7.7 26.4C6.18374 26.4 4.95 27.6337 4.95 29.15C4.95 30.6663 6.18374 31.9 7.7 31.9C9.21626 31.9 10.45 30.6663 10.45 29.15C10.45 29.1197 10.4417 29.0912 10.4411 29.0608L12.9833 28.4582C13.8502 31.0919 16.3295 33 19.25 33C22.8895 33 25.85 30.0395 25.85 26.4C25.85 25.2715 25.5645 24.2089 25.0629 23.2794L28.2936 21.1788C28.7931 21.6847 29.4849 22 30.25 22C31.7663 22 33 20.7663 33 19.25C33 17.7337 31.7663 16.5 30.25 16.5C28.7337 16.5 27.5 17.7337 27.5 19.25C27.5 19.6053 27.573 19.9429 27.6963 20.2549L24.4581 22.3601C23.8101 21.5271 22.9687 20.8543 22 20.4077L24.6845 12.9658C25.2323 13.1135 25.806 13.2 26.4 13.2ZM15.95 4.4C15.0404 4.4 14.3 3.65959 14.3 2.75C14.3 1.84041 15.0404 1.1 15.95 1.1C16.8596 1.1 17.6 1.84041 17.6 2.75C17.6 3.65959 16.8596 4.4 15.95 4.4ZM1.1 2.75C1.1 1.84041 1.84041 1.1 2.75 1.1C3.65959 1.1 4.4 1.84041 4.4 2.75C4.4 3.65959 3.65959 4.4 2.75 4.4C1.84041 4.4 1.1 3.65959 1.1 2.75ZM2.75 25.85C1.84041 25.85 1.1 25.1096 1.1 24.2C1.1 23.2904 1.84041 22.55 2.75 22.55C3.65959 22.55 4.4 23.2904 4.4 24.2C4.4 25.1096 3.65959 25.85 2.75 25.85ZM7.7 30.8C6.79041 30.8 6.05 30.0596 6.05 29.15C6.05 28.2404 6.79041 27.5 7.7 27.5C8.6096 27.5 9.35 28.2404 9.35 29.15C9.35 30.0596 8.6096 30.8 7.7 30.8ZM30.25 17.6C31.1596 17.6 31.9 18.3404 31.9 19.25C31.9 20.1596 31.1596 20.9 30.25 20.9C29.3404 20.9 28.6 20.1596 28.6 19.25C28.6 18.3404 29.3404 17.6 30.25 17.6ZM23.161 11.0352C23.4064 9.76304 24.5279 8.8 25.85 8.8H26.95C28.2721 8.8 29.3936 9.76304 29.639 11.0352C28.7292 11.7012 27.6117 12.1 26.4 12.1C25.1883 12.1 24.0708 11.7012 23.161 11.0352ZM26.4 7.7C25.4904 7.7 24.75 6.95959 24.75 6.05C24.75 5.14041 25.4904 4.4 26.4 4.4C27.3096 4.4 28.05 5.14041 28.05 6.05C28.05 6.95959 27.3096 7.7 26.4 7.7ZM26.4 1.1C29.4328 1.1 31.9 3.56721 31.9 6.6C31.9 7.975 31.3889 9.2313 30.5513 10.1965C30.1659 9.18162 29.3624 8.37166 28.3613 7.97178C28.8481 7.47549 29.15 6.79792 29.15 6.05C29.15 4.53374 27.9163 3.3 26.4 3.3C24.8837 3.3 23.65 4.53374 23.65 6.05C23.65 6.79792 23.9519 7.47549 24.4387 7.97178C23.4376 8.37166 22.6341 9.18162 22.2487 10.1965C21.4111 9.2313 20.9 7.975 20.9 6.6C20.9 3.56721 23.3672 1.1 26.4 1.1ZM2.75 14.3C2.75 11.2672 5.21721 8.8 8.25 8.8C11.2828 8.8 13.75 11.2672 13.75 14.3C13.75 15.6793 13.2357 16.9388 12.3938 17.9053C12.0098 16.8867 11.2046 16.0727 10.2008 15.6718C10.6871 15.1755 10.989 14.4979 10.989 13.75C10.989 12.2337 9.75525 11 8.23899 11C6.72273 11 5.48899 12.2337 5.48899 13.75C5.48899 14.4979 5.79084 15.1755 6.27773 15.6718C5.27952 16.0698 4.47708 16.8768 4.09036 17.8876C3.25757 16.9235 2.75 15.6712 2.75 14.3ZM6.58899 13.75C6.58899 12.8404 7.32939 12.1 8.23899 12.1C9.14858 12.1 9.88899 12.8404 9.88899 13.75C9.88899 14.6596 9.14858 15.4 8.23899 15.4C7.32939 15.4 6.58899 14.6596 6.58899 13.75ZM5.00183 18.7279C5.24971 17.4593 6.36958 16.5 7.68899 16.5H8.78899C10.1135 16.5 11.2371 17.4663 11.4791 18.7424C10.5711 19.4044 9.45715 19.8 8.25 19.8C7.03398 19.8 5.91304 19.3985 5.00183 18.7279ZM16.0018 30.8279C16.2497 29.5593 17.3696 28.6 18.689 28.6H19.789C21.1135 28.6 22.2371 29.5663 22.4791 30.8424C21.5711 31.5044 20.4572 31.9 19.25 31.9C18.034 31.9 16.913 31.4985 16.0018 30.8279ZM19.239 27.5C18.3294 27.5 17.589 26.7596 17.589 25.85C17.589 24.9404 18.3294 24.2 19.239 24.2C20.1486 24.2 20.889 24.9404 20.889 25.85C20.889 26.7596 20.1486 27.5 19.239 27.5ZM24.75 26.4C24.75 27.7793 24.2357 29.0388 23.3938 30.0053C23.0098 28.9867 22.2046 28.1727 21.2008 27.7718C21.6871 27.2755 21.989 26.5979 21.989 25.85C21.989 24.3337 20.7552 23.1 19.239 23.1C17.7227 23.1 16.489 24.3337 16.489 25.85C16.489 26.5979 16.7908 27.2755 17.2777 27.7718C16.2795 28.1698 15.4771 28.9768 15.0904 29.9876C14.2576 29.0235 13.75 27.7712 13.75 26.4C13.75 23.3672 16.2172 20.9 19.25 20.9C22.2828 20.9 24.75 23.3672 24.75 26.4ZM20.9655 20.0342C20.4177 19.8865 19.844 19.8 19.25 19.8C17.7407 19.8 16.3526 20.3148 15.2394 21.1707L13.0746 18.7892C14.1724 17.6099 14.85 16.0346 14.85 14.3C14.85 13.5795 14.7302 12.8877 14.5156 12.238L20.5646 9.67441C21.2421 10.9554 22.3295 11.9834 23.6505 12.5923L20.9655 20.0342Z" fill="black"/>
</g>
<defs>
<clipPath id="clip0">
<rect width="33" height="33" fill="white"/>
</clipPath>
</defs>
</svg>
