<svg width="19" height="19" viewBox="0 0 19 19" fill="none" xmlns="http://www.w3.org/2000/svg">
<path d="M15.0293 5.08398H15.4004V5.45508C15.4004 5.76249 15.6496 6.01172 15.957 6.01172C16.2644 6.01172 16.5137 5.76249 16.5137 5.45508V5.08398H16.8848C17.1922 5.08398 17.4414 4.83476 17.4414 4.52734C17.4414 4.21993 17.1922 3.9707 16.8848 3.9707H16.5137V3.59961C16.5137 3.2922 16.2644 3.04297 15.957 3.04297C15.6496 3.04297 15.4004 3.2922 15.4004 3.59961V3.9707H15.0293C14.7219 3.9707 14.4727 4.21993 14.4727 4.52734C14.4727 4.83476 14.7219 5.08398 15.0293 5.08398Z" fill="#333333"/>
<path d="M2.04102 2.7832H2.41211V3.1543C2.41211 3.46171 2.66134 3.71094 2.96875 3.71094C3.27616 3.71094 3.52539 3.46171 3.52539 3.1543V2.7832H3.89648C4.2039 2.7832 4.45313 2.53398 4.45313 2.22656C4.45313 1.91915 4.2039 1.66992 3.89648 1.66992H3.52539V1.29883C3.52539 0.991414 3.27616 0.742188 2.96875 0.742188C2.66134 0.742188 2.41211 0.991414 2.41211 1.29883V1.66992H2.04102C1.7336 1.66992 1.48438 1.91915 1.48438 2.22656C1.48438 2.53398 1.7336 2.7832 2.04102 2.7832Z" fill="#333333"/>
<path d="M10.7988 11.6523C10.7701 11.6523 10.7412 11.6528 10.7121 11.6535C10.1928 10.078 8.71061 8.98047 7.01367 8.98047C4.97715 8.98047 3.30047 10.5509 3.13125 12.5444C1.39576 12.596 0 14.0238 0 15.7715C0 17.5517 1.4483 19 3.22852 19H10.7988C12.8246 19 14.4727 17.3519 14.4727 15.3262C14.4727 13.3004 12.8246 11.6523 10.7988 11.6523Z" fill="#333333"/>
<path d="M17.7012 15.8457H17.3301V15.4746C17.3301 15.1672 17.0809 14.918 16.7734 14.918C16.466 14.918 16.2168 15.1672 16.2168 15.4746V15.8457H15.8457C15.5383 15.8457 15.2891 16.0949 15.2891 16.4023C15.2891 16.7098 15.5383 16.959 15.8457 16.959H16.2168V17.3301C16.2168 17.6375 16.466 17.8867 16.7734 17.8867C17.0809 17.8867 17.3301 17.6375 17.3301 17.3301V16.959H17.7012C18.0086 16.959 18.2578 16.7098 18.2578 16.4023C18.2578 16.0949 18.0086 15.8457 17.7012 15.8457Z" fill="#333333"/>
<path d="M18.879 9.38788C18.7408 9.2151 18.5133 9.14051 18.2997 9.1981C17.7867 9.33618 17.2733 9.40617 16.7739 9.40617C13.5397 9.40617 10.9084 6.77489 10.9084 3.54059C10.9084 2.58261 11.1351 1.66586 11.5823 0.815833C11.6853 0.620006 11.6625 0.381764 11.5243 0.208946C11.3861 0.0362016 11.1588 -0.0383883 10.945 0.0191684C7.90465 0.837467 5.78125 3.60594 5.78125 6.75166C5.78125 7.17323 5.81854 7.58804 5.89143 7.99464C6.25666 7.9107 6.63306 7.86721 7.01465 7.86721C8.91785 7.86721 10.6238 8.93307 11.47 10.5858C13.1003 10.8153 14.4696 11.8691 15.1415 13.3107C15.6309 13.133 16.1007 12.9008 16.5406 12.6162C17.5493 11.9639 18.378 11.0574 18.937 9.99473C19.04 9.7989 19.0172 9.56066 18.879 9.38788Z" fill="#333333"/>
</svg>
