<svg width="31" height="31" viewBox="0 0 31 31" fill="none" xmlns="http://www.w3.org/2000/svg">
<path d="M12.2012 28.5781H5.84375C4.50833 28.5781 3.42188 27.4917 3.42188 26.1562V16.2266C3.42188 14.8911 4.50833 13.8047 5.84375 13.8047H23.2812C24.6167 13.8047 25.7031 14.8911 25.7031 16.2266V17.498C25.7031 18.1668 26.2453 18.709 26.9141 18.709C27.5829 18.709 28.125 18.1668 28.125 17.498V16.2266C28.125 13.5557 25.9521 11.3828 23.2812 11.3828H21.8259V7.1122C21.8259 3.19052 18.5665 0 14.5603 0C10.554 0 7.29463 3.19052 7.29463 7.1122V11.3828H5.84375C3.17291 11.3828 1 13.5557 1 16.2266V26.1562C1 28.8271 3.17291 31 5.84375 31H12.2012C12.87 31 13.4121 30.4579 13.4121 29.7891C13.4121 29.1203 12.87 28.5781 12.2012 28.5781ZM9.71651 7.1122C9.71651 4.52594 11.8894 2.42188 14.5603 2.42188C17.2311 2.42188 19.404 4.52594 19.404 7.1122V11.3828H9.71651V7.1122Z" fill="black"/>
<path d="M12.3223 22.1602C12.991 22.1602 13.5332 21.618 13.5332 20.9492C13.5332 20.2804 12.991 19.7383 12.3223 19.7383C11.6535 19.7383 11.1113 20.2804 11.1113 20.9492C11.1113 21.618 11.6535 22.1602 12.3223 22.1602Z" fill="black"/>
<path d="M29.7818 24.4308C29.7392 24.3702 29.5932 24.1635 29.5024 24.0494C29.097 23.5395 28.1476 22.3452 26.8267 21.291C25.1331 19.9392 23.3902 19.2539 21.6465 19.2539C19.9028 19.2539 18.1599 19.9392 16.4663 21.2909C15.1452 22.3452 14.1959 23.5394 13.7909 24.0489C13.6999 24.1632 13.5538 24.3701 13.5112 24.4307C13.2177 24.8484 13.2176 25.4053 13.511 25.8229C13.5537 25.8837 13.6999 26.0906 13.7906 26.2045C14.1959 26.7144 15.1452 27.9086 16.4663 28.963C18.1599 30.3147 19.9028 31 21.6465 31C23.3902 31 25.133 30.3147 26.8267 28.963C28.1476 27.9087 29.0971 26.7146 29.5026 26.2044C29.5933 26.0903 29.7392 25.8837 29.7818 25.8231C30.0753 25.4054 30.0753 24.8485 29.7818 24.4308ZM21.6465 28.5781C19.8479 28.5781 17.9627 27.4178 16.0373 25.127C17.9626 22.8362 19.8478 21.6758 21.6465 21.6758C23.4449 21.6758 25.3303 22.8364 27.2557 25.127C25.3303 27.4177 23.4451 28.5781 21.6465 28.5781Z" fill="black"/>
<path d="M7.78125 22.1602C8.45003 22.1602 8.99219 21.618 8.99219 20.9492C8.99219 20.2804 8.45003 19.7383 7.78125 19.7383C7.11247 19.7383 6.57031 20.2804 6.57031 20.9492C6.57031 21.618 7.11247 22.1602 7.78125 22.1602Z" fill="black"/>
<path d="M21.707 27.4277C22.9777 27.4277 24.0078 26.3976 24.0078 25.127C24.0078 23.8563 22.9777 22.8262 21.707 22.8262C20.4363 22.8262 19.4062 23.8563 19.4062 25.127C19.4062 26.3976 20.4363 27.4277 21.707 27.4277Z" fill="black"/>
</svg>
