<svg width="30" height="30" viewBox="0 0 30 30" fill="none" xmlns="http://www.w3.org/2000/svg">
<g clip-path="url(#clip0)">
<path d="M17.0275 29.1182H5.14026C4.53893 29.1182 4.04977 28.6293 4.04977 28.0283V22.1426C4.04977 21.899 3.85242 21.7017 3.60887 21.7017C3.36532 21.7017 3.16797 21.899 3.16797 22.1426V28.0283C3.16797 29.1155 4.05277 30 5.14026 30H17.0275C17.271 30 17.4684 29.8026 17.4684 29.5591C17.4684 29.3155 17.271 29.1182 17.0275 29.1182Z" fill="black"/>
<path d="M19.0719 27.0483C19.0719 26.8048 18.8745 26.6074 18.631 26.6074H7.47606C7.2325 26.6074 7.03516 26.8048 7.03516 27.0483C7.03516 27.2919 7.2325 27.4892 7.47606 27.4892H18.631C18.8745 27.4892 19.0719 27.2919 19.0719 27.0483Z" fill="black"/>
<path d="M26.8272 19.0848C26.8268 18.8416 26.6295 18.6448 26.3863 18.6448C26.386 18.6448 26.3858 18.6448 26.3855 18.6448C26.1419 18.6453 25.945 18.8431 25.9454 19.0866L25.949 20.8409C25.9493 21.2462 25.6206 21.5765 25.2164 21.5771L12.8099 21.5959V14.1182H25.9363L25.9419 17.0878C25.9424 17.331 26.1397 17.5278 26.3828 17.5278H26.3837C26.6272 17.5274 26.8242 17.3296 26.8237 17.086L26.8084 9.0619C26.806 8.17175 26.0815 7.44885 25.193 7.44885C25.1921 7.44885 25.191 7.44885 25.1901 7.44885L22.9408 7.45144V1.9717C22.9409 0.884504 22.0564 0 20.9692 0H5.14026C4.05277 0 3.16797 0.884504 3.16797 1.9717V20.1438C3.16797 20.3874 3.36532 20.5847 3.60887 20.5847C3.85242 20.5847 4.04977 20.3874 4.04977 20.1438V1.9717C4.04977 1.37073 4.53899 0.881799 5.14026 0.881799H6.71856V2.18263C6.71856 3.01693 7.39737 3.69574 8.23167 3.69574H17.8777C18.7118 3.69574 19.3903 3.01693 19.3903 2.18263V0.881799H20.9691C21.5701 0.881799 22.059 1.37073 22.059 1.9717V7.45244L12.8098 7.46302V6.56412C12.8098 6.32056 12.6125 6.12322 12.3689 6.12322C12.1253 6.12322 11.928 6.32056 11.928 6.56412V23.4947C11.928 23.7382 12.1253 23.9356 12.3689 23.9356C12.6125 23.9356 12.8098 23.7382 12.8098 23.4947V22.4776L22.059 22.4636V28.0283C22.059 28.6293 21.5701 29.1182 20.9691 29.1182H19.085C18.8414 29.1182 18.6441 29.3155 18.6441 29.5591C18.6441 29.8026 18.8414 30 19.085 30H20.9691C22.0563 30 22.9408 29.1155 22.9408 28.0283V22.4623L25.2178 22.4588C26.1079 22.4573 26.8315 21.7311 26.8307 20.8396L26.8272 19.0848ZM18.5085 2.18263C18.5085 2.53076 18.2256 2.81394 17.8778 2.81394H8.23167C7.88354 2.81394 7.60036 2.53076 7.60036 2.18263V0.881799H18.5085V2.18263ZM12.8099 13.2364V10.8261H25.93L25.9346 13.2364H12.8099ZM25.1914 8.33065H25.1927C25.5964 8.33065 25.9255 8.6595 25.9266 9.06402L25.9283 9.9444H12.8099V8.34488L25.1914 8.33065Z" fill="black"/>
<path d="M20.4641 16.2192C19.9465 16.2192 19.5254 16.6403 19.5254 17.1579V18.8819C19.5254 19.3995 19.9465 19.8206 20.4641 19.8206H23.9363C24.4539 19.8206 24.875 19.3995 24.875 18.8819V17.1579C24.875 16.6403 24.4539 16.2192 23.9363 16.2192H20.4641ZM23.9932 17.1579V18.8819C23.9932 18.9132 23.9676 18.9388 23.9363 18.9388H20.4641C20.4328 18.9388 20.4072 18.9132 20.4072 18.8819V17.1579C20.4072 17.1266 20.4328 17.101 20.4641 17.101H23.9363C23.9677 17.101 23.9932 17.1266 23.9932 17.1579Z" fill="black"/>
</g>
<defs>
<clipPath id="clip0">
<rect width="30" height="30" fill="white"/>
</clipPath>
</defs>
</svg>
