<svg width="21" height="30" viewBox="0 0 21 30" fill="none" xmlns="http://www.w3.org/2000/svg">
<path d="M10.5151 25.2038L4.83688 19.6433L6.67492 18.0327L10.5101 21.7884L14.3226 18.035L16.1653 19.641L10.5151 25.2038ZM21 22.9688V7.03125C21 3.15422 17.595 0 13.4096 0H7.59036C3.40504 0 0 3.15422 0 7.03125V22.9688C0 26.8458 3.40504 30 7.59036 30H13.4096C17.595 30 21 26.8458 21 22.9688ZM13.4096 2.34375C16.1999 2.34375 18.4699 4.44649 18.4699 7.03125V22.9688C18.4699 25.5535 16.1999 27.6562 13.4096 27.6562H7.59036C4.80006 27.6562 2.53012 25.5535 2.53012 22.9688V7.03125C2.53012 4.44649 4.80006 2.34375 7.59036 2.34375H13.4096ZM10.5 4.74609C9.80125 4.74609 9.23494 5.27069 9.23494 5.91797C9.23494 6.56525 9.80125 7.08984 10.5 7.08984C11.1987 7.08984 11.7651 6.56525 11.7651 5.91797C11.7651 5.27069 11.1987 4.74609 10.5 4.74609ZM10.5 9.43359C9.80125 9.43359 9.23494 9.95819 9.23494 10.6055C9.23494 11.2527 9.80125 11.7773 10.5 11.7773C11.1987 11.7773 11.7651 11.2527 11.7651 10.6055C11.7651 9.95819 11.1987 9.43359 10.5 9.43359ZM10.5 14.1211C9.80125 14.1211 9.23494 14.6457 9.23494 15.293C9.23494 15.9402 9.80125 16.4648 10.5 16.4648C11.1987 16.4648 11.7651 15.9402 11.7651 15.293C11.7651 14.6457 11.1987 14.1211 10.5 14.1211Z" fill="#282828"/>
</svg>
