<svg width="47" height="47" viewBox="0 0 47 47" fill="none" xmlns="http://www.w3.org/2000/svg">
<circle cx="23.5" cy="23.5" r="23.5" fill="#282828"/>
<path d="M27.0241 15.4026C23.8203 12.1991 18.606 12.1991 15.4023 15.4026C12.1992 18.6069 12.1992 23.8201 15.4023 27.0244C18.2553 29.8765 22.6987 30.1821 25.9004 27.9549C25.9677 28.2737 26.1219 28.5779 26.3699 28.8258L31.0355 33.4911C31.7154 34.1696 32.8141 34.1696 33.4906 33.4911C34.1698 32.812 34.1698 31.7133 33.4906 31.0362L28.8249 26.3695C28.5784 26.1237 28.2735 25.9688 27.9547 25.9014C30.1834 22.6993 29.8778 18.2569 27.0241 15.4026ZM25.551 25.5514C23.1592 27.9431 19.2665 27.9431 16.8753 25.5514C14.4848 23.1597 14.4848 19.268 16.8753 16.8763C19.2665 14.4853 23.1592 14.4853 25.551 16.8763C27.9429 19.268 27.9429 23.1597 25.551 25.5514Z" fill="#B59E5C"/>
</svg>
