<svg width="53" height="53" viewBox="0 0 53 53" fill="none" xmlns="http://www.w3.org/2000/svg">
<g clip-path="url(#clip0)">
<path d="M19.2205 13.3422C21.9789 13.3422 24.3824 12.7317 26.0869 11.611C27.7913 12.7318 30.1949 13.3422 32.9533 13.3422C38.3733 13.3422 42.0859 12.2603 44.3035 10.0346C45.7998 8.53279 46.5538 6.53598 46.5448 4.09818C46.5406 3.27358 46.0515 2.52578 45.2985 2.19319C44.5467 1.86069 43.6649 2.00065 43.0505 2.55166C41.0667 4.33844 39.4692 4.18824 36.2133 1.90945C34.3785 0.624613 32.5633 0 30.6644 0C28.5839 0 27.0482 0.94634 26.0869 1.68865C25.1255 0.94634 23.5899 0 21.5093 0C19.6351 0 17.8408 0.610742 16.0243 1.86721C12.7044 4.16226 11.0919 4.32198 9.12305 2.55156C8.50838 1.99816 7.62466 1.85779 6.87511 2.19329C6.12213 2.52599 5.63302 3.27368 5.62899 4.09943C5.61998 6.53556 6.37419 8.53238 7.87041 10.0341C10.0883 12.2601 13.8009 13.3422 19.2205 13.3422Z" fill="#282828"/>
<path d="M20.8984 16.3813C21.2193 18.9589 23.4242 20.9598 26.0877 20.9598C28.7511 20.9598 30.956 18.9589 31.2769 16.3813C29.3598 16.2271 27.6083 15.8047 26.0877 15.1309C24.567 15.8047 22.8155 16.2271 20.8984 16.3813Z" fill="#282828"/>
<path d="M47.9201 10.457C47.5163 11.0937 47.0433 11.6847 46.504 12.2261C43.8954 14.8451 39.9245 16.2229 34.3937 16.4226C34.0407 20.6958 30.4508 24.0652 26.0876 24.0652C21.7244 24.0652 18.1345 20.6958 17.7815 16.4226C12.2506 16.2229 8.27979 14.8451 5.67119 12.2261C5.37824 11.9321 5.10496 11.6237 4.85238 11.3007C4.56771 12.518 4.42383 13.7509 4.42383 14.9807C4.42383 17.0582 4.81408 19.0975 5.53973 20.9401C6.51174 19.5126 7.9475 18.4195 9.63998 17.8853C10.4578 17.6265 11.3304 18.081 11.5881 18.8987C11.8459 19.7165 11.3925 20.5881 10.5747 20.8469C8.98369 21.3489 7.77049 22.6719 7.40922 24.2981C7.23531 25.1945 7.14836 26.12 7.14836 27.0589C7.14836 30.3082 8.25391 33.3485 10.0986 35.5471C10.6741 33.7066 11.9246 32.1073 13.6357 31.1167C14.3779 30.6881 15.3282 30.9407 15.7578 31.6829C16.1873 32.4262 15.9337 33.3754 15.1915 33.805C13.7475 34.6404 12.85 36.1952 12.85 37.8607C13.1398 39.8824 13.8137 41.814 14.8199 43.4951C16.0259 45.5116 17.6521 47.0633 19.5216 47.9845C20.7193 48.5756 22.5204 49.6253 24.3185 51.9037C24.8692 52.6003 25.6642 52.9999 26.5006 52.9999C27.338 52.9999 28.133 52.6003 28.6827 51.9037C30.0533 50.1667 31.5087 48.9752 33.403 48.0394C35.2736 47.1119 36.905 45.554 38.1213 43.5323C39.1357 41.8461 39.8241 39.9021 40.1315 37.8669V37.8607C40.1315 36.1952 39.2341 34.6404 37.79 33.805C37.0478 33.3754 36.7942 32.4262 37.2238 31.6829C37.6534 30.9407 38.6026 30.6881 39.3448 31.1167C41.0508 32.1042 42.2981 33.6953 42.8768 35.5285C44.6811 33.3371 45.7628 30.3062 45.7628 27.0589C45.7628 26.121 45.6748 25.1966 45.5019 24.3002C45.122 22.705 43.9751 21.3417 42.4058 20.8469C41.588 20.5881 41.1346 19.7165 41.3934 18.8987C41.6511 18.081 42.5228 17.6265 43.3405 17.8853C45.0237 18.4163 46.4512 19.4991 47.4232 20.9131C48.1737 19.0612 48.5774 17.0292 48.5774 14.9807C48.5774 13.4766 48.3569 11.957 47.9201 10.457Z" fill="#282828"/>
</g>
<defs>
<clipPath id="clip0">
<rect width="53" height="53" fill="white"/>
</clipPath>
</defs>
</svg>
