<svg width="30" height="30" viewBox="0 0 30 30" fill="none" xmlns="http://www.w3.org/2000/svg">
<g clip-path="url(#clip0)">
<path d="M2.92969 16.8223C2.60628 16.8223 2.34375 17.0848 2.34375 17.4082C2.34375 17.7316 2.60628 17.9941 2.92969 17.9941C3.2531 17.9941 3.51563 17.7316 3.51563 17.4082C3.51563 17.0848 3.2531 16.8223 2.92969 16.8223Z" fill="black"/>
<path d="M26.9307 18.8541L21.4069 20.7531C21.4314 20.6171 21.4451 20.4784 21.4451 20.3377C21.4451 19.0454 20.3939 17.9939 19.1014 17.9939H15.307C15.2063 17.9939 15.1069 17.9681 15.0193 17.9186L11.9236 16.1775C11.3116 15.8326 10.616 15.6502 9.9122 15.6502H5.75845C5.51675 14.9683 4.86535 14.4785 4.10157 14.4785H0.585939C0.262299 14.4785 0 14.7408 0 15.0645V25.6111C0 25.9348 0.262299 26.1971 0.585939 26.1971H4.10157C4.84796 26.1971 5.48791 25.7281 5.74197 25.0694C6.40527 25.1518 7.17271 25.3479 7.65497 25.6372L10.7192 27.4758C11.8801 28.1725 13.2093 28.5408 14.5633 28.5408C15.6363 28.5408 16.6759 28.3156 17.6535 27.8716L28.5897 23.0561C29.8009 22.5647 30.399 21.1115 29.7066 19.8307C29.1974 18.8882 28.0047 18.4688 26.9307 18.8541ZM4.68751 24.442C4.68614 24.7638 4.42361 25.0252 4.10157 25.0252H1.17188V15.6504H4.10157C4.42452 15.6504 4.68751 15.9131 4.68751 16.2363V24.442ZM28.1445 21.9724C28.1383 21.9746 28.1321 21.9774 28.126 21.9799C28.126 21.9799 17.1735 26.8025 17.1714 26.8034C16.3463 27.1787 15.4688 27.3689 14.5633 27.3689C13.4217 27.3689 12.301 27.0586 11.3223 26.471L8.25784 24.6324C7.60187 24.239 6.66253 23.9991 5.85939 23.903V16.8223H9.9122C10.4148 16.8223 10.9115 16.9523 11.3489 17.1988L14.4445 18.9399C14.7068 19.0877 15.0053 19.166 15.307 19.166H19.1014C19.7475 19.166 20.2732 19.6915 20.2732 20.3379C20.2732 20.9817 19.7473 21.5098 19.1014 21.5098H13.1449C12.8213 21.5098 12.559 21.7721 12.559 22.0957C12.559 22.4191 12.8213 22.6814 13.1449 22.6814H19.1014C19.4857 22.6814 19.864 22.586 20.1998 22.407C20.1998 22.407 27.3214 19.9589 27.3242 19.958C27.8492 19.7684 28.443 19.957 28.6757 20.3878C29.0248 21.0335 28.7362 21.7355 28.1445 21.9724Z" fill="black"/>
<path d="M17.0643 15.6771C17.1746 15.7725 17.3113 15.8201 17.4481 15.8201C17.585 15.8201 17.7219 15.7725 17.832 15.6771C22.6126 11.5338 25.5698 9.43704 25.5698 6.17867C25.5698 3.601 23.7449 1.46484 21.1812 1.46484C19.4976 1.46484 18.2083 2.4353 17.3779 3.89168C16.5493 2.43851 15.2614 1.46484 13.5752 1.46484C11.6126 1.46484 9.97171 2.73674 9.39492 4.7049C9.30383 5.01549 9.4819 5.34096 9.79249 5.43206C10.1031 5.52316 10.4286 5.34508 10.5194 5.03449C10.9463 3.57788 12.1456 2.63672 13.5752 2.63672C15.2468 2.63672 16.4193 4.12102 16.8132 5.50301C16.8835 5.75684 17.1147 5.93263 17.3779 5.93263C17.6413 5.93263 17.8723 5.75684 17.9425 5.50301C17.9505 5.4744 18.7645 2.63672 21.1812 2.63672C23.015 2.63672 24.3979 4.15925 24.3979 6.17867C24.3979 8.78518 21.85 10.6643 17.4477 14.4601C14.7654 12.1566 12.6348 10.5352 11.4237 8.94906C11.2274 8.6918 10.8598 8.64236 10.6025 8.83874C10.3452 9.03512 10.296 9.40271 10.4922 9.6602C11.8572 11.448 14.1616 13.161 17.0643 15.6771Z" fill="black"/>
<path d="M9.90235 6.62695C9.57894 6.62695 9.31641 6.88948 9.31641 7.21289C9.31641 7.5363 9.57894 7.79883 9.90235 7.79883C10.2258 7.79883 10.4883 7.5363 10.4883 7.21289C10.4883 6.88948 10.2258 6.62695 9.90235 6.62695Z" fill="black"/>
</g>
<defs>
<clipPath id="clip0">
<rect width="30" height="30" fill="white"/>
</clipPath>
</defs>
</svg>
